<svg xmlns="http://www.w3.org/2000/svg" xmlns:xlink="http://www.w3.org/1999/xlink" viewBox="0 0 800 800"><defs><style>.cls-1,.cls-35,.cls-37,.cls-41,.cls-69,.cls-96{fill:none;}.cls-2{isolation:isolate;}.cls-3{fill:url(#未命名漸層_9);}.cls-4{fill:url(#未命名漸層_8);}.cls-5,.cls-6,.cls-7{fill:#fff;}.cls-5,.cls-8{opacity:0.2;}.cls-6,.cls-71{opacity:0.6;}.cls-9{fill:url(#未命名漸層_581);}.cls-10{mix-blend-mode:hard-light;fill:url(#未命名漸層_585);}.cls-11{fill:#24232a;}.cls-12{fill:#303636;}.cls-13{fill:#2c2f32;}.cls-14{clip-path:url(#clip-path);}.cls-15{fill:#2a2f2f;}.cls-16{fill:#262a2a;}.cls-17{fill:#483931;}.cls-18{fill:#ffeaa8;}.cls-19{fill:#372c26;}.cls-20{fill:#47372f;opacity:0.3;}.cls-21{fill:#2d221d;}.cls-22{clip-path:url(#clip-path-2);}.cls-23{fill:#323737;}.cls-24{fill:#292d2d;}.cls-25{fill:#231914;}.cls-26{fill:#2b3030;}.cls-27{fill:#2e3333;}.cls-28{fill:#2d3333;}.cls-29{fill:#393f3f;}.cls-30{fill:#2f3333;}.cls-31{fill:url(#未命名漸層_4);}.cls-32{fill:#332721;}.cls-33{fill:#3f3029;}.cls-34{fill:#2a1e18;}.cls-35{stroke:#241f1c;}.cls-35,.cls-41{stroke-linecap:round;stroke-linejoin:round;}.cls-35,.cls-69{stroke-width:3px;}.cls-36{fill:#4a2929;}.cls-37{stroke:#47412e;}.cls-37,.cls-69,.cls-96{stroke-miterlimit:10;}.cls-38{writing-mode:tb;text-orientation:upright;glyph-orientation-vertical:0deg;}.cls-38,.cls-66{font-size:12.86px;font-family:DFWaWa-W7-WIN-BF, DFWaWaW7-B5;letter-spacing:0.42em;}.cls-38,.cls-66,.cls-67{fill:#4e462f;}.cls-39{fill:#6d281c;}.cls-40,.cls-73{opacity:0.8;mix-blend-mode:overlay;}.cls-40{fill:url(#未命名漸層_576);}.cls-41{stroke:#5a4221;}.cls-42{fill:#574329;}.cls-43{fill:url(#未命名漸層_2);}.cls-44{fill:url(#未命名漸層_2-2);}.cls-45{fill:url(#未命名漸層_2-3);}.cls-46{fill:url(#未命名漸層_2-4);}.cls-47{fill:url(#未命名漸層_2-5);}.cls-48{fill:url(#未命名漸層_2-6);}.cls-49{fill:url(#未命名漸層_2-7);}.cls-50{fill:url(#未命名漸層_2-8);}.cls-51{fill:url(#未命名漸層_2-9);}.cls-52{fill:url(#未命名漸層_2-10);}.cls-53{fill:url(#未命名漸層_2-11);}.cls-54{fill:url(#未命名漸層_2-12);}.cls-55{fill:url(#未命名漸層_2-13);}.cls-56{fill:url(#未命名漸層_2-14);}.cls-57{fill:url(#未命名漸層_2-15);}.cls-58{fill:url(#未命名漸層_2-16);}.cls-59{fill:url(#未命名漸層_2-17);}.cls-60{fill:url(#未命名漸層_2-18);}.cls-61{fill:url(#未命名漸層_2-19);}.cls-62{fill:url(#未命名漸層_2-20);}.cls-63{fill:url(#未命名漸層_2-21);}.cls-64{fill:url(#未命名漸層_2-22);}.cls-65{fill:#5a4221;}.cls-68{fill:#4e3d1f;}.cls-69{stroke:#483527;}.cls-70{fill:#514323;}.cls-71{fill:#443628;}.cls-72{fill:#292828;opacity:0.36;}.cls-73{fill:url(#未命名漸層_576-2);}.cls-74{fill:url(#未命名漸層_2-23);}.cls-75{fill:url(#未命名漸層_2-24);}.cls-76{fill:url(#未命名漸層_2-25);}.cls-77{fill:url(#未命名漸層_2-26);}.cls-78{fill:url(#未命名漸層_2-27);}.cls-79{fill:url(#未命名漸層_2-28);}.cls-80{fill:url(#未命名漸層_2-29);}.cls-81{fill:url(#未命名漸層_2-30);}.cls-82{fill:url(#未命名漸層_2-31);}.cls-83{fill:url(#未命名漸層_2-32);}.cls-84{fill:url(#未命名漸層_2-33);}.cls-85{fill:url(#未命名漸層_2-34);}.cls-86{fill:url(#未命名漸層_2-35);}.cls-87{fill:url(#未命名漸層_2-36);}.cls-88{fill:url(#未命名漸層_2-37);}.cls-89{fill:url(#未命名漸層_2-38);}.cls-90{fill:url(#未命名漸層_2-39);}.cls-91{fill:url(#未命名漸層_2-40);}.cls-92{fill:url(#未命名漸層_2-41);}.cls-93{fill:url(#未命名漸層_2-42);}.cls-94{fill:url(#未命名漸層_2-43);}.cls-95{fill:url(#未命名漸層_2-44);}.cls-96{stroke:#ffeaa8;}</style><linearGradient id="未命名漸層_9" x1="400" y1="626.73" x2="400" y2="-20.96" gradientUnits="userSpaceOnUse"><stop offset="0" stop-color="#2b2c32"/><stop offset="0.19" stop-color="#3d293e"/><stop offset="0.4" stop-color="#4d2649"/><stop offset="0.54" stop-color="#38244e"/><stop offset="0.68" stop-color="#282251"/><stop offset="0.9" stop-color="#17183e"/><stop offset="0.98" stop-color="#101336"/><stop offset="1" stop-color="#090c20"/></linearGradient><linearGradient id="未命名漸層_8" x1="400" y1="766.61" x2="400" y2="564.47" gradientUnits="userSpaceOnUse"><stop offset="0" stop-color="#2b2c32"/><stop offset="1" stop-color="#25252a"/></linearGradient><radialGradient id="未命名漸層_581" cx="338.79" cy="371.43" r="147.4" gradientUnits="userSpaceOnUse"><stop offset="0.35" stop-color="#f5ae07"/><stop offset="0.73" stop-color="#f5c346"/><stop offset="1" stop-color="#f5d06e"/></radialGradient><radialGradient id="未命名漸層_585" cx="343.8" cy="369.18" r="174.28" gradientUnits="userSpaceOnUse"><stop offset="0.35" stop-color="#f5d207"/><stop offset="0.54" stop-color="#f5d207" stop-opacity="0.67"/><stop offset="0.77" stop-color="#f5d207" stop-opacity="0.31"/><stop offset="0.92" stop-color="#f5d207" stop-opacity="0.09"/><stop offset="1" stop-color="#f5d207" stop-opacity="0"/></radialGradient><clipPath id="clip-path"><rect class="cls-1" y="386.12" width="334.33" height="85.33"/></clipPath><clipPath id="clip-path-2"><rect class="cls-1" x="465.67" y="386.12" width="334.33" height="85.33"/></clipPath><linearGradient id="未命名漸層_4" x1="400.05" y1="417.94" x2="400.05" y2="634.33" gradientUnits="userSpaceOnUse"><stop offset="0" stop-color="#362923"/><stop offset="1" stop-color="#2d221d"/></linearGradient><radialGradient id="未命名漸層_576" cx="538.11" cy="355.39" r="26.34" gradientTransform="translate(0 101.29) scale(1 0.88)" gradientUnits="userSpaceOnUse"><stop offset="0" stop-color="#e8ad0a"/><stop offset="1" stop-color="#e8ad0a" stop-opacity="0"/></radialGradient><linearGradient id="未命名漸層_2" x1="546.89" y1="447.02" x2="546.89" y2="471.35" gradientUnits="userSpaceOnUse"><stop offset="0.1" stop-color="#604e1e"/><stop offset="1" stop-color="#624323"/></linearGradient><linearGradient id="未命名漸層_2-2" x1="546.07" y1="447.02" x2="546.07" y2="471.35" xlink:href="#未命名漸層_2"/><linearGradient id="未命名漸層_2-3" x1="545.25" y1="447.02" x2="545.25" y2="471.35" xlink:href="#未命名漸層_2"/><linearGradient id="未命名漸層_2-4" x1="544.43" y1="447.02" x2="544.43" y2="471.35" xlink:href="#未命名漸層_2"/><linearGradient id="未命名漸層_2-5" x1="543.61" y1="447.02" x2="543.61" y2="471.35" xlink:href="#未命名漸層_2"/><linearGradient id="未命名漸層_2-6" x1="542.79" y1="447.02" x2="542.79" y2="471.35" xlink:href="#未命名漸層_2"/><linearGradient id="未命名漸層_2-7" x1="541.97" y1="447.02" x2="541.97" y2="471.35" xlink:href="#未命名漸層_2"/><linearGradient id="未命名漸層_2-8" x1="541.15" y1="447.02" x2="541.15" y2="471.35" xlink:href="#未命名漸層_2"/><linearGradient id="未命名漸層_2-9" x1="540.33" y1="447.02" x2="540.33" y2="471.35" xlink:href="#未命名漸層_2"/><linearGradient id="未命名漸層_2-10" x1="539.51" y1="447.02" x2="539.51" y2="471.35" xlink:href="#未命名漸層_2"/><linearGradient id="未命名漸層_2-11" x1="538.69" y1="447.02" x2="538.69" y2="471.35" xlink:href="#未命名漸層_2"/><linearGradient id="未命名漸層_2-12" x1="537.87" y1="447.02" x2="537.87" y2="471.35" xlink:href="#未命名漸層_2"/><linearGradient id="未命名漸層_2-13" x1="537.05" y1="447.02" x2="537.05" y2="471.35" xlink:href="#未命名漸層_2"/><linearGradient id="未命名漸層_2-14" x1="536.23" y1="447.02" x2="536.23" y2="471.35" xlink:href="#未命名漸層_2"/><linearGradient id="未命名漸層_2-15" x1="535.41" y1="447.02" x2="535.41" y2="471.35" xlink:href="#未命名漸層_2"/><linearGradient id="未命名漸層_2-16" x1="534.59" y1="447.02" x2="534.59" y2="471.35" xlink:href="#未命名漸層_2"/><linearGradient id="未命名漸層_2-17" x1="533.77" y1="447.02" x2="533.77" y2="471.35" xlink:href="#未命名漸層_2"/><linearGradient id="未命名漸層_2-18" x1="532.95" y1="447.02" x2="532.95" y2="471.35" xlink:href="#未命名漸層_2"/><linearGradient id="未命名漸層_2-19" x1="532.13" y1="447.02" x2="532.13" y2="471.35" xlink:href="#未命名漸層_2"/><linearGradient id="未命名漸層_2-20" x1="531.31" y1="447.02" x2="531.31" y2="471.35" xlink:href="#未命名漸層_2"/><linearGradient id="未命名漸層_2-21" x1="530.49" y1="447.02" x2="530.49" y2="471.35" xlink:href="#未命名漸層_2"/><linearGradient id="未命名漸層_2-22" x1="529.67" y1="447.02" x2="529.67" y2="471.35" xlink:href="#未命名漸層_2"/><radialGradient id="未命名漸層_576-2" cx="256.79" cy="355.39" r="26.34" xlink:href="#未命名漸層_576"/><linearGradient id="未命名漸層_2-23" x1="265.57" y1="447.02" x2="265.57" y2="471.35" xlink:href="#未命名漸層_2"/><linearGradient id="未命名漸層_2-24" x1="264.75" y1="447.02" x2="264.75" y2="471.35" xlink:href="#未命名漸層_2"/><linearGradient id="未命名漸層_2-25" x1="263.93" y1="447.02" x2="263.93" y2="471.35" xlink:href="#未命名漸層_2"/><linearGradient id="未命名漸層_2-26" x1="263.11" y1="447.02" x2="263.11" y2="471.35" xlink:href="#未命名漸層_2"/><linearGradient id="未命名漸層_2-27" x1="262.29" y1="447.02" x2="262.29" y2="471.35" xlink:href="#未命名漸層_2"/><linearGradient id="未命名漸層_2-28" x1="261.47" y1="447.02" x2="261.47" y2="471.35" xlink:href="#未命名漸層_2"/><linearGradient id="未命名漸層_2-29" x1="260.65" y1="447.02" x2="260.65" y2="471.35" xlink:href="#未命名漸層_2"/><linearGradient id="未命名漸層_2-30" x1="259.83" y1="447.02" x2="259.83" y2="471.35" xlink:href="#未命名漸層_2"/><linearGradient id="未命名漸層_2-31" x1="259.01" y1="447.02" x2="259.01" y2="471.35" xlink:href="#未命名漸層_2"/><linearGradient id="未命名漸層_2-32" x1="258.19" y1="447.02" x2="258.19" y2="471.35" xlink:href="#未命名漸層_2"/><linearGradient id="未命名漸層_2-33" x1="257.37" y1="447.02" x2="257.37" y2="471.35" xlink:href="#未命名漸層_2"/><linearGradient id="未命名漸層_2-34" x1="256.55" y1="447.02" x2="256.55" y2="471.35" xlink:href="#未命名漸層_2"/><linearGradient id="未命名漸層_2-35" x1="255.73" y1="447.02" x2="255.73" y2="471.35" xlink:href="#未命名漸層_2"/><linearGradient id="未命名漸層_2-36" x1="254.91" y1="447.02" x2="254.91" y2="471.35" xlink:href="#未命名漸層_2"/><linearGradient id="未命名漸層_2-37" x1="254.09" y1="447.02" x2="254.09" y2="471.35" xlink:href="#未命名漸層_2"/><linearGradient id="未命名漸層_2-38" x1="253.27" y1="447.02" x2="253.27" y2="471.35" xlink:href="#未命名漸層_2"/><linearGradient id="未命名漸層_2-39" x1="252.44" y1="447.02" x2="252.44" y2="471.35" xlink:href="#未命名漸層_2"/><linearGradient id="未命名漸層_2-40" x1="251.62" y1="447.02" x2="251.62" y2="471.35" xlink:href="#未命名漸層_2"/><linearGradient id="未命名漸層_2-41" x1="250.8" y1="447.02" x2="250.8" y2="471.35" xlink:href="#未命名漸層_2"/><linearGradient id="未命名漸層_2-42" x1="249.98" y1="447.02" x2="249.98" y2="471.35" xlink:href="#未命名漸層_2"/><linearGradient id="未命名漸層_2-43" x1="249.16" y1="447.02" x2="249.16" y2="471.35" xlink:href="#未命名漸層_2"/><linearGradient id="未命名漸層_2-44" x1="248.34" y1="447.02" x2="248.34" y2="471.35" xlink:href="#未命名漸層_2"/></defs><title>g</title><g class="cls-2"><g id="c"><rect class="cls-3" width="800" height="733.74"/><rect class="cls-4" y="571.01" width="800" height="228.99"/><circle class="cls-5" cx="640.73" cy="263.46" r="1.24"/><circle class="cls-6" cx="343.8" cy="202.93" r="1.24"/><circle class="cls-5" cx="557.18" cy="228.38" r="1.24"/><circle class="cls-6" cx="623.02" cy="235.26" r="1.24"/><circle class="cls-6" cx="613.41" cy="293.3" r="2.47" transform="translate(-3.42 579.36) rotate(-50.43)"/><circle class="cls-6" cx="391.85" cy="122.58" r="2.47" transform="translate(47.76 346.58) rotate(-50.43)"/><circle class="cls-6" cx="641.97" cy="395.88" r="2.47" transform="translate(-72.13 638.61) rotate(-50.43)"/><circle class="cls-5" cx="625.81" cy="356.95" r="1.24" transform="translate(-47.98 612.02) rotate(-50.43)"/><circle class="cls-6" cx="583.75" cy="276.69" r="1.24" transform="translate(-1.38 550.46) rotate(-50.43)"/><circle class="cls-6" cx="455.12" cy="168.43" r="2.47"/><circle class="cls-5" cx="305.04" cy="136.44" r="2.47"/><circle class="cls-5" cx="428" cy="228.38" r="2.47"/><circle class="cls-5" cx="578.34" cy="209" r="2.47"/><circle class="cls-5" cx="173.6" cy="330.68" r="2.47"/><circle class="cls-6" cx="508.51" cy="253.17" r="1.24"/><circle class="cls-6" cx="487.07" cy="207.77" r="1.24"/><circle class="cls-6" cx="198.69" cy="222.19" r="1.24"/><circle class="cls-6" cx="280.29" cy="145.73" r="1.24"/><circle class="cls-6" cx="451.82" cy="275.45" r="1.24" transform="translate(-48.32 448.31) rotate(-50.43)"/><circle class="cls-5" cx="492.01" cy="136.44" r="1.24" transform="translate(73.43 428.82) rotate(-50.43)"/><circle class="cls-6" cx="411.05" cy="186.08" r="1.24" transform="translate(5.78 384.43) rotate(-50.43)"/><circle class="cls-6" cx="160.92" cy="391.62" r="1.24" transform="translate(-243.48 266.22) rotate(-50.43)"/><circle class="cls-6" cx="156.06" cy="248.4" r="1.24" transform="translate(-134.84 210.48) rotate(-50.43)"/><circle class="cls-5" cx="187.11" cy="313.78" r="1.24" transform="translate(-173.97 258.15) rotate(-50.43)"/><circle class="cls-6" cx="644.56" cy="337.86" r="1.24" transform="translate(-26.45 619.54) rotate(-50.43)"/><path class="cls-7" d="M552.77,295.68c0-9.95-2.23-12.18-12.18-12.18,9.95,0,12.18-2.23,12.18-12.18,0,9.95,2.23,12.18,12.18,12.18C555,283.49,552.77,285.73,552.77,295.68Z"/><path class="cls-7" d="M152.2,372.61c0-9.95-2.23-12.18-12.18-12.18,9.95,0,12.18-2.23,12.18-12.18,0,9.95,2.23,12.18,12.18,12.18C154.44,360.43,152.2,362.67,152.2,372.61Z"/><path class="cls-7" d="M639.49,225.2c0-4.48-1-5.48-5.48-5.48,4.48,0,5.48-1,5.48-5.48,0,4.48,1,5.48,5.48,5.48C640.5,219.72,639.49,220.72,639.49,225.2Z"/><path class="cls-7" d="M545.15,144c0-4.48-1-5.48-5.48-5.48,4.48,0,5.48-1,5.48-5.48,0,4.48,1,5.48,5.48,5.48C546.16,138.49,545.15,139.5,545.15,144Z"/><path class="cls-7" d="M654.31,384.75c0-4.48-1-5.48-5.48-5.48,4.48,0,5.48-1,5.48-5.48,0,4.48,1,5.48,5.48,5.48C655.32,379.27,654.31,380.27,654.31,384.75Z"/><path class="cls-7" d="M169.52,228.35c0-4.48-1-5.48-5.48-5.48,4.48,0,5.48-1,5.48-5.48,0,4.48,1,5.48,5.48,5.48C170.52,222.87,169.52,223.88,169.52,228.35Z"/><path class="cls-7" d="M247.16,199.81c0-4.48-1-5.48-5.48-5.48,4.48,0,5.48-1,5.48-5.48,0,4.48,1,5.48,5.48,5.48C248.16,194.33,247.16,195.34,247.16,199.81Z"/><g class="cls-8"><path class="cls-7" d="M537.69,171.17c0-2.24-.5-2.74-2.74-2.74,2.24,0,2.74-.5,2.74-2.74,0,2.24.5,2.74,2.74,2.74C538.19,168.43,537.69,168.93,537.69,171.17Z"/></g><g class="cls-8"><path class="cls-7" d="M213.29,168.7c0-2.24-.5-2.74-2.74-2.74,2.24,0,2.74-.5,2.74-2.74,0,2.24.5,2.74,2.74,2.74C213.79,166,213.29,166.46,213.29,168.7Z"/></g><path class="cls-6" d="M448.91,310.94c8.77-14.17,27.81-17.39,42.28-15.78,10.86,1.21,17.32,4.91,22,11.29,10.9-6.63,27.69-3.69,34.92,6.12,2.37-.91,5.49.47,6.1,2.7,5.89-.49,9.87,4.27,7.79,9.58,10.55-3.86,26.32,8.15,24.09,21.69,5-.41,10,2.83,11,7.14,2.81-1.21,6.59-.13,8.07,2.31a16.35,16.35,0,0,1,14.09,5.5,12.41,12.41,0,0,1,1.37,13.6c5.87-.62,11.16,5.49,9,10.36,3.12.3,5.47,3.45,4.55,6.11,4.73-2.9,11.69-.33,14.76,4s3.31,9.69,3.45,14.78c-74,1.1-199.32,6.53-199.32,6.53s-9.67-86.17-4.15-105.91"/><path class="cls-6" d="M322.37,234.81c-1.64-9.32-11-16.15-23.55-16.65-2.65-7-13-9.18-20.47-7.66-5.74,1.16-11.79,4.59-12.93,10.33a6.42,6.42,0,0,0-9.56,1.69c-7.27-1.7-13.94-2.64-20.93,0-6.18,2.33-12.47,10.56-11.47,16.53-6.46-1.49-18.39,0-24.67,6.83-4.94,5.4-6.15,17.77-.43,23.48-7,3-17.15,8.7-21.62,10.44l70.82,1.74C261.14,278.8,324.43,246.52,322.37,234.81Z"/><circle class="cls-9" cx="338.79" cy="371.43" r="147.4"/><circle class="cls-10" cx="343.8" cy="369.18" r="174.28"/><polygon class="cls-11" points="800.5 628.51 0 628.51 0 658.55 283.51 658.55 301.66 675.93 294.58 678.88 317.35 698.83 569.75 698.83 560.18 691.34 571.86 691.36 560.35 681.05 592.08 681.05 568.13 658.55 800.5 658.55 800.5 628.51"/><rect class="cls-12" x="-0.49" y="428.32" width="801.11" height="205.03"/><rect class="cls-13" x="-0.39" y="594.05" width="801.11" height="43.5"/><g class="cls-14"><path class="cls-15" d="M325.94,452.17c0,.11,0,.26,0,.42v-.41c-14.81,0-29.42,0-30.24,0v-.07c-15.23,0-30.26,0-30.28,0s0,.25,0,.42v-.4c-15.23,0-30.26,0-30.28,0,0,1.6,0,10.21,0,10.25.15,4.7,3.42,7.06,8.69,7.12,4.93,0,7.33-3.5,7.11-8.23l.08-.1a7.42,7.42,0,0,0,7.35,4.63c4.34-.13,6.19-1.87,7.05-3.42v-.07a.62.62,0,0,0,0,.07c.15,4.7,3.42,7.06,8.69,7.12,4.93,0,7.33-3.5,7.11-8.23l.08-.1a7.42,7.42,0,0,0,7.35,4.63c4.28-.13,6.14-1.82,7-3.35h0c.15,4.7,3.42,7.07,8.69,7.12,4.93,0,7.33-3.5,7.11-8.23l.08-.1a7.42,7.42,0,0,0,7.35,4.63c4.34-.13,6.19-1.87,7.05-3.42v-.08a.59.59,0,0,0,0,.08c.15,4.7,3.42,7.07,8.69,7.12,4.93,0,7.33-3.5,7.11-8.23l.08-.1a7.42,7.42,0,0,0,7.35,4.63c4.34-.13,6.19-1.87,7.05-3.42V452.19C341,452.2,326,452.2,325.94,452.17Z"/><path class="cls-15" d="M204.83,452.17c0,.11,0,.26,0,.42v-.41c-14.81,0-29.42,0-30.24,0v-.07c-15.23,0-30.26,0-30.28,0s0,.26,0,.42v-.41c-15.23,0-30.26,0-30.28,0,0,.69,0,2.67,0,4.71v-4.61c-15.23,0-30.26,0-30.28,0s0,.26,0,.42v-.41c-14.81,0-29.42,0-30.24,0v-.07c-15.23,0-30.26,0-30.28,0s0,.26,0,.42v-.41c-15.23,0-30.26,0-30.28,0,0,1.6,0,10.21,0,10.25.15,4.7,3.42,7.06,8.69,7.12,4.93,0,7.33-3.5,7.11-8.23l.08-.1a7.42,7.42,0,0,0,7.35,4.63c4.34-.13,6.19-1.87,7.05-3.42v-.08a.6.6,0,0,0,0,.08c.15,4.7,3.42,7.06,8.69,7.12,4.93,0,7.33-3.5,7.11-8.23l.08-.1a7.42,7.42,0,0,0,7.35,4.63c4.28-.13,6.14-1.82,7-3.35h0c.15,4.7,3.42,7.07,8.69,7.12,4.93,0,7.33-3.5,7.11-8.23l.08-.1a7.42,7.42,0,0,0,7.35,4.63c4.34-.13,6.19-1.87,7.05-3.42v-.08a.64.64,0,0,0,0,.08c.15,4.7,3.42,7.07,8.69,7.12,4.93,0,7.33-3.5,7.11-8.23l.08-.1a7.42,7.42,0,0,0,7.35,4.63c4.34-.13,6.19-1.87,7.05-3.42v-2.33c0,1.3,0,2.23,0,2.24.15,4.7,3.42,7.06,8.69,7.12,4.93,0,7.33-3.5,7.11-8.23l.08-.1a7.42,7.42,0,0,0,7.35,4.63c4.34-.13,6.19-1.87,7.05-3.42v-.08a.59.59,0,0,0,0,.08c.15,4.7,3.42,7.06,8.69,7.12,4.93,0,7.33-3.5,7.11-8.23l.08-.1a7.42,7.42,0,0,0,7.35,4.63c4.28-.13,6.14-1.82,7-3.35h0c.15,4.7,3.42,7.07,8.69,7.12,4.93,0,7.33-3.5,7.11-8.23l.08-.1a7.42,7.42,0,0,0,7.35,4.63c4.34-.13,6.19-1.87,7.05-3.42v-.08a.59.59,0,0,0,0,.08c.15,4.7,3.42,7.07,8.69,7.12,4.93,0,7.33-3.5,7.11-8.23l.08-.1a7.42,7.42,0,0,0,7.35,4.63c4.34-.13,6.19-1.87,7.05-3.42V452.19C219.88,452.2,204.86,452.2,204.83,452.17Z"/><path class="cls-16" d="M235.11,450c0,3.66,0,6.25,0,8,1.2,3.89,4.81,4.29,8.09,4.32,4.93,0,8.46-3.3,7.71-8.23l.08-.1c.91,2.67,3.85,4.63,7.35,4.63,2.89,0,5.65-1,6.74-2.85a7.15,7.15,0,0,0,.31,2.23v-1.78c0,.67,0,1.27,0,1.78,1.2,3.89,4.81,4.29,8.09,4.32,4.93,0,8.46-3.3,7.71-8.23l.08-.1c.91,2.67,3.85,4.63,7.35,4.63,2.89,0,5.65-1,6.74-2.85a7.15,7.15,0,0,0,.27,2.08c0,.08,0,.16,0,.24,1.2,3.89,4.81,4.29,8.09,4.32,4.93,0,8.45-3.3,7.71-8.23l.08-.1c.91,2.67,3.85,4.63,7.35,4.63,2.89,0,5.65-1,6.74-2.85a7.15,7.15,0,0,0,.31,2.23s0-.51,0,0c1.2,3.89,4.81,4.29,8.09,4.32,4.93,0,8.45-3.3,7.71-8.23l.08-.1c.91,2.67,3.85,4.63,7.35,4.63,2.89,0,5.65-1,6.74-2.85a7.15,7.15,0,0,0,.31,2.23v-7.87C342.17,450.2,237.38,450,235.11,450Z"/><path class="cls-16" d="M204.81,450.09v.09c-14,0-28-.09-30.28-.09h0c-14,0-28-.09-30.24-.09v.09c-14,0-28-.09-30.28-.09,0,3.66,0,6.25,0,8,1.2,3.89,4.81,4.29,8.09,4.32,4.93,0,8.46-3.3,7.71-8.23l.08-.1c.91,2.67,3.85,4.63,7.35,4.63,2.89,0,5.65-1,6.74-2.85a7.15,7.15,0,0,0,.31,2.23v-1.79c0,.68,0,1.28,0,1.79,1.2,3.89,4.81,4.29,8.09,4.32,4.93,0,8.46-3.3,7.71-8.23l.08-.1c.91,2.67,3.85,4.63,7.35,4.63,2.89,0,5.65-1,6.74-2.85a7.15,7.15,0,0,0,.27,2.08c0,.08,0,.16,0,.24,1.2,3.89,4.81,4.29,8.09,4.32,4.93,0,8.45-3.3,7.71-8.23l.08-.1c.91,2.67,3.85,4.63,7.35,4.63,2.89,0,5.65-1,6.74-2.85a7.15,7.15,0,0,0,.31,2.23v-1.79c0,.68,0,1.28,0,1.79,1.2,3.89,4.81,4.29,8.09,4.32,4.93,0,8.45-3.3,7.71-8.23l.08-.1c.91,2.67,3.85,4.63,7.35,4.63,2.89,0,5.65-1,6.74-2.85a7.16,7.16,0,0,0,.31,2.23v-7.87C221.06,450.2,207.08,450.09,204.81,450.09Z"/><path class="cls-16" d="M83.7,450.09v.09c-14,0-28-.09-30.28-.09h0c-14,0-28-.09-30.24-.09v.09c-14,0-28-.09-30.28-.09,0,3.66,0,6.25,0,8,1.2,3.89,4.81,4.29,8.09,4.32,4.93,0,8.45-3.3,7.71-8.23l.08-.1c.91,2.67,3.85,4.63,7.35,4.63,2.89,0,5.65-1,6.74-2.85A7.15,7.15,0,0,0,23.2,458v-1.79c0,.68,0,1.28,0,1.79,1.2,3.89,4.81,4.29,8.09,4.32,4.93,0,8.45-3.3,7.71-8.23l.08-.1c.91,2.67,3.85,4.63,7.35,4.63,2.89,0,5.65-1,6.74-2.85a7.15,7.15,0,0,0,.27,2.08v.24c1.2,3.89,4.81,4.29,8.09,4.32,4.93,0,8.45-3.3,7.71-8.23l.08-.1c.91,2.67,3.85,4.63,7.35,4.63,2.89,0,5.65-1,6.74-2.85a7.16,7.16,0,0,0,.31,2.23v-1.79c0,.68,0,1.28,0,1.79,1.2,3.89,4.81,4.29,8.09,4.32,4.93,0,8.45-3.3,7.71-8.23l.08-.1c.91,2.67,3.85,4.63,7.35,4.63,2.89,0,5.65-1,6.74-2.85a7.16,7.16,0,0,0,.31,2.23v-7.87C100,450.2,86,450.09,83.7,450.09Z"/><rect class="cls-17" x="-11.98" y="388.9" width="368.2" height="2.95"/><rect class="cls-18" x="-11.98" y="387.49" width="368.2" height="1.41"/><path class="cls-19" d="M-12,391.62v62.83H8.42a13,13,0,0,0,.29-2.28,6.34,6.34,0,0,0,1.65,2.28,7.34,7.34,0,0,0,1.21.91l.3.16c.24.12.48.24.73.34l.56.2.39.12a8.73,8.73,0,0,0,.95.2l.29,0a9,9,0,0,0,1.09.08h0a9.14,9.14,0,0,0,1.11-.07l.2,0a8.8,8.8,0,0,0,1-.21l.06,0a8.26,8.26,0,0,0,.95-.33l.13-.05a8,8,0,0,0,.9-.46l.11-.07a7.46,7.46,0,0,0,.77-.54l.06,0,.29-.22a3.87,3.87,0,0,0,.57-.46l.09-.1a5.47,5.47,0,0,0,1.09-1.74v.44h0a13.85,13.85,0,0,0,0,1.73s0,.08,0,.13H38.71a13,13,0,0,0,.29-2.28,6.34,6.34,0,0,0,1.65,2.28,7.34,7.34,0,0,0,1.21.91l.3.16c.24.12.48.24.73.34l.56.2.39.12a8.73,8.73,0,0,0,.95.2l.29,0a9,9,0,0,0,1.09.08h0a9.14,9.14,0,0,0,1.11-.07l.2,0a8.8,8.8,0,0,0,1-.21l.06,0a8.26,8.26,0,0,0,.95-.33l.13-.05a8,8,0,0,0,.9-.46l.11-.07a7.46,7.46,0,0,0,.77-.54l.06,0,.29-.22a3.87,3.87,0,0,0,.57-.46l.09-.1a5.25,5.25,0,0,0,1-1.43v.22h0a13.72,13.72,0,0,0,0,1.73v0H68.87a13.09,13.09,0,0,0,.27-2.2,6.32,6.32,0,0,0,1.57,2.2,7.31,7.31,0,0,0,1.3,1l.3.16c.24.12.48.24.73.34l.56.2.39.12a8.72,8.72,0,0,0,.95.2l.29,0a9,9,0,0,0,1.09.08h0a9.19,9.19,0,0,0,1.11-.07l.2,0a8.8,8.8,0,0,0,1-.21l.06,0a8.31,8.31,0,0,0,.95-.33l.13-.05a8,8,0,0,0,.9-.46l.11-.07a7.5,7.5,0,0,0,.77-.54l.06,0,.41-.3a3.09,3.09,0,0,0,.45-.37l.09-.1a5.48,5.48,0,0,0,1.09-1.74v.44h0a13.85,13.85,0,0,0,0,1.73v0H99.15a13.09,13.09,0,0,0,.27-2.2,6.32,6.32,0,0,0,1.57,2.2,7.31,7.31,0,0,0,1.3,1l.3.16c.24.12.48.24.73.34l.56.2.39.12a8.72,8.72,0,0,0,.95.2l.29,0a9,9,0,0,0,1.09.08h0a9.19,9.19,0,0,0,1.11-.07l.2,0a8.8,8.8,0,0,0,1-.21l.06,0a8.31,8.31,0,0,0,.95-.33l.13-.05a8,8,0,0,0,.9-.46l.11-.07a7.5,7.5,0,0,0,.77-.54l.06,0,.41-.3a3.09,3.09,0,0,0,.45-.37l.09-.1a5.48,5.48,0,0,0,1.09-1.74v-1.34l0,1.71h0a13.65,13.65,0,0,0,0,1.73s0,.08,0,.13h15.38a13,13,0,0,0,.29-2.28,6.34,6.34,0,0,0,1.65,2.28,7.33,7.33,0,0,0,1.21.91l.3.16c.24.12.48.24.73.34l.56.2.39.12a8.73,8.73,0,0,0,.95.2l.29,0a9,9,0,0,0,1.09.08h0a9.14,9.14,0,0,0,1.11-.07l.2,0a8.8,8.8,0,0,0,1-.21l.06,0a8.26,8.26,0,0,0,.95-.33l.13-.05a8,8,0,0,0,.9-.46l.11-.07a7.46,7.46,0,0,0,.77-.54l.06,0,.29-.22a3.86,3.86,0,0,0,.57-.46l.09-.1a5.47,5.47,0,0,0,1.09-1.74v.44h0a13.65,13.65,0,0,0,0,1.73s0,.08,0,.13h15.38a13,13,0,0,0,.29-2.28,6.34,6.34,0,0,0,1.65,2.28,7.33,7.33,0,0,0,1.21.91l.3.16c.24.12.48.24.73.34l.56.2.39.12a8.73,8.73,0,0,0,.95.2l.29,0a9,9,0,0,0,1.09.08h0a9.14,9.14,0,0,0,1.11-.07l.2,0a8.8,8.8,0,0,0,1-.21l.06,0a8.26,8.26,0,0,0,.95-.33l.13-.05a8,8,0,0,0,.9-.46l.11-.07a7.46,7.46,0,0,0,.77-.54l.06,0,.29-.22a3.86,3.86,0,0,0,.57-.46l.09-.1a5.37,5.37,0,0,0,1-1.64v.42h0a13.8,13.8,0,0,0,0,1.73v0H190a13.12,13.12,0,0,0,.27-2.2,6.32,6.32,0,0,0,1.57,2.2,7.3,7.3,0,0,0,1.3,1l.3.16c.24.12.48.24.73.34l.56.2.39.12a8.73,8.73,0,0,0,.95.2l.29,0a9,9,0,0,0,1.09.08h0a9.19,9.19,0,0,0,1.11-.07l.2,0a8.8,8.8,0,0,0,1-.21l.06,0a8.32,8.32,0,0,0,.95-.33l.13-.05a8,8,0,0,0,.9-.46l.11-.07a7.5,7.5,0,0,0,.77-.54l.06,0,.41-.3a3.09,3.09,0,0,0,.45-.37l.09-.1a5.48,5.48,0,0,0,1.09-1.74v.44h0a13.7,13.7,0,0,0,0,1.73v0h15.42l.16-2.9,1.68,2.9a7.3,7.3,0,0,0,1.3,1l.3.16c.24.12.48.24.73.34l.56.2.39.12a8.73,8.73,0,0,0,.95.2l.29,0a9,9,0,0,0,1.09.08h0a9.19,9.19,0,0,0,1.11-.07l.2,0a8.8,8.8,0,0,0,1-.21l.06,0a8.32,8.32,0,0,0,.95-.33l.13-.05a8,8,0,0,0,.9-.46l.11-.07a7.5,7.5,0,0,0,.77-.54l.06,0,.41-.3,1.78-4-.09,4h15.38a13,13,0,0,0,.29-2.28,6.34,6.34,0,0,0,1.65,2.28,7.34,7.34,0,0,0,1.21.91l.3.16c.24.12.48.24.73.34l.56.2.39.12a8.72,8.72,0,0,0,.95.2l.29,0a9,9,0,0,0,1.09.08h0a9.14,9.14,0,0,0,1.11-.07l.2,0a8.8,8.8,0,0,0,1-.21l.06,0a8.26,8.26,0,0,0,.95-.33l.13-.05a8,8,0,0,0,.9-.46l.11-.07a7.46,7.46,0,0,0,.77-.54l.06,0,.29-.22a3.86,3.86,0,0,0,.57-.46l.09-.1a5.48,5.48,0,0,0,1.09-1.74v.44h0a13.7,13.7,0,0,0,0,1.73s0,.08,0,.13h15.38a13,13,0,0,0,.29-2.28,6.34,6.34,0,0,0,1.65,2.28,7.34,7.34,0,0,0,1.21.91l.3.16c.24.12.48.24.73.34l.56.2.39.12a8.72,8.72,0,0,0,.95.2l.29,0a9,9,0,0,0,1.09.08h0a9.14,9.14,0,0,0,1.11-.07l.2,0a8.8,8.8,0,0,0,1-.21l.06,0a8.26,8.26,0,0,0,.95-.33l.13-.05a8,8,0,0,0,.9-.46l.11-.07a7.46,7.46,0,0,0,.77-.54l.06,0,.29-.22a3.86,3.86,0,0,0,.57-.46l.09-.1a5.37,5.37,0,0,0,1-1.64v.42h0a13.78,13.78,0,0,0,0,1.73v0h15.42a13.12,13.12,0,0,0,.27-2.2,6.32,6.32,0,0,0,1.57,2.2,7.3,7.3,0,0,0,1.3,1l.3.16c.24.12.48.24.73.34l.56.2.39.12a8.73,8.73,0,0,0,.95.2l.29,0a9,9,0,0,0,1.09.08h0a9.19,9.19,0,0,0,1.11-.07l.2,0a8.8,8.8,0,0,0,1-.21l.06,0a8.32,8.32,0,0,0,.95-.33l.13-.05a8,8,0,0,0,.9-.46l.11-.07a7.5,7.5,0,0,0,.77-.54l.06,0,.41-.3a3.09,3.09,0,0,0,.45-.37l.09-.1a5.48,5.48,0,0,0,1.09-1.74v.44h0a13.67,13.67,0,0,0,0,1.73v0h15.42a13.12,13.12,0,0,0,.27-2.2,6.32,6.32,0,0,0,1.57,2.2,7.3,7.3,0,0,0,1.3,1l.3.16c.24.12.48.24.73.34l.56.2.39.12a8.73,8.73,0,0,0,.95.2l.29,0a9,9,0,0,0,1.09.08h0a9.19,9.19,0,0,0,1.11-.07l.2,0a8.8,8.8,0,0,0,1-.21l.06,0a8.32,8.32,0,0,0,.95-.33l.13-.05a8,8,0,0,0,.9-.46l.11-.07a7.5,7.5,0,0,0,.77-.54l.06,0,.41-.3a3.09,3.09,0,0,0,.45-.37l.09-.1a5.48,5.48,0,0,0,1.09-1.74V391.62Z"/><path class="cls-20" d="M349.21,444.15a8,8,0,0,1,7,4.54v-2a7.71,7.71,0,0,0-6.93-3.86c-4.16,0-7.92,2.37-7.92,5.92,0,.11.41.73.42.84C342.34,446.5,345.45,444.15,349.21,444.15Z"/><path class="cls-20" d="M318.93,444.15a8,8,0,0,1,7,4.54v-2a7.71,7.71,0,0,0-6.93-3.86c-4.16,0-7.92,2.37-7.92,5.92,0,.11.41.73.42.84C312.06,446.5,315.17,444.15,318.93,444.15Z"/><path class="cls-20" d="M288.69,444.06a8,8,0,0,1,7,4.54v-2a7.71,7.71,0,0,0-6.93-3.86c-4.16,0-7.92,2.37-7.92,5.92,0,.11.41.73.42.84C281.82,446.42,284.93,444.06,288.69,444.06Z"/><path class="cls-20" d="M258.41,444.06a8,8,0,0,1,7,4.54v-2a7.71,7.71,0,0,0-6.93-3.86c-4.16,0-7.92,2.37-7.92,5.92,0,.11.41.73.42.84C251.54,446.42,254.65,444.06,258.41,444.06Z"/><path class="cls-20" d="M228.1,444.15a8,8,0,0,1,7,4.54v-2a7.71,7.71,0,0,0-6.93-3.86c-4.16,0-7.92,2.37-7.92,5.92,0,.11.41.73.42.84C221.23,446.5,224.34,444.15,228.1,444.15Z"/><path class="cls-20" d="M197.82,444.15a8,8,0,0,1,7,4.54v-2a7.71,7.71,0,0,0-6.93-3.86c-4.16,0-7.92,2.37-7.92,5.92,0,.11.41.73.42.84C190.95,446.5,194.06,444.15,197.82,444.15Z"/><path class="cls-20" d="M167.58,444.06a8,8,0,0,1,7,4.54v-2a7.71,7.71,0,0,0-6.93-3.86c-4.16,0-7.92,2.37-7.92,5.92,0,.11.41.73.42.84C160.71,446.42,163.82,444.06,167.58,444.06Z"/><path class="cls-20" d="M137.3,444.06a8,8,0,0,1,7,4.54v-2a7.71,7.71,0,0,0-6.93-3.86c-4.16,0-7.92,2.37-7.92,5.92,0,.11.41.73.42.84C130.43,446.42,133.53,444.06,137.3,444.06Z"/><path class="cls-20" d="M107,444.15a8,8,0,0,1,7,4.54v-2a7.71,7.71,0,0,0-6.93-3.86c-4.16,0-7.92,2.37-7.92,5.92,0,.11.41.73.42.84C100.12,446.5,103.23,444.15,107,444.15Z"/><path class="cls-20" d="M76.71,444.15a8,8,0,0,1,7,4.54v-2a7.71,7.71,0,0,0-6.93-3.86c-4.16,0-7.92,2.37-7.92,5.92,0,.11.41.73.42.84C69.84,446.5,72.95,444.15,76.71,444.15Z"/><path class="cls-20" d="M46.47,444.06a8,8,0,0,1,7,4.54v-2a7.71,7.71,0,0,0-6.93-3.86c-4.16,0-7.92,2.37-7.92,5.92,0,.11.41.73.42.84C39.6,446.42,42.71,444.06,46.47,444.06Z"/><path class="cls-20" d="M16.19,444.06a8,8,0,0,1,7,4.54v-2a7.71,7.71,0,0,0-6.93-3.86c-4.16,0-7.92,2.37-7.92,5.92,0,.11.41.73.42.84C9.32,446.42,12.43,444.06,16.19,444.06Z"/><path class="cls-21" d="M348.85,443.73a7.38,7.38,0,0,0-7,4.26l.33-41.29c1-4.08,5.25-4.32,5.25-4.32H321c4.25,1.85,4.27,3.9,4.27,3.9l.65,41.67a7.93,7.93,0,0,0-7.31-4.23,7.38,7.38,0,0,0-7,4.26l.33-41.29c1-4.08,5.25-4.32,5.25-4.32H290.67c4.25,1.85,4.27,3.9,4.27,3.9l.65,41.5a8,8,0,0,0-7.26-4.13,7.38,7.38,0,0,0-7,4.26l.33-41.29c1-4.08,5.25-4.32,5.25-4.32H260.43c4.25,1.85,4.27,3.9,4.27,3.9l.65,41.67a7.93,7.93,0,0,0-7.31-4.23,7.38,7.38,0,0,0-7,4.26l.33-41.29c1-4.08,5.25-4.32,5.25-4.32H230.15c4.25,1.85,4.27,3.9,4.27,3.9l.65,41.81a7.92,7.92,0,0,0-7.33-4.27,7.38,7.38,0,0,0-7,4.26l.33-41.29c1-4.08,5.25-4.32,5.25-4.32H199.84c4.25,1.85,4.27,3.9,4.27,3.9l.65,41.67a7.93,7.93,0,0,0-7.31-4.23,7.38,7.38,0,0,0-7,4.26l.33-41.29c1-4.08,5.25-4.32,5.25-4.32H169.56c4.25,1.85,4.27,3.9,4.27,3.9l.65,41.5a8,8,0,0,0-7.26-4.13,7.38,7.38,0,0,0-7,4.26l.33-41.29c1-4.08,5.25-4.32,5.25-4.32H139.32c4.25,1.85,4.27,3.9,4.27,3.9l.65,41.67a7.93,7.93,0,0,0-7.31-4.23,7.38,7.38,0,0,0-7,4.26l.33-41.29c1-4.08,5.25-4.32,5.25-4.32H109c4.25,1.85,4.27,3.9,4.27,3.9L114,448a7.92,7.92,0,0,0-7.33-4.27,7.38,7.38,0,0,0-7,4.26L100,406.7c1-4.08,5.25-4.32,5.25-4.32H78.73c4.25,1.85,4.27,3.9,4.27,3.9L83.65,448a7.93,7.93,0,0,0-7.31-4.23,7.38,7.38,0,0,0-7,4.26l.33-41.29c1-4.08,5.25-4.32,5.25-4.32H48.45c4.25,1.85,4.27,3.9,4.27,3.9l.64,41.31a8,8,0,0,0-7.16-3.95,7.38,7.38,0,0,0-7,4.26l.33-41.29c1-4.08,5.25-4.32,5.25-4.32H18.31c4.25,1.85,4.27,3.9,4.27,3.9l.65,41.67a7.93,7.93,0,0,0-7.31-4.23,7.38,7.38,0,0,0-7,4.26l.33-41.29c1-4.08,5.25-4.32,5.25-4.32H-12c4.25,1.85,4.27,3.9,4.27,3.9L-7,452.6h0a13.7,13.7,0,0,0,0,1.73,6.56,6.56,0,0,0,4,5.19l.08,0h0a12.89,12.89,0,0,0,4.26.65c.24,0,.47,0,.7,0a6.94,6.94,0,0,0,4.88-2.43,9.48,9.48,0,0,0,1.76-5.58,6.69,6.69,0,0,0,2.86,3.18l.3.16c.24.12.48.24.73.34l.56.2.39.12a8.73,8.73,0,0,0,.95.2l.29,0a9,9,0,0,0,1.09.08h0a9.14,9.14,0,0,0,1.11-.07l.2,0a8.8,8.8,0,0,0,1-.21l.06,0a8.26,8.26,0,0,0,.95-.33l.13-.05a8,8,0,0,0,.9-.46l.11-.07a7.46,7.46,0,0,0,.77-.54l.06,0a9.11,9.11,0,0,0,.86-.68l.09-.1a5.47,5.47,0,0,0,1.09-1.74v.44h0a13.85,13.85,0,0,0,0,1.73,6.56,6.56,0,0,0,4,5.19l.08,0h0a12.89,12.89,0,0,0,4.26.65c.24,0,.47,0,.7,0a6.94,6.94,0,0,0,4.88-2.43A9.48,9.48,0,0,0,39,452.17a6.69,6.69,0,0,0,2.86,3.18l.3.16c.24.12.48.24.73.34l.56.2.39.12a8.73,8.73,0,0,0,.95.2l.29,0a9,9,0,0,0,1.09.08h0a9.14,9.14,0,0,0,1.11-.07l.2,0a8.8,8.8,0,0,0,1-.21l.06,0a8.26,8.26,0,0,0,.95-.33l.13-.05a8,8,0,0,0,.9-.46l.11-.07a7.46,7.46,0,0,0,.77-.54l.06,0a9.11,9.11,0,0,0,.86-.68l.09-.1a5.25,5.25,0,0,0,1-1.43v.22h0a13.72,13.72,0,0,0,0,1.73,6.56,6.56,0,0,0,4,5.19l.08,0h0a12.89,12.89,0,0,0,4.26.65c.24,0,.47,0,.7,0a6.94,6.94,0,0,0,4.88-2.43,9.48,9.48,0,0,0,1.76-5.58A6.69,6.69,0,0,0,72,455.44l.3.16c.24.12.48.24.73.34l.56.2.39.12a8.72,8.72,0,0,0,.95.2l.29,0a9,9,0,0,0,1.09.08h0a9.19,9.19,0,0,0,1.11-.07l.2,0a8.8,8.8,0,0,0,1-.21l.06,0a8.31,8.31,0,0,0,.95-.33l.13-.05a8,8,0,0,0,.9-.46l.11-.07a7.5,7.5,0,0,0,.77-.54l.06,0a9.15,9.15,0,0,0,.86-.68l.09-.1a5.48,5.48,0,0,0,1.09-1.74v.44h0a13.85,13.85,0,0,0,0,1.73,6.56,6.56,0,0,0,4,5.19l.08,0h0a12.89,12.89,0,0,0,4.26.65c.24,0,.47,0,.7,0a6.94,6.94,0,0,0,4.88-2.43,9.48,9.48,0,0,0,1.76-5.58,6.69,6.69,0,0,0,2.86,3.18l.3.16c.24.12.48.24.73.34l.56.2.39.12a8.72,8.72,0,0,0,.95.2l.29,0a9,9,0,0,0,1.09.08h0a9.19,9.19,0,0,0,1.11-.07l.2,0a8.8,8.8,0,0,0,1-.21l.06,0a8.31,8.31,0,0,0,.95-.33l.13-.05a8,8,0,0,0,.9-.46l.11-.07a7.5,7.5,0,0,0,.77-.54l.06,0a9.15,9.15,0,0,0,.86-.68l.09-.1a5.48,5.48,0,0,0,1.09-1.74v-1.34l0,1.71h0a13.65,13.65,0,0,0,0,1.73,6.56,6.56,0,0,0,4,5.19l.08,0h0a12.89,12.89,0,0,0,4.26.65c.24,0,.47,0,.7,0a6.94,6.94,0,0,0,4.88-2.43,9.48,9.48,0,0,0,1.76-5.58,6.69,6.69,0,0,0,2.86,3.18l.3.16c.24.12.48.24.73.34l.56.2.39.12a8.73,8.73,0,0,0,.95.2l.29,0a9,9,0,0,0,1.09.08h0a9.14,9.14,0,0,0,1.11-.07l.2,0a8.8,8.8,0,0,0,1-.21l.06,0a8.26,8.26,0,0,0,.95-.33l.13-.05a8,8,0,0,0,.9-.46l.11-.07a7.46,7.46,0,0,0,.77-.54l.06,0a9.11,9.11,0,0,0,.86-.68l.09-.1a5.47,5.47,0,0,0,1.09-1.74v.44h0a13.65,13.65,0,0,0,0,1.73,6.56,6.56,0,0,0,4,5.19l.08,0h0a12.89,12.89,0,0,0,4.26.65c.24,0,.47,0,.7,0a6.94,6.94,0,0,0,4.88-2.43,9.48,9.48,0,0,0,1.76-5.58,6.69,6.69,0,0,0,2.86,3.18l.3.16c.24.12.48.24.73.34l.56.2.39.12a8.73,8.73,0,0,0,.95.2l.29,0a9,9,0,0,0,1.09.08h0a9.14,9.14,0,0,0,1.11-.07l.2,0a8.8,8.8,0,0,0,1-.21l.06,0a8.26,8.26,0,0,0,.95-.33l.13-.05a8,8,0,0,0,.9-.46l.11-.07a7.46,7.46,0,0,0,.77-.54l.06,0a9.11,9.11,0,0,0,.86-.68l.09-.1a5.37,5.37,0,0,0,1-1.64v.42h0a13.8,13.8,0,0,0,0,1.73,6.56,6.56,0,0,0,4,5.19l.08,0h0a12.89,12.89,0,0,0,4.26.65c.24,0,.47,0,.7,0a6.94,6.94,0,0,0,4.88-2.43,9.48,9.48,0,0,0,1.76-5.58,6.69,6.69,0,0,0,2.86,3.18l.3.16c.24.12.48.24.73.34l.56.2.39.12a8.73,8.73,0,0,0,.95.2l.29,0a9,9,0,0,0,1.09.08h0a9.19,9.19,0,0,0,1.11-.07l.2,0a8.8,8.8,0,0,0,1-.21l.06,0a8.32,8.32,0,0,0,.95-.33l.13-.05a8,8,0,0,0,.9-.46l.11-.07a7.5,7.5,0,0,0,.77-.54l.06,0a9.15,9.15,0,0,0,.86-.68l.09-.1a5.48,5.48,0,0,0,1.09-1.74v.44h0a13.7,13.7,0,0,0,0,1.73,6.56,6.56,0,0,0,4,5.19l.08,0h0a12.89,12.89,0,0,0,4.26.65c.24,0,.47,0,.7,0a6.94,6.94,0,0,0,4.88-2.43,9.48,9.48,0,0,0,1.76-5.58,6.69,6.69,0,0,0,2.86,3.18l.3.16c.24.12.48.24.73.34l.56.2.39.12a8.73,8.73,0,0,0,.95.2l.29,0a9,9,0,0,0,1.09.08h0a9.19,9.19,0,0,0,1.11-.07l.2,0a8.8,8.8,0,0,0,1-.21l.06,0a8.32,8.32,0,0,0,.95-.33l.13-.05a8,8,0,0,0,.9-.46l.11-.07a7.5,7.5,0,0,0,.77-.54l.06,0a9.15,9.15,0,0,0,.86-.68l.09-.1a5.48,5.48,0,0,0,1.09-1.74l0,.36h0a13.8,13.8,0,0,0,0,1.73,6.56,6.56,0,0,0,4,5.19l.08,0h0a12.89,12.89,0,0,0,4.26.65c.24,0,.47,0,.7,0a6.94,6.94,0,0,0,4.88-2.43,9.48,9.48,0,0,0,1.76-5.58,6.69,6.69,0,0,0,2.86,3.18l.3.16c.24.12.48.24.73.34l.56.2.39.12a8.72,8.72,0,0,0,.95.2l.29,0a9,9,0,0,0,1.09.08h0a9.14,9.14,0,0,0,1.11-.07l.2,0a8.8,8.8,0,0,0,1-.21l.06,0a8.26,8.26,0,0,0,.95-.33l.13-.05a8,8,0,0,0,.9-.46l.11-.07a7.46,7.46,0,0,0,.77-.54l.06,0a9.11,9.11,0,0,0,.86-.68l.09-.1a5.48,5.48,0,0,0,1.09-1.74v.44h0a13.7,13.7,0,0,0,0,1.73,6.56,6.56,0,0,0,4,5.19l.08,0h0a12.89,12.89,0,0,0,4.26.65c.24,0,.47,0,.7,0a6.94,6.94,0,0,0,4.88-2.43,9.48,9.48,0,0,0,1.76-5.58,6.69,6.69,0,0,0,2.86,3.18l.3.16c.24.12.48.24.73.34l.56.2.39.12a8.72,8.72,0,0,0,.95.2l.29,0a9,9,0,0,0,1.09.08h0a9.14,9.14,0,0,0,1.11-.07l.2,0a8.8,8.8,0,0,0,1-.21l.06,0a8.26,8.26,0,0,0,.95-.33l.13-.05a8,8,0,0,0,.9-.46l.11-.07a7.46,7.46,0,0,0,.77-.54l.06,0a9.11,9.11,0,0,0,.86-.68l.09-.1a5.37,5.37,0,0,0,1-1.64v.42h0a13.78,13.78,0,0,0,0,1.73,6.56,6.56,0,0,0,4,5.19l.08,0h0a12.89,12.89,0,0,0,4.26.65c.24,0,.47,0,.7,0a6.94,6.94,0,0,0,4.88-2.43,9.48,9.48,0,0,0,1.76-5.58,6.69,6.69,0,0,0,2.86,3.18l.3.16c.24.12.48.24.73.34l.56.2.39.12a8.73,8.73,0,0,0,.95.2l.29,0a9,9,0,0,0,1.09.08h0a9.19,9.19,0,0,0,1.11-.07l.2,0a8.8,8.8,0,0,0,1-.21l.06,0a8.32,8.32,0,0,0,.95-.33l.13-.05a8,8,0,0,0,.9-.46l.11-.07a7.5,7.5,0,0,0,.77-.54l.06,0a9.15,9.15,0,0,0,.86-.68l.09-.1a5.48,5.48,0,0,0,1.09-1.74v.44h0a13.67,13.67,0,0,0,0,1.73,6.56,6.56,0,0,0,4,5.19l.08,0h0a12.89,12.89,0,0,0,4.26.65c.24,0,.47,0,.7,0a6.94,6.94,0,0,0,4.88-2.43,9.48,9.48,0,0,0,1.76-5.58,6.69,6.69,0,0,0,2.86,3.18l.3.16c.24.12.48.24.73.34l.56.2.39.12a8.73,8.73,0,0,0,.95.2l.29,0a9,9,0,0,0,1.09.08h0a9.19,9.19,0,0,0,1.11-.07l.2,0a8.8,8.8,0,0,0,1-.21l.06,0a8.32,8.32,0,0,0,.95-.33l.13-.05a8,8,0,0,0,.9-.46l.11-.07a7.5,7.5,0,0,0,.77-.54l.06,0a9.15,9.15,0,0,0,.86-.68l.09-.1a5.48,5.48,0,0,0,1.09-1.74v-4.15C355.16,445.55,352.21,443.73,348.85,443.73Zm-340.56,8C7.54,453.38,5,453.94,1.08,454c-3.57,0-6.4-.48-7.72-1.36l2.48-44.7c2.37.18,5,.29,5,.29a27.93,27.93,0,0,0,5.38-.63s2.1,42.33,2.1,42.52C8.32,451.67,8.28,451.72,8.29,451.76Zm30.28,0c-.75,1.62-3.28,2.18-7.21,2.19-3.57,0-6.4-.48-7.72-1.36l2.48-44.7c2.37.18,5,.29,5,.29a27.93,27.93,0,0,0,5.38-.63s2.1,42.33,2.1,42.52C38.61,451.67,38.56,451.72,38.57,451.76Zm30.14.08C68,453.46,65.44,454,61.5,454c-3.57,0-6.4-.48-7.72-1.36L56.26,408c2.37.18,5,.29,5,.29a27.91,27.91,0,0,0,5.38-.63s2.1,42.33,2.1,42.52C68.75,451.76,68.7,451.8,68.72,451.84Zm30.28,0c-.75,1.62-3.28,2.18-7.21,2.19-3.57,0-6.4-.48-7.72-1.36L86.55,408c2.37.18,5,.29,5,.29a27.91,27.91,0,0,0,5.38-.63S99,450,99,450.16C99,451.76,99,451.8,99,451.84Zm30.3-.08c-.75,1.62-3.28,2.18-7.21,2.19-3.57,0-6.4-.48-7.72-1.36l2.48-44.7c2.37.18,5,.29,5,.29a27.93,27.93,0,0,0,5.38-.63s2.1,42.33,2.1,42.52C129.34,451.67,129.29,451.72,129.3,451.76Zm30.28,0c-.75,1.62-3.28,2.18-7.21,2.19-3.57,0-6.4-.48-7.72-1.36l2.48-44.7c2.37.18,5,.29,5,.29a27.93,27.93,0,0,0,5.38-.63s2.1,42.33,2.1,42.52C159.62,451.67,159.58,451.72,159.59,451.76Zm30.24.08c-.75,1.62-3.28,2.18-7.21,2.19-3.57,0-6.4-.48-7.72-1.36l2.48-44.7c2.37.18,5,.29,5,.29a27.91,27.91,0,0,0,5.38-.63s2.1,42.33,2.1,42.52C189.86,451.76,189.81,451.8,189.82,451.84Zm30.28,0c-.75,1.62-3.28,2.18-7.21,2.19-3.57,0-6.4-.48-7.72-1.36l2.48-44.7c2.37.18,5,.29,5,.29a27.91,27.91,0,0,0,5.38-.63s2.1,42.33,2.1,42.52C220.14,451.76,220.1,451.8,220.11,451.84Zm30.31-.08c-.75,1.62-3.28,2.18-7.21,2.19-3.57,0-6.4-.48-7.72-1.36l2.48-44.7c2.37.18,5,.29,5,.29a27.93,27.93,0,0,0,5.38-.63s2.1,42.33,2.1,42.52C250.45,451.67,250.4,451.72,250.41,451.76Zm30.28,0c-.75,1.62-3.28,2.18-7.21,2.19-3.57,0-6.4-.48-7.72-1.36l2.48-44.7c2.37.18,5,.29,5,.29a27.93,27.93,0,0,0,5.38-.63s2.1,42.33,2.1,42.52C280.73,451.67,280.69,451.72,280.7,451.76Zm30.24.08c-.75,1.62-3.28,2.18-7.21,2.19-3.57,0-6.4-.48-7.72-1.36l2.48-44.7c2.37.18,5,.29,5,.29a27.91,27.91,0,0,0,5.38-.63s2.1,42.33,2.1,42.52C311,451.76,310.92,451.8,310.93,451.84Zm30.28,0c-.75,1.62-3.28,2.18-7.21,2.19-3.57,0-6.4-.48-7.72-1.36l2.48-44.7c2.37.18,5,.29,5,.29a27.91,27.91,0,0,0,5.38-.63s2.1,42.33,2.1,42.52C341.25,451.76,341.21,451.8,341.22,451.84Z"/></g><g class="cls-22"><path class="cls-15" d="M791.61,452.17c0,.11,0,.26,0,.42v-.41c-14.81,0-29.42,0-30.24,0v-.07c-15.23,0-30.26,0-30.28,0s0,.25,0,.42v-.4c-15.23,0-30.26,0-30.28,0,0,1.6,0,10.21,0,10.25.15,4.7,3.42,7.06,8.69,7.12,4.93,0,7.33-3.5,7.11-8.23l.08-.1a7.42,7.42,0,0,0,7.35,4.63c4.34-.13,6.19-1.87,7.05-3.42v-.07a.62.62,0,0,0,0,.07c.15,4.7,3.42,7.06,8.69,7.12,4.93,0,7.33-3.5,7.11-8.23l.08-.1a7.42,7.42,0,0,0,7.35,4.63c4.28-.13,6.14-1.82,7-3.35h0c.15,4.7,3.42,7.07,8.69,7.12,4.93,0,7.33-3.5,7.11-8.23l.08-.1a7.42,7.42,0,0,0,7.35,4.63c4.34-.13,6.19-1.87,7.05-3.42v-.08a.59.59,0,0,0,0,.08c.15,4.7,3.42,7.07,8.69,7.12,4.93,0,7.33-3.5,7.11-8.23l.08-.1a7.42,7.42,0,0,0,7.35,4.63c4.34-.13,6.19-1.87,7.05-3.42V452.19C806.66,452.2,791.63,452.2,791.61,452.17Z"/><path class="cls-15" d="M670.5,452.17c0,.11,0,.26,0,.42v-.41c-14.81,0-29.42,0-30.24,0v-.07c-15.23,0-30.26,0-30.28,0s0,.26,0,.42v-.41c-15.23,0-30.26,0-30.28,0,0,.69,0,2.67,0,4.71v-4.61c-15.23,0-30.26,0-30.28,0s0,.26,0,.42v-.41c-14.81,0-29.42,0-30.24,0v-.07c-15.23,0-30.26,0-30.28,0s0,.26,0,.42v-.41c-15.23,0-30.26,0-30.28,0,0,1.6,0,10.21,0,10.25.15,4.7,3.42,7.06,8.69,7.12,4.93,0,7.33-3.5,7.11-8.23l.08-.1a7.42,7.42,0,0,0,7.35,4.63c4.34-.13,6.19-1.87,7.05-3.42v-.08a.6.6,0,0,0,0,.08c.15,4.7,3.42,7.06,8.69,7.12,4.93,0,7.33-3.5,7.11-8.23l.08-.1a7.42,7.42,0,0,0,7.35,4.63c4.28-.13,6.14-1.82,7-3.35h0c.15,4.7,3.42,7.07,8.69,7.12,4.93,0,7.33-3.5,7.11-8.23l.08-.1a7.42,7.42,0,0,0,7.35,4.63c4.34-.13,6.19-1.87,7.05-3.42v-.08a.64.64,0,0,0,0,.08c.15,4.7,3.42,7.07,8.69,7.12,4.93,0,7.33-3.5,7.11-8.23l.08-.1a7.42,7.42,0,0,0,7.35,4.63c4.34-.13,6.19-1.87,7.05-3.42v-2.33c0,1.3,0,2.23,0,2.24.15,4.7,3.42,7.06,8.69,7.12,4.93,0,7.33-3.5,7.11-8.23l.08-.1a7.42,7.42,0,0,0,7.35,4.63c4.34-.13,6.19-1.87,7.05-3.42v-.08a.59.59,0,0,0,0,.08c.15,4.7,3.42,7.06,8.69,7.12,4.93,0,7.33-3.5,7.11-8.23l.08-.1a7.42,7.42,0,0,0,7.35,4.63c4.28-.13,6.14-1.82,7-3.35h0c.15,4.7,3.42,7.07,8.69,7.12,4.93,0,7.33-3.5,7.11-8.23l.08-.1a7.42,7.42,0,0,0,7.35,4.63c4.34-.13,6.19-1.87,7.05-3.42v-.08a.59.59,0,0,0,0,.08c.15,4.7,3.42,7.07,8.69,7.12,4.93,0,7.33-3.5,7.11-8.23l.08-.1a7.42,7.42,0,0,0,7.35,4.63c4.34-.13,6.19-1.87,7.05-3.42V452.19C685.55,452.2,670.52,452.2,670.5,452.17Z"/><path class="cls-16" d="M700.78,450c0,3.66,0,6.25,0,8,1.2,3.89,4.81,4.29,8.09,4.32,4.93,0,8.46-3.3,7.71-8.23l.08-.1c.91,2.67,3.85,4.63,7.35,4.63,2.89,0,5.65-1,6.74-2.85a7.15,7.15,0,0,0,.31,2.23v-1.78c0,.67,0,1.27,0,1.78,1.2,3.89,4.81,4.29,8.09,4.32,4.93,0,8.46-3.3,7.71-8.23l.08-.1c.91,2.67,3.85,4.63,7.35,4.63,2.89,0,5.65-1,6.74-2.85a7.15,7.15,0,0,0,.27,2.08c0,.08,0,.16,0,.24,1.2,3.89,4.81,4.29,8.09,4.32,4.93,0,8.45-3.3,7.71-8.23l.08-.1c.91,2.67,3.85,4.63,7.35,4.63,2.89,0,5.65-1,6.74-2.85a7.15,7.15,0,0,0,.31,2.23s0-.51,0,0c1.2,3.89,4.81,4.29,8.09,4.32,4.93,0,8.45-3.3,7.71-8.23l.08-.1c.91,2.67,3.85,4.63,7.35,4.63,2.89,0,5.65-1,6.74-2.85a7.15,7.15,0,0,0,.31,2.23v-7.87C807.84,450.2,703,450,700.78,450Z"/><path class="cls-16" d="M670.47,450.09v.09c-14,0-28-.09-30.28-.09h0c-14,0-28-.09-30.24-.09v.09c-14,0-28-.09-30.28-.09,0,3.66,0,6.25,0,8,1.2,3.89,4.81,4.29,8.09,4.32,4.93,0,8.46-3.3,7.71-8.23l.08-.1c.91,2.67,3.85,4.63,7.35,4.63,2.89,0,5.65-1,6.74-2.85A7.15,7.15,0,0,0,610,458v-1.79c0,.68,0,1.28,0,1.79,1.2,3.89,4.81,4.29,8.09,4.32,4.93,0,8.46-3.3,7.71-8.23l.08-.1c.91,2.67,3.85,4.63,7.35,4.63,2.89,0,5.65-1,6.74-2.85a7.15,7.15,0,0,0,.27,2.08c0,.08,0,.16,0,.24,1.2,3.89,4.81,4.29,8.09,4.32,4.93,0,8.45-3.3,7.71-8.23l.08-.1c.91,2.67,3.85,4.63,7.35,4.63,2.89,0,5.65-1,6.74-2.85a7.15,7.15,0,0,0,.31,2.23v-1.79c0,.68,0,1.28,0,1.79,1.2,3.89,4.81,4.29,8.09,4.32,4.93,0,8.45-3.3,7.71-8.23l.08-.1c.91,2.67,3.85,4.63,7.35,4.63,2.89,0,5.65-1,6.74-2.85a7.16,7.16,0,0,0,.31,2.23v-7.87C686.73,450.2,672.74,450.09,670.47,450.09Z"/><path class="cls-16" d="M549.37,450.09v.09c-14,0-28-.09-30.28-.09h0c-14,0-28-.09-30.24-.09v.09c-14,0-28-.09-30.28-.09,0,3.66,0,6.25,0,8,1.2,3.89,4.81,4.29,8.09,4.32,4.93,0,8.45-3.3,7.71-8.23l.08-.1c.91,2.67,3.85,4.63,7.35,4.63,2.89,0,5.65-1,6.74-2.85a7.15,7.15,0,0,0,.31,2.23v-1.79c0,.68,0,1.28,0,1.79,1.2,3.89,4.81,4.29,8.09,4.32,4.93,0,8.45-3.3,7.71-8.23l.08-.1c.91,2.67,3.85,4.63,7.35,4.63,2.89,0,5.65-1,6.74-2.85a7.15,7.15,0,0,0,.27,2.08v.24c1.2,3.89,4.81,4.29,8.09,4.32,4.93,0,8.45-3.3,7.71-8.23l.08-.1c.91,2.67,3.85,4.63,7.35,4.63,2.89,0,5.65-1,6.74-2.85a7.16,7.16,0,0,0,.31,2.23v-1.79c0,.68,0,1.28,0,1.79,1.2,3.89,4.81,4.29,8.09,4.32,4.93,0,8.45-3.3,7.71-8.23l.08-.1c.91,2.67,3.85,4.63,7.35,4.63,2.89,0,5.65-1,6.74-2.85a7.16,7.16,0,0,0,.31,2.23v-7.87C565.62,450.2,551.63,450.09,549.37,450.09Z"/><rect class="cls-17" x="453.69" y="388.9" width="368.2" height="2.95"/><rect class="cls-18" x="453.69" y="387.49" width="368.2" height="1.41"/><path class="cls-19" d="M453.69,391.62v62.83h20.4a13,13,0,0,0,.29-2.28,6.34,6.34,0,0,0,1.65,2.28,7.34,7.34,0,0,0,1.21.91l.3.16c.24.12.48.24.73.34l.56.2.39.12a8.73,8.73,0,0,0,.95.2l.29,0a9,9,0,0,0,1.09.08h0a9.14,9.14,0,0,0,1.11-.07l.2,0a8.8,8.8,0,0,0,1-.21l.06,0a8.26,8.26,0,0,0,.95-.33l.13-.05a8,8,0,0,0,.9-.46l.11-.07a7.46,7.46,0,0,0,.77-.54l.06,0,.29-.22a3.87,3.87,0,0,0,.57-.46l.09-.1a5.47,5.47,0,0,0,1.09-1.74v.44h0a13.74,13.74,0,0,0,0,1.73s0,.08,0,.13h15.38a13,13,0,0,0,.29-2.28,6.34,6.34,0,0,0,1.65,2.28,7.34,7.34,0,0,0,1.21.91l.3.16c.24.12.48.24.73.34l.56.2.39.12a8.73,8.73,0,0,0,.95.2l.29,0a9,9,0,0,0,1.09.08h0a9.14,9.14,0,0,0,1.11-.07l.2,0a8.8,8.8,0,0,0,1-.21l.06,0a8.26,8.26,0,0,0,.95-.33l.13-.05a8,8,0,0,0,.9-.46l.11-.07a7.46,7.46,0,0,0,.77-.54l.06,0,.29-.22a3.87,3.87,0,0,0,.57-.46l.09-.1a5.25,5.25,0,0,0,1-1.43v.22h0a13.82,13.82,0,0,0,0,1.73v0h15.42a13.09,13.09,0,0,0,.27-2.2,6.32,6.32,0,0,0,1.57,2.2,7.31,7.31,0,0,0,1.3,1l.3.16c.24.12.48.24.73.34l.56.2.39.12a8.72,8.72,0,0,0,.95.2l.29,0a9,9,0,0,0,1.09.08h0a9.19,9.19,0,0,0,1.11-.07l.2,0a8.8,8.8,0,0,0,1-.21l.06,0a8.31,8.31,0,0,0,.95-.33l.13-.05a8,8,0,0,0,.9-.46l.11-.07a7.5,7.5,0,0,0,.77-.54l.06,0,.41-.3a3.09,3.09,0,0,0,.45-.37l.09-.1a5.48,5.48,0,0,0,1.09-1.74v.44h0a13.74,13.74,0,0,0,0,1.73v0h15.42a13.09,13.09,0,0,0,.27-2.2,6.32,6.32,0,0,0,1.57,2.2,7.31,7.31,0,0,0,1.3,1l.3.16c.24.12.48.24.73.34l.56.2.39.12a8.72,8.72,0,0,0,.95.2l.29,0a9,9,0,0,0,1.09.08h0a9.19,9.19,0,0,0,1.11-.07l.2,0a8.8,8.8,0,0,0,1-.21l.06,0a8.31,8.31,0,0,0,.95-.33l.13-.05a8,8,0,0,0,.9-.46l.11-.07a7.5,7.5,0,0,0,.77-.54l.06,0,.41-.3a3.09,3.09,0,0,0,.45-.37l.09-.1a5.48,5.48,0,0,0,1.09-1.74v-1.34l0,1.71h0a13.65,13.65,0,0,0,0,1.73s0,.08,0,.13H595.1a13,13,0,0,0,.29-2.28,6.34,6.34,0,0,0,1.65,2.28,7.33,7.33,0,0,0,1.21.91l.3.16c.24.12.48.24.73.34l.56.2.39.12a8.73,8.73,0,0,0,.95.2l.29,0a9,9,0,0,0,1.09.08h0a9.14,9.14,0,0,0,1.11-.07l.2,0a8.8,8.8,0,0,0,1-.21l.06,0a8.26,8.26,0,0,0,.95-.33l.13-.05a8,8,0,0,0,.9-.46l.11-.07a7.46,7.46,0,0,0,.77-.54l.06,0,.29-.22a3.86,3.86,0,0,0,.57-.46l.09-.1a5.47,5.47,0,0,0,1.09-1.74v.44h0a13.65,13.65,0,0,0,0,1.73s0,.08,0,.13h15.38a13,13,0,0,0,.29-2.28,6.34,6.34,0,0,0,1.65,2.28,7.33,7.33,0,0,0,1.21.91l.3.16c.24.12.48.24.73.34l.56.2.39.12a8.73,8.73,0,0,0,.95.2l.29,0a9,9,0,0,0,1.09.08h0a9.14,9.14,0,0,0,1.11-.07l.2,0a8.8,8.8,0,0,0,1-.21l.06,0a8.26,8.26,0,0,0,.95-.33l.13-.05a8,8,0,0,0,.9-.46l.11-.07a7.46,7.46,0,0,0,.77-.54l.06,0,.29-.22a3.86,3.86,0,0,0,.57-.46l.09-.1a5.37,5.37,0,0,0,1-1.64v.42h0a13.7,13.7,0,0,0,0,1.73v0h15.42a13.12,13.12,0,0,0,.27-2.2,6.32,6.32,0,0,0,1.57,2.2,7.3,7.3,0,0,0,1.3,1l.3.16c.24.12.48.24.73.34l.56.2.39.12a8.73,8.73,0,0,0,.95.2l.29,0a9,9,0,0,0,1.09.08h0a9.19,9.19,0,0,0,1.11-.07l.2,0a8.8,8.8,0,0,0,1-.21l.06,0a8.32,8.32,0,0,0,.95-.33l.13-.05a8,8,0,0,0,.9-.46l.11-.07a7.5,7.5,0,0,0,.77-.54l.06,0,.41-.3a3.09,3.09,0,0,0,.45-.37l.09-.1a5.48,5.48,0,0,0,1.09-1.74v.44h0a13.8,13.8,0,0,0,0,1.73v0h15.42l.16-2.9,1.68,2.9a7.3,7.3,0,0,0,1.3,1l.3.16c.24.12.48.24.73.34l.56.2.39.12a8.73,8.73,0,0,0,.95.2l.29,0a9,9,0,0,0,1.09.08h0a9.19,9.19,0,0,0,1.11-.07l.2,0a8.8,8.8,0,0,0,1-.21l.06,0a8.32,8.32,0,0,0,.95-.33l.13-.05a8,8,0,0,0,.9-.46l.11-.07a7.5,7.5,0,0,0,.77-.54l.06,0,.41-.3,1.78-4-.09,4h15.38a13,13,0,0,0,.29-2.28,6.34,6.34,0,0,0,1.65,2.28,7.34,7.34,0,0,0,1.21.91l.3.16c.24.12.48.24.73.34l.56.2.39.12a8.72,8.72,0,0,0,.95.2l.29,0a9,9,0,0,0,1.09.08h0a9.14,9.14,0,0,0,1.11-.07l.2,0a8.8,8.8,0,0,0,1-.21l.06,0a8.26,8.26,0,0,0,.95-.33l.13-.05a8,8,0,0,0,.9-.46l.11-.07a7.46,7.46,0,0,0,.77-.54l.06,0,.29-.22a3.86,3.86,0,0,0,.57-.46l.09-.1a5.48,5.48,0,0,0,1.09-1.74v.44h0a13.7,13.7,0,0,0,0,1.73s0,.08,0,.13H746.5a13,13,0,0,0,.29-2.28,6.34,6.34,0,0,0,1.65,2.28,7.34,7.34,0,0,0,1.21.91l.3.16c.24.12.48.24.73.34l.56.2.39.12a8.72,8.72,0,0,0,.95.2l.29,0a9,9,0,0,0,1.09.08h0a9.14,9.14,0,0,0,1.11-.07l.2,0a8.8,8.8,0,0,0,1-.21l.06,0a8.26,8.26,0,0,0,.95-.33l.13-.05a8,8,0,0,0,.9-.46l.11-.07a7.46,7.46,0,0,0,.77-.54l.06,0,.29-.22a3.86,3.86,0,0,0,.57-.46l.09-.1a5.37,5.37,0,0,0,1-1.64v.42h0a13.67,13.67,0,0,0,0,1.73v0h15.42a13.12,13.12,0,0,0,.27-2.2,6.32,6.32,0,0,0,1.57,2.2,7.3,7.3,0,0,0,1.3,1l.3.16c.24.12.48.24.73.34l.56.2.39.12a8.73,8.73,0,0,0,.95.2l.29,0a9,9,0,0,0,1.09.08h0a9.19,9.19,0,0,0,1.11-.07l.2,0a8.8,8.8,0,0,0,1-.21l.06,0a8.32,8.32,0,0,0,.95-.33l.13-.05a8,8,0,0,0,.9-.46l.11-.07a7.5,7.5,0,0,0,.77-.54l.06,0,.41-.3a3.09,3.09,0,0,0,.45-.37l.09-.1a5.48,5.48,0,0,0,1.09-1.74v.44h0a13.78,13.78,0,0,0,0,1.73v0H807a13.12,13.12,0,0,0,.27-2.2,6.32,6.32,0,0,0,1.57,2.2,7.3,7.3,0,0,0,1.3,1l.3.16c.24.12.48.24.73.34l.56.2.39.12a8.73,8.73,0,0,0,.95.2l.29,0a9,9,0,0,0,1.09.08h0a9.19,9.19,0,0,0,1.11-.07l.2,0a8.8,8.8,0,0,0,1-.21l.06,0a8.32,8.32,0,0,0,.95-.33l.13-.05a8,8,0,0,0,.9-.46l.11-.07a7.5,7.5,0,0,0,.77-.54l.06,0,.41-.3a3.09,3.09,0,0,0,.45-.37l.09-.1a5.48,5.48,0,0,0,1.09-1.74V391.62Z"/><path class="cls-20" d="M784.59,444.15a8,8,0,0,1,7,4.54v-2a7.71,7.71,0,0,0-6.93-3.86c-4.16,0-7.92,2.37-7.92,5.92,0,.11.41.73.42.84C777.73,446.5,780.83,444.15,784.59,444.15Z"/><path class="cls-20" d="M754.36,444.06a8,8,0,0,1,7,4.54v-2a7.71,7.71,0,0,0-6.93-3.86c-4.16,0-7.92,2.37-7.92,5.92,0,.11.41.73.42.84C747.49,446.42,750.6,444.06,754.36,444.06Z"/><path class="cls-20" d="M724.07,444.06a8,8,0,0,1,7,4.54v-2a7.71,7.71,0,0,0-6.93-3.86c-4.16,0-7.92,2.37-7.92,5.92,0,.11.41.73.42.84C717.2,446.42,720.31,444.06,724.07,444.06Z"/><path class="cls-20" d="M693.77,444.15a8,8,0,0,1,7,4.54v-2a7.71,7.71,0,0,0-6.93-3.86c-4.16,0-7.92,2.37-7.92,5.92,0,.11.41.73.42.84C686.9,446.5,690,444.15,693.77,444.15Z"/><path class="cls-20" d="M663.48,444.15a8,8,0,0,1,7,4.54v-2a7.71,7.71,0,0,0-6.93-3.86c-4.16,0-7.92,2.37-7.92,5.92,0,.11.41.73.42.84C656.61,446.5,659.72,444.15,663.48,444.15Z"/><path class="cls-20" d="M633.25,444.06a8,8,0,0,1,7,4.54v-2a7.71,7.71,0,0,0-6.93-3.86c-4.16,0-7.92,2.37-7.92,5.92,0,.11.41.73.42.84C626.38,446.42,629.48,444.06,633.25,444.06Z"/><path class="cls-20" d="M603,444.06a8,8,0,0,1,7,4.54v-2a7.71,7.71,0,0,0-6.93-3.86c-4.16,0-7.92,2.37-7.92,5.92,0,.11.41.73.42.84C596.09,446.42,599.2,444.06,603,444.06Z"/><path class="cls-20" d="M572.66,444.15a8,8,0,0,1,7,4.54v-2a7.71,7.71,0,0,0-6.93-3.86c-4.16,0-7.92,2.37-7.92,5.92,0,.11.41.73.42.84C565.79,446.5,568.9,444.15,572.66,444.15Z"/><path class="cls-20" d="M542.37,444.15a8,8,0,0,1,7,4.54v-2a7.71,7.71,0,0,0-6.93-3.86c-4.16,0-7.92,2.37-7.92,5.92,0,.11.41.73.42.84C535.51,446.5,538.61,444.15,542.37,444.15Z"/><path class="cls-20" d="M512.14,444.06a8,8,0,0,1,7,4.54v-2a7.71,7.71,0,0,0-6.93-3.86c-4.16,0-7.92,2.37-7.92,5.92,0,.11.41.73.42.84C505.27,446.42,508.38,444.06,512.14,444.06Z"/><path class="cls-20" d="M481.85,444.06a8,8,0,0,1,7,4.54v-2a7.71,7.71,0,0,0-6.93-3.86c-4.16,0-7.92,2.37-7.92,5.92,0,.11.41.73.42.84C475,446.42,478.09,444.06,481.85,444.06Z"/><path class="cls-21" d="M814.52,443.73a7.38,7.38,0,0,0-7,4.26l.33-41.29c1-4.08,5.25-4.32,5.25-4.32H786.62c4.25,1.85,4.27,3.9,4.27,3.9l.65,41.67a7.93,7.93,0,0,0-7.31-4.23,7.38,7.38,0,0,0-7,4.26l.33-41.29c1-4.08,5.25-4.32,5.25-4.32H756.34c4.25,1.85,4.27,3.9,4.27,3.9l.65,41.5a8,8,0,0,0-7.26-4.13,7.38,7.38,0,0,0-7,4.26l.33-41.29c1-4.08,5.25-4.32,5.25-4.32H726.1c4.25,1.85,4.27,3.9,4.27,3.9l.65,41.67a7.93,7.93,0,0,0-7.31-4.23,7.38,7.38,0,0,0-7,4.26l.33-41.29c1-4.08,5.25-4.32,5.25-4.32H695.81c4.25,1.85,4.27,3.9,4.27,3.9l.65,41.81a7.92,7.92,0,0,0-7.33-4.27,7.38,7.38,0,0,0-7,4.26l.33-41.29c1-4.08,5.25-4.32,5.25-4.32H665.51c4.25,1.85,4.27,3.9,4.27,3.9l.65,41.67a7.93,7.93,0,0,0-7.31-4.23,7.38,7.38,0,0,0-7,4.26l.33-41.29c1-4.08,5.25-4.32,5.25-4.32H635.22c4.25,1.85,4.27,3.9,4.27,3.9l.65,41.5a8,8,0,0,0-7.26-4.13,7.38,7.38,0,0,0-7,4.26l.33-41.29c1-4.08,5.25-4.32,5.25-4.32H605c4.25,1.85,4.27,3.9,4.27,3.9l.65,41.67a7.93,7.93,0,0,0-7.31-4.23,7.38,7.38,0,0,0-7,4.26l.33-41.29c1-4.08,5.25-4.32,5.25-4.32H574.7c4.25,1.85,4.27,3.9,4.27,3.9l.65,41.8a7.92,7.92,0,0,0-7.33-4.27,7.38,7.38,0,0,0-7,4.26l.33-41.29c1-4.08,5.25-4.32,5.25-4.32H544.4c4.25,1.85,4.27,3.9,4.27,3.9l.65,41.67a7.93,7.93,0,0,0-7.31-4.23,7.38,7.38,0,0,0-7,4.26l.33-41.29c1-4.08,5.25-4.32,5.25-4.32H514.12c4.25,1.85,4.27,3.9,4.27,3.9l.64,41.31a8,8,0,0,0-7.16-3.95,7.38,7.38,0,0,0-7,4.26l.33-41.29c1-4.08,5.25-4.32,5.25-4.32H484c4.25,1.85,4.27,3.9,4.27,3.9l.65,41.67a7.93,7.93,0,0,0-7.31-4.23,7.38,7.38,0,0,0-7,4.26l.33-41.29c1-4.08,5.25-4.32,5.25-4.32H453.69c4.25,1.85,4.27,3.9,4.27,3.9l.72,46.4h0a13.7,13.7,0,0,0,0,1.73,6.56,6.56,0,0,0,4,5.19l.08,0h0a12.89,12.89,0,0,0,4.26.65c.24,0,.47,0,.7,0a6.94,6.94,0,0,0,4.88-2.43,9.48,9.48,0,0,0,1.76-5.58,6.69,6.69,0,0,0,2.86,3.18l.3.16c.24.12.48.24.73.34l.56.2.39.12a8.73,8.73,0,0,0,.95.2l.29,0a9,9,0,0,0,1.09.08h0a9.14,9.14,0,0,0,1.11-.07l.2,0a8.8,8.8,0,0,0,1-.21l.06,0a8.26,8.26,0,0,0,.95-.33l.13-.05a8,8,0,0,0,.9-.46l.11-.07a7.46,7.46,0,0,0,.77-.54l.06,0a9.11,9.11,0,0,0,.86-.68l.09-.1a5.47,5.47,0,0,0,1.09-1.74v.44h0a13.74,13.74,0,0,0,0,1.73,6.56,6.56,0,0,0,4,5.19l.08,0h0a12.89,12.89,0,0,0,4.26.65c.24,0,.47,0,.7,0a6.94,6.94,0,0,0,4.88-2.43,9.48,9.48,0,0,0,1.76-5.58,6.69,6.69,0,0,0,2.86,3.18l.3.16c.24.12.48.24.73.34l.56.2.39.12a8.73,8.73,0,0,0,.95.2l.29,0a9,9,0,0,0,1.09.08h0a9.14,9.14,0,0,0,1.11-.07l.2,0a8.8,8.8,0,0,0,1-.21l.06,0a8.26,8.26,0,0,0,.95-.33l.13-.05a8,8,0,0,0,.9-.46l.11-.07a7.46,7.46,0,0,0,.77-.54l.06,0a9.11,9.11,0,0,0,.86-.68l.09-.1a5.25,5.25,0,0,0,1-1.43v.22h0a13.82,13.82,0,0,0,0,1.73,6.56,6.56,0,0,0,4,5.19l.08,0h0a12.89,12.89,0,0,0,4.26.65c.24,0,.47,0,.7,0a6.94,6.94,0,0,0,4.88-2.43,9.48,9.48,0,0,0,1.76-5.58,6.69,6.69,0,0,0,2.86,3.18l.3.16c.24.12.48.24.73.34l.56.2.39.12a8.72,8.72,0,0,0,.95.2l.29,0a9,9,0,0,0,1.09.08h0a9.19,9.19,0,0,0,1.11-.07l.2,0a8.8,8.8,0,0,0,1-.21l.06,0a8.31,8.31,0,0,0,.95-.33l.13-.05a8,8,0,0,0,.9-.46l.11-.07a7.5,7.5,0,0,0,.77-.54l.06,0a9.15,9.15,0,0,0,.86-.68l.09-.1a5.48,5.48,0,0,0,1.09-1.74v.44h0a13.74,13.74,0,0,0,0,1.73,6.56,6.56,0,0,0,4,5.19l.08,0h0a12.89,12.89,0,0,0,4.26.65c.24,0,.47,0,.7,0a6.94,6.94,0,0,0,4.88-2.43,9.48,9.48,0,0,0,1.76-5.58,6.69,6.69,0,0,0,2.86,3.18l.3.16c.24.12.48.24.73.34l.56.2.39.12a8.72,8.72,0,0,0,.95.2l.29,0a9,9,0,0,0,1.09.08h0a9.19,9.19,0,0,0,1.11-.07l.2,0a8.8,8.8,0,0,0,1-.21l.06,0a8.31,8.31,0,0,0,.95-.33l.13-.05a8,8,0,0,0,.9-.46l.11-.07a7.5,7.5,0,0,0,.77-.54l.06,0a9.15,9.15,0,0,0,.86-.68l.09-.1a5.48,5.48,0,0,0,1.09-1.74v-1.34l0,1.71h0a13.65,13.65,0,0,0,0,1.73,6.56,6.56,0,0,0,4,5.19l.08,0h0a12.89,12.89,0,0,0,4.26.65c.24,0,.47,0,.7,0a6.94,6.94,0,0,0,4.88-2.43,9.48,9.48,0,0,0,1.76-5.58,6.69,6.69,0,0,0,2.86,3.18l.3.16c.24.12.48.24.73.34l.56.2.39.12a8.73,8.73,0,0,0,.95.2l.29,0a9,9,0,0,0,1.09.08h0a9.14,9.14,0,0,0,1.11-.07l.2,0a8.8,8.8,0,0,0,1-.21l.06,0a8.26,8.26,0,0,0,.95-.33l.13-.05a8,8,0,0,0,.9-.46l.11-.07a7.46,7.46,0,0,0,.77-.54l.06,0a9.11,9.11,0,0,0,.86-.68l.09-.1a5.47,5.47,0,0,0,1.09-1.74v.44h0a13.65,13.65,0,0,0,0,1.73,6.56,6.56,0,0,0,4,5.19l.08,0h0a12.89,12.89,0,0,0,4.26.65c.24,0,.47,0,.7,0a6.94,6.94,0,0,0,4.88-2.43,9.48,9.48,0,0,0,1.76-5.58,6.69,6.69,0,0,0,2.86,3.18l.3.16c.24.12.48.24.73.34l.56.2.39.12a8.73,8.73,0,0,0,.95.2l.29,0a9,9,0,0,0,1.09.08h0a9.14,9.14,0,0,0,1.11-.07l.2,0a8.8,8.8,0,0,0,1-.21l.06,0a8.26,8.26,0,0,0,.95-.33l.13-.05a8,8,0,0,0,.9-.46l.11-.07a7.46,7.46,0,0,0,.77-.54l.06,0a9.11,9.11,0,0,0,.86-.68l.09-.1a5.37,5.37,0,0,0,1-1.64v.42h0a13.7,13.7,0,0,0,0,1.73,6.56,6.56,0,0,0,4,5.19l.08,0h0a12.89,12.89,0,0,0,4.26.65c.24,0,.47,0,.7,0a6.94,6.94,0,0,0,4.88-2.43,9.48,9.48,0,0,0,1.76-5.58,6.69,6.69,0,0,0,2.86,3.18l.3.16c.24.12.48.24.73.34l.56.2.39.12a8.73,8.73,0,0,0,.95.2l.29,0a9,9,0,0,0,1.09.08h0a9.19,9.19,0,0,0,1.11-.07l.2,0a8.8,8.8,0,0,0,1-.21l.06,0a8.32,8.32,0,0,0,.95-.33l.13-.05a8,8,0,0,0,.9-.46l.11-.07a7.5,7.5,0,0,0,.77-.54l.06,0a9.15,9.15,0,0,0,.86-.68l.09-.1a5.48,5.48,0,0,0,1.09-1.74v.44h0a13.8,13.8,0,0,0,0,1.73,6.56,6.56,0,0,0,4,5.19l.08,0h0a12.89,12.89,0,0,0,4.26.65c.24,0,.47,0,.7,0a6.94,6.94,0,0,0,4.88-2.43,9.48,9.48,0,0,0,1.76-5.58,6.69,6.69,0,0,0,2.86,3.18l.3.16c.24.12.48.24.73.34l.56.2.39.12a8.73,8.73,0,0,0,.95.2l.29,0a9,9,0,0,0,1.09.08h0a9.19,9.19,0,0,0,1.11-.07l.2,0a8.8,8.8,0,0,0,1-.21l.06,0a8.32,8.32,0,0,0,.95-.33l.13-.05a8,8,0,0,0,.9-.46l.11-.07a7.5,7.5,0,0,0,.77-.54l.06,0a9.15,9.15,0,0,0,.86-.68l.09-.1a5.48,5.48,0,0,0,1.09-1.74l0,.36h0a13.8,13.8,0,0,0,0,1.73,6.56,6.56,0,0,0,4,5.19l.08,0h0a12.89,12.89,0,0,0,4.26.65c.24,0,.47,0,.7,0a6.94,6.94,0,0,0,4.88-2.43,9.48,9.48,0,0,0,1.76-5.58,6.69,6.69,0,0,0,2.86,3.18l.3.16c.24.12.48.24.73.34l.56.2.39.12a8.72,8.72,0,0,0,.95.2l.29,0a9,9,0,0,0,1.09.08h0a9.14,9.14,0,0,0,1.11-.07l.2,0a8.8,8.8,0,0,0,1-.21l.06,0a8.26,8.26,0,0,0,.95-.33l.13-.05a8,8,0,0,0,.9-.46l.11-.07a7.46,7.46,0,0,0,.77-.54l.06,0a9.11,9.11,0,0,0,.86-.68l.09-.1a5.48,5.48,0,0,0,1.09-1.74v.44h0a13.7,13.7,0,0,0,0,1.73,6.56,6.56,0,0,0,4,5.19l.08,0h0a12.89,12.89,0,0,0,4.26.65c.24,0,.47,0,.7,0a6.94,6.94,0,0,0,4.88-2.43,9.48,9.48,0,0,0,1.76-5.58,6.69,6.69,0,0,0,2.86,3.18l.3.16c.24.12.48.24.73.34l.56.2.39.12a8.72,8.72,0,0,0,.95.2l.29,0a9,9,0,0,0,1.09.08h0a9.14,9.14,0,0,0,1.11-.07l.2,0a8.8,8.8,0,0,0,1-.21l.06,0a8.26,8.26,0,0,0,.95-.33l.13-.05a8,8,0,0,0,.9-.46l.11-.07a7.46,7.46,0,0,0,.77-.54l.06,0a9.11,9.11,0,0,0,.86-.68l.09-.1a5.37,5.37,0,0,0,1-1.64v.42h0a13.67,13.67,0,0,0,0,1.73,6.56,6.56,0,0,0,4,5.19l.08,0h0a12.89,12.89,0,0,0,4.26.65c.24,0,.47,0,.7,0a6.94,6.94,0,0,0,4.88-2.43,9.48,9.48,0,0,0,1.76-5.58,6.69,6.69,0,0,0,2.86,3.18l.3.16c.24.12.48.24.73.34l.56.2.39.12a8.73,8.73,0,0,0,.95.2l.29,0a9,9,0,0,0,1.09.08h0a9.19,9.19,0,0,0,1.11-.07l.2,0a8.8,8.8,0,0,0,1-.21l.06,0a8.32,8.32,0,0,0,.95-.33l.13-.05a8,8,0,0,0,.9-.46l.11-.07a7.5,7.5,0,0,0,.77-.54l.06,0a9.15,9.15,0,0,0,.86-.68l.09-.1a5.48,5.48,0,0,0,1.09-1.74v.44h0a13.78,13.78,0,0,0,0,1.73,6.56,6.56,0,0,0,4,5.19l.08,0h0a12.89,12.89,0,0,0,4.26.65c.24,0,.47,0,.7,0a6.94,6.94,0,0,0,4.88-2.43,9.48,9.48,0,0,0,1.76-5.58,6.69,6.69,0,0,0,2.86,3.18l.3.16c.24.12.48.24.73.34l.56.2.39.12a8.73,8.73,0,0,0,.95.2l.29,0a9,9,0,0,0,1.09.08h0a9.19,9.19,0,0,0,1.11-.07l.2,0a8.8,8.8,0,0,0,1-.21l.06,0a8.32,8.32,0,0,0,.95-.33l.13-.05a8,8,0,0,0,.9-.46l.11-.07a7.5,7.5,0,0,0,.77-.54l.06,0a9.15,9.15,0,0,0,.86-.68l.09-.1a5.48,5.48,0,0,0,1.09-1.74v-4.15C820.83,445.55,817.87,443.73,814.52,443.73Zm-340.56,8c-.75,1.62-3.28,2.18-7.21,2.19-3.57,0-6.4-.48-7.72-1.36l2.48-44.7c2.37.18,5,.29,5,.29a27.93,27.93,0,0,0,5.38-.63s2.1,42.33,2.1,42.52C474,451.67,473.94,451.72,474,451.76Zm30.28,0c-.75,1.62-3.28,2.18-7.21,2.19-3.57,0-6.4-.48-7.72-1.36l2.48-44.7c2.37.18,5,.29,5,.29a27.93,27.93,0,0,0,5.38-.63s2.1,42.33,2.1,42.52C504.27,451.67,504.23,451.72,504.24,451.76Zm30.14.08c-.75,1.62-3.28,2.18-7.21,2.19-3.57,0-6.4-.48-7.72-1.36l2.48-44.7c2.37.18,5,.29,5,.29a27.91,27.91,0,0,0,5.38-.63s2.1,42.33,2.1,42.52C534.41,451.76,534.37,451.8,534.38,451.84Zm30.28,0c-.75,1.62-3.28,2.18-7.21,2.19-3.57,0-6.4-.48-7.72-1.36l2.48-44.7c2.37.18,5,.29,5,.29a27.91,27.91,0,0,0,5.38-.63s2.1,42.33,2.1,42.52C564.7,451.76,564.65,451.8,564.67,451.84Zm30.3-.08c-.75,1.62-3.28,2.18-7.21,2.19-3.57,0-6.4-.48-7.72-1.36l2.48-44.7c2.37.18,5,.29,5,.29a27.93,27.93,0,0,0,5.38-.63s2.1,42.33,2.1,42.52C595,451.67,595,451.72,595,451.76Zm30.28,0c-.75,1.62-3.28,2.18-7.21,2.19-3.57,0-6.4-.48-7.72-1.36l2.48-44.7c2.37.18,5,.29,5,.29a27.93,27.93,0,0,0,5.38-.63s2.1,42.33,2.1,42.52C625.29,451.67,625.24,451.72,625.25,451.76Zm30.24.08c-.75,1.62-3.28,2.18-7.21,2.19-3.57,0-6.4-.48-7.72-1.36L643,408c2.37.18,5,.29,5,.29a27.91,27.91,0,0,0,5.38-.63s2.1,42.33,2.1,42.52C655.52,451.76,655.48,451.8,655.49,451.84Zm30.28,0c-.75,1.62-3.28,2.18-7.21,2.19-3.57,0-6.4-.48-7.72-1.36l2.48-44.7c2.37.18,5,.29,5,.29a27.91,27.91,0,0,0,5.38-.63s2.1,42.33,2.1,42.52C685.81,451.76,685.76,451.8,685.77,451.84Zm30.31-.08c-.75,1.62-3.28,2.18-7.21,2.19-3.57,0-6.4-.48-7.72-1.36l2.48-44.7c2.37.18,5,.29,5,.29a27.93,27.93,0,0,0,5.38-.63s2.1,42.33,2.1,42.52C716.11,451.67,716.07,451.72,716.08,451.76Zm30.28,0c-.75,1.62-3.28,2.18-7.21,2.19-3.57,0-6.4-.48-7.72-1.36l2.48-44.7c2.37.18,5,.29,5,.29a27.93,27.93,0,0,0,5.38-.63s2.1,42.33,2.1,42.52C746.4,451.67,746.35,451.72,746.36,451.76Zm30.24.08c-.75,1.62-3.28,2.18-7.21,2.19-3.57,0-6.4-.48-7.72-1.36l2.48-44.7c2.37.18,5,.29,5,.29a27.91,27.91,0,0,0,5.38-.63s2.1,42.33,2.1,42.52C776.63,451.76,776.59,451.8,776.6,451.84Zm30.28,0c-.75,1.62-3.28,2.18-7.21,2.19-3.57,0-6.4-.48-7.72-1.36l2.48-44.7c2.37.18,5,.29,5,.29a27.91,27.91,0,0,0,5.38-.63s2.1,42.33,2.1,42.52C806.92,451.76,806.87,451.8,806.89,451.84Z"/></g><path class="cls-23" d="M264.34,355.87v6.36a11.94,11.94,0,0,0,3,.74l3.47,12.64H528.66l2.53-12.68a12.18,12.18,0,0,0,3.13-1.31v-5.75Z"/><path class="cls-24" d="M513.94,353.15a7.44,7.44,0,0,0-8.5,0H480.37a7.44,7.44,0,0,0-8.5,0H446.48a7.44,7.44,0,0,0-8.5,0h-21.3a7.44,7.44,0,0,0-8.5,0H387.81a7.44,7.44,0,0,0-8.5,0H358a7.44,7.44,0,0,0-8.5,0H324.24a7.44,7.44,0,0,0-8.5,0H291.82a7.44,7.44,0,0,0-8.52,0H266.62v7.55s.71,7.56,1.68,8.69h.56c5.53,0,10.86-3.51,10.06-8.7h1.53a7.08,7.08,0,0,0,7.11,5.37,7.32,7.32,0,0,0,6.69-4.25c.3,4.7,4.67,7.32,9.3,7.32,5,0,9.76-3.23,9-8.43h.28a7.08,7.08,0,0,0,7.11,5.37,7.28,7.28,0,0,0,7.09-5.37h.07c-.27,5,4.7,7.91,9.8,7.91s10.09-3,9.35-7.91h.33a7.08,7.08,0,0,0,7.11,5.37,7.29,7.29,0,0,0,7.06-5.26c-.24,5,3.73,7.8,8,7.8s8.22-2.94,7.76-7.67a7.09,7.09,0,0,0,7,5.14,7.32,7.32,0,0,0,6.77-4.43,7.46,7.46,0,0,0,7.64,7.48,7.33,7.33,0,0,0,7.45-8,7.11,7.11,0,0,0,7,5,7.32,7.32,0,0,0,6.77-4.42,8.19,8.19,0,0,0,8.3,8.4,8,8,0,0,0,8.12-8,7.18,7.18,0,0,0,6.62,4,7.3,7.3,0,0,0,6.89-4.76c0,5.61,4.9,8.73,10.13,8.73s10.33-3.4,9.87-8.88a7.11,7.11,0,0,0,7,4.91,7.3,7.3,0,0,0,6.9-4.78c.37,4.44,4.82,7.61,9.94,7.61s9.51-3.41,9.66-8a7.09,7.09,0,0,0,7.07,5.21,7.3,7.3,0,0,0,7-5.06c.18,5.13,5.27,8.84,11.15,8.84a7.59,7.59,0,0,0,2-.16c1.12-4.55,1.86-9.95,1.86-9.95l.54-6.58Zm2.83,7.58v0h1.67Z"/><path class="cls-25" d="M517,355.12a7.22,7.22,0,0,1-7.32,7.13,7.05,7.05,0,0,1-7.32-7.13,7.32,7.32,0,0,1,14.64,0Z"/><path class="cls-25" d="M530.69,365.74a15.4,15.4,0,0,1-2.86.28c-6,0-11.16-3.84-11.16-9.12l15.56-.28A57.44,57.44,0,0,1,530.69,365.74Z"/><path class="cls-25" d="M503.5,356.79c0,4.75-4.72,8.28-10.56,8.28s-10.88-3.46-10.88-8.21Z"/><path class="cls-25" d="M483.43,355.12a7.22,7.22,0,0,1-7.32,7.13,7.05,7.05,0,0,1-7.32-7.13,7.32,7.32,0,0,1,14.64,0Z"/><path class="cls-25" d="M449.55,355.12a7.22,7.22,0,0,1-7.32,7.13,7.05,7.05,0,0,1-7.32-7.13,7.32,7.32,0,0,1,14.64,0Z"/><path class="cls-25" d="M419.74,355.12a7.22,7.22,0,0,1-7.32,7.13,7.05,7.05,0,0,1-7.32-7.13,7.32,7.32,0,0,1,14.64,0Z"/><path class="cls-25" d="M470,356.79c.93,5.81-4.77,9.43-10.66,9.43s-11.42-3.36-11-9.35Z"/><path class="cls-25" d="M435.54,356.79a8.09,8.09,0,0,1-8,9.43c-4.45,0-8.62-3.36-8.29-9.35Z"/><path class="cls-25" d="M390.87,355.12a7.22,7.22,0,0,1-7.32,7.13,7.05,7.05,0,0,1-7.32-7.13,7.32,7.32,0,0,1,14.64,0Z"/><path class="cls-25" d="M361,355.12a7.22,7.22,0,0,1-7.32,7.13,7.05,7.05,0,0,1-7.32-7.13,7.32,7.32,0,0,1,14.64,0Z"/><path class="cls-25" d="M327.3,355.12a7.22,7.22,0,0,1-7.32,7.13,7.05,7.05,0,0,1-7.32-7.13,7.32,7.32,0,0,1,14.64,0Z"/><path class="cls-25" d="M294.88,355.11a7.22,7.22,0,0,1-7.32,7.13,7.05,7.05,0,0,1-7.32-7.13,7.32,7.32,0,0,1,14.64,0Z"/><path class="cls-25" d="M405.37,356.79a7.35,7.35,0,0,1-7.4,8.5c-4.09,0-7.93-3-7.63-8.43Z"/><path class="cls-25" d="M376.47,356.79c.67,4.92-3.45,8-7.73,8s-8.28-2.85-8-7.92Z"/><path class="cls-25" d="M346.28,356.79c.81,4.92-4.18,8-9.34,8s-10.18-3-9.8-8.07Z"/><path class="cls-25" d="M312.58,356.79c.79,5.24-4,8.51-9,8.51s-9.67-3-9.3-8.44Z"/><path class="cls-25" d="M278.91,356.79c.88,5.24-4.49,8.78-10,8.78h-.56c-1-1.13-1.68-8.69-1.68-8.69Z"/><rect class="cls-25" x="266.62" y="351.66" width="265.62" height="6.62"/><path class="cls-1" d="M502.37,354.64h0v0Z"/><path class="cls-1" d="M279,354.25h0v0Z"/><path class="cls-1" d="M483.3,354.5v-.21l-.06.21Z"/><polygon class="cls-26" points="276.49 588.88 308.45 588.84 276.49 588.84 276.49 588.88"/><polygon class="cls-24" points="308.45 375.25 308.45 588.84 302.58 597.08 302.58 625.54 318.03 601.56 318.03 375.21 308.45 375.25"/><polygon class="cls-27" points="276.49 375.35 276.49 588.84 308.45 588.84 308.45 375.25 276.49 375.35"/><rect class="cls-28" x="270.62" y="597.08" width="31.96" height="49.7"/><polygon class="cls-29" points="302.58 597.08 270.62 597.08 276.49 588.84 308.45 588.84 302.58 597.08"/><polygon class="cls-24" points="491.64 375.25 491.64 588.84 497.52 597.08 497.52 625.54 482.07 601.56 482.07 375.21 491.64 375.25"/><polygon class="cls-27" points="523.6 375.35 523.6 588.84 491.64 588.84 491.64 375.25 523.6 375.35"/><rect class="cls-28" x="497.52" y="597.08" width="31.96" height="49.7" transform="translate(1026.99 1243.86) rotate(-180)"/><polygon class="cls-29" points="497.52 597.08 529.48 597.08 523.6 588.84 491.64 588.84 497.52 597.08"/><rect class="cls-30" x="318.03" y="375.21" width="164.04" height="27.78"/><rect class="cls-31" x="318.03" y="402.26" width="164.04" height="199.48"/><path class="cls-32" d="M550.06,344.41h0c-1.1-.35-6.94-2.44-14.1-9.68-9.47-9.57-17-24.07-21.9-42,2.27-.07,4.17-.07,5.43-.07h1v.06l.38-.07c.21,0,.29,0,.33-.09,4.39-1.36,8.34-9.25,8.6-14a5.53,5.53,0,0,0-.63-3.3c-.62-.94-2.58-1.47-5.11-.68h0c-8.84,2.59-81.55,4.31-125.76,4.31-52,0-126.64-4.14-128.2-4.23-2.52-.78-4.46-.25-5.09.69a5.53,5.53,0,0,0-.63,3.3c.26,4.74,4.21,12.64,8.61,14a.45.45,0,0,0,.23.07l.46.09v-.07h1.8c1.75,0,4.1,0,6.37.06C275.81,315,267,327.7,260.57,334.49c-7.24,7.66-13.35,9.89-13.94,9.76l0,0a7.77,7.77,0,1,0,5.4,14.13,49.37,49.37,0,0,0,6.2-3.53c.27,3.27,280.07,3,280.12.53a47.86,47.86,0,0,0,5.62,3.08,7.79,7.79,0,1,0,6-14.07ZM279,354.25v0Zm204.3.25h-.06l.06-.21Zm19.06.15v0Z"/><path class="cls-33" d="M529.79,279q0-.23,0-.46a5.53,5.53,0,0,0-.63-3.3c-.62-.94-2.58-1.47-5.11-.68h0c-8.84,2.59-81.55,4.31-125.76,4.31-52,0-126.64-4.14-128.2-4.23-2.52-.78-4.46-.25-5.09.69a4.07,4.07,0,0,0-.6,1.79C317,286.78,527.29,279.36,529.79,279Z"/><path class="cls-33" d="M555.39,351.44a7.66,7.66,0,0,1-7.62,7.7,7.48,7.48,0,0,1-7.62-7.7,7.62,7.62,0,1,1,15.24,0Z"/><path class="cls-33" d="M516.34,351.66a7.22,7.22,0,0,1-7.32,7.13,7.05,7.05,0,0,1-7.32-7.13,7.32,7.32,0,0,1,14.64,0Z"/><path class="cls-33" d="M483.43,351.66a7.22,7.22,0,0,1-7.32,7.13,7.05,7.05,0,0,1-7.32-7.13,7.32,7.32,0,0,1,14.64,0Z"/><path class="cls-33" d="M449.55,351.66a7.22,7.22,0,0,1-7.32,7.13,7.05,7.05,0,0,1-7.32-7.13,7.32,7.32,0,0,1,14.64,0Z"/><path class="cls-33" d="M419.74,351.66a7.22,7.22,0,0,1-7.32,7.13,7.05,7.05,0,0,1-7.32-7.13,7.32,7.32,0,0,1,14.64,0Z"/><path class="cls-33" d="M391.33,351.66a7.22,7.22,0,0,1-7.32,7.13,7.05,7.05,0,0,1-7.32-7.13,7.32,7.32,0,0,1,14.64,0Z"/><path class="cls-33" d="M361.5,351.66a7.22,7.22,0,0,1-7.32,7.13,7.05,7.05,0,0,1-7.32-7.13,7.32,7.32,0,0,1,14.64,0Z"/><path class="cls-33" d="M328,351.66a7.22,7.22,0,0,1-7.32,7.13,7.05,7.05,0,0,1-7.32-7.13,7.32,7.32,0,0,1,14.64,0Z"/><path class="cls-33" d="M295.59,351.9a7.22,7.22,0,0,1-7.32,7.13A7.05,7.05,0,0,1,281,351.9a7.32,7.32,0,0,1,14.64,0Z"/><path class="cls-34" d="M484.3,286.78h18.64a9.57,9.57,0,0,0-3.11,5.76H488.49S487.8,287.93,484.3,286.78Z"/><path class="cls-34" d="M459.8,286.78h19s-3.82,2.35-4.12,5.76H463.81S463.15,287.93,459.8,286.78Z"/><path class="cls-34" d="M509.26,286.27h17.53s-.75,3-5.57,6.26l-7.17.17A9.16,9.16,0,0,0,509.26,286.27Z"/><path class="cls-34" d="M286.48,286.45l-19.59.33s2.17,4.63,6.35,5.91H282A8,8,0,0,1,286.48,286.45Z"/><path class="cls-34" d="M500.66,289.12s7.91,27.37,21.46,45.7c0,0,8.24,11.25,18.65,17.79,0,0,2.14,4.58,4,6.13,0,0-14.58-5.3-26-22.33,0,0-16.06-23.9-19.56-44C499.83,292.11,499.41,289.12,500.66,289.12Z"/><path class="cls-34" d="M491.58,292.44s2.64,14.87,12.36,32.47c0,0,9.57,16.93,14.08,23.31,0,0,3,4.79,1.26,6.42l-2.66,0s1.65-3.84-2.44-7.85a127.32,127.32,0,0,1-13.39-21.11,171.49,171.49,0,0,1-12.31-33.11Z"/><path class="cls-34" d="M466.43,292.46a180.76,180.76,0,0,0,7.51,28.83s9.91,28.87,13.9,32.94l-4.59.26a9.06,9.06,0,0,0-1.81-7.2s-9.35-21.64-12.09-30.76c0,0-4.33-18.23-5.53-24Z"/><path class="cls-34" d="M475.21,289.66a277.89,277.89,0,0,0,14.94,38.9s7.42,15.37,13.36,21.05a22.55,22.55,0,0,0,0,7,156.66,156.66,0,0,1-18.2-30.83s-9.55-24-10.82-33.36C474.48,292.44,474.8,291.35,475.21,289.66Z"/><path class="cls-34" d="M435.62,286.78h19s-3.82,2.35-4.12,5.76H439.63S439,287.93,435.62,286.78Z"/><path class="cls-34" d="M411.8,286.78h18.28s-3.67,2.35-4,5.76H415.66S415,287.93,411.8,286.78Z"/><path class="cls-34" d="M389.42,286.78h16.63s-3.34,2.35-3.6,5.76l-9-.13S392.36,287.93,389.42,286.78Z"/><path class="cls-34" d="M365.95,286.78h18.28s-3.67,2.35-4,5.76H369.81S369.17,287.93,365.95,286.78Z"/><path class="cls-34" d="M341.38,286.78h18.28s-3.22,2.17-3.51,5.58l-10.91.18S344.61,287.93,341.38,286.78Z"/><path class="cls-34" d="M317,286.78h18.89s-3.79,2.35-4.09,5.76l-10.67-.13S320.33,287.93,317,286.78Z"/><path class="cls-34" d="M292.91,286.78h18.61s-3.78,2.36-4.07,5.77l-11.3,0S296.14,287.93,292.91,286.78Z"/><path class="cls-34" d="M442.25,292.46s1.19,13.54,3.47,28.83c0,0,4.76,29.27,8.29,33.32h-4.76a20,20,0,0,0-.34-5.61s-4.72-19.3-6.49-32.61c0,0-2.25-18.14-2.8-23.86Z"/><path class="cls-34" d="M451.39,289.12s4.83,27.42,10.19,42.16c0,0,4.85,14.13,8,18a21.75,21.75,0,0,0-.51,5.18s-4.42-8.15-9.39-23c0,0-8.08-27-9.25-39.73C450.4,291.74,450.21,290.79,451.39,289.12Z"/><path class="cls-34" d="M418.33,292.24s.22,6.38,1.65,29.91c0,0,1.33,26.23,3,32.35l-3.8-.13a7.64,7.64,0,0,0,.43-4.58s-1.26-20.12-2.21-33.41c0,0-1.73-20.21-1.92-25.93Z"/><path class="cls-34" d="M396.24,292.46s-.78,6.2-1.62,29.89c0,0-1.06,26.07-.72,32.15l-3.56-.14a9.37,9.37,0,0,0,.54-4.38s1.42-20.07,1.75-33.45c0,0,.61-19.63,1-25.39Z"/><path class="cls-34" d="M372.78,291.72s-.89,16.87-3,29.88-4.36,27.39-5.84,32.85h-3.35a19.53,19.53,0,0,0,1.08-4.06s3.29-14.38,5.76-33.53c0,0,2.11-19.36,2.47-25.12Z"/><path class="cls-34" d="M348.17,292.49s-2.65,15.56-5.49,28.39a177.73,177.73,0,0,1-11.34,33.33l-5.17,1.15a74.38,74.38,0,0,0,4.42-8.49s12.74-26.95,14.65-54.33Z"/><path class="cls-34" d="M324.44,292.28s-7.57,36.8-25.4,62.5l-4.78-.43s4.36-6.19,7.34-10.81c0,0,14.16-23.29,19.63-49.76.1-.48-.19-1.56-.1-2Z"/><path class="cls-34" d="M299,292.28S294.7,324,264.71,354.84l-6.49-.42A71.71,71.71,0,0,0,274,339.91s16.38-19.66,21.85-46.13c.1-.48.58-3,.68-3.52Z"/><path class="cls-34" d="M427.57,288.51s3.68,32.89,5.5,41.06c2.14,9.63,2.55,13.35,4.61,17.94,0,0-2.74.62-2.74,5.64,0,0-1.65-5.88-4.05-21.42,0,0-5.11-27.66-4.87-40.4C426,291.33,426.24,290.84,427.57,288.51Z"/><path class="cls-34" d="M403.87,288.15s3.06,54.34,4,59.49c0,0-1.81,0-2.63,4.1,0,0-3-46.46-2.79-59.2A10.7,10.7,0,0,1,403.87,288.15Z"/><path class="cls-34" d="M382.24,288.51s-3.6,54-2.69,59c0,0-2.55.53-3.37,4.67,0,0,3-47.11,3.89-59.88A7.31,7.31,0,0,1,382.24,288.51Z"/><path class="cls-34" d="M358.51,286.78s-.62,17.08-2.65,33.25a213.64,213.64,0,0,1-5,26.38s-2.31,0-4,3.66c0,0,9-39.4,9.3-57.72C356.11,292.35,356.7,288.43,358.51,286.78Z"/><path class="cls-34" d="M334.69,287.61s-3.24,33.69-15,58.23c0,0-3.77.09-5.66,2.6a205,205,0,0,0,17.65-56.7S332.94,288.28,334.69,287.61Z"/><path class="cls-34" d="M310.58,287.25s-3,25.8-23.18,58.63c0,0-2.73,1.7-6.45,3.66,0,0,18.36-25.46,26.39-57.8C307.34,291.74,308.48,288.24,310.58,287.25Z"/><path class="cls-34" d="M556.14,352a7.66,7.66,0,0,1-7.62,7.7,7.48,7.48,0,0,1-7.62-7.7,7.62,7.62,0,1,1,15.24,0Z"/><path class="cls-34" d="M517,352.61a7.22,7.22,0,0,1-7.32,7.13,7.05,7.05,0,0,1-7.32-7.13,7.32,7.32,0,0,1,14.64,0Z"/><path class="cls-34" d="M538.67,354c0,5.27-4.85,9.55-10.83,9.55s-11.16-3.84-11.16-9.12Z"/><path class="cls-34" d="M503.5,354.28c0,4.75-4.72,8.28-10.56,8.28s-10.88-3.46-10.88-8.21Z"/><path class="cls-34" d="M483.43,352.61a7.22,7.22,0,0,1-7.32,7.13,7.05,7.05,0,0,1-7.32-7.13,7.32,7.32,0,0,1,14.64,0Z"/><path class="cls-34" d="M450.11,352.61a7.38,7.38,0,0,1-7.6,7.13c-4.2,0-7.6-2.91-7.6-7.13a7.62,7.62,0,0,1,15.2,0Z"/><path class="cls-34" d="M419.74,352.61a7.22,7.22,0,0,1-7.32,7.13,7.05,7.05,0,0,1-7.32-7.13,7.32,7.32,0,0,1,14.64,0Z"/><path class="cls-34" d="M470,354.28c.9,5.81-4.6,9.43-10.28,9.43s-11-3.36-10.6-9.35Z"/><path class="cls-34" d="M435.54,354.28a8.09,8.09,0,0,1-8,9.43c-4.45,0-8.62-3.36-8.29-9.35Z"/><path class="cls-34" d="M390.87,352.61a7.22,7.22,0,0,1-7.32,7.13,7.05,7.05,0,0,1-7.32-7.13,7.32,7.32,0,0,1,14.64,0Z"/><path class="cls-34" d="M361,352.61a7.22,7.22,0,0,1-7.32,7.13,7.05,7.05,0,0,1-7.32-7.13,7.32,7.32,0,0,1,14.64,0Z"/><path class="cls-34" d="M327.3,352.61a7.22,7.22,0,0,1-7.32,7.13,7.05,7.05,0,0,1-7.32-7.13,7.32,7.32,0,0,1,14.64,0Z"/><path class="cls-34" d="M295.48,352.61c0,3.94-3.87,7.12-7.91,7.12a7.05,7.05,0,0,1-7.32-7.13,7.22,7.22,0,0,1,7.32-7.13C291.6,345.48,295.48,348.68,295.48,352.61Z"/><path class="cls-34" d="M405.37,354.28a7.35,7.35,0,0,1-7.4,8.5c-4.09,0-7.93-3-7.63-8.43Z"/><path class="cls-34" d="M376.47,354.28c.67,4.92-3.45,8-7.73,8s-8.28-2.85-8-7.92Z"/><path class="cls-34" d="M346.28,354.28c.81,4.92-4.18,8-9.34,8s-10.18-3-9.8-8.07Z"/><path class="cls-34" d="M312.58,354.28c.79,5.24-4,8.51-9,8.51s-9.67-3-9.3-8.44Z"/><path class="cls-34" d="M278.91,354.28c.88,5.24-4.49,8.78-10,8.78s-10.67-2.51-10.65-8.65Z"/><path class="cls-33" d="M256.32,351.66a7.92,7.92,0,0,1-8,7.83,7.73,7.73,0,0,1-8-7.83,8,8,0,0,1,16,0Z"/><path class="cls-34" d="M255.67,351.9a7.92,7.92,0,0,1-8,7.83,7.73,7.73,0,0,1-8-7.83,8,8,0,0,1,16,0Z"/><rect class="cls-34" x="266.62" y="354.37" width="264.65" height="2.94"/><polygon class="cls-29" points="509.41 667.35 289.58 667.35 310.07 635.53 488.88 635.71 509.41 667.35"/><rect class="cls-12" x="289.58" y="667.34" width="219.83" height="11.54"/><polygon class="cls-29" points="505.53 649.76 293.8 649.76 314.29 617.95 485 618.13 505.53 649.76"/><rect class="cls-12" x="293.8" y="649.76" width="211.73" height="11.54"/><polygon class="cls-29" points="502.6 633.37 297.53 633.37 318.03 601.56 482.07 601.74 502.6 633.37"/><rect class="cls-12" x="297.53" y="633.37" width="205.07" height="11.54"/><line class="cls-35" x1="400.07" y1="600.92" x2="400.07" y2="403"/><rect class="cls-36" x="496.05" y="401.46" width="23.14" height="160.17"/><rect class="cls-37" x="498.61" y="404.28" width="17.8" height="154.88"/><text class="cls-38" transform="translate(507.29 420.84)">春夏秋冬集千祥</text><rect class="cls-36" x="280.9" y="401.46" width="23.14" height="160.17"/><rect class="cls-37" x="283.46" y="404.28" width="17.8" height="154.88"/><text class="cls-38" transform="translate(292.14 420.84)">東西南北迎百福</text><ellipse class="cls-39" cx="538.73" cy="415.98" rx="29.16" ry="27.16"/><ellipse class="cls-40" cx="538.11" cy="414.9" rx="24.96" ry="22.95"/><line class="cls-41" x1="538.95" y1="386.31" x2="538.95" y2="354.97"/><path class="cls-42" d="M530.14,384.54h17.19a2,2,0,0,1,2,2v3.16a1,1,0,0,1-1,1H529.14a1,1,0,0,1-1-1v-3.16A2,2,0,0,1,530.14,384.54Z"/><path class="cls-43" d="M546.89,472.19a.26.26,0,0,1-.26-.26V446.08a.26.26,0,0,1,.53,0v25.84A.26.26,0,0,1,546.89,472.19Z"/><path class="cls-44" d="M546.07,472.19a.26.26,0,0,1-.26-.26V446.08a.26.26,0,0,1,.53,0v25.84A.26.26,0,0,1,546.07,472.19Z"/><path class="cls-45" d="M545.25,472.19a.26.26,0,0,1-.26-.26V446.08a.26.26,0,0,1,.53,0v25.84A.26.26,0,0,1,545.25,472.19Z"/><path class="cls-46" d="M544.43,472.19a.26.26,0,0,1-.26-.26V446.08a.26.26,0,0,1,.53,0v25.84A.26.26,0,0,1,544.43,472.19Z"/><path class="cls-47" d="M543.61,472.19a.26.26,0,0,1-.26-.26V446.08a.26.26,0,0,1,.53,0v25.84A.26.26,0,0,1,543.61,472.19Z"/><path class="cls-48" d="M542.79,472.19a.26.26,0,0,1-.26-.26V446.08a.26.26,0,0,1,.53,0v25.84A.26.26,0,0,1,542.79,472.19Z"/><path class="cls-49" d="M542,472.19a.26.26,0,0,1-.26-.26V446.08a.26.26,0,0,1,.53,0v25.84A.26.26,0,0,1,542,472.19Z"/><path class="cls-50" d="M541.15,472.19a.26.26,0,0,1-.26-.26V446.08a.26.26,0,0,1,.53,0v25.84A.26.26,0,0,1,541.15,472.19Z"/><path class="cls-51" d="M540.33,472.19a.26.26,0,0,1-.26-.26V446.08a.26.26,0,0,1,.53,0v25.84A.26.26,0,0,1,540.33,472.19Z"/><path class="cls-52" d="M539.51,472.19a.26.26,0,0,1-.26-.26V446.08a.26.26,0,0,1,.53,0v25.84A.26.26,0,0,1,539.51,472.19Z"/><path class="cls-53" d="M538.69,472.19a.26.26,0,0,1-.26-.26V446.08a.26.26,0,0,1,.53,0v25.84A.26.26,0,0,1,538.69,472.19Z"/><path class="cls-54" d="M537.87,472.19a.26.26,0,0,1-.26-.26V446.08a.26.26,0,0,1,.53,0v25.84A.26.26,0,0,1,537.87,472.19Z"/><path class="cls-55" d="M537,472.19a.26.26,0,0,1-.26-.26V446.08a.26.26,0,0,1,.53,0v25.84A.26.26,0,0,1,537,472.19Z"/><path class="cls-56" d="M536.23,472.19a.26.26,0,0,1-.26-.26V446.08a.26.26,0,0,1,.53,0v25.84A.26.26,0,0,1,536.23,472.19Z"/><path class="cls-57" d="M535.41,472.19a.26.26,0,0,1-.26-.26V446.08a.26.26,0,0,1,.53,0v25.84A.26.26,0,0,1,535.41,472.19Z"/><path class="cls-58" d="M534.59,472.19a.26.26,0,0,1-.26-.26V446.08a.26.26,0,0,1,.53,0v25.84A.26.26,0,0,1,534.59,472.19Z"/><path class="cls-59" d="M533.77,472.19a.26.26,0,0,1-.26-.26V446.08a.26.26,0,0,1,.53,0v25.84A.26.26,0,0,1,533.77,472.19Z"/><path class="cls-60" d="M532.95,472.19a.26.26,0,0,1-.26-.26V446.08a.26.26,0,0,1,.53,0v25.84A.26.26,0,0,1,532.95,472.19Z"/><path class="cls-61" d="M532.13,472.19a.26.26,0,0,1-.26-.26V446.08a.26.26,0,0,1,.53,0v25.84A.26.26,0,0,1,532.13,472.19Z"/><path class="cls-62" d="M531.31,472.19a.26.26,0,0,1-.26-.26V446.08a.26.26,0,0,1,.53,0v25.84A.26.26,0,0,1,531.31,472.19Z"/><path class="cls-63" d="M530.49,472.19a.26.26,0,0,1-.26-.26V446.08a.26.26,0,0,1,.53,0v25.84A.26.26,0,0,1,530.49,472.19Z"/><path class="cls-64" d="M529.67,472.19a.26.26,0,0,1-.26-.26V446.08a.26.26,0,0,1,.53,0v25.84A.26.26,0,0,1,529.67,472.19Z"/><path class="cls-42" d="M530,441.28h16.64a2,2,0,0,1,2,2v3.77a0,0,0,0,1,0,0H528a0,0,0,0,1,0,0v-3.77A2,2,0,0,1,530,441.28Z" transform="translate(1076.57 888.33) rotate(180)"/><path class="cls-65" d="M527.49,387.62H550a2,2,0,0,1,2,2v1.05a.87.87,0,0,1-.87.87H526.36a.87.87,0,0,1-.87-.87v-1.05a2,2,0,0,1,2-2Z"/><path class="cls-65" d="M527,440h22.48a2,2,0,0,1,2,2v1.54a0,0,0,0,1,0,0H525a0,0,0,0,1,0,0V442A2,2,0,0,1,527,440Z" transform="translate(1076.57 883.46) rotate(180)"/><path class="cls-41" d="M551.06,391.13c9.85,4.38,16.66,13.8,16.66,24.7s-6.81,20.31-16.65,24.7"/><path class="cls-41" d="M546.67,391.13c4.92,2.19,9.77,11.69,9.71,24.68a38.39,38.39,0,0,1-9.71,24.7"/><path class="cls-41" d="M542.28,391.13s6.25,20.79,0,49.38"/><path class="cls-41" d="M526.11,440.51c-9.58-4.47-16.66-14-16.66-24.68,0-10.9,6.81-20.32,16.66-24.7"/><path class="cls-41" d="M530.49,391.13c-4.92,2.19-9.6,11.87-9.58,24.7,0,9,3.86,17.95,9.58,24.68"/><path class="cls-41" d="M534.88,391.13a120.68,120.68,0,0,0,0,49.38"/><line class="cls-41" x1="537.44" y1="440.41" x2="534.45" y2="438.34"/><line class="cls-41" x1="532.39" y1="440.65" x2="534.45" y2="438.34"/><line class="cls-41" x1="542.72" y1="438.44" x2="539.51" y2="440.51"/><line class="cls-41" x1="545.06" y1="440.67" x2="542.72" y2="438.44"/><line class="cls-41" x1="548.37" y1="438.87" x2="549.43" y2="440.99"/><line class="cls-41" x1="545.06" y1="440.67" x2="548.22" y2="438.63"/><line class="cls-41" x1="532.95" y1="440.03" x2="528.89" y2="438.5"/><line class="cls-41" x1="527.96" y1="440.53" x2="528.89" y2="438.5"/><line class="cls-41" x1="538.73" y1="390.92" x2="534.43" y2="393.19"/><line class="cls-41" x1="538.38" y1="390.72" x2="542.85" y2="393.36"/><line class="cls-41" x1="545.68" y1="391.28" x2="542.85" y2="393.36"/><line class="cls-41" x1="531.89" y1="391.28" x2="534.43" y2="393.19"/><line class="cls-41" x1="551.06" y1="391.13" x2="548.91" y2="392.64"/><line class="cls-41" x1="526.11" y1="391.13" x2="528.14" y2="392.77"/><rect class="cls-36" x="330.5" y="379.21" width="136.9" height="19.8"/><rect class="cls-37" x="333.93" y="381.64" width="130.04" height="14.98"/><text class="cls-66" transform="translate(337.93 393.05)">第安平賢富賜天</text><rect class="cls-36" x="419.65" y="469.62" width="45.97" height="45.97" transform="translate(477.97 -168.71) rotate(45)"/><rect class="cls-37" x="422.37" y="472.34" width="40.53" height="40.53" transform="translate(477.97 -168.71) rotate(45)"/><path class="cls-67" d="M430.87,487.39q4.46-.16,8.93-.1,1,.19,1.12.45.19.61-.51,1.08a2.19,2.19,0,0,1-2,.67,4.21,4.21,0,0,0-1-.13q-.67,0-.83,1.05-.06,7,0,14.1l-.22,1q-.61,1.12-1.31.57a4.05,4.05,0,0,1-.73-3.16l.06-6.79q0-1-.67,0a10.27,10.27,0,0,1-3.86,4,1.53,1.53,0,0,1-1.53-.45q-.64-.89.38-1.88a20.72,20.72,0,0,0,4.75-5.1q1.15-1.72.92-2.55-.13-.64-1.08-.57a20.46,20.46,0,0,0-2.23.38,5.21,5.21,0,0,1-1.5.16q-.61-.16-.7-.45-.51-1.05.8-2A2.52,2.52,0,0,1,430.87,487.39Zm.51-3.79q1.05-1.4,2.26-1a25.21,25.21,0,0,0,4.59.32q1.24.22.86,1.5a1.28,1.28,0,0,1-1.21.61,17,17,0,0,0-5.13.16Q430.77,485.28,431.38,483.59Zm6,8.2q1.63-.73,2.26,1.37l.57,2.55a.89.89,0,0,1-.32,1.05q-.29.19-.8-.38a10.32,10.32,0,0,0-1.79-2.55A1.39,1.39,0,0,1,437.34,491.79Zm4.34-9q3.73-.16,14.35.19,1.18-.06,1.5.38a1.15,1.15,0,0,1-.48,1.21,3,3,0,0,1-1.59,1.12,2.64,2.64,0,0,1-1.56-.38,25.48,25.48,0,0,0-11.13-.29,5.73,5.73,0,0,1-2.3.19,1,1,0,0,1-.35-1.59A3.29,3.29,0,0,1,441.68,482.83Zm.16,11.16q5-.16,10-.1l2.55.19a1.31,1.31,0,0,1,1.15.8,2.78,2.78,0,0,1,.1,1.91q-.16,2.3-.16,4.62.29,3.6-3,2.9a48.94,48.94,0,0,0-8.64.16,4.7,4.7,0,0,1-2.17.13,2.15,2.15,0,0,1-.92-1.95q-.1-2.81-.1-5.64a5.26,5.26,0,0,1,.13-2.17A1.27,1.27,0,0,1,441.84,494Zm.41-5.93a1.45,1.45,0,0,1,1.79-1.59q3.22-.16,6.54-.1a10.76,10.76,0,0,1,2.55.35,1.93,1.93,0,0,1,.64,2.46,6.77,6.77,0,0,0-.1,1.75,1.8,1.8,0,0,1-2,1.6,36.31,36.31,0,0,0-5.61-.06,8.78,8.78,0,0,1-2.55.29,1.54,1.54,0,0,1-1.12-1.63A21,21,0,0,1,442.25,488.06Zm3.79,7.62q-1.18,0-2.36.16a1.19,1.19,0,0,0-.92,1q-.06,1,.8,1,1.34.06,2.68,0,1,0,1-.92l0-.64Q447.1,495.65,446,495.68Zm.26,4.27q-1.4,0-2.81.1-.77.06-.7,1-.13,1.34,1.18,1.31l2.33-.06q.77,0,1-1.08v-.51Q447.26,499.92,446.3,500Zm4.15-11.74a31.27,31.27,0,0,0-5.87.19c-.09.06-.12.39-.1,1s.13,1,.19,1.05q1.34.06,2.77,0t2.9-.06a2.39,2.39,0,0,0,1.05-.22l.1-1A1.1,1.1,0,0,0,450.45,488.22Zm1.72,7.53a15.76,15.76,0,0,0-1.95-.13.77.77,0,0,0-.86.8l0,.7q0,.77,1,.77l2.39,0q.77-.06.7-1Q453.48,495.52,452.17,495.74Zm1.24,5.26q0-.86-.16-1a21.58,21.58,0,0,0-3.09-.16q-.8,0-.8,1a2.35,2.35,0,0,1,0,.67q0,.73,1.05.7h1.72A1.41,1.41,0,0,0,453.41,501Z"/><rect class="cls-36" x="336.06" y="469.62" width="45.97" height="45.97" transform="translate(453.49 -109.6) rotate(45)"/><rect class="cls-37" x="338.78" y="472.34" width="40.53" height="40.53" transform="translate(453.49 -109.6) rotate(45)"/><path class="cls-67" d="M347.28,487.39q4.46-.16,8.93-.1,1,.19,1.12.45.19.61-.51,1.08a2.19,2.19,0,0,1-2,.67,4.21,4.21,0,0,0-1-.13q-.67,0-.83,1.05-.06,7,0,14.1l-.22,1q-.61,1.12-1.31.57a4.05,4.05,0,0,1-.73-3.16l.06-6.79q0-1-.67,0a10.27,10.27,0,0,1-3.86,4,1.53,1.53,0,0,1-1.53-.45q-.64-.89.38-1.88a20.72,20.72,0,0,0,4.75-5.1q1.15-1.72.92-2.55-.13-.64-1.08-.57a20.46,20.46,0,0,0-2.23.38,5.21,5.21,0,0,1-1.5.16q-.61-.16-.7-.45-.51-1.05.8-2A2.52,2.52,0,0,1,347.28,487.39Zm.51-3.79q1.05-1.4,2.26-1a25.21,25.21,0,0,0,4.59.32q1.24.22.86,1.5a1.28,1.28,0,0,1-1.21.61,17,17,0,0,0-5.13.16Q347.18,485.28,347.79,483.59Zm6,8.2q1.63-.73,2.26,1.37l.57,2.55a.89.89,0,0,1-.32,1.05q-.29.19-.8-.38a10.32,10.32,0,0,0-1.79-2.55A1.39,1.39,0,0,1,353.75,491.79Zm4.34-9q3.73-.16,14.35.19,1.18-.06,1.5.38a1.15,1.15,0,0,1-.48,1.21,3,3,0,0,1-1.59,1.12,2.64,2.64,0,0,1-1.56-.38,25.48,25.48,0,0,0-11.13-.29,5.73,5.73,0,0,1-2.3.19,1,1,0,0,1-.35-1.59A3.29,3.29,0,0,1,358.09,482.83Zm.16,11.16q5-.16,10-.1l2.55.19a1.31,1.31,0,0,1,1.15.8,2.78,2.78,0,0,1,.1,1.91q-.16,2.3-.16,4.62.29,3.6-3,2.9a48.94,48.94,0,0,0-8.64.16,4.7,4.7,0,0,1-2.17.13,2.15,2.15,0,0,1-.92-1.95q-.1-2.81-.1-5.64a5.26,5.26,0,0,1,.13-2.17A1.27,1.27,0,0,1,358.25,494Zm.41-5.93a1.45,1.45,0,0,1,1.79-1.59q3.22-.16,6.54-.1a10.76,10.76,0,0,1,2.55.35,1.93,1.93,0,0,1,.64,2.46,6.77,6.77,0,0,0-.1,1.75,1.8,1.8,0,0,1-2,1.6,36.31,36.31,0,0,0-5.61-.06,8.78,8.78,0,0,1-2.55.29,1.54,1.54,0,0,1-1.12-1.63A21,21,0,0,1,358.66,488.06Zm3.79,7.62q-1.18,0-2.36.16a1.19,1.19,0,0,0-.92,1q-.06,1,.8,1,1.34.06,2.68,0,1,0,1-.92l0-.64Q363.51,495.65,362.46,495.68Zm.26,4.27q-1.4,0-2.81.1-.77.06-.7,1-.13,1.34,1.18,1.31l2.33-.06q.77,0,1-1.08v-.51Q363.67,499.92,362.71,500Zm4.15-11.74a31.27,31.27,0,0,0-5.87.19c-.09.06-.12.39-.1,1s.13,1,.19,1.05q1.34.06,2.77,0t2.9-.06a2.39,2.39,0,0,0,1.05-.22l.1-1A1.1,1.1,0,0,0,366.86,488.22Zm1.72,7.53a15.76,15.76,0,0,0-1.95-.13.77.77,0,0,0-.86.8l0,.7q0,.77,1,.77l2.39,0q.77-.06.7-1Q369.89,495.52,368.58,495.74Zm1.24,5.26q0-.86-.16-1a21.58,21.58,0,0,0-3.09-.16q-.8,0-.8,1a2.35,2.35,0,0,1,0,.67q0,.73,1.05.7h1.72A1.41,1.41,0,0,0,369.83,501Z"/><circle class="cls-68" cx="413.78" cy="514.75" r="5.29"/><path class="cls-69" d="M418.49,520a4.72,4.72,0,1,1-9.43,0c0-3.13,2.11-5.67,4.71-5.67S418.49,516.92,418.49,520Z"/><circle class="cls-70" cx="413.78" cy="514.75" r="3.32"/><circle class="cls-68" cx="387.47" cy="514.75" r="5.29"/><path class="cls-69" d="M392.18,520a4.72,4.72,0,1,1-9.43,0c0-3.13,2.11-5.67,4.71-5.67S392.18,516.92,392.18,520Z"/><circle class="cls-70" cx="387.47" cy="514.75" r="3.32"/><rect class="cls-16" x="318.03" y="375.21" width="164.04" height="1.28"/><path class="cls-71" d="M470.74,402.26H458.44c-1.23,4.61,2.33,8,5.24,8.76,2.05.54,5.91.22,7-.87,0,0,0,.09,0,.12,2.42,6.39,10.75,4.35,11.37,3.74V402.26Z"/><path class="cls-71" d="M470.74,600.48H458.44c-1.23-4.61,2.33-8,5.24-8.76,2.05-.54,5.91-.22,7,.87,0,0,0-.09,0-.12,2.42-6.39,10.75-4.35,11.37-3.74v11.74Z"/><path class="cls-71" d="M329.63,402.26h12.29c1.23,4.61-2.33,8-5.24,8.76-2.05.54-5.91.22-7-.87,0,0,0,.09,0,.12-2.42,6.39-10.75,4.35-11.37,3.74V402.26Z"/><path class="cls-71" d="M329.63,600.48h12.29c1.23-4.61-2.33-8-5.24-8.76-2.05-.54-5.91-.22-7,.87,0,0,0-.09,0-.12-2.42-6.39-10.75-4.35-11.37-3.74v11.74Z"/><rect class="cls-35" x="318.03" y="402.26" width="164.04" height="198.66"/><polygon class="cls-72" points="302.71 625.34 318.03 601.56 482.07 601.56 496.06 623.27 342.06 622.15 340.6 625.54 302.71 625.34"/><path class="cls-18" d="M477.19,277.26c-3.45-.55-7.08-.19-10.56-.12-3.83.08-7.67.09-11.5.11-7.49.05-15,.1-22.48.29s-15-.07-22.48,0c-6.11.09-12.35-.11-18.49.21-4.19-.09-8.38-.09-12.57-.14-19.25-.23-38.52-.37-57.76-.89a.24.24,0,0,0-.13,0c-5-.17-8.74-.29-9.28-.34-2.1-.2-4.19-.42-6.3-.54-4-.24-8.05-.35-12.08-.54-5.75-.27-11.64-1.1-17.47-1.35a6.31,6.31,0,0,0-2.35-.34c-1.27-.09-2.53-.2-3.78-.37a.61.61,0,0,0-.48.13c-.84,0-1.74.14-2.52.13a1.11,1.11,0,0,0-1,.57,3.12,3.12,0,0,0-1.21.9c-1.46,1.76-1,5.73-.28,7.61,1.55,4.13,4.44,9.7,9.59,10.22a.69.69,0,0,0,.69-.41,28.83,28.83,0,0,1-2.91-1.9c-2.59-1.92-8-11.44-5.5-14.19.17-.4,1-1.6,1.5-1.57,6.48.4,12.13.71,18.18,1.22,3.19.27,23.51,1.5,25.44,1.42.92,0,10.19.13,19.81.3,16,.73,31.9,1.32,47.89,1.49,2.77,0,5.54.06,8.31.07,7.51.58,15.23.06,22.76,0H411c6.86.2,13.7-.17,20.54-.46h1.16c7.49,0,15-.11,22.48-.23,3.83-.06,7.67-.14,11.5-.16,3.49,0,7.13.27,10.56-.37A.42.42,0,0,0,477.19,277.26Z"/><path class="cls-18" d="M277.62,306c-1.92,3.66-3.71,7.42-5.8,11a86.31,86.31,0,0,1-7.55,10.46c-2.57,3.17-5.29,6.18-8.11,9.13-2.28,2.39-4.84,5.3-7.9,6.94a10,10,0,0,0-7.88,4.44h0c-2.46,2.92-.94,7.66,1.57,10.15,2.68,2.64,8.93,2.91,11.89.7a.79.79,0,0,0-.4-1.46c-2.8-.22-5.87,1-8.59-.16s-3.84-4.4-3.64-7.21c1.13-1.56,2-3.12,4-4.08a7.18,7.18,0,0,1,1-.42.55.55,0,0,0,.32,0c.47-.12.92-.21,1.37-.29a14.13,14.13,0,0,1,5.16,1.2.39.39,0,0,0,.43-.56,5.33,5.33,0,0,0-1.81-1.59,7.79,7.79,0,0,0,.74-.38,19.58,19.58,0,0,0,4.56-3.75c3.09-3.33,6.13-6.76,9-10.26,5.63-6.77,10.64-14.88,12.13-23.67C278.18,306,277.77,305.75,277.62,306Z"/><path class="cls-18" d="M555.26,347.51a8.58,8.58,0,0,0-3-2.3l-.56-.46-.38-.32a.64.64,0,0,0-.21-.45c-2.37-2.16-5.82-3.3-8.42-5.27a50.07,50.07,0,0,1-8.26-8c-5-6-9-12.85-14-18.9-.13-.16-.36,0-.28.21a105.44,105.44,0,0,0,13.46,20.82,52.59,52.59,0,0,0,7.59,7.52,29.64,29.64,0,0,0,6.29,4.1,8.36,8.36,0,0,0-3.88,1.59.43.43,0,0,0-.18.33l-.44.13c-.18.05-.1.34.08.28l.42-.16a.36.36,0,0,0,.55.15,7.3,7.3,0,0,1,6.79-.88,4.3,4.3,0,0,0,1.27.87.53.53,0,0,0,.29,0,6.82,6.82,0,0,1,1.55,1.7c1.77,2.75,1.39,5.24.23,8a.73.73,0,0,0,.89.89C558.93,356,557.26,349.89,555.26,347.51Z"/><path class="cls-18" d="M277.53,381.15c.85-1.58.72-4,.39-5.82.36-.45.22-1.32-.42-1.42l-.22,0a.85.85,0,0,0-1.19,0l-.77,0a11.31,11.31,0,0,0-4.13-.36,36.69,36.69,0,0,0-1.74-5c-.65-1.85-1.24-3.7-1.93-5.53a.88.88,0,0,0-.23-1.27,18.21,18.21,0,0,0-2.19-.77,12,12,0,0,1-2.85-1.69,9.82,9.82,0,0,1-2-1.9c-.48-.65-.62-1.42-1.16-2a.51.51,0,0,0-.79.1c-1.17,1.77,1.17,4.12,2.44,5.15s3.33,2.56,5.25,2.73a22.47,22.47,0,0,0,1.22,5.82c.65,1.9,1.31,4.93,2.72,6.39a.66.66,0,0,0,.2.14.69.69,0,0,0,.8.51,10.08,10.08,0,0,1,3.59.26l.15,0,.65.19a.78.78,0,0,0,.68-.06c0,.77.09.64.09,1.41-.84,3-.44,6.54-.46,9.58a66.23,66.23,0,0,0,.26,9.88.72.72,0,0,0,1.37,0,66.24,66.24,0,0,0,.26-9.88C277.5,385.58,277.67,383.31,277.53,381.15Z"/><path class="cls-18" d="M302.38,314.53c-2.18,4.36-3.84,9-6,13.38A113.15,113.15,0,0,1,290,339.08c-.86,1-1.56,2.12-2.34,3.18s-2.05,2.12-2.17,3.42a11.11,11.11,0,0,0-1.68.52c-.8.33-.49,1.64.37,1.33a10.32,10.32,0,0,1,4.24-.62c1.34.1,2.5.71,3.81.85.47.05.65-.58.37-.88a5.63,5.63,0,0,0-3.84-1.51c.4-.53.74-1.11,1.06-1.56a14.82,14.82,0,0,0,2.31-4.25.93.93,0,0,0,0-.54c2.45-3,4.1-6.9,5.68-10.3,2.06-4.43,4.45-9,5.38-13.85C303.3,314.4,302.62,314,302.38,314.53Z"/><path class="cls-18" d="M326.72,326.82c-1.3,3-2.37,6-3.42,9-1,2.82-2.35,5.86-2.66,8.85l-.68.14a7.41,7.41,0,0,0-3.93,2.07.8.8,0,0,0,1,1.25,15.58,15.58,0,0,1,3.44-1.63c.93-.24,2.27.06,2.95-.69a.52.52,0,0,0,.08-.61,1.61,1.61,0,0,0-1.23-.66c1.16-2.43,1.72-5.27,2.56-7.8,1-3.15,2.22-6.26,3.22-9.43C328.24,326.62,327,326.08,326.72,326.82Z"/><path class="cls-18" d="M325.48,327.47a0,0,0,0,0,0,.05A0,0,0,0,0,325.48,327.47Z"/><ellipse class="cls-39" cx="257.41" cy="415.98" rx="29.16" ry="27.16"/><ellipse class="cls-73" cx="256.79" cy="414.9" rx="24.96" ry="22.95"/><line class="cls-41" x1="257.63" y1="386.31" x2="257.63" y2="354.97"/><path class="cls-42" d="M248.82,384.54H266a2,2,0,0,1,2,2v3.16a1,1,0,0,1-1,1H247.82a1,1,0,0,1-1-1v-3.16A2,2,0,0,1,248.82,384.54Z"/><path class="cls-74" d="M265.57,472.19a.26.26,0,0,1-.26-.26V446.08a.26.26,0,0,1,.53,0v25.84A.26.26,0,0,1,265.57,472.19Z"/><path class="cls-75" d="M264.75,472.19a.26.26,0,0,1-.26-.26V446.08a.26.26,0,0,1,.53,0v25.84A.26.26,0,0,1,264.75,472.19Z"/><path class="cls-76" d="M263.93,472.19a.26.26,0,0,1-.26-.26V446.08a.26.26,0,0,1,.53,0v25.84A.26.26,0,0,1,263.93,472.19Z"/><path class="cls-77" d="M263.11,472.19a.26.26,0,0,1-.26-.26V446.08a.26.26,0,0,1,.53,0v25.84A.26.26,0,0,1,263.11,472.19Z"/><path class="cls-78" d="M262.29,472.19a.26.26,0,0,1-.26-.26V446.08a.26.26,0,0,1,.53,0v25.84A.26.26,0,0,1,262.29,472.19Z"/><path class="cls-79" d="M261.47,472.19a.26.26,0,0,1-.26-.26V446.08a.26.26,0,0,1,.53,0v25.84A.26.26,0,0,1,261.47,472.19Z"/><path class="cls-80" d="M260.65,472.19a.26.26,0,0,1-.26-.26V446.08a.26.26,0,0,1,.53,0v25.84A.26.26,0,0,1,260.65,472.19Z"/><path class="cls-81" d="M259.83,472.19a.26.26,0,0,1-.26-.26V446.08a.26.26,0,0,1,.53,0v25.84A.26.26,0,0,1,259.83,472.19Z"/><path class="cls-82" d="M259,472.19a.26.26,0,0,1-.26-.26V446.08a.26.26,0,0,1,.53,0v25.84A.26.26,0,0,1,259,472.19Z"/><path class="cls-83" d="M258.19,472.19a.26.26,0,0,1-.26-.26V446.08a.26.26,0,0,1,.53,0v25.84A.26.26,0,0,1,258.19,472.19Z"/><path class="cls-84" d="M257.37,472.19a.26.26,0,0,1-.26-.26V446.08a.26.26,0,0,1,.53,0v25.84A.26.26,0,0,1,257.37,472.19Z"/><path class="cls-85" d="M256.55,472.19a.26.26,0,0,1-.26-.26V446.08a.26.26,0,0,1,.53,0v25.84A.26.26,0,0,1,256.55,472.19Z"/><path class="cls-86" d="M255.73,472.19a.26.26,0,0,1-.26-.26V446.08a.26.26,0,0,1,.53,0v25.84A.26.26,0,0,1,255.73,472.19Z"/><path class="cls-87" d="M254.91,472.19a.26.26,0,0,1-.26-.26V446.08a.26.26,0,0,1,.53,0v25.84A.26.26,0,0,1,254.91,472.19Z"/><path class="cls-88" d="M254.09,472.19a.26.26,0,0,1-.26-.26V446.08a.26.26,0,0,1,.53,0v25.84A.26.26,0,0,1,254.09,472.19Z"/><path class="cls-89" d="M253.27,472.19a.26.26,0,0,1-.26-.26V446.08a.26.26,0,0,1,.53,0v25.84A.26.26,0,0,1,253.27,472.19Z"/><path class="cls-90" d="M252.44,472.19a.26.26,0,0,1-.26-.26V446.08a.26.26,0,0,1,.53,0v25.84A.26.26,0,0,1,252.44,472.19Z"/><path class="cls-91" d="M251.62,472.19a.26.26,0,0,1-.26-.26V446.08a.26.26,0,0,1,.53,0v25.84A.26.26,0,0,1,251.62,472.19Z"/><path class="cls-92" d="M250.8,472.19a.26.26,0,0,1-.26-.26V446.08a.26.26,0,0,1,.53,0v25.84A.26.26,0,0,1,250.8,472.19Z"/><path class="cls-93" d="M250,472.19a.26.26,0,0,1-.26-.26V446.08a.26.26,0,0,1,.53,0v25.84A.26.26,0,0,1,250,472.19Z"/><path class="cls-94" d="M249.16,472.19a.26.26,0,0,1-.26-.26V446.08a.26.26,0,0,1,.53,0v25.84A.26.26,0,0,1,249.16,472.19Z"/><path class="cls-95" d="M248.34,472.19a.26.26,0,0,1-.26-.26V446.08a.26.26,0,0,1,.53,0v25.84A.26.26,0,0,1,248.34,472.19Z"/><path class="cls-42" d="M248.64,441.28h16.64a2,2,0,0,1,2,2v3.77a0,0,0,0,1,0,0H246.64a0,0,0,0,1,0,0v-3.77A2,2,0,0,1,248.64,441.28Z" transform="translate(513.93 888.33) rotate(180)"/><path class="cls-65" d="M246.17,387.62h22.48a2,2,0,0,1,2,2v1.05a.87.87,0,0,1-.87.87H245a.87.87,0,0,1-.87-.87v-1.05a2,2,0,0,1,2-2Z"/><path class="cls-65" d="M245.72,440H268.2a2,2,0,0,1,2,2v1.54a0,0,0,0,1,0,0H243.72a0,0,0,0,1,0,0V442A2,2,0,0,1,245.72,440Z" transform="translate(513.93 883.46) rotate(180)"/><path class="cls-41" d="M269.73,391.13c9.85,4.38,16.66,13.8,16.66,24.7s-6.81,20.31-16.65,24.7"/><path class="cls-41" d="M265.35,391.13c4.92,2.19,9.77,11.69,9.71,24.68a38.39,38.39,0,0,1-9.71,24.7"/><path class="cls-41" d="M261,391.13s6.25,20.79,0,49.38"/><path class="cls-41" d="M244.79,440.51c-9.58-4.47-16.66-14-16.66-24.68,0-10.9,6.81-20.32,16.66-24.7"/><path class="cls-41" d="M249.17,391.13c-4.92,2.19-9.6,11.87-9.58,24.7,0,9,3.86,17.95,9.58,24.68"/><path class="cls-41" d="M253.56,391.13a120.68,120.68,0,0,0,0,49.38"/><line class="cls-41" x1="256.12" y1="440.41" x2="253.13" y2="438.34"/><line class="cls-41" x1="251.07" y1="440.65" x2="253.13" y2="438.34"/><line class="cls-41" x1="261.4" y1="438.44" x2="258.19" y2="440.51"/><line class="cls-41" x1="263.74" y1="440.67" x2="261.4" y2="438.44"/><line class="cls-41" x1="267.05" y1="438.87" x2="268.1" y2="440.99"/><line class="cls-41" x1="263.74" y1="440.67" x2="266.9" y2="438.63"/><line class="cls-41" x1="251.62" y1="440.03" x2="247.56" y2="438.5"/><line class="cls-41" x1="246.64" y1="440.53" x2="247.56" y2="438.5"/><line class="cls-41" x1="257.41" y1="390.92" x2="253.11" y2="393.19"/><line class="cls-41" x1="257.06" y1="390.72" x2="261.52" y2="393.36"/><line class="cls-41" x1="264.36" y1="391.28" x2="261.52" y2="393.36"/><line class="cls-41" x1="250.56" y1="391.28" x2="253.11" y2="393.19"/><line class="cls-41" x1="269.73" y1="391.13" x2="267.58" y2="392.64"/><line class="cls-41" x1="244.78" y1="391.13" x2="246.82" y2="392.77"/><line class="cls-96" x1="256.78" y1="383.46" x2="256.78" y2="356.3"/></g></g></svg>