<svg id="c" xmlns="http://www.w3.org/2000/svg" xmlns:xlink="http://www.w3.org/1999/xlink" viewBox="0 0 70 95"><defs><style>.cls-1{fill:url(#未命名漸層_393);}.cls-2{fill:url(#未命名漸層_393-2);}.cls-3{fill:url(#未命名漸層_393-3);}.cls-4{fill:url(#未命名漸層_403);}.cls-5{fill:url(#未命名漸層_403-2);}.cls-6{fill:url(#未命名漸層_403-3);}.cls-7{fill:url(#未命名漸層_403-4);}.cls-8{fill:url(#未命名漸層_403-5);}.cls-9{fill:url(#未命名漸層_403-6);}.cls-10{fill:url(#未命名漸層_403-7);}</style><linearGradient id="未命名漸層_393" x1="4.31" y1="84.1" x2="65.11" y2="84.1" gradientUnits="userSpaceOnUse"><stop offset="0" stop-color="#d93635"/><stop offset="1" stop-color="#b82525"/></linearGradient><linearGradient id="未命名漸層_393-2" x1="-5.22" y1="50.6" x2="45.92" y2="50.96" xlink:href="#未命名漸層_393"/><linearGradient id="未命名漸層_393-3" x1="28.16" y1="0.69" x2="35.06" y2="18.64" xlink:href="#未命名漸層_393"/><linearGradient id="未命名漸層_403" x1="28.02" y1="9.96" x2="35.24" y2="28.71" gradientUnits="userSpaceOnUse"><stop offset="0" stop-color="#edbb40"/><stop offset="1" stop-color="#e0aa26"/></linearGradient><linearGradient id="未命名漸層_403-2" x1="28.02" y1="61.65" x2="35.24" y2="80.4" xlink:href="#未命名漸層_403"/><linearGradient id="未命名漸層_403-3" x1="27.09" y1="0.97" x2="35.29" y2="22.29" xlink:href="#未命名漸層_403"/><linearGradient id="未命名漸層_403-4" x1="27.09" y1="65.69" x2="35.29" y2="87.01" xlink:href="#未命名漸層_403"/><linearGradient id="未命名漸層_403-5" x1="32.49" y1="14.31" x2="44.65" y2="14.31" gradientTransform="matrix(1, 0.01, -0.01, 1, -6.13, -8.07)" xlink:href="#未命名漸層_403"/><linearGradient id="未命名漸層_403-6" x1="677.8" y1="357.33" x2="689.96" y2="357.33" gradientTransform="translate(-190.88 -731.99) rotate(45.6)" xlink:href="#未命名漸層_403"/><linearGradient id="未命名漸層_403-7" x1="16.84" y1="59.53" x2="51.01" y2="59.53" xlink:href="#未命名漸層_403"/></defs><title>g</title><ellipse class="cls-1" cx="34.71" cy="84.1" rx="30.4" ry="5.26"/><rect class="cls-2" x="4.31" y="17.73" width="60.79" height="66.3"/><ellipse class="cls-3" cx="34.71" cy="17.73" rx="30.4" ry="5.26"/><path class="cls-4" d="M65.11,26.11c0,2.91-13.61,5.26-30.4,5.26S4.31,29,4.31,26.11V28.4c0,2.91,13.61,5.26,30.4,5.26s30.4-2.36,30.4-5.26"/><path class="cls-5" d="M65.11,77.8c0,2.91-13.61,5.26-30.4,5.26S4.31,80.7,4.31,77.8v2.29c0,2.91,13.61,5.26,30.4,5.26s30.4-2.36,30.4-5.26"/><path class="cls-6" d="M65.11,17.73c0,2.91-13.61,5.26-30.4,5.26s-30.4-2.36-30.4-5.26v6c0,2.91,13.61,5.26,30.4,5.26s30.4-2.36,30.4-5.26"/><path class="cls-7" d="M65.11,82.45c0,2.91-13.61,5.26-30.4,5.26s-30.4-2.36-30.4-5.26v6c0,2.91,13.61,5.26,30.4,5.26s30.4-2.36,30.4-5.26"/><path d="M34.61,20.17a.84.84,0,0,1-.7-.32c-.18-.28,0-.61.36-.74a2.4,2.4,0,0,0,1.58-1.51A2.57,2.57,0,0,0,35,14.92c-2.54-2.28-4.74-4.73-1.43-7.46a1,1,0,0,1,1.09-.05.45.45,0,0,1,.08.78c-2.32,1.91-1.32,3.53,1.47,6a3.47,3.47,0,0,1,1.15,3.62,3.64,3.64,0,0,1-2.42,2.27A1,1,0,0,1,34.61,20.17Z"/><polygon class="cls-8" points="32.35 0.86 34.19 4.68 38.38 5.34 35.31 8.27 35.98 12.46 32.25 10.45 28.47 12.38 29.23 8.21 26.22 5.21 30.43 4.65 32.35 0.86"/><polygon class="cls-9" points="36.42 2.6 35.02 6.6 37.52 10.03 33.27 9.93 30.79 13.37 29.57 9.3 25.53 8 29.02 5.59 29.01 1.34 32.38 3.92 36.42 2.6"/><path class="cls-10" d="M30.77,61.27a.06.06,0,0,0,.07,0,.06.06,0,0,0,0-.05,1,1,0,0,1,.29-.71,1,1,0,0,1,.74-.29,110.9,110.9,0,0,0,16.84-1.19,1.81,1.81,0,0,1,1.51.38,1.73,1.73,0,0,1,.64,1.4V73.5A2.67,2.67,0,0,1,48.75,76l-.91.15A1,1,0,0,1,47,76a1.08,1.08,0,0,1-.37-.87c0-.1-.06-.14-.18-.12-3.76.46-7.47.74-11.25.85A.16.16,0,0,0,35,76a1.27,1.27,0,0,1-.37.9,1.21,1.21,0,0,1-.92.39h-.74a2,2,0,0,1-1.46-.63,2,2,0,0,1-.61-1.47q0-5.78,0-11.56a.09.09,0,0,0-.07-.09.11.11,0,0,0-.11,0L30.4,64a1.46,1.46,0,0,1-1.33.6,1.73,1.73,0,0,1-1.33-.7c-.42-.54-.86-1.09-1.32-1.64a.12.12,0,0,0-.11,0,.08.08,0,0,0-.07.09q0,6.3,0,12.59a1.92,1.92,0,0,1-2.17,2H24a2.5,2.5,0,0,1-2.16-2.43q0-5,0-10a.14.14,0,0,0-.07-.12s-.09,0-.11,0a21,21,0,0,1-1.87,1.38,1.36,1.36,0,0,1-.95.18,1.87,1.87,0,0,1-.47-.15,2.09,2.09,0,0,1-1.09-1.19,3.14,3.14,0,0,1-.18-.4,2.75,2.75,0,0,1-.25-1.15,2.26,2.26,0,0,1,.07-.57,1.87,1.87,0,0,1,.87-1.23c3.36-2,5.56-4.79,7.61-8a.16.16,0,0,0,0-.15.17.17,0,0,0-.15-.09c-2.35-.22-3.53-.38-5.86-.75A2.3,2.3,0,0,1,18,51.26a2.33,2.33,0,0,1-.58-1.54A1.63,1.63,0,0,1,18,48.4a1.7,1.7,0,0,1,1.42-.35c.88.14,1.32.21,2.19.33.17,0,.26-.05.26-.22,0-1.79,0-2.69,0-4.48a1.81,1.81,0,0,1,.64-1.46A1.93,1.93,0,0,1,24,41.77h.07a2.4,2.4,0,0,1,1.52.78,2.26,2.26,0,0,1,.64,1.6c0,1.79,0,2.69,0,4.48a.25.25,0,0,0,.26.28l1.18.09h.18a1.39,1.39,0,0,1,.44,0,1.7,1.7,0,0,1,.88.34l.63.4a2.16,2.16,0,0,1,.74,1,2.45,2.45,0,0,1,.07.59,1.93,1.93,0,0,1-.11.62,35.52,35.52,0,0,1-3.17,6,.29.29,0,0,0,0,.41C28.34,59.07,29.47,60.08,30.77,61.27ZM31.21,47a1.86,1.86,0,0,1-.55-1.34,1.74,1.74,0,0,1,.55-1.3,1.8,1.8,0,0,1,1.33-.52,110.93,110.93,0,0,0,16.61-1.27,1.56,1.56,0,0,1,1.31.32A1.49,1.49,0,0,1,51,44.08a2.33,2.33,0,0,1-1.86,2.21,110.94,110.94,0,0,1-16.61,1.27A1.83,1.83,0,0,1,31.21,47Zm1.51,4.36a2.06,2.06,0,0,1,.65-1.52,2.14,2.14,0,0,1,1.53-.65,90.91,90.91,0,0,0,12.21-1,1.84,1.84,0,0,1,1.52.41A1.76,1.76,0,0,1,49.26,50v5.07a2.61,2.61,0,0,1-2.16,2.51,90.88,90.88,0,0,1-12.21,1,2.16,2.16,0,0,1-2.18-2.17C32.73,54.38,32.73,53.36,32.73,51.34Zm6,12.65a.25.25,0,0,0-.29-.28c-1.27.06-1.9.08-3.17.1a.26.26,0,0,0-.29.3v1.95c0,.17.1.26.29.25,1.27,0,1.9,0,3.17-.1q.29,0,.29-.27Zm-3.46,5.66a.26.26,0,0,0-.29.3c0,.79,0,1.19,0,2a.26.26,0,0,0,.29.29c1.27,0,1.9,0,3.17-.1a.28.28,0,0,0,.29-.31c0-.79,0-1.19,0-2a.25.25,0,0,0-.29-.28C37.17,69.61,36.54,69.63,35.27,69.65Zm9.57-15.07a.3.3,0,0,0,.29-.33V52.12q0-.29-.29-.26c-2.6.33-5.25.53-7.87.6q-.26,0-.26.3V54.9q0,.29.26.29C39.58,55.11,42.24,54.91,44.84,54.58Zm1.47,10.9q.29,0,.29-.3V63.23q0-.29-.29-.25c-1.32.18-2,.26-3.3.39a.29.29,0,0,0-.29.32v1.95c0,.17.1.25.29.23C44.32,65.74,45,65.66,46.3,65.48Zm-3.59,6c0,.2.1.28.29.26,1.32-.13,2-.21,3.3-.39a.3.3,0,0,0,.29-.33v-2q0-.29-.29-.25c-1.32.18-2,.26-3.3.39a.29.29,0,0,0-.29.32Z"/></svg>