<svg id="c" xmlns="http://www.w3.org/2000/svg" viewBox="0 0 222 72"><defs><style>.cls-1,.cls-2,.cls-3{fill:#cf2c21;}.cls-1{stroke:#30190e;stroke-width:14px;}.cls-1,.cls-2{stroke-miterlimit:10;}.cls-2{stroke:#ffce63;stroke-width:8px;}.cls-4{fill:none;}.cls-5{fill:#30190e;}.cls-6{fill:#fff;}</style></defs><title>g</title><rect class="cls-1" x="7.54" y="7.77" width="206.8" height="56.56" rx="28.28" ry="28.28"/><rect class="cls-2" x="7.54" y="7.77" width="206.8" height="56.56" rx="28.28" ry="28.28"/><rect class="cls-3" x="7.54" y="7.77" width="206.8" height="56.56" rx="28.28" ry="28.28"/><rect class="cls-4" x="7.54" y="7.77" width="206.8" height="56.56" rx="28.28" ry="28.28"/><path class="cls-5" d="M59,30.45a3,3,0,0,1-3,3H50.27a.3.3,0,0,0-.34.34v16.4a2.48,2.48,0,0,1-5,0V23.57a3,3,0,0,1,3-3h8a3,3,0,0,1,3,3Zm-4.76-6a.3.3,0,0,0-.34-.34H50.27a.3.3,0,0,0-.34.34V25a.3.3,0,0,0,.34.34h3.59A.3.3,0,0,0,54.2,25Zm-4.28,5a.3.3,0,0,0,.34.34h3.59a.3.3,0,0,0,.34-.34v-.62a.3.3,0,0,0-.34-.34H50.27a.3.3,0,0,0-.34.34Zm18.26,12a2.05,2.05,0,0,1-1.46,3.51h-1a.3.3,0,0,0-.34.34v4.38a2.23,2.23,0,1,1-4.45,0V45.41a.3.3,0,0,0-.34-.34H58.83a.38.38,0,0,0-.41.34,11.91,11.91,0,0,1-2.7,5.85,1.83,1.83,0,0,1-1.37.62h-.17a2.63,2.63,0,0,1-1.57-.72A1.66,1.66,0,0,1,52,49.83a2,2,0,0,1,.51-1.4,8.18,8.18,0,0,0,1.54-3,.21.21,0,0,0-.05-.21.25.25,0,0,0-.19-.1h-.65a2.05,2.05,0,1,1,0-4.11H54c.23,0,.34-.1.34-.31v-1.4A.24.24,0,0,0,54,39h-.51a2,2,0,0,1,0-4h12.8a2,2,0,0,1,0,4h-.62a.27.27,0,0,0-.31.31v1.33a.3.3,0,0,0,.34.34h1A2,2,0,0,1,68.19,41.56Zm-9.57-.94A.3.3,0,0,0,59,41h1.64a.3.3,0,0,0,.34-.34v-1.3a.3.3,0,0,0-.34-.34H59a.3.3,0,0,0-.34.34Zm13.45-20a3,3,0,0,1,3,3V46.92a9.27,9.27,0,0,1-.38,3,3.15,3.15,0,0,1-1.4,1.68,8,8,0,0,1-3.35.89h-.24a2.68,2.68,0,0,1-1.75-.65,4,4,0,0,1-1.2-1.88,2.24,2.24,0,0,1-.07-.55,2,2,0,0,1,.34-1.1,1.64,1.64,0,0,1,1.4-.72h.92a.74.74,0,0,0,.56-.17.8.8,0,0,0,.15-.55v-13a.3.3,0,0,0-.34-.34H63.79a3,3,0,0,1-3-3v-7a3,3,0,0,1,3-3Zm-2,3.9a.3.3,0,0,0-.34-.34H66a.3.3,0,0,0-.34.34V25a.3.3,0,0,0,.34.34h3.73a.3.3,0,0,0,.34-.34Zm-4.42,5.13A.3.3,0,0,0,66,30h3.73a.3.3,0,0,0,.34-.34v-.72a.3.3,0,0,0-.34-.34H66a.3.3,0,0,0-.34.34Z"/><path class="cls-5" d="M95.83,35.24a.74.74,0,0,1-.24,0,3,3,0,0,1-3-2.77l-.1-.82a0,0,0,1,0-.07,0,43.55,43.55,0,0,1-2.22,10.23.5.5,0,0,0,.14.55q1,.79,1.68,1.47A2.73,2.73,0,0,1,92.85,46a3.09,3.09,0,0,1-.65,1.92,2,2,0,0,1-1.54.79h-.07A2,2,0,0,1,89,48l-1-1q-.24-.24-.41.07a19.51,19.51,0,0,1-3.87,4.24,2.13,2.13,0,0,1-1.33.48,1.76,1.76,0,0,1-.48-.07,2.71,2.71,0,0,1-1.64-1.06,2.38,2.38,0,0,1-.44-1.37,1.89,1.89,0,0,1,0-.38,2.54,2.54,0,0,1,.89-1.61,14.33,14.33,0,0,0,3-3.53.34.34,0,0,0-.07-.51,5,5,0,0,0-.44-.36,4.94,4.94,0,0,1-.51-.43s-.08,0-.1,0a.78.78,0,0,1-.45.53.7.7,0,0,1-.68-.05l-1.16-.62A2.67,2.67,0,0,1,79.12,41a2.88,2.88,0,0,1-.24-1.16A4.18,4.18,0,0,1,79,39q.86-3.29,1.88-7.94c0-.16,0-.24-.17-.24a1.93,1.93,0,0,1-2-2v-.38a2.28,2.28,0,0,1,.68-1.68A2.24,2.24,0,0,1,81,26.17h.51a.35.35,0,0,0,.38-.31q.44-2.29.75-4.18a2.58,2.58,0,0,1,2.5-2.12h.27a2.17,2.17,0,0,1,2,2.16,3.43,3.43,0,0,1,0,.48q-.41,2-.79,3.66a.37.37,0,0,0,.07.21.23.23,0,0,0,.21.1h1.4a23.12,23.12,0,0,1,3,.14A1.72,1.72,0,0,1,92.75,28q0,.45-.21,2.29a.36.36,0,0,0,.09.24.28.28,0,0,0,.22.1l2.05-.1a.48.48,0,0,0,.45-.34,69.44,69.44,0,0,0,2.19-8,2.88,2.88,0,0,1,1.23-1.85,2.65,2.65,0,0,1,1.57-.51,4.5,4.5,0,0,1,.55,0A2.6,2.6,0,0,1,103,22.27a2.5,2.5,0,0,1-.14.79q-1.23,3.73-2.5,6.85a.23.23,0,0,0,0,.21.17.17,0,0,0,.21.07l4-.24a.2.2,0,0,0,.17-.1.17.17,0,0,0,0-.21q-.24-.45-.48-.86a1.92,1.92,0,0,1-.31-1.06,2.67,2.67,0,0,1,.07-.58,2,2,0,0,1,1-1.27,2.72,2.72,0,0,1,1.16-.27,3,3,0,0,1,.65.07,2.34,2.34,0,0,1,1.47,1.06,42.59,42.59,0,0,1,3,5.41,2.73,2.73,0,0,1,.21,1,2.82,2.82,0,0,1-.17,1,2.76,2.76,0,0,1-1.37,1.51l-.21.1a1.89,1.89,0,0,1-.86.21,2,2,0,0,1-1.85-1.3.35.35,0,0,0-.34-.24Q102,34.8,95.83,35.24Zm-8.08-4a.36.36,0,0,0-.08-.24.28.28,0,0,0-.22-.1H85.9a.43.43,0,0,0-.45.34q-.82,3.77-1.4,6.16a.45.45,0,0,0,.21.55l1.51,1A.26.26,0,0,0,86,39a.22.22,0,0,0,.15-.17A37.84,37.84,0,0,0,87.75,31.2ZM97,52.63a2.4,2.4,0,0,1-2.4-2.4V40.65a3,3,0,0,1,3-3h9.89a3,3,0,0,1,3,3V50a2.42,2.42,0,0,1-.75,1.8,2.47,2.47,0,0,1-1.78.74h-1.54a1,1,0,0,1-1-1c0-.09,0-.14-.1-.14H99.49a.12.12,0,0,0-.14.14,1.11,1.11,0,0,1-1.13,1.13Zm8.39-10a.3.3,0,0,0-.34-.34H99.7a.3.3,0,0,0-.34.34v3.83a.3.3,0,0,0,.34.34H105a.3.3,0,0,0,.34-.34Z"/><path class="cls-5" d="M118.62,32.92a3,3,0,0,1,3,3V43.8a1.2,1.2,0,0,0,.17.65q1.71,2.84,6.61,3,2.91.14,6.06.14,4.79,0,10.17-.31h.14a1.49,1.49,0,0,1,1.23.62,1.69,1.69,0,0,1,.34,1,1.47,1.47,0,0,1-.1.51,3.7,3.7,0,0,1-1.2,1.8,3.12,3.12,0,0,1-1.92.74q-4.24.14-7.94.14T128.38,52A15.91,15.91,0,0,1,123.3,51a8.49,8.49,0,0,1-3.51-2.62.26.26,0,0,0-.45,0q-.89,1-2,2.05a1.86,1.86,0,0,1-1.3.55,2.53,2.53,0,0,1-.41,0,1.88,1.88,0,0,1-1.4-1.09,3.15,3.15,0,0,1-.31-1.37,3.37,3.37,0,0,1,.1-.82,3.19,3.19,0,0,1,1.23-1.81q.72-.55,1.33-1.06a.65.65,0,0,0,.27-.55v-6.3a.3.3,0,0,0-.34-.34H116a2.34,2.34,0,0,1,0-4.69Zm1.81-9.24A2.18,2.18,0,0,1,121,25a2.24,2.24,0,0,1-.07.55,2.53,2.53,0,0,1-1.16,1.64,2.26,2.26,0,0,1-1.27.41,1.94,1.94,0,0,1-.62-.1,2.67,2.67,0,0,1-1.61-1.13q-.65-1-1.51-2a2,2,0,0,1-.48-1.3v-.34a1.89,1.89,0,0,1,.92-1.4,2.78,2.78,0,0,1,1.57-.48,2.35,2.35,0,0,1,.38,0,2.73,2.73,0,0,1,1.71.89Q119.75,22.78,120.44,23.67Zm4.31,8V28.19c0-.18-.08-.27-.24-.27h-.1a2.05,2.05,0,1,1,0-4.11h1.37a.3.3,0,0,0,.34-.34V21.69a2.34,2.34,0,1,1,4.69,0v1.78c0,.23.1.34.31.34h1.4a1.51,1.51,0,0,1,1.08.45,1.46,1.46,0,0,1,.46,1.1s.07,0,.07,0A21,21,0,0,0,136,21.21a2.41,2.41,0,0,1,1-1.33,2.28,2.28,0,0,1,1.13-.31,2.25,2.25,0,0,1,1.85,1,1.92,1.92,0,0,1,.27,1,2,2,0,0,1-.1.62l-.07.21a.22.22,0,0,0,0,.19.17.17,0,0,0,.15.09h3.77a2,2,0,0,1,2.05,2.05,2,2,0,0,1-.6,1.47,2,2,0,0,1-1.45.62h-5.44a.57.57,0,0,0-.51.27,9.44,9.44,0,0,1-.58,1,.26.26,0,0,0,0,.21.16.16,0,0,0,.15.1h5.07a.39.39,0,0,0,.17,0,1.72,1.72,0,0,1,.48-.07,1.6,1.6,0,0,1,.92.31l.65.51a1.76,1.76,0,0,1,.45,2.36A35.83,35.83,0,0,1,143,34.76a.17.17,0,0,0,.14.27h1.2a2,2,0,0,1,0,4H143a.3.3,0,0,0-.34.34v2.88a7.17,7.17,0,0,1-.33,2.41A2.51,2.51,0,0,1,141.08,46a6.82,6.82,0,0,1-2.53.65h-.24a2.26,2.26,0,0,1-1.44-.51,3.29,3.29,0,0,1-1.06-1.54,1.53,1.53,0,0,1-.1-.55,1.46,1.46,0,0,1,.27-.82,1.35,1.35,0,0,1,1.16-.65h.65a.77.77,0,0,0,.43-.09.38.38,0,0,0,.12-.33V39.35A.3.3,0,0,0,138,39h-1.1a2,2,0,0,1,0-4h1.27a.15.15,0,0,0,.17-.17v-.38a1.11,1.11,0,0,1,1.13-1.13.23.23,0,0,0,.21-.1c.27-.43.47-.75.58-1a.19.19,0,0,0-.17-.31h-1.75a2.69,2.69,0,0,1-2.67-2.67.65.65,0,0,0-.24-.51q-.55-.48-1.37-1.13c0,.16-.09.24-.27.24h-4.62a.3.3,0,0,0-.34.34v1.27a.3.3,0,0,0,.34.34h2.16a2.86,2.86,0,0,1,2.91,2.91q0,4.86-.34,9.1a8.22,8.22,0,0,1-.79,3.42,3.24,3.24,0,0,1-2.16,1.44.63.63,0,0,1-.21,0,1.73,1.73,0,0,1-.48.07,2.46,2.46,0,0,1-1.64-.65A4.61,4.61,0,0,1,127.18,44c-.07-.21-.14-.4-.21-.58a.14.14,0,0,0-.27,0,14.69,14.69,0,0,1-.82,1.44,1.5,1.5,0,0,1-1.27.65,1.9,1.9,0,0,1-1.39-.6,2.43,2.43,0,0,1-.7-1.49v-.31a2.88,2.88,0,0,1,.31-1.3Q124.75,38.33,124.75,31.65Zm5.24,2.6a.35.35,0,0,0-.34-.34h-.51a.3.3,0,0,0-.34.34,26.56,26.56,0,0,1-1.71,8.39.22.22,0,0,0,0,.24.32.32,0,0,0,.21.14q.51,0,1.23,0a1,1,0,0,0,.89-.51Q129.85,41.82,130,34.25Z"/><path class="cls-5" d="M176.75,34.94a1.86,1.86,0,0,1,1.06-1.1,1.59,1.59,0,0,1,.65-.14,1.82,1.82,0,0,1,.82.21,2.66,2.66,0,0,1,1.16,1.33,2.48,2.48,0,0,1,.17.89,2.6,2.6,0,0,1-.14.82,37.1,37.1,0,0,1-3.63,7.39.74.74,0,0,0-.07.62q.51,1.51,1.06,1.54t.68-2a.94.94,0,0,1,.68-.86,1.14,1.14,0,0,1,.45-.1,1.1,1.1,0,0,1,.68.27,4.42,4.42,0,0,1,1.23,1.61,3.11,3.11,0,0,1,.24,1.2,4.08,4.08,0,0,1-.07.72,9.82,9.82,0,0,1-1.78,4,3,3,0,0,1-2.16,1.1h0q-2.57-.1-4.25-3.25a.19.19,0,0,0-.17-.15.2.2,0,0,0-.21.09,24.19,24.19,0,0,1-2.26,2.12,2.31,2.31,0,0,1-1.3.41h-.31a2.51,2.51,0,0,1-1.51-.75.46.46,0,0,0-.41-.14q-6.19.68-11.77,1.27a.65.65,0,0,1-.21,0,1.76,1.76,0,0,1-1.13-.41,1.82,1.82,0,0,1-.72-1.23,1.63,1.63,0,0,1,.12-.91,1.66,1.66,0,0,1,.58-.7,2,2,0,0,1,.87-.34c.16,0,.4,0,.72-.05l.62-.05c.23,0,.32-.14.27-.34s-.16-.71-.27-1.1a3.43,3.43,0,0,1,0-.48,1.82,1.82,0,0,1,.21-.82,1.47,1.47,0,0,1,1-.72v0h-.1a2.63,2.63,0,0,1-2.6-2.6v-.1a2.63,2.63,0,0,1,.8-1.93,2.6,2.6,0,0,1,1.9-.8h7.12a2.72,2.72,0,1,1,0,5.44h-.14s0,0,0,0,0,0,0,0a1.26,1.26,0,0,1,1,.65,1.32,1.32,0,0,1,.21.68,1.22,1.22,0,0,1-.14.55,4.9,4.9,0,0,1-.21.48.12.12,0,0,0,0,.14.18.18,0,0,0,.15.07l2.5-.24c.07,0,.1,0,.1.07a20.54,20.54,0,0,0,3.29-3.18.69.69,0,0,0,.17-.62,78.6,78.6,0,0,1-1.27-9.89c0-.18-.09-.26-.27-.24h-.1a1.69,1.69,0,0,1-.34,0,2.23,2.23,0,0,1-1.33-.44,2.3,2.3,0,0,1-.86-1.51.36.36,0,0,0-.31-.31L165,30.83s0,0-.05,0a.07.07,0,0,0,0,.05.47.47,0,0,1-.1.39.6.6,0,0,1-.38.19l-3.9.31c-.25,0-.37.15-.34.38a.65.65,0,0,0,.21.5,1.41,1.41,0,0,0,.72.12h2.5a.75.75,0,0,0,.65-.24q.44-.58.92-.38l.68.21a1.69,1.69,0,0,1,.94.74.89.89,0,0,1,0,1q-.65,1.06-2.77,1.06h-3.46a5.44,5.44,0,0,1-3-.58,2.74,2.74,0,0,1-.87-2.22q0-.24-.24-.21l-.72,0a1.15,1.15,0,0,1-.92-.27,1.3,1.3,0,0,1-.48-.86,1.13,1.13,0,0,1,.26-.91,1.15,1.15,0,0,1,.84-.43l1-.1a.25.25,0,0,0,.24-.27V28.5a.3.3,0,0,0-.34-.34h-2a.3.3,0,0,0-.34.34v6.95a.3.3,0,0,0,.34.34h12.73a1.38,1.38,0,0,1,1,.43,1.45,1.45,0,0,1,0,2.05,1.38,1.38,0,0,1-1,.43H155.56A1.58,1.58,0,0,1,154,37.13a45.36,45.36,0,0,1-2,13.28,1.29,1.29,0,0,1-1,.89,1.77,1.77,0,0,1-.34,0,1.47,1.47,0,0,1-1-.41,3.19,3.19,0,0,1-1-1.47,3.1,3.1,0,0,1-.14-.92,2.89,2.89,0,0,1,.14-.86q1.37-4.52,1.37-13.25V28a3,3,0,0,1,3-3h3a.3.3,0,0,0,.34-.34V21.69A2.3,2.3,0,0,1,157,20a2.25,2.25,0,0,1,1.68-.7h1a1.3,1.3,0,0,1,1,.41,1.39,1.39,0,0,1,.39,1,.15.15,0,0,0,.17.17h5.37a1.57,1.57,0,0,1,0,3.15h-5.2a.3.3,0,0,0-.34.34v.24a.3.3,0,0,0,.34.34h3.39a21,21,0,0,1,3,.14,1.41,1.41,0,0,1,1,.58,1.37,1.37,0,0,1,.27.82,1.62,1.62,0,0,1,0,.31q-.21,1.06-.41,1.92a.22.22,0,0,0,.05.22.26.26,0,0,0,.19.09l1.1-.17a.33.33,0,0,0,.31-.38q-.21-4.65-.21-6.74a2.28,2.28,0,0,1,2.28-2.26,2.29,2.29,0,0,1,1.66.67,2.23,2.23,0,0,1,.68,1.66q0,2.91.14,6.06a.26.26,0,0,0,.12.22.3.3,0,0,0,.26.05l3.59-.48H179a2.09,2.09,0,0,1,1.3.45,2.14,2.14,0,0,1,.86,1.51,1.29,1.29,0,0,1,0,.31,2.13,2.13,0,0,1-.48,1.33,2.18,2.18,0,0,1-1.47.86l-3.94.51a.34.34,0,0,0-.31.41q.14,2.16.41,4.62a.08.08,0,0,0,.07.08.08.08,0,0,0,.1-.05A25.68,25.68,0,0,0,176.75,34.94ZM162.27,45.17a.23.23,0,0,0-.24-.31h-2.36a.17.17,0,0,0-.15.09.22.22,0,0,0,0,.19l.27.68a1.84,1.84,0,0,1,.1.58,1.57,1.57,0,0,1-.27.89,1.88,1.88,0,0,1-1.27.89v0l3.63-.38a.38.38,0,0,1-.26-.17.41.41,0,0,1-.05-.31Q162,46.2,162.27,45.17ZM159,41.61a.3.3,0,0,0-.34.34v.38a.3.3,0,0,0,.34.34h4.18a.3.3,0,0,0,.34-.34V42a.3.3,0,0,0-.34-.34Zm1.51-13.45a.3.3,0,0,0-.34.34v.45a.33.33,0,0,0,.1.24.24.24,0,0,0,.24.07l3.7-.27a.38.38,0,0,0,.38-.38l0-.14a.22.22,0,0,0-.05-.22.3.3,0,0,0-.22-.08Zm20-4.9a2.14,2.14,0,0,1,.24,1,2.5,2.5,0,0,1-.14.79,2.45,2.45,0,0,1-1.2,1.33,1.89,1.89,0,0,1-.86.21,1.82,1.82,0,0,1-.68-.14,2,2,0,0,1-1.13-1.13q-.41-.89-.92-1.92a1.92,1.92,0,0,1-.24-.92,2.82,2.82,0,0,1,.07-.62,1.86,1.86,0,0,1,1-1.16,2.26,2.26,0,0,1,1-.24,1.85,1.85,0,0,1,.58.1,2,2,0,0,1,1.3,1Q180.13,22.41,180.55,23.26Z"/><path class="cls-6" d="M59,28.86a3,3,0,0,1-3,3H50.27a.3.3,0,0,0-.34.34v16.4a2.48,2.48,0,0,1-5,0V22a3,3,0,0,1,3-3h8a3,3,0,0,1,3,3Zm-4.76-6a.3.3,0,0,0-.34-.34H50.27a.3.3,0,0,0-.34.34v.51a.3.3,0,0,0,.34.34h3.59a.3.3,0,0,0,.34-.34Zm-4.28,5a.3.3,0,0,0,.34.34h3.59a.3.3,0,0,0,.34-.34v-.62a.3.3,0,0,0-.34-.34H50.27a.3.3,0,0,0-.34.34ZM68.19,40a2.05,2.05,0,0,1-1.46,3.51h-1a.3.3,0,0,0-.34.34v4.38a2.23,2.23,0,1,1-4.45,0V43.81a.3.3,0,0,0-.34-.34H58.83a.38.38,0,0,0-.41.34,11.91,11.91,0,0,1-2.7,5.85,1.83,1.83,0,0,1-1.37.62h-.17a2.63,2.63,0,0,1-1.57-.72A1.66,1.66,0,0,1,52,48.23a2,2,0,0,1,.51-1.4,8.18,8.18,0,0,0,1.54-3,.21.21,0,0,0-.05-.21.25.25,0,0,0-.19-.1h-.65a2.05,2.05,0,1,1,0-4.11H54c.23,0,.34-.1.34-.31v-1.4a.24.24,0,0,0-.27-.27h-.51a2,2,0,0,1,0-4h12.8a2,2,0,0,1,0,4h-.62a.27.27,0,0,0-.31.31V39a.3.3,0,0,0,.34.34h1A2,2,0,0,1,68.19,40ZM58.62,39a.3.3,0,0,0,.34.34h1.64a.3.3,0,0,0,.34-.34v-1.3a.3.3,0,0,0-.34-.34H59a.3.3,0,0,0-.34.34ZM72.07,19a3,3,0,0,1,3,3V45.32a9.27,9.27,0,0,1-.38,3A3.15,3.15,0,0,1,73.27,50a8,8,0,0,1-3.35.89h-.24a2.68,2.68,0,0,1-1.75-.65,4,4,0,0,1-1.2-1.88,2.24,2.24,0,0,1-.07-.55,2,2,0,0,1,.34-1.1,1.64,1.64,0,0,1,1.4-.72h.92a.74.74,0,0,0,.56-.17.8.8,0,0,0,.15-.55v-13a.3.3,0,0,0-.34-.34H63.79a3,3,0,0,1-3-3V22a3,3,0,0,1,3-3Zm-2,3.9a.3.3,0,0,0-.34-.34H66a.3.3,0,0,0-.34.34v.51a.3.3,0,0,0,.34.34h3.73a.3.3,0,0,0,.34-.34ZM65.64,28a.3.3,0,0,0,.34.34h3.73a.3.3,0,0,0,.34-.34v-.72a.3.3,0,0,0-.34-.34H66a.3.3,0,0,0-.34.34Z"/><path class="cls-6" d="M95.83,33.65a.74.74,0,0,1-.24,0,3,3,0,0,1-3-2.77l-.1-.82a0,0,0,0,0-.07,0,43.55,43.55,0,0,1-2.22,10.23.5.5,0,0,0,.14.55q1,.79,1.68,1.47a2.73,2.73,0,0,1,.86,2.05,3.09,3.09,0,0,1-.65,1.92,2,2,0,0,1-1.54.79h-.07A2,2,0,0,1,89,46.38l-1-1q-.24-.24-.41.07a19.51,19.51,0,0,1-3.87,4.24,2.13,2.13,0,0,1-1.33.48,1.76,1.76,0,0,1-.48-.07,2.71,2.71,0,0,1-1.64-1.06,2.38,2.38,0,0,1-.44-1.37,1.89,1.89,0,0,1,0-.38,2.54,2.54,0,0,1,.89-1.61,14.33,14.33,0,0,0,3-3.53.34.34,0,0,0-.07-.51,5,5,0,0,0-.44-.36,4.94,4.94,0,0,1-.51-.43s-.08,0-.1,0a.78.78,0,0,1-.45.53.7.7,0,0,1-.68-.05l-1.16-.62a2.67,2.67,0,0,1-1.3-1.44,2.88,2.88,0,0,1-.24-1.16,4.18,4.18,0,0,1,.07-.75q.86-3.29,1.88-7.94c0-.16,0-.24-.17-.24a1.93,1.93,0,0,1-2-2v-.38a2.28,2.28,0,0,1,.68-1.68A2.24,2.24,0,0,1,81,24.58h.51a.35.35,0,0,0,.38-.31q.44-2.29.75-4.18A2.58,2.58,0,0,1,85.18,18h.27a2.17,2.17,0,0,1,2,2.16,3.43,3.43,0,0,1,0,.48q-.41,2-.79,3.66a.37.37,0,0,0,.07.21.23.23,0,0,0,.21.1h1.4a23.12,23.12,0,0,1,3,.14,1.72,1.72,0,0,1,1.4,1.64q0,.45-.21,2.29a.36.36,0,0,0,.09.24.28.28,0,0,0,.22.1l2.05-.1a.48.48,0,0,0,.45-.34,69.44,69.44,0,0,0,2.19-8,2.88,2.88,0,0,1,1.23-1.85,2.65,2.65,0,0,1,1.57-.51,4.5,4.5,0,0,1,.55,0A2.6,2.6,0,0,1,103,20.67a2.5,2.5,0,0,1-.14.79q-1.23,3.73-2.5,6.85a.23.23,0,0,0,0,.21.17.17,0,0,0,.21.07l4-.24a.2.2,0,0,0,.17-.1.17.17,0,0,0,0-.21q-.24-.45-.48-.86a1.92,1.92,0,0,1-.31-1.06,2.67,2.67,0,0,1,.07-.58,2,2,0,0,1,1-1.27,2.72,2.72,0,0,1,1.16-.27,3,3,0,0,1,.65.07,2.34,2.34,0,0,1,1.47,1.06,42.59,42.59,0,0,1,3,5.41,2.73,2.73,0,0,1,.21,1,2.82,2.82,0,0,1-.17,1A2.76,2.76,0,0,1,110.1,34l-.21.1a1.89,1.89,0,0,1-.86.21,2,2,0,0,1-1.85-1.3.35.35,0,0,0-.34-.24Q102,33.2,95.83,33.65Zm-8.08-4a.36.36,0,0,0-.08-.24.28.28,0,0,0-.22-.1H85.9a.43.43,0,0,0-.45.34q-.82,3.77-1.4,6.16a.45.45,0,0,0,.21.55l1.51,1a.26.26,0,0,0,.22,0,.22.22,0,0,0,.15-.17A37.84,37.84,0,0,0,87.75,29.61ZM97,51a2.4,2.4,0,0,1-2.4-2.4V39.06a3,3,0,0,1,3-3h9.89a3,3,0,0,1,3,3v9.31a2.42,2.42,0,0,1-.75,1.8,2.47,2.47,0,0,1-1.78.74h-1.54a1,1,0,0,1-1-1c0-.09,0-.14-.1-.14H99.49a.12.12,0,0,0-.14.14A1.11,1.11,0,0,1,98.22,51Zm8.39-10a.3.3,0,0,0-.34-.34H99.7a.3.3,0,0,0-.34.34v3.83a.3.3,0,0,0,.34.34H105a.3.3,0,0,0,.34-.34Z"/><path class="cls-6" d="M118.62,31.32a3,3,0,0,1,3,3V42.2a1.2,1.2,0,0,0,.17.65q1.71,2.84,6.61,3,2.91.14,6.06.14,4.79,0,10.17-.31h.14a1.49,1.49,0,0,1,1.23.62,1.69,1.69,0,0,1,.34,1,1.47,1.47,0,0,1-.1.51,3.7,3.7,0,0,1-1.2,1.8,3.12,3.12,0,0,1-1.92.74q-4.24.14-7.94.14t-6.78-.14a15.91,15.91,0,0,1-5.08-.94,8.49,8.49,0,0,1-3.51-2.62.26.26,0,0,0-.45,0q-.89,1-2,2.05a1.86,1.86,0,0,1-1.3.55,2.53,2.53,0,0,1-.41,0,1.88,1.88,0,0,1-1.4-1.09,3.15,3.15,0,0,1-.31-1.37,3.37,3.37,0,0,1,.1-.82,3.19,3.19,0,0,1,1.23-1.81q.72-.55,1.33-1.06a.65.65,0,0,0,.27-.55v-6.3a.3.3,0,0,0-.34-.34H116a2.34,2.34,0,0,1,0-4.69Zm1.81-9.24a2.18,2.18,0,0,1,.51,1.37,2.24,2.24,0,0,1-.07.55,2.53,2.53,0,0,1-1.16,1.64,2.26,2.26,0,0,1-1.27.41,1.94,1.94,0,0,1-.62-.1,2.67,2.67,0,0,1-1.61-1.13q-.65-1-1.51-2a2,2,0,0,1-.48-1.3v-.34a1.89,1.89,0,0,1,.92-1.4,2.78,2.78,0,0,1,1.57-.48,2.35,2.35,0,0,1,.38,0,2.73,2.73,0,0,1,1.71.89Q119.75,21.19,120.44,22.08Zm4.31,8V26.6c0-.18-.08-.27-.24-.27h-.1a2.05,2.05,0,1,1,0-4.11h1.37a.3.3,0,0,0,.34-.34V20.09a2.34,2.34,0,1,1,4.69,0v1.78c0,.23.1.34.31.34h1.4a1.51,1.51,0,0,1,1.08.45,1.46,1.46,0,0,1,.46,1.1s.07,0,.07,0A21,21,0,0,0,136,19.61a2.41,2.41,0,0,1,1-1.33,2.28,2.28,0,0,1,1.13-.31A2.25,2.25,0,0,1,140,19a1.92,1.92,0,0,1,.27,1,2,2,0,0,1-.1.62l-.07.21a.22.22,0,0,0,0,.19.17.17,0,0,0,.15.09h3.77a2,2,0,0,1,2.05,2.05,2,2,0,0,1-.6,1.47,2,2,0,0,1-1.45.62h-5.44a.57.57,0,0,0-.51.27,9.44,9.44,0,0,1-.58,1,.26.26,0,0,0,0,.21.16.16,0,0,0,.15.1h5.07a.39.39,0,0,0,.17,0,1.72,1.72,0,0,1,.48-.07,1.6,1.6,0,0,1,.92.31l.65.51a1.76,1.76,0,0,1,.45,2.36A35.83,35.83,0,0,1,143,33.17a.17.17,0,0,0,.14.27h1.2a2,2,0,0,1,0,4H143a.3.3,0,0,0-.34.34v2.88a7.17,7.17,0,0,1-.33,2.41,2.51,2.51,0,0,1-1.22,1.35,6.82,6.82,0,0,1-2.53.65h-.24a2.26,2.26,0,0,1-1.44-.51A3.29,3.29,0,0,1,135.81,43a1.53,1.53,0,0,1-.1-.55,1.46,1.46,0,0,1,.27-.82,1.35,1.35,0,0,1,1.16-.65h.65a.77.77,0,0,0,.43-.09.38.38,0,0,0,.12-.33V37.75a.3.3,0,0,0-.34-.34h-1.1a2,2,0,0,1,0-4h1.27a.15.15,0,0,0,.17-.17v-.38a1.11,1.11,0,0,1,1.13-1.13.23.23,0,0,0,.21-.1c.27-.43.47-.75.58-1a.19.19,0,0,0-.17-.31h-1.75a2.69,2.69,0,0,1-2.67-2.67.65.65,0,0,0-.24-.51q-.55-.48-1.37-1.13c0,.16-.09.24-.27.24h-4.62a.3.3,0,0,0-.34.34v1.27a.3.3,0,0,0,.34.34h2.16a2.86,2.86,0,0,1,2.91,2.91q0,4.86-.34,9.1a8.22,8.22,0,0,1-.79,3.42,3.24,3.24,0,0,1-2.16,1.44.63.63,0,0,1-.21,0,1.73,1.73,0,0,1-.48.07,2.46,2.46,0,0,1-1.64-.65,4.61,4.61,0,0,1-1.44-2.16c-.07-.21-.14-.4-.21-.58a.14.14,0,0,0-.27,0,14.69,14.69,0,0,1-.82,1.44,1.5,1.5,0,0,1-1.27.65,1.9,1.9,0,0,1-1.39-.6,2.43,2.43,0,0,1-.7-1.49v-.31a2.88,2.88,0,0,1,.31-1.3Q124.75,36.73,124.75,30.05Zm5.24,2.6a.35.35,0,0,0-.34-.34h-.51a.3.3,0,0,0-.34.34A26.56,26.56,0,0,1,127.08,41a.22.22,0,0,0,0,.24.32.32,0,0,0,.21.14q.51,0,1.23,0a1,1,0,0,0,.89-.51Q129.85,40.22,130,32.65Z"/><path class="cls-6" d="M176.75,33.34a1.86,1.86,0,0,1,1.06-1.1,1.59,1.59,0,0,1,.65-.14,1.82,1.82,0,0,1,.82.21,2.66,2.66,0,0,1,1.16,1.33,2.48,2.48,0,0,1,.17.89,2.6,2.6,0,0,1-.14.82,37.1,37.1,0,0,1-3.63,7.39.74.74,0,0,0-.07.62q.51,1.51,1.06,1.54t.68-2a.94.94,0,0,1,.68-.86,1.14,1.14,0,0,1,.45-.1,1.1,1.1,0,0,1,.68.27,4.42,4.42,0,0,1,1.23,1.61,3.11,3.11,0,0,1,.24,1.2,4.08,4.08,0,0,1-.07.72,9.82,9.82,0,0,1-1.78,4,3,3,0,0,1-2.16,1.1h0q-2.57-.1-4.25-3.25a.19.19,0,0,0-.17-.15.2.2,0,0,0-.21.09,24.19,24.19,0,0,1-2.26,2.12,2.31,2.31,0,0,1-1.3.41h-.31a2.51,2.51,0,0,1-1.51-.75.46.46,0,0,0-.41-.14q-6.19.68-11.77,1.27a.65.65,0,0,1-.21,0,1.76,1.76,0,0,1-1.13-.41,1.82,1.82,0,0,1-.72-1.23,1.63,1.63,0,0,1,.12-.91,1.66,1.66,0,0,1,.58-.7,2,2,0,0,1,.87-.34c.16,0,.4,0,.72-.05l.62-.05c.23,0,.32-.14.27-.34s-.16-.71-.27-1.1a3.43,3.43,0,0,1,0-.48,1.82,1.82,0,0,1,.21-.82,1.47,1.47,0,0,1,1-.72v0h-.1a2.63,2.63,0,0,1-2.6-2.6v-.1a2.63,2.63,0,0,1,.8-1.93,2.6,2.6,0,0,1,1.9-.8h7.12a2.72,2.72,0,1,1,0,5.44h-.14s0,0,0,0,0,0,0,0a1.26,1.26,0,0,1,1,.65,1.32,1.32,0,0,1,.21.68,1.22,1.22,0,0,1-.14.55,4.9,4.9,0,0,1-.21.48.12.12,0,0,0,0,.14.18.18,0,0,0,.15.07l2.5-.24c.07,0,.1,0,.1.07a20.54,20.54,0,0,0,3.29-3.18.69.69,0,0,0,.17-.62A78.6,78.6,0,0,1,170.45,32c0-.18-.09-.26-.27-.24h-.1a1.69,1.69,0,0,1-.34,0,2.23,2.23,0,0,1-1.33-.44,2.3,2.3,0,0,1-.86-1.51.36.36,0,0,0-.31-.31L165,29.23s0,0-.05,0a.07.07,0,0,0,0,.05.47.47,0,0,1-.1.39.6.6,0,0,1-.38.19l-3.9.31c-.25,0-.37.15-.34.38a.65.65,0,0,0,.21.5,1.41,1.41,0,0,0,.72.12h2.5a.75.75,0,0,0,.65-.24q.44-.58.92-.38l.68.21a1.69,1.69,0,0,1,.94.74.89.89,0,0,1,0,1q-.65,1.06-2.77,1.06h-3.46a5.44,5.44,0,0,1-3-.58,2.74,2.74,0,0,1-.87-2.22q0-.24-.24-.21l-.72,0a1.15,1.15,0,0,1-.92-.27,1.3,1.3,0,0,1-.48-.86,1.13,1.13,0,0,1,.26-.91,1.15,1.15,0,0,1,.84-.43l1-.1a.25.25,0,0,0,.24-.27V26.9a.3.3,0,0,0-.34-.34h-2a.3.3,0,0,0-.34.34v6.95a.3.3,0,0,0,.34.34h12.73a1.38,1.38,0,0,1,1,.43,1.45,1.45,0,0,1,0,2.05,1.38,1.38,0,0,1-1,.43H155.56A1.58,1.58,0,0,1,154,35.53a45.36,45.36,0,0,1-2,13.28,1.29,1.29,0,0,1-1,.89,1.77,1.77,0,0,1-.34,0,1.47,1.47,0,0,1-1-.41,3.19,3.19,0,0,1-1-1.47,3.1,3.1,0,0,1-.14-.92,2.89,2.89,0,0,1,.14-.86q1.37-4.52,1.37-13.25V26.36a3,3,0,0,1,3-3h3a.3.3,0,0,0,.34-.34V20.09a2.3,2.3,0,0,1,.68-1.66,2.25,2.25,0,0,1,1.68-.7h1a1.3,1.3,0,0,1,1,.41,1.39,1.39,0,0,1,.39,1,.15.15,0,0,0,.17.17h5.37a1.57,1.57,0,0,1,0,3.15h-5.2a.3.3,0,0,0-.34.34V23a.3.3,0,0,0,.34.34h3.39a21,21,0,0,1,3,.14,1.41,1.41,0,0,1,1,.58,1.37,1.37,0,0,1,.27.82,1.62,1.62,0,0,1,0,.31q-.21,1.06-.41,1.92a.22.22,0,0,0,.05.22.26.26,0,0,0,.19.09l1.1-.17a.33.33,0,0,0,.31-.38q-.21-4.65-.21-6.74a2.28,2.28,0,0,1,2.28-2.26,2.29,2.29,0,0,1,1.66.67,2.23,2.23,0,0,1,.68,1.66q0,2.91.14,6.06a.26.26,0,0,0,.12.22.3.3,0,0,0,.26.05l3.59-.48H179a2.09,2.09,0,0,1,1.3.45,2.14,2.14,0,0,1,.86,1.51,1.29,1.29,0,0,1,0,.31,2.13,2.13,0,0,1-.48,1.33,2.18,2.18,0,0,1-1.47.86l-3.94.51a.34.34,0,0,0-.31.41q.14,2.16.41,4.62a.08.08,0,0,0,.07.08.08.08,0,0,0,.1-.05A25.68,25.68,0,0,0,176.75,33.34ZM162.27,43.57a.23.23,0,0,0-.24-.31h-2.36a.17.17,0,0,0-.15.09.22.22,0,0,0,0,.19l.27.68a1.84,1.84,0,0,1,.1.58,1.57,1.57,0,0,1-.27.89,1.88,1.88,0,0,1-1.27.89v0l3.63-.38a.38.38,0,0,1-.26-.17.41.41,0,0,1-.05-.31Q162,44.6,162.27,43.57ZM159,40a.3.3,0,0,0-.34.34v.38a.3.3,0,0,0,.34.34h4.18a.3.3,0,0,0,.34-.34v-.38a.3.3,0,0,0-.34-.34Zm1.51-13.45a.3.3,0,0,0-.34.34v.45a.33.33,0,0,0,.1.24.24.24,0,0,0,.24.07l3.7-.27a.38.38,0,0,0,.38-.38l0-.14a.22.22,0,0,0-.05-.22.3.3,0,0,0-.22-.08Zm20-4.9a2.14,2.14,0,0,1,.24,1,2.5,2.5,0,0,1-.14.79,2.45,2.45,0,0,1-1.2,1.33,1.89,1.89,0,0,1-.86.21,1.82,1.82,0,0,1-.68-.14,2,2,0,0,1-1.13-1.13q-.41-.89-.92-1.92a1.92,1.92,0,0,1-.24-.92,2.82,2.82,0,0,1,.07-.62,1.86,1.86,0,0,1,1-1.16,2.26,2.26,0,0,1,1-.24,1.85,1.85,0,0,1,.58.1,2,2,0,0,1,1.3,1Q180.13,20.81,180.55,21.67Z"/></svg>