<svg xmlns="http://www.w3.org/2000/svg" xmlns:xlink="http://www.w3.org/1999/xlink" viewBox="0 0 329.1 182.12"><defs><style>.cls-1,.cls-8{fill:none;}.cls-2{isolation:isolate;}.cls-3,.cls-4,.cls-5,.cls-9{fill:#cf2c21;}.cls-3,.cls-9{stroke:#30190e;}.cls-3,.cls-4,.cls-8{stroke-miterlimit:10;}.cls-3{stroke-width:6px;}.cls-4{stroke:#ffce63;stroke-width:10px;}.cls-6{opacity:0.2;mix-blend-mode:overlay;}.cls-7{clip-path:url(#clip-path);}.cls-8{stroke:#fff;stroke-width:2px;}.cls-9{stroke-linecap:round;stroke-linejoin:round;stroke-width:8px;}.cls-10{fill:url(#未命名漸層_393);}.cls-11{fill:url(#未命名漸層_393-2);}.cls-12{fill:url(#未命名漸層_393-3);}.cls-13{fill:url(#未命名漸層_403);}.cls-14{fill:url(#未命名漸層_403-2);}.cls-15{fill:url(#未命名漸層_403-3);}.cls-16{fill:url(#未命名漸層_403-4);}.cls-17{fill:url(#未命名漸層_403-5);}.cls-18{fill:url(#未命名漸層_403-6);}.cls-19{fill:url(#未命名漸層_403-7);}.cls-20{fill:url(#未命名漸層_383);}.cls-21{fill:url(#未命名漸層_393-4);}.cls-22{opacity:0.6;}.cls-23{fill:#603616;}.cls-24{fill:#edb62e;}.cls-25{fill:#f4cf8c;}.cls-26{fill:#e8af23;}.cls-27{fill:#ffe7b0;}.cls-28{fill:#fff;}</style><clipPath id="clip-path"><path class="cls-1" d="M314.44,56.48a45,45,0,0,0-79.9-28.3,44.95,44.95,0,0,0-69.48-.48,45,45,0,0,0-70.54,1.83,45,45,0,1,0-36,71.91c1.39,0,2.77-.07,4.13-.2a45,45,0,0,0,73.36,52A45,45,0,0,0,206.55,155,45,45,0,0,0,278,100.62,45,45,0,0,0,314.44,56.48Z"/></clipPath><linearGradient id="未命名漸層_393" x1="-1.75" y1="190.51" x2="45.61" y2="190.51" gradientTransform="translate(17.67 -39.79)" gradientUnits="userSpaceOnUse"><stop offset="0" stop-color="#d93635"/><stop offset="1" stop-color="#b82525"/></linearGradient><linearGradient id="未命名漸層_393-2" x1="-9.17" y1="164.41" x2="30.66" y2="164.68" gradientTransform="translate(11.71 -39.09)" xlink:href="#未命名漸層_393"/><linearGradient id="未命名漸層_393-3" x1="16.83" y1="125.53" x2="22.2" y2="139.51" gradientTransform="translate(5.77 -38.4)" xlink:href="#未命名漸層_393"/><linearGradient id="未命名漸層_403" x1="16.72" y1="132.75" x2="22.34" y2="147.36" gradientTransform="translate(-25.58 -29.63) rotate(-13.3)" gradientUnits="userSpaceOnUse"><stop offset="0" stop-color="#edbb40"/><stop offset="1" stop-color="#e0aa26"/></linearGradient><linearGradient id="未命名漸層_403-2" x1="16.72" y1="173.01" x2="22.34" y2="187.62" xlink:href="#未命名漸層_403"/><linearGradient id="未命名漸層_403-3" x1="15.99" y1="125.75" x2="22.38" y2="142.35" xlink:href="#未命名漸層_403"/><linearGradient id="未命名漸層_403-4" x1="15.99" y1="176.17" x2="22.38" y2="192.77" xlink:href="#未命名漸層_403"/><linearGradient id="未命名漸層_403-5" x1="24.11" y1="130.31" x2="33.58" y2="130.31" gradientTransform="translate(-32.91 -28.35) rotate(-12.7)" xlink:href="#未命名漸層_403"/><linearGradient id="未命名漸層_403-6" x1="625.77" y1="-103.46" x2="635.24" y2="-103.46" gradientTransform="translate(-564.36 -157) rotate(32.3)" xlink:href="#未命名漸層_403"/><linearGradient id="未命名漸層_403-7" x1="8.01" y1="171.36" x2="34.63" y2="171.36" xlink:href="#未命名漸層_403"/><linearGradient id="未命名漸層_383" x1="251.39" y1="-36.03" x2="251.39" y2="-4.12" gradientTransform="translate(269.35 -119.69) rotate(90)" gradientUnits="userSpaceOnUse"><stop offset="0" stop-color="#c32827"/><stop offset="1" stop-color="#c83131"/></linearGradient><linearGradient id="未命名漸層_393-4" x1="222.28" y1="-26.16" x2="275.99" y2="-26.16" gradientTransform="translate(269.35 -119.69) rotate(90)" xlink:href="#未命名漸層_393"/></defs><title>g</title><g class="cls-2"><g id="c"><path class="cls-3" d="M321.64,56.48a52.16,52.16,0,0,0-87.09-38.73,52.16,52.16,0,0,0-69.48-.35,52.18,52.18,0,0,0-70.54,1.31,51.66,51.66,0,0,0-36-14.39A52.16,52.16,0,0,0,51.1,108.11,52.18,52.18,0,0,0,136,164a52.18,52.18,0,0,0,70.54,1.31A52.16,52.16,0,0,0,288.71,105,52.24,52.24,0,0,0,321.64,56.48Z"/><circle class="cls-4" cx="199.61" cy="56.48" r="44.96"/><circle class="cls-4" cx="269.48" cy="56.48" r="44.96"/><circle class="cls-4" cx="130.52" cy="56.48" r="44.96"/><circle class="cls-4" cx="58.52" cy="56.48" r="44.96"/><circle class="cls-4" cx="241.09" cy="126.27" r="44.96"/><circle class="cls-4" cx="172" cy="126.27" r="44.96"/><circle class="cls-4" cx="100.01" cy="126.27" r="44.96"/><circle class="cls-5" cx="199.61" cy="56.48" r="44.96"/><circle class="cls-5" cx="269.48" cy="56.48" r="44.96"/><circle class="cls-5" cx="130.52" cy="56.48" r="44.96"/><circle class="cls-5" cx="58.52" cy="56.48" r="44.96"/><circle class="cls-5" cx="241.09" cy="126.27" r="44.96"/><circle class="cls-5" cx="172" cy="126.27" r="44.96"/><circle class="cls-5" cx="100.01" cy="126.27" r="44.96"/><g class="cls-6"><g class="cls-7"><circle cx="-13.3" cy="17.01" r="15.23"/><circle class="cls-8" cx="-13.3" cy="17.01" r="15.23"/><circle cx="9.2" cy="17.01" r="15.23"/><circle class="cls-8" cx="9.2" cy="17.01" r="15.23"/><circle class="cls-8" cx="9.2" cy="17.01" r="10.77"/><circle class="cls-8" cx="9.2" cy="17.01" r="5.97"/><circle cx="31.7" cy="17.01" r="15.23"/><circle class="cls-8" cx="31.7" cy="17.01" r="15.23"/><circle class="cls-8" cx="31.7" cy="17.01" r="10.77"/><circle class="cls-8" cx="31.7" cy="17.01" r="5.97"/><circle cx="54.2" cy="17.01" r="15.23"/><circle class="cls-8" cx="54.2" cy="17.01" r="15.23"/><circle class="cls-8" cx="54.2" cy="17.01" r="10.77"/><circle class="cls-8" cx="54.2" cy="17.01" r="5.97"/><circle cx="76.7" cy="17.01" r="15.23"/><circle class="cls-8" cx="76.7" cy="17.01" r="15.23"/><circle class="cls-8" cx="76.7" cy="17.01" r="10.77"/><circle class="cls-8" cx="76.7" cy="17.01" r="5.97"/><circle cx="99.2" cy="17.01" r="15.23"/><circle class="cls-8" cx="99.2" cy="17.01" r="15.23"/><circle class="cls-8" cx="99.2" cy="17.01" r="10.77"/><circle class="cls-8" cx="99.2" cy="17.01" r="5.97"/><circle cx="121.7" cy="17.01" r="15.23"/><circle class="cls-8" cx="121.7" cy="17.01" r="15.23"/><circle class="cls-8" cx="121.7" cy="17.01" r="10.77"/><circle class="cls-8" cx="121.7" cy="17.01" r="5.97"/><circle cx="144.2" cy="17.01" r="15.23"/><circle class="cls-8" cx="144.2" cy="17.01" r="15.23"/><circle class="cls-8" cx="144.2" cy="17.01" r="10.77"/><circle class="cls-8" cx="144.2" cy="17.01" r="5.97"/><circle cx="166.71" cy="17.01" r="15.23"/><circle class="cls-8" cx="166.71" cy="17.01" r="15.23"/><circle class="cls-8" cx="166.71" cy="17.01" r="10.77"/><circle class="cls-8" cx="166.71" cy="17.01" r="5.97"/><circle cx="189.21" cy="17.01" r="15.23"/><circle class="cls-8" cx="189.21" cy="17.01" r="15.23"/><circle class="cls-8" cx="189.21" cy="17.01" r="10.77"/><circle class="cls-8" cx="189.21" cy="17.01" r="5.97"/><circle cx="-6.39" cy="36.57" r="15.23"/><circle class="cls-8" cx="-6.39" cy="36.57" r="15.23"/><circle class="cls-8" cx="-6.39" cy="36.57" r="10.77"/><circle class="cls-8" cx="-6.39" cy="36.57" r="5.97"/><circle cx="16.11" cy="36.57" r="15.23"/><circle class="cls-8" cx="16.11" cy="36.57" r="15.23"/><circle class="cls-8" cx="16.11" cy="36.57" r="10.77"/><circle class="cls-8" cx="16.11" cy="36.57" r="5.97"/><circle cx="38.61" cy="36.57" r="15.23"/><circle class="cls-8" cx="38.61" cy="36.57" r="15.23"/><circle class="cls-8" cx="38.61" cy="36.57" r="10.77"/><circle class="cls-8" cx="38.61" cy="36.57" r="5.97"/><circle cx="61.11" cy="36.57" r="15.23"/><circle class="cls-8" cx="61.11" cy="36.57" r="15.23"/><circle class="cls-8" cx="61.11" cy="36.57" r="10.77"/><circle class="cls-8" cx="61.11" cy="36.57" r="5.97"/><circle cx="83.61" cy="36.57" r="15.23"/><circle class="cls-8" cx="83.61" cy="36.57" r="15.23"/><circle class="cls-8" cx="83.61" cy="36.57" r="10.77"/><circle class="cls-8" cx="83.61" cy="36.57" r="5.97"/><circle cx="106.11" cy="36.57" r="15.23"/><circle class="cls-8" cx="106.11" cy="36.57" r="15.23"/><circle class="cls-8" cx="106.11" cy="36.57" r="10.77"/><circle class="cls-8" cx="106.11" cy="36.57" r="5.97"/><circle cx="128.62" cy="36.57" r="15.23"/><circle class="cls-8" cx="128.62" cy="36.57" r="15.23"/><circle class="cls-8" cx="128.62" cy="36.57" r="10.77"/><circle class="cls-8" cx="128.62" cy="36.57" r="5.97"/><circle cx="151.12" cy="36.57" r="15.23"/><circle class="cls-8" cx="151.12" cy="36.57" r="15.23"/><circle class="cls-8" cx="151.12" cy="36.57" r="10.77"/><circle class="cls-8" cx="151.12" cy="36.57" r="5.97"/><circle cx="173.62" cy="36.57" r="15.23"/><circle class="cls-8" cx="173.62" cy="36.57" r="15.23"/><circle class="cls-8" cx="173.62" cy="36.57" r="10.77"/><circle class="cls-8" cx="173.62" cy="36.57" r="5.97"/><circle cx="-13.3" cy="58.52" r="15.23"/><circle class="cls-8" cx="-13.3" cy="58.52" r="15.23"/><circle cx="9.2" cy="58.52" r="15.23"/><circle class="cls-8" cx="9.2" cy="58.52" r="15.23"/><circle class="cls-8" cx="9.2" cy="58.52" r="10.77"/><circle class="cls-8" cx="9.2" cy="58.52" r="5.97"/><circle cx="31.7" cy="58.52" r="15.23"/><circle class="cls-8" cx="31.7" cy="58.52" r="15.23"/><circle class="cls-8" cx="31.7" cy="58.52" r="10.77"/><circle class="cls-8" cx="31.7" cy="58.52" r="5.97"/><circle cx="54.2" cy="58.52" r="15.23"/><circle class="cls-8" cx="54.2" cy="58.52" r="15.23"/><circle class="cls-8" cx="54.2" cy="58.52" r="10.77"/><circle class="cls-8" cx="54.2" cy="58.52" r="5.97"/><circle cx="76.7" cy="58.52" r="15.23"/><circle class="cls-8" cx="76.7" cy="58.52" r="15.23"/><circle class="cls-8" cx="76.7" cy="58.52" r="10.77"/><circle class="cls-8" cx="76.7" cy="58.52" r="5.97"/><circle cx="99.2" cy="58.52" r="15.23"/><circle class="cls-8" cx="99.2" cy="58.52" r="15.23"/><circle class="cls-8" cx="99.2" cy="58.52" r="10.77"/><circle class="cls-8" cx="99.2" cy="58.52" r="5.97"/><circle cx="121.7" cy="58.52" r="15.23"/><circle class="cls-8" cx="121.7" cy="58.52" r="15.23"/><circle class="cls-8" cx="121.7" cy="58.52" r="10.77"/><circle class="cls-8" cx="121.7" cy="58.52" r="5.97"/><circle cx="144.2" cy="58.52" r="15.23"/><circle class="cls-8" cx="144.2" cy="58.52" r="15.23"/><circle class="cls-8" cx="144.2" cy="58.52" r="10.77"/><circle class="cls-8" cx="144.2" cy="58.52" r="5.97"/><circle cx="166.71" cy="58.52" r="15.23"/><circle class="cls-8" cx="166.71" cy="58.52" r="15.23"/><circle class="cls-8" cx="166.71" cy="58.52" r="10.77"/><circle class="cls-8" cx="166.71" cy="58.52" r="5.97"/><circle cx="-6.39" cy="78.08" r="15.23"/><circle class="cls-8" cx="-6.39" cy="78.08" r="15.23"/><circle class="cls-8" cx="-6.39" cy="78.08" r="10.77"/><circle class="cls-8" cx="-6.39" cy="78.08" r="5.97"/><circle cx="16.11" cy="78.08" r="15.23"/><circle class="cls-8" cx="16.11" cy="78.08" r="15.23"/><circle class="cls-8" cx="16.11" cy="78.08" r="10.77"/><circle class="cls-8" cx="16.11" cy="78.08" r="5.97"/><circle cx="38.61" cy="78.08" r="15.23"/><circle class="cls-8" cx="38.61" cy="78.08" r="15.23"/><circle class="cls-8" cx="38.61" cy="78.08" r="10.77"/><circle class="cls-8" cx="38.61" cy="78.08" r="5.97"/><circle cx="61.11" cy="78.08" r="15.23"/><circle class="cls-8" cx="61.11" cy="78.08" r="15.23"/><circle class="cls-8" cx="61.11" cy="78.08" r="10.77"/><circle class="cls-8" cx="61.11" cy="78.08" r="5.97"/><circle cx="83.61" cy="78.08" r="15.23"/><circle class="cls-8" cx="83.61" cy="78.08" r="15.23"/><circle class="cls-8" cx="83.61" cy="78.08" r="10.77"/><circle class="cls-8" cx="83.61" cy="78.08" r="5.97"/><circle cx="106.11" cy="78.08" r="15.23"/><circle class="cls-8" cx="106.11" cy="78.08" r="15.23"/><circle class="cls-8" cx="106.11" cy="78.08" r="10.77"/><circle class="cls-8" cx="106.11" cy="78.08" r="5.97"/><circle cx="128.62" cy="78.08" r="15.23"/><circle class="cls-8" cx="128.62" cy="78.08" r="15.23"/><circle class="cls-8" cx="128.62" cy="78.08" r="10.77"/><circle class="cls-8" cx="128.62" cy="78.08" r="5.97"/><circle cx="151.12" cy="78.08" r="15.23"/><circle class="cls-8" cx="151.12" cy="78.08" r="15.23"/><circle class="cls-8" cx="151.12" cy="78.08" r="10.77"/><circle class="cls-8" cx="151.12" cy="78.08" r="5.97"/><circle cx="-13.3" cy="100.03" r="15.23"/><circle class="cls-8" cx="-13.3" cy="100.03" r="15.23"/><circle cx="9.2" cy="100.03" r="15.23"/><circle class="cls-8" cx="9.2" cy="100.03" r="15.23"/><circle class="cls-8" cx="9.2" cy="100.03" r="10.77"/><circle class="cls-8" cx="9.2" cy="100.03" r="5.97"/><circle cx="31.7" cy="100.03" r="15.23"/><circle class="cls-8" cx="31.7" cy="100.03" r="15.23"/><circle class="cls-8" cx="31.7" cy="100.03" r="10.77"/><circle class="cls-8" cx="31.7" cy="100.03" r="5.97"/><circle cx="54.2" cy="100.03" r="15.23"/><circle class="cls-8" cx="54.2" cy="100.03" r="15.23"/><circle class="cls-8" cx="54.2" cy="100.03" r="10.77"/><circle class="cls-8" cx="54.2" cy="100.03" r="5.97"/><circle cx="76.7" cy="100.03" r="15.23"/><circle class="cls-8" cx="76.7" cy="100.03" r="15.23"/><circle class="cls-8" cx="76.7" cy="100.03" r="10.77"/><circle class="cls-8" cx="76.7" cy="100.03" r="5.97"/><circle cx="99.2" cy="100.03" r="15.23"/><circle class="cls-8" cx="99.2" cy="100.03" r="15.23"/><circle class="cls-8" cx="99.2" cy="100.03" r="10.77"/><circle class="cls-8" cx="99.2" cy="100.03" r="5.97"/><circle cx="121.7" cy="100.03" r="15.23"/><circle class="cls-8" cx="121.7" cy="100.03" r="15.23"/><circle class="cls-8" cx="121.7" cy="100.03" r="10.77"/><circle class="cls-8" cx="121.7" cy="100.03" r="5.97"/><circle cx="144.2" cy="100.03" r="15.23"/><circle class="cls-8" cx="144.2" cy="100.03" r="15.23"/><circle class="cls-8" cx="144.2" cy="100.03" r="10.77"/><circle class="cls-8" cx="144.2" cy="100.03" r="5.97"/><circle cx="210.42" cy="17.01" r="15.23"/><circle class="cls-8" cx="210.42" cy="17.01" r="15.23"/><circle class="cls-8" cx="210.42" cy="17.01" r="10.77"/><circle class="cls-8" cx="210.42" cy="17.01" r="5.97"/><circle cx="194.83" cy="36.57" r="15.23"/><circle class="cls-8" cx="194.83" cy="36.57" r="15.23"/><circle class="cls-8" cx="194.83" cy="36.57" r="10.77"/><circle class="cls-8" cx="194.83" cy="36.57" r="5.97"/><circle cx="232.27" cy="17.01" r="15.23"/><circle class="cls-8" cx="232.27" cy="17.01" r="15.23"/><circle class="cls-8" cx="232.27" cy="17.01" r="10.77"/><circle class="cls-8" cx="232.27" cy="17.01" r="5.97"/><circle cx="216.68" cy="36.57" r="15.23"/><circle class="cls-8" cx="216.68" cy="36.57" r="15.23"/><circle class="cls-8" cx="216.68" cy="36.57" r="10.77"/><circle class="cls-8" cx="216.68" cy="36.57" r="5.97"/><circle cx="189.21" cy="58.52" r="15.23"/><circle class="cls-8" cx="189.21" cy="58.52" r="15.23"/><circle class="cls-8" cx="189.21" cy="58.52" r="10.77"/><circle class="cls-8" cx="189.21" cy="58.52" r="5.97"/><circle cx="173.62" cy="78.08" r="15.23"/><circle class="cls-8" cx="173.62" cy="78.08" r="15.23"/><circle class="cls-8" cx="173.62" cy="78.08" r="10.77"/><circle class="cls-8" cx="173.62" cy="78.08" r="5.97"/><circle cx="166.71" cy="100.03" r="15.23"/><circle class="cls-8" cx="166.71" cy="100.03" r="15.23"/><circle class="cls-8" cx="166.71" cy="100.03" r="10.77"/><circle class="cls-8" cx="166.71" cy="100.03" r="5.97"/><circle cx="210.42" cy="58.52" r="15.23"/><circle class="cls-8" cx="210.42" cy="58.52" r="15.23"/><circle class="cls-8" cx="210.42" cy="58.52" r="10.77"/><circle class="cls-8" cx="210.42" cy="58.52" r="5.97"/><circle cx="194.83" cy="78.08" r="15.23"/><circle class="cls-8" cx="194.83" cy="78.08" r="15.23"/><circle class="cls-8" cx="194.83" cy="78.08" r="10.77"/><circle class="cls-8" cx="194.83" cy="78.08" r="5.97"/><circle cx="232.27" cy="58.52" r="15.23"/><circle class="cls-8" cx="232.27" cy="58.52" r="15.23"/><circle class="cls-8" cx="232.27" cy="58.52" r="10.77"/><circle class="cls-8" cx="232.27" cy="58.52" r="5.97"/><circle cx="216.68" cy="78.08" r="15.23"/><circle class="cls-8" cx="216.68" cy="78.08" r="15.23"/><circle class="cls-8" cx="216.68" cy="78.08" r="10.77"/><circle class="cls-8" cx="216.68" cy="78.08" r="5.97"/><circle cx="189.21" cy="100.03" r="15.23"/><circle class="cls-8" cx="189.21" cy="100.03" r="15.23"/><circle class="cls-8" cx="189.21" cy="100.03" r="10.77"/><circle class="cls-8" cx="189.21" cy="100.03" r="5.97"/><circle cx="210.42" cy="100.03" r="15.23"/><circle class="cls-8" cx="210.42" cy="100.03" r="15.23"/><circle class="cls-8" cx="210.42" cy="100.03" r="10.77"/><circle class="cls-8" cx="210.42" cy="100.03" r="5.97"/><circle cx="232.27" cy="100.03" r="15.23"/><circle class="cls-8" cx="232.27" cy="100.03" r="15.23"/><circle class="cls-8" cx="232.27" cy="100.03" r="10.77"/><circle class="cls-8" cx="232.27" cy="100.03" r="5.97"/><circle cx="-6.39" cy="119.49" r="15.23"/><circle class="cls-8" cx="-6.39" cy="119.49" r="15.23"/><circle class="cls-8" cx="-6.39" cy="119.49" r="10.77"/><circle class="cls-8" cx="-6.39" cy="119.49" r="5.97"/><circle cx="16.11" cy="119.49" r="15.23"/><circle class="cls-8" cx="16.11" cy="119.49" r="15.23"/><circle class="cls-8" cx="16.11" cy="119.49" r="10.77"/><circle class="cls-8" cx="16.11" cy="119.49" r="5.97"/><circle cx="38.61" cy="119.49" r="15.23"/><circle class="cls-8" cx="38.61" cy="119.49" r="15.23"/><circle class="cls-8" cx="38.61" cy="119.49" r="10.77"/><circle class="cls-8" cx="38.61" cy="119.49" r="5.97"/><circle cx="61.11" cy="119.49" r="15.23"/><circle class="cls-8" cx="61.11" cy="119.49" r="15.23"/><circle class="cls-8" cx="61.11" cy="119.49" r="10.77"/><circle class="cls-8" cx="61.11" cy="119.49" r="5.97"/><circle cx="83.61" cy="119.49" r="15.23"/><circle class="cls-8" cx="83.61" cy="119.49" r="15.23"/><circle class="cls-8" cx="83.61" cy="119.49" r="10.77"/><circle class="cls-8" cx="83.61" cy="119.49" r="5.97"/><circle cx="106.11" cy="119.49" r="15.23"/><circle class="cls-8" cx="106.11" cy="119.49" r="15.23"/><circle class="cls-8" cx="106.11" cy="119.49" r="10.77"/><circle class="cls-8" cx="106.11" cy="119.49" r="5.97"/><circle cx="128.62" cy="119.49" r="15.23"/><circle class="cls-8" cx="128.62" cy="119.49" r="15.23"/><circle class="cls-8" cx="128.62" cy="119.49" r="10.77"/><circle class="cls-8" cx="128.62" cy="119.49" r="5.97"/><circle cx="151.12" cy="119.49" r="15.23"/><circle class="cls-8" cx="151.12" cy="119.49" r="15.23"/><circle class="cls-8" cx="151.12" cy="119.49" r="10.77"/><circle class="cls-8" cx="151.12" cy="119.49" r="5.97"/><circle cx="173.62" cy="119.49" r="15.23"/><circle class="cls-8" cx="173.62" cy="119.49" r="15.23"/><circle class="cls-8" cx="173.62" cy="119.49" r="10.77"/><circle class="cls-8" cx="173.62" cy="119.49" r="5.97"/><circle cx="-13.3" cy="141.44" r="15.23"/><circle class="cls-8" cx="-13.3" cy="141.44" r="15.23"/><circle cx="9.2" cy="141.44" r="15.23"/><circle class="cls-8" cx="9.2" cy="141.44" r="15.23"/><circle class="cls-8" cx="9.2" cy="141.44" r="10.77"/><circle class="cls-8" cx="9.2" cy="141.44" r="5.97"/><circle cx="31.7" cy="141.44" r="15.23"/><circle class="cls-8" cx="31.7" cy="141.44" r="15.23"/><circle class="cls-8" cx="31.7" cy="141.44" r="10.77"/><circle class="cls-8" cx="31.7" cy="141.44" r="5.97"/><circle cx="54.2" cy="141.44" r="15.23"/><circle class="cls-8" cx="54.2" cy="141.44" r="15.23"/><circle class="cls-8" cx="54.2" cy="141.44" r="10.77"/><circle class="cls-8" cx="54.2" cy="141.44" r="5.97"/><circle cx="76.7" cy="141.44" r="15.23"/><circle class="cls-8" cx="76.7" cy="141.44" r="15.23"/><circle class="cls-8" cx="76.7" cy="141.44" r="10.77"/><circle class="cls-8" cx="76.7" cy="141.44" r="5.97"/><circle cx="99.2" cy="141.44" r="15.23"/><circle class="cls-8" cx="99.2" cy="141.44" r="15.23"/><circle class="cls-8" cx="99.2" cy="141.44" r="10.77"/><circle class="cls-8" cx="99.2" cy="141.44" r="5.97"/><circle cx="121.7" cy="141.44" r="15.23"/><circle class="cls-8" cx="121.7" cy="141.44" r="15.23"/><circle class="cls-8" cx="121.7" cy="141.44" r="10.77"/><circle class="cls-8" cx="121.7" cy="141.44" r="5.97"/><circle cx="144.2" cy="141.44" r="15.23"/><circle class="cls-8" cx="144.2" cy="141.44" r="15.23"/><circle class="cls-8" cx="144.2" cy="141.44" r="10.77"/><circle class="cls-8" cx="144.2" cy="141.44" r="5.97"/><circle cx="166.71" cy="141.44" r="15.23"/><circle class="cls-8" cx="166.71" cy="141.44" r="15.23"/><circle class="cls-8" cx="166.71" cy="141.44" r="10.77"/><circle class="cls-8" cx="166.71" cy="141.44" r="5.97"/><circle cx="-6.39" cy="161" r="15.23"/><circle class="cls-8" cx="-6.39" cy="161" r="15.23"/><circle class="cls-8" cx="-6.39" cy="161" r="10.77"/><circle class="cls-8" cx="-6.39" cy="161" r="5.97"/><circle cx="16.11" cy="161" r="15.23"/><circle class="cls-8" cx="16.11" cy="161" r="15.23"/><circle class="cls-8" cx="16.11" cy="161" r="10.77"/><circle class="cls-8" cx="16.11" cy="161" r="5.97"/><circle cx="38.61" cy="161" r="15.23"/><circle class="cls-8" cx="38.61" cy="161" r="15.23"/><circle class="cls-8" cx="38.61" cy="161" r="10.77"/><circle class="cls-8" cx="38.61" cy="161" r="5.97"/><circle cx="61.11" cy="161" r="15.23"/><circle class="cls-8" cx="61.11" cy="161" r="15.23"/><circle class="cls-8" cx="61.11" cy="161" r="10.77"/><circle class="cls-8" cx="61.11" cy="161" r="5.97"/><circle cx="83.61" cy="161" r="15.23"/><circle class="cls-8" cx="83.61" cy="161" r="15.23"/><circle class="cls-8" cx="83.61" cy="161" r="10.77"/><circle class="cls-8" cx="83.61" cy="161" r="5.97"/><circle cx="106.11" cy="161" r="15.23"/><circle class="cls-8" cx="106.11" cy="161" r="15.23"/><circle class="cls-8" cx="106.11" cy="161" r="10.77"/><circle class="cls-8" cx="106.11" cy="161" r="5.97"/><circle cx="128.62" cy="161" r="15.23"/><circle class="cls-8" cx="128.62" cy="161" r="15.23"/><circle class="cls-8" cx="128.62" cy="161" r="10.77"/><circle class="cls-8" cx="128.62" cy="161" r="5.97"/><circle cx="151.12" cy="161" r="15.23"/><circle class="cls-8" cx="151.12" cy="161" r="15.23"/><circle class="cls-8" cx="151.12" cy="161" r="10.77"/><circle class="cls-8" cx="151.12" cy="161" r="5.97"/><circle cx="-13.3" cy="182.95" r="15.23"/><circle class="cls-8" cx="-13.3" cy="182.95" r="15.23"/><circle cx="9.2" cy="182.95" r="15.23"/><circle class="cls-8" cx="9.2" cy="182.95" r="15.23"/><circle class="cls-8" cx="9.2" cy="182.95" r="10.77"/><circle class="cls-8" cx="9.2" cy="182.95" r="5.97"/><circle cx="31.7" cy="182.95" r="15.23"/><circle class="cls-8" cx="31.7" cy="182.95" r="15.23"/><circle class="cls-8" cx="31.7" cy="182.95" r="10.77"/><circle class="cls-8" cx="31.7" cy="182.95" r="5.97"/><circle cx="54.2" cy="182.95" r="15.23"/><circle class="cls-8" cx="54.2" cy="182.95" r="15.23"/><circle class="cls-8" cx="54.2" cy="182.95" r="10.77"/><circle class="cls-8" cx="54.2" cy="182.95" r="5.97"/><circle cx="76.7" cy="182.95" r="15.23"/><circle class="cls-8" cx="76.7" cy="182.95" r="15.23"/><circle class="cls-8" cx="76.7" cy="182.95" r="10.77"/><circle class="cls-8" cx="76.7" cy="182.95" r="5.97"/><circle cx="99.2" cy="182.95" r="15.23"/><circle class="cls-8" cx="99.2" cy="182.95" r="15.23"/><circle class="cls-8" cx="99.2" cy="182.95" r="10.77"/><circle class="cls-8" cx="99.2" cy="182.95" r="5.97"/><circle cx="121.7" cy="182.95" r="15.23"/><circle class="cls-8" cx="121.7" cy="182.95" r="15.23"/><circle class="cls-8" cx="121.7" cy="182.95" r="10.77"/><circle class="cls-8" cx="121.7" cy="182.95" r="5.97"/><circle cx="144.2" cy="182.95" r="15.23"/><circle class="cls-8" cx="144.2" cy="182.95" r="15.23"/><circle class="cls-8" cx="144.2" cy="182.95" r="10.77"/><circle class="cls-8" cx="144.2" cy="182.95" r="5.97"/><circle cx="194.83" cy="119.49" r="15.23"/><circle class="cls-8" cx="194.83" cy="119.49" r="15.23"/><circle class="cls-8" cx="194.83" cy="119.49" r="10.77"/><circle class="cls-8" cx="194.83" cy="119.49" r="5.97"/><circle cx="216.68" cy="119.49" r="15.23"/><circle class="cls-8" cx="216.68" cy="119.49" r="15.23"/><circle class="cls-8" cx="216.68" cy="119.49" r="10.77"/><circle class="cls-8" cx="216.68" cy="119.49" r="5.97"/><circle cx="189.21" cy="141.44" r="15.23"/><circle class="cls-8" cx="189.21" cy="141.44" r="15.23"/><circle class="cls-8" cx="189.21" cy="141.44" r="10.77"/><circle class="cls-8" cx="189.21" cy="141.44" r="5.97"/><circle cx="173.62" cy="161" r="15.23"/><circle class="cls-8" cx="173.62" cy="161" r="15.23"/><circle class="cls-8" cx="173.62" cy="161" r="10.77"/><circle class="cls-8" cx="173.62" cy="161" r="5.97"/><circle cx="166.71" cy="182.95" r="15.23"/><circle class="cls-8" cx="166.71" cy="182.95" r="15.23"/><circle class="cls-8" cx="166.71" cy="182.95" r="10.77"/><circle class="cls-8" cx="166.71" cy="182.95" r="5.97"/><circle cx="210.42" cy="141.44" r="15.23"/><circle class="cls-8" cx="210.42" cy="141.44" r="15.23"/><circle class="cls-8" cx="210.42" cy="141.44" r="10.77"/><circle class="cls-8" cx="210.42" cy="141.44" r="5.97"/><circle cx="194.83" cy="161" r="15.23"/><circle class="cls-8" cx="194.83" cy="161" r="15.23"/><circle class="cls-8" cx="194.83" cy="161" r="10.77"/><circle class="cls-8" cx="194.83" cy="161" r="5.97"/><circle cx="232.27" cy="141.44" r="15.23"/><circle class="cls-8" cx="232.27" cy="141.44" r="15.23"/><circle class="cls-8" cx="232.27" cy="141.44" r="10.77"/><circle class="cls-8" cx="232.27" cy="141.44" r="5.97"/><circle cx="216.68" cy="161" r="15.23"/><circle class="cls-8" cx="216.68" cy="161" r="15.23"/><circle class="cls-8" cx="216.68" cy="161" r="10.77"/><circle class="cls-8" cx="216.68" cy="161" r="5.97"/><circle cx="189.21" cy="182.95" r="15.23"/><circle class="cls-8" cx="189.21" cy="182.95" r="15.23"/><circle class="cls-8" cx="189.21" cy="182.95" r="10.77"/><circle class="cls-8" cx="189.21" cy="182.95" r="5.97"/><circle cx="210.42" cy="182.95" r="15.23"/><circle class="cls-8" cx="210.42" cy="182.95" r="15.23"/><circle class="cls-8" cx="210.42" cy="182.95" r="10.77"/><circle class="cls-8" cx="210.42" cy="182.95" r="5.97"/><circle cx="232.27" cy="182.95" r="15.23"/><circle class="cls-8" cx="232.27" cy="182.95" r="15.23"/><circle class="cls-8" cx="232.27" cy="182.95" r="10.77"/><circle class="cls-8" cx="232.27" cy="182.95" r="5.97"/><circle cx="257.22" cy="17.01" r="15.23"/><circle class="cls-8" cx="257.22" cy="17.01" r="15.23"/><circle class="cls-8" cx="257.22" cy="17.01" r="10.77"/><circle class="cls-8" cx="257.22" cy="17.01" r="5.97"/><circle cx="279.72" cy="17.01" r="15.23"/><circle class="cls-8" cx="279.72" cy="17.01" r="15.23"/><circle class="cls-8" cx="279.72" cy="17.01" r="10.77"/><circle class="cls-8" cx="279.72" cy="17.01" r="5.97"/><circle cx="302.22" cy="17.01" r="15.23"/><circle class="cls-8" cx="302.22" cy="17.01" r="15.23"/><circle class="cls-8" cx="302.22" cy="17.01" r="10.77"/><circle class="cls-8" cx="302.22" cy="17.01" r="5.97"/><circle cx="324.72" cy="17.01" r="15.23"/><circle class="cls-8" cx="324.72" cy="17.01" r="15.23"/><circle class="cls-8" cx="324.72" cy="17.01" r="10.77"/><circle class="cls-8" cx="324.72" cy="17.01" r="5.97"/><circle cx="241.63" cy="36.57" r="15.23"/><circle class="cls-8" cx="241.63" cy="36.57" r="15.23"/><circle class="cls-8" cx="241.63" cy="36.57" r="10.77"/><circle class="cls-8" cx="241.63" cy="36.57" r="5.97"/><circle cx="264.13" cy="36.57" r="15.23"/><circle class="cls-8" cx="264.13" cy="36.57" r="15.23"/><circle class="cls-8" cx="264.13" cy="36.57" r="10.77"/><circle class="cls-8" cx="264.13" cy="36.57" r="5.97"/><circle cx="286.63" cy="36.57" r="15.23"/><circle class="cls-8" cx="286.63" cy="36.57" r="15.23"/><circle class="cls-8" cx="286.63" cy="36.57" r="10.77"/><circle class="cls-8" cx="286.63" cy="36.57" r="5.97"/><circle cx="309.13" cy="36.57" r="15.23"/><circle class="cls-8" cx="309.13" cy="36.57" r="15.23"/><circle class="cls-8" cx="309.13" cy="36.57" r="10.77"/><circle class="cls-8" cx="309.13" cy="36.57" r="5.97"/><circle cx="331.63" cy="36.57" r="15.23"/><circle class="cls-8" cx="331.63" cy="36.57" r="15.23"/><circle class="cls-8" cx="331.63" cy="36.57" r="10.77"/><circle class="cls-8" cx="331.63" cy="36.57" r="5.97"/><circle cx="257.22" cy="58.52" r="15.23"/><circle class="cls-8" cx="257.22" cy="58.52" r="15.23"/><circle class="cls-8" cx="257.22" cy="58.52" r="10.77"/><circle class="cls-8" cx="257.22" cy="58.52" r="5.97"/><circle cx="279.72" cy="58.52" r="15.23"/><circle class="cls-8" cx="279.72" cy="58.52" r="15.23"/><circle class="cls-8" cx="279.72" cy="58.52" r="10.77"/><circle class="cls-8" cx="279.72" cy="58.52" r="5.97"/><circle cx="302.22" cy="58.52" r="15.23"/><circle class="cls-8" cx="302.22" cy="58.52" r="15.23"/><circle class="cls-8" cx="302.22" cy="58.52" r="10.77"/><circle class="cls-8" cx="302.22" cy="58.52" r="5.97"/><circle cx="324.72" cy="58.52" r="15.23"/><circle class="cls-8" cx="324.72" cy="58.52" r="15.23"/><circle class="cls-8" cx="324.72" cy="58.52" r="10.77"/><circle class="cls-8" cx="324.72" cy="58.52" r="5.97"/><circle cx="241.63" cy="78.08" r="15.23"/><circle class="cls-8" cx="241.63" cy="78.08" r="15.23"/><circle class="cls-8" cx="241.63" cy="78.08" r="10.77"/><circle class="cls-8" cx="241.63" cy="78.08" r="5.97"/><circle cx="264.13" cy="78.08" r="15.23"/><circle class="cls-8" cx="264.13" cy="78.08" r="15.23"/><circle class="cls-8" cx="264.13" cy="78.08" r="10.77"/><circle class="cls-8" cx="264.13" cy="78.08" r="5.97"/><circle cx="286.63" cy="78.08" r="15.23"/><circle class="cls-8" cx="286.63" cy="78.08" r="15.23"/><circle class="cls-8" cx="286.63" cy="78.08" r="10.77"/><circle class="cls-8" cx="286.63" cy="78.08" r="5.97"/><circle cx="309.13" cy="78.08" r="15.23"/><circle class="cls-8" cx="309.13" cy="78.08" r="15.23"/><circle class="cls-8" cx="309.13" cy="78.08" r="10.77"/><circle class="cls-8" cx="309.13" cy="78.08" r="5.97"/><circle cx="331.63" cy="78.08" r="15.23"/><circle class="cls-8" cx="331.63" cy="78.08" r="15.23"/><circle class="cls-8" cx="331.63" cy="78.08" r="10.77"/><circle class="cls-8" cx="331.63" cy="78.08" r="5.97"/><circle cx="257.22" cy="100.03" r="15.23"/><circle class="cls-8" cx="257.22" cy="100.03" r="15.23"/><circle class="cls-8" cx="257.22" cy="100.03" r="10.77"/><circle class="cls-8" cx="257.22" cy="100.03" r="5.97"/><circle cx="279.72" cy="100.03" r="15.23"/><circle class="cls-8" cx="279.72" cy="100.03" r="15.23"/><circle class="cls-8" cx="279.72" cy="100.03" r="10.77"/><circle class="cls-8" cx="279.72" cy="100.03" r="5.97"/><circle cx="302.22" cy="100.03" r="15.23"/><circle class="cls-8" cx="302.22" cy="100.03" r="15.23"/><circle class="cls-8" cx="302.22" cy="100.03" r="10.77"/><circle class="cls-8" cx="302.22" cy="100.03" r="5.97"/><circle cx="324.72" cy="100.03" r="15.23"/><circle class="cls-8" cx="324.72" cy="100.03" r="15.23"/><circle class="cls-8" cx="324.72" cy="100.03" r="10.77"/><circle class="cls-8" cx="324.72" cy="100.03" r="5.97"/><circle cx="241.63" cy="119.49" r="15.23"/><circle class="cls-8" cx="241.63" cy="119.49" r="15.23"/><circle class="cls-8" cx="241.63" cy="119.49" r="10.77"/><circle class="cls-8" cx="241.63" cy="119.49" r="5.97"/><circle cx="264.13" cy="119.49" r="15.23"/><circle class="cls-8" cx="264.13" cy="119.49" r="15.23"/><circle class="cls-8" cx="264.13" cy="119.49" r="10.77"/><circle class="cls-8" cx="264.13" cy="119.49" r="5.97"/><circle cx="286.63" cy="119.49" r="15.23"/><circle class="cls-8" cx="286.63" cy="119.49" r="15.23"/><circle class="cls-8" cx="286.63" cy="119.49" r="10.77"/><circle class="cls-8" cx="286.63" cy="119.49" r="5.97"/><circle cx="309.13" cy="119.49" r="15.23"/><circle class="cls-8" cx="309.13" cy="119.49" r="15.23"/><circle class="cls-8" cx="309.13" cy="119.49" r="10.77"/><circle class="cls-8" cx="309.13" cy="119.49" r="5.97"/><circle cx="331.63" cy="119.49" r="15.23"/><circle class="cls-8" cx="331.63" cy="119.49" r="15.23"/><circle class="cls-8" cx="331.63" cy="119.49" r="10.77"/><circle class="cls-8" cx="331.63" cy="119.49" r="5.97"/><circle cx="257.22" cy="141.44" r="15.23"/><circle class="cls-8" cx="257.22" cy="141.44" r="15.23"/><circle class="cls-8" cx="257.22" cy="141.44" r="10.77"/><circle class="cls-8" cx="257.22" cy="141.44" r="5.97"/><circle cx="279.72" cy="141.44" r="15.23"/><circle class="cls-8" cx="279.72" cy="141.44" r="15.23"/><circle class="cls-8" cx="279.72" cy="141.44" r="10.77"/><circle class="cls-8" cx="279.72" cy="141.44" r="5.97"/><circle cx="302.22" cy="141.44" r="15.23"/><circle class="cls-8" cx="302.22" cy="141.44" r="15.23"/><circle class="cls-8" cx="302.22" cy="141.44" r="10.77"/><circle class="cls-8" cx="302.22" cy="141.44" r="5.97"/><circle cx="324.72" cy="141.44" r="15.23"/><circle class="cls-8" cx="324.72" cy="141.44" r="15.23"/><circle class="cls-8" cx="324.72" cy="141.44" r="10.77"/><circle class="cls-8" cx="324.72" cy="141.44" r="5.97"/><circle cx="241.63" cy="161" r="15.23"/><circle class="cls-8" cx="241.63" cy="161" r="15.23"/><circle class="cls-8" cx="241.63" cy="161" r="10.77"/><circle class="cls-8" cx="241.63" cy="161" r="5.97"/><circle cx="264.13" cy="161" r="15.23"/><circle class="cls-8" cx="264.13" cy="161" r="15.23"/><circle class="cls-8" cx="264.13" cy="161" r="10.77"/><circle class="cls-8" cx="264.13" cy="161" r="5.97"/><circle cx="286.63" cy="161" r="15.23"/><circle class="cls-8" cx="286.63" cy="161" r="15.23"/><circle class="cls-8" cx="286.63" cy="161" r="10.77"/><circle class="cls-8" cx="286.63" cy="161" r="5.97"/><circle cx="309.13" cy="161" r="15.23"/><circle class="cls-8" cx="309.13" cy="161" r="15.23"/><circle class="cls-8" cx="309.13" cy="161" r="10.77"/><circle class="cls-8" cx="309.13" cy="161" r="5.97"/><circle cx="331.63" cy="161" r="15.23"/><circle class="cls-8" cx="331.63" cy="161" r="15.23"/><circle class="cls-8" cx="331.63" cy="161" r="10.77"/><circle class="cls-8" cx="331.63" cy="161" r="5.97"/><circle cx="257.22" cy="182.95" r="15.23"/><circle class="cls-8" cx="257.22" cy="182.95" r="15.23"/><circle class="cls-8" cx="257.22" cy="182.95" r="10.77"/><circle class="cls-8" cx="257.22" cy="182.95" r="5.97"/><circle cx="279.72" cy="182.95" r="15.23"/><circle class="cls-8" cx="279.72" cy="182.95" r="15.23"/><circle class="cls-8" cx="279.72" cy="182.95" r="10.77"/><circle class="cls-8" cx="279.72" cy="182.95" r="5.97"/><circle cx="302.22" cy="182.95" r="15.23"/><circle class="cls-8" cx="302.22" cy="182.95" r="15.23"/><circle class="cls-8" cx="302.22" cy="182.95" r="10.77"/><circle class="cls-8" cx="302.22" cy="182.95" r="5.97"/><circle cx="324.72" cy="182.95" r="15.23"/><circle class="cls-8" cx="324.72" cy="182.95" r="15.23"/><circle class="cls-8" cx="324.72" cy="182.95" r="10.77"/><circle class="cls-8" cx="324.72" cy="182.95" r="5.97"/></g></g><path class="cls-9" d="M52.25,101.31h0l-1.5-6.36c-.52-2.2-11.26-1.55-24,1.46l-.19,0a3.91,3.91,0,0,1-.84-.81l2,.54L27,94.37l1.47-.31-1.67-1.43,1.48-2.28-2.18.17.2-1.9-2,1.2L22.89,88l-.45,1.86-2-.89.63,2.65L19,92.43l1.28.79L19,94.67l2.88.23L22,97.47l1.17-1,.42.72c-11.16,2.92-19.42,6.63-18.94,8.65l1.07,4.52h0l.48,2,.37,1.54h0l8.86,37.45h0l.06.26.77,3.26h0l1.07,4.52c.52,2.2,11.26,1.55,24-1.46s22.62-7.24,22.1-9.44l-.77-3.26h0l0-.07-.7-3h0l-.35-1.47L52.3,101.5ZM24.64,96.12a4,4,0,0,0,.6.66l-1,.24Z"/><ellipse class="cls-10" cx="39.6" cy="150.72" rx="23.68" ry="4.1" transform="translate(-33.62 13.16) rotate(-13.3)"/><rect class="cls-11" x="9.96" y="99.71" width="47.36" height="51.65" transform="translate(-27.98 11.11) rotate(-13.3)"/><ellipse class="cls-12" cx="27.7" cy="100.4" rx="23.68" ry="4.1" transform="translate(-22.36 9.07) rotate(-13.3)"/><path class="cls-13" d="M52.25,101.31c.52,2.2-9.37,6.43-22.1,9.44s-23.47,3.66-24,1.46l.41,1.74c.52,2.2,11.26,1.55,24-1.46s22.62-7.24,22.1-9.44"/><path class="cls-14" d="M61.52,140.49c.52,2.2-9.37,6.43-22.1,9.44s-23.47,3.66-24,1.46l.41,1.74c.52,2.2,11.26,1.55,24-1.46s22.62-7.24,22.1-9.44"/><path class="cls-15" d="M50.75,94.95c.52,2.2-9.37,6.43-22.1,9.44s-23.47,3.66-24,1.46l1.07,4.52c.52,2.2,11.26,1.55,24-1.46s22.62-7.24,22.1-9.44"/><path class="cls-16" d="M62.35,144c.52,2.2-9.37,6.43-22.1,9.44s-23.47,3.66-24,1.46l1.07,4.52c.52,2.2,11.26,1.55,24-1.46s22.62-7.24,22.1-9.44"/><path d="M28.06,102.27a.65.65,0,0,1-.58-.11c-.19-.18-.12-.46.14-.62a1.87,1.87,0,0,0,.93-1.43,2,2,0,0,0-1.13-1.88C25.09,96.95,23,95.48,25,92.82a.77.77,0,0,1,.82-.24.35.35,0,0,1,.2.58c-1.41,1.86-.37,2.92,2.2,4.32A2.7,2.7,0,0,1,29.74,100a2.83,2.83,0,0,1-1.43,2.15A.8.8,0,0,1,28.06,102.27Z"/><polygon class="cls-17" points="22.89 88.03 24.97 90.6 28.27 90.35 26.46 93.12 27.73 96.18 24.53 95.32 22.01 97.47 21.84 94.16 19.02 92.43 22.11 91.25 22.89 88.03"/><polygon class="cls-18" points="26.29 88.62 25.94 91.91 28.45 94.06 25.22 94.75 23.95 97.8 22.29 94.94 19 94.67 21.21 92.22 20.44 89 23.46 90.34 26.29 88.62"/><path class="cls-19" d="M32.52,134.12a0,0,0,0,0,.06,0,0,0,0,0,0,0,0,.76.76,0,0,1,.1-.59.74.74,0,0,1,.51-.35,86.4,86.4,0,0,0,12.55-3.92,1.41,1.41,0,0,1,1.22,0,1.35,1.35,0,0,1,.73,1l2.27,9.6a2.08,2.08,0,0,1-1.17,2.32l-.67.27a.81.81,0,0,1-.71,0,.84.84,0,0,1-.43-.59c0-.07-.07-.09-.16-.06-2.77,1-5.53,1.9-8.38,2.66a.13.13,0,0,0-.11.17,1,1,0,0,1-.12.75,1,1,0,0,1-.63.46l-.56.13a1.56,1.56,0,0,1-1.22-.22,1.58,1.58,0,0,1-.72-1L33,135.88a.07.07,0,0,0-.07-.06.08.08,0,0,0-.08,0l-.15.38a1.14,1.14,0,0,1-.9.69,1.35,1.35,0,0,1-1.13-.3c-.41-.33-.85-.67-1.3-1a.09.09,0,0,0-.09,0,.06.06,0,0,0,0,.08l2.26,9.55a1.5,1.5,0,0,1-1.29,1.87h-.06a1.94,1.94,0,0,1-2.08-1.45l-1.8-7.6a.11.11,0,0,0-.08-.08s-.07,0-.09,0A16.33,16.33,0,0,1,25,139.39a1.06,1.06,0,0,1-.69.3,1.46,1.46,0,0,1-.39,0,1.63,1.63,0,0,1-1-.7,2.44,2.44,0,0,1-.21-.27,2.14,2.14,0,0,1-.4-.83,1.76,1.76,0,0,1,0-.45,1.46,1.46,0,0,1,.44-1.09A17.83,17.83,0,0,0,27,128.87a.12.12,0,0,0,0-.11.13.13,0,0,0-.13,0c-1.82.25-2.74.35-4.58.48a1.79,1.79,0,0,1-1.23-.37,1.81,1.81,0,0,1-.72-1.06,1.27,1.27,0,0,1,.2-1.11,1.32,1.32,0,0,1,1-.52l1.72-.15c.13,0,.19-.08.15-.21l-.8-3.4a1.41,1.41,0,0,1,.22-1.22,1.5,1.5,0,0,1,1.07-.61H24a1.87,1.87,0,0,1,1.3.32A1.76,1.76,0,0,1,26,122l.8,3.4a.19.19,0,0,0,.25.16l.91-.14.14,0a1.08,1.08,0,0,1,.33-.11,1.32,1.32,0,0,1,.73.1l.55.19a1.68,1.68,0,0,1,.74.61,1.91,1.91,0,0,1,.16.43,1.51,1.51,0,0,1,0,.49,27.67,27.67,0,0,1-1.33,5.08.23.23,0,0,0,.1.3C30.29,132.89,31.32,133.45,32.52,134.12ZM30.3,123.2a1.45,1.45,0,0,1-.66-.92,1.36,1.36,0,0,1,.19-1.09,1.4,1.4,0,0,1,.91-.63,86.42,86.42,0,0,0,12.37-3.94,1.21,1.21,0,0,1,1.05,0,1.16,1.16,0,0,1,.63.83,1.82,1.82,0,0,1-1,2,86.43,86.43,0,0,1-12.37,3.94A1.43,1.43,0,0,1,30.3,123.2Zm1.93,3a1.6,1.6,0,0,1,.22-1.27,1.66,1.66,0,0,1,1-.76,70.82,70.82,0,0,0,9.08-2.91,1.43,1.43,0,0,1,1.22,0,1.37,1.37,0,0,1,.74,1l.91,3.84a2,2,0,0,1-1.18,2.29,70.81,70.81,0,0,1-9.08,2.91,1.68,1.68,0,0,1-2-1.25ZM39,134.75a.19.19,0,0,0-.27-.16c-.95.27-1.43.4-2.38.65a.21.21,0,0,0-.17.28l.35,1.47c0,.13.12.18.27.14,1-.24,1.44-.37,2.38-.65q.22-.06.17-.26Zm-1.61,4.91a.21.21,0,0,0-.17.28l.36,1.5a.2.2,0,0,0,.28.17c1-.24,1.44-.37,2.38-.65a.21.21,0,0,0,.17-.29l-.36-1.5a.19.19,0,0,0-.27-.16C38.87,139.29,38.39,139.42,37.44,139.66ZM42,126.52a.23.23,0,0,0,.16-.3l-.38-1.61a.18.18,0,0,0-.27-.14c-1.91.71-3.89,1.34-5.86,1.87q-.19.05-.14.28l.38,1.61q.05.22.25.17C38.1,127.87,40.07,127.24,42,126.52Zm3.06,8a.22.22,0,0,0,.17-.28l-.35-1.47a.17.17,0,0,0-.27-.14c-1,.37-1.45.55-2.43.89a.23.23,0,0,0-.16.3l.35,1.47c0,.13.12.17.26.12C43.6,135.07,44.08,134.9,45.05,134.52Zm-1.64,5.22a.18.18,0,0,0,.27.15c1-.34,1.47-.52,2.43-.89a.24.24,0,0,0,.16-.31l-.36-1.5a.17.17,0,0,0-.27-.14c-1,.37-1.45.55-2.43.89a.23.23,0,0,0-.16.3Z"/><rect class="cls-9" x="271.65" y="99.41" width="47.73" height="64.58" rx="8" ry="8" transform="translate(33.79 -58.49) rotate(11.98)"/><rect class="cls-20" x="263.22" y="107.83" width="64.58" height="47.73" rx="8" ry="8" transform="translate(105.32 393.43) rotate(-78.02)"/><rect class="cls-21" x="263.22" y="107.83" width="64.58" height="47.73" rx="8" ry="8" transform="translate(105.32 393.43) rotate(-78.02)"/><g class="cls-22"><path class="cls-23" d="M294.85,134.82a10.28,10.28,0,0,1-6.69-4.55,10.7,10.7,0,0,1-1.29-8,.5.5,0,1,1,1,.21,9.17,9.17,0,0,0,7.21,11.3c5.21,1.11,10-2.16,11.16-7.6a.5.5,0,1,1,1,.21C305.92,132.45,300.61,136,294.85,134.82Z"/></g><g class="cls-22"><path class="cls-23" d="M296.88,125.25c-7.54-1.6-17.41-5.07-21.6-12.49a.51.51,0,0,1,.19-.69.49.49,0,0,1,.68.18c3.13,5.54,10.57,9.8,20.95,12s18.91,1.33,24-2.46a.49.49,0,0,1,.69.11.51.51,0,0,1-.11.7C314.85,127.69,304.42,126.85,296.88,125.25Z"/></g><path class="cls-24" d="M297.09,124.27c-7.53-1.6-17.42-4.89-21.79-11.48a.51.51,0,0,1,.14-.7.49.49,0,0,1,.69.13c3.26,4.92,10.78,8.85,21.18,11.05s18.86,1.67,23.84-1.5a.49.49,0,0,1,.69.16.51.51,0,0,1-.16.7C315,126.88,304.62,125.86,297.09,124.27Z"/><ellipse class="cls-25" cx="297.28" cy="123.39" rx="10.68" ry="10.53" transform="translate(114.86 388.57) rotate(-78.02)"/><ellipse class="cls-26" cx="297.28" cy="123.39" rx="9.5" ry="9.36" transform="translate(114.86 388.57) rotate(-78.02)"/><path class="cls-27" d="M302.58,119l-4,4.42,2.23.47-.26,1.24-2.65-.56-.3,1.42,2.65.56-.27,1.25-2.65-.56-.47,2.2-1.65-.35.47-2.2-2.75-.58.27-1.25,2.75.58.3-1.42-2.75-.58.26-1.24,2.3.49-1.8-5.65,1.82.39q1.16,4.16,1.35,5.23h0a5.73,5.73,0,0,1,.66-1q.33-.38,2.7-3.27Z"/><path class="cls-28" d="M59.72,71.71a4,4,0,0,1,1.77,3,3.21,3.21,0,0,1,.07.61,4.16,4.16,0,0,1-1,2.73,3.62,3.62,0,0,1-2.93,1.43h-.07a3.76,3.76,0,0,1-2.93-1.3l-.07-.07a.22.22,0,0,0-.27-.07.22.22,0,0,0-.14.2V86a4.91,4.91,0,1,1-9.82,0V80c0-.09-.06-.16-.17-.2s-.19,0-.24.07q-1.57,2-3.27,3.89a4,4,0,0,1-2.93,1.23h-.34A5.09,5.09,0,0,1,34,83.23a4.27,4.27,0,0,1-1.09-2.93,4.42,4.42,0,0,1,1.5-3.41,44.77,44.77,0,0,0,7.64-8.66.39.39,0,0,0,0-.41.38.38,0,0,0-.37-.21H36.94a4.19,4.19,0,0,1-4.23-4.19,4.15,4.15,0,0,1,1.23-3,4,4,0,0,1,3-1.26h6.68a.6.6,0,0,0,.68-.68V55.61a.6.6,0,0,0-.68-.68h-7a3.94,3.94,0,0,1-2.9-1.19,4.2,4.2,0,0,1,0-5.87,3.94,3.94,0,0,1,2.9-1.19h1A.49.49,0,0,0,38,46.5a.38.38,0,0,0,.07-.37,14.94,14.94,0,0,0-.55-2.52,3.21,3.21,0,0,1-.14-.89,3.63,3.63,0,0,1,.41-1.64,3.14,3.14,0,0,1,2-1.5v-.07H37.41a3.89,3.89,0,0,1-2.9-1.23,4,4,0,0,1-1.19-2.9,3.91,3.91,0,0,1,1.19-2.86,4,4,0,0,1,2.9-1.19h6.28a.54.54,0,0,0,.61-.61v-.41a4.91,4.91,0,1,1,9.82,0v.41a.54.54,0,0,0,.61.61H61a4,4,0,0,1,2.9,1.19,3.91,3.91,0,0,1,1.19,2.86,4,4,0,0,1-1.19,2.9A3.89,3.89,0,0,1,61,39.51H59.78a2.07,2.07,0,0,1,1.5,1.13,2.09,2.09,0,0,1,.07,1.88l-1.57,3.62a.43.43,0,0,0,0,.38.33.33,0,0,0,.31.17h1.3a4,4,0,0,1,2.9,1.19,4.2,4.2,0,0,1,0,5.87,4,4,0,0,1-2.9,1.19H54.81a.6.6,0,0,0-.68.68v2.87a.6.6,0,0,0,.68.68h5.8a4,4,0,0,1,3,1.26,4.16,4.16,0,0,1,1.23,3,4,4,0,0,1-1.23,3,4.08,4.08,0,0,1-3,1.23H54.19s-.07,0-.07,0,0,.06.07.1Q55.9,68.84,59.72,71.71ZM53,40.13a.45.45,0,0,0-.07-.41.46.46,0,0,0-.41-.21h-7.3a.4.4,0,0,0-.37.17.57.57,0,0,0,0,.44,22.47,22.47,0,0,1,1,2.93,4.76,4.76,0,0,1,.07.75,2.73,2.73,0,0,1-.41,1.43,3,3,0,0,1-1.84,1.36v.07H54.87s.07,0,.07,0,0,0-.07,0A3.32,3.32,0,0,1,52.69,45a3.21,3.21,0,0,1-.48-1.64,3.08,3.08,0,0,1,.2-1.09Q52.76,41.15,53,40.13ZM77.65,39a.76.76,0,0,0-.68.82v7a.6.6,0,0,0,.68.68H93.27a4.42,4.42,0,0,1,3.27,1.4,4.7,4.7,0,0,1,0,6.62,4.41,4.41,0,0,1-3.27,1.4h-.68a.54.54,0,0,0-.61.61V85.69a4.91,4.91,0,1,1-9.82,0V57.52a.6.6,0,0,0-.68-.68H77.65a.6.6,0,0,0-.68.68q-.48,18.82-7.57,29.53a3.4,3.4,0,0,1-2.93,1.57H66.4A5,5,0,0,1,63,87.15a5.6,5.6,0,0,1-1.74-3.38,5.35,5.35,0,0,1-.07-.89A5.49,5.49,0,0,1,62,80,32.86,32.86,0,0,0,66.3,68.36a85.4,85.4,0,0,0,1.06-14V35.15A3.76,3.76,0,0,1,68.86,32a3.79,3.79,0,0,1,2.32-.82,4,4,0,0,1,1.13.17,2.09,2.09,0,0,0,1.13,0,96.81,96.81,0,0,0,11.46-3.75,8.09,8.09,0,0,1,3.41-.75,6,6,0,0,1,1.3.14,7.94,7.94,0,0,1,4.3,1.91A3.37,3.37,0,0,1,95,31.47a3.49,3.49,0,0,1-.07.68,2.92,2.92,0,0,1-2.11,2.52A112,112,0,0,1,77.65,39Z"/><path class="cls-28" d="M158,66.86a4.88,4.88,0,1,1,0,9.75h-17.6a.6.6,0,0,0-.68.68v8.39a5.22,5.22,0,1,1-10.43,0V77.3a.6.6,0,0,0-.68-.68H103a4.88,4.88,0,1,1,0-9.75h5.25a.6.6,0,0,0,.68-.68V51.52s0-.08-.1-.1a.16.16,0,0,0-.17,0,3.36,3.36,0,0,1-2.32,1.16h-.21a3.61,3.61,0,0,1-2.32-.82l-1.64-1.36a4.27,4.27,0,0,1-1.84-3.34,2,2,0,0,1-.07-.48,4.8,4.8,0,0,1,1.23-3.21,52.11,52.11,0,0,0,8.39-14,6.3,6.3,0,0,1,2.93-3.21,5.78,5.78,0,0,1,2.73-.68,5.44,5.44,0,0,1,1.43.21l.61.14A4.13,4.13,0,0,1,120.32,28a3.85,3.85,0,0,1,.48,1.84,5,5,0,0,1-.27,1.57.21.21,0,0,0,0,.31.37.37,0,0,0,.27.17h33.08a4.88,4.88,0,1,1,0,9.75h-13.5a.6.6,0,0,0-.68.68v5.8a.6.6,0,0,0,.68.68h12a4.71,4.71,0,1,1,0,9.41h-12a.6.6,0,0,0-.68.68v7.3a.6.6,0,0,0,.68.68ZM129.25,42.31a.6.6,0,0,0-.68-.68H116.09a1.1,1.1,0,0,0-1,.61,68.11,68.11,0,0,1-4,6,.27.27,0,0,0,0,.34.33.33,0,0,0,.31.2h17.19a.6.6,0,0,0,.68-.68ZM119.09,66.18a.6.6,0,0,0,.68.68h8.8a.6.6,0,0,0,.68-.68v-7.3a.6.6,0,0,0-.68-.68h-8.8a.6.6,0,0,0-.68.68Z"/><path class="cls-28" d="M216.11,78.59a.6.6,0,0,0,.68.68h7.64a4.63,4.63,0,0,1,3.44,1.43,4.94,4.94,0,0,1,0,6.89A4.63,4.63,0,0,1,224.43,89h-27a5.94,5.94,0,0,1-5.93-5.93v-.48c0-.23-.09-.29-.27-.21a2.25,2.25,0,0,1-2-.14,2.48,2.48,0,0,1-1.26-1.64,103.05,103.05,0,0,0-3.34-10.09s0-.06-.1,0-.1.06-.1.1V86a5,5,0,0,1-5,5,4.72,4.72,0,0,1-3.51-1.47A4.85,4.85,0,0,1,174.44,86V72.18s0-.07-.14-.07a73.4,73.4,0,0,1-2.52,9.82,3.68,3.68,0,0,1-2.39,2.32,5.68,5.68,0,0,1-1.5.21,4.37,4.37,0,0,1-2-.48,4.62,4.62,0,0,1-2.39-2.52,5.3,5.3,0,0,1-.41-2,5.13,5.13,0,0,1,.27-1.64q.82-2.66,1.5-5.93a5.76,5.76,0,0,1,2.39-3.82A5.35,5.35,0,0,1,170.49,67a4.55,4.55,0,0,1,1.09.14l2.18.34a.51.51,0,0,0,.48-.1.55.55,0,0,0,.21-.44V63.73a.66.66,0,0,0-.21-.48.47.47,0,0,0-.48-.14l-5.52.41a2,2,0,0,1-.48.07,4.36,4.36,0,0,1-3-1.16A4.5,4.5,0,0,1,163,59.22v-.55a4.25,4.25,0,0,1,1-2.8,4.16,4.16,0,0,1,3.14-1.5l1.3-.07a1.29,1.29,0,0,0,1.09-.54l2.12-2.52a.7.7,0,0,0-.07-1,74.65,74.65,0,0,0-5.66-5.73,4.89,4.89,0,0,1-1.57-3.07,3.44,3.44,0,0,1-.07-.68,4.7,4.7,0,0,1,.82-2.66l1.16-1.71a1.88,1.88,0,0,1,1.36-.89,2.31,2.31,0,0,1,1.64.34.22.22,0,0,0,.34-.07q1.77-3.21,3.34-6.62a5.91,5.91,0,0,1,2.87-2.8,6,6,0,0,1,2.11-.41,5.49,5.49,0,0,1,1.84.34,3.88,3.88,0,0,1,2.46,2.52,3.68,3.68,0,0,1,.27,1.36,4.09,4.09,0,0,1-.68,2.18q-3.41,5.25-5.8,8.46a.7.7,0,0,0,.07,1l1,1q.48.48.82-.07,1.91-2.79,3.48-5.46a5.29,5.29,0,0,1,3.14-2.46,5.19,5.19,0,0,1,1.64-.27,5.41,5.41,0,0,1,2.32.54,4.12,4.12,0,0,1,2.25,2.8,4.54,4.54,0,0,1,.14,1.09,3.71,3.71,0,0,1-.89,2.39q-5.18,6.89-9.55,11.8a.23.23,0,0,0,0,.31.29.29,0,0,0,.24.17l4.64-.21q.34-.07.21-.41a2.77,2.77,0,0,1-.48-1.5,3.44,3.44,0,0,1,.14-1,2.88,2.88,0,0,1,1.64-1.84l.68-.34a3.94,3.94,0,0,1,2-.55,3.85,3.85,0,0,1,1.23.21A4.58,4.58,0,0,1,193.33,50q2.32,3.75,3.89,6.82a5.3,5.3,0,0,1,.41,2,4.36,4.36,0,0,1-.27,1.5A4.6,4.6,0,0,1,195,63l-1.09.61a3.16,3.16,0,0,1-1.3.27,4.18,4.18,0,0,1-1-.14A2.88,2.88,0,0,1,190,62a.44.44,0,0,0-.54-.27l-4.37.34a.68.68,0,0,0-.68.75v4.71a.46.46,0,0,0,.2.41A.45.45,0,0,0,185,68l1.5-.48a6.45,6.45,0,0,1,2-.34,6.15,6.15,0,0,1,2.66.61,5.82,5.82,0,0,1,3.14,3.34q1.57,4.09,2.59,7.5a.74.74,0,0,0,.82.61h7a.6.6,0,0,0,.68-.68V41.9a.6.6,0,0,0-.68-.68h-6.21a4.71,4.71,0,0,1-3.41-1.4,4.58,4.58,0,0,1-1.43-3.41,4.89,4.89,0,0,1,4.84-4.88h24.62A4.89,4.89,0,0,1,228,36.41a4.58,4.58,0,0,1-1.43,3.41,4.71,4.71,0,0,1-3.41,1.4H216.8a.6.6,0,0,0-.68.68Z"/><path class="cls-28" d="M257.35,81.12h19.57a13,13,0,0,0,4.4-.55,3.73,3.73,0,0,0,2.08-2.25,5.26,5.26,0,0,1,2.39-2.66,4.38,4.38,0,0,1,2-.48,4.72,4.72,0,0,1,1.36.21A7.06,7.06,0,0,1,292.47,78a4.59,4.59,0,0,1,.82,2.59,4.53,4.53,0,0,1-.2,1.3q-1.43,5-4.81,6.85T277.4,90.53H257.07a57.57,57.57,0,0,1-8.83-.54,13.53,13.53,0,0,1-5.56-2,7.65,7.65,0,0,1-3-3.85,19.2,19.2,0,0,1-.82-6.17V67.14a5.94,5.94,0,0,1,5.93-5.93h15.55a.6.6,0,0,0,.68-.68V55.41a.6.6,0,0,0-.68-.68H246.91a4.77,4.77,0,0,1-4.77-4.77s0-.09-.14-.14-.16,0-.2,0q-.48.61-1,1.16a5.41,5.41,0,0,1-4.09,1.84h-.07a6.17,6.17,0,0,1-4.23-1.57,4.59,4.59,0,0,1-1.77-3.75,5,5,0,0,1,1.43-3.55,55.63,55.63,0,0,0,10.23-14.53,6.79,6.79,0,0,1,3.27-3.21,5.66,5.66,0,0,1,2.66-.68,5.4,5.4,0,0,1,1.71.27l.82.21a4.12,4.12,0,0,1,2.66,2.25,4.07,4.07,0,0,1,.41,1.71,4.2,4.2,0,0,1-.41,1.77.23.23,0,0,0,0,.31.33.33,0,0,0,.31.17h30.83A5.34,5.34,0,0,1,288.65,34a5.39,5.39,0,0,1,1.64,4q0,11.53-1.09,22.58-.61,6.75-2,8.73a8.26,8.26,0,0,1-2.46,2.49,9.3,9.3,0,0,1-3.14,1.13,21.45,21.45,0,0,1-2.32.34h-.55a5.79,5.79,0,0,1-3.82-1.43,8.54,8.54,0,0,1-2.66-4.23,18.48,18.48,0,0,0-1-2.52c0-.09-.1-.12-.17-.1a.16.16,0,0,0-.1.17,5,5,0,0,1-5,5H249.64a.6.6,0,0,0-.68.68v7q0,2.25,1.47,2.83T257.35,81.12Zm-12-35.81a.27.27,0,0,0,0,.34.33.33,0,0,0,.31.2h19.44A5.94,5.94,0,0,1,271,51.79V63.11a.67.67,0,0,0,.68.75q1.7.14,4.16.14a2.78,2.78,0,0,0,2.25-1.09q1.36-2.11,1.84-20.46a.7.7,0,0,0-.68-.68H248.41a1.1,1.1,0,0,0-1,.61Q246.36,43.95,245.34,45.31Z"/><path class="cls-28" d="M126.5,108.25a5.25,5.25,0,0,1-3.72,9H105a.46.46,0,0,0-.41.2.45.45,0,0,0-.07.41q6.41,17.12,19.85,24.69a4.37,4.37,0,0,1,2.25,3.14,3.47,3.47,0,0,1,.14,1,4.43,4.43,0,0,1-1,2.8,1.07,1.07,0,0,0-.21.27,7.32,7.32,0,0,1-4,2.73,5.16,5.16,0,0,1-1.64.27,5.84,5.84,0,0,1-2.93-.82,43.65,43.65,0,0,1-9.82-8.12,61,61,0,0,1-10-15.75.28.28,0,0,0-.48,0,47.36,47.36,0,0,1-19.85,23.87,6.22,6.22,0,0,1-3,.82,5.67,5.67,0,0,1-1.5-.2,8.1,8.1,0,0,1-4-2.52A4.43,4.43,0,0,1,67.2,147v-.61a4,4,0,0,1,2-3.07,38.16,38.16,0,0,0,11.25-9.41,43.76,43.76,0,0,0,7.91-16,.52.52,0,0,0-.1-.48.55.55,0,0,0-.44-.2H70.68a5.25,5.25,0,1,1,0-10.5H89.57a.67.67,0,0,0,.75-.68q.21-3.41.34-11.87a5.64,5.64,0,0,1,1.71-4,5.6,5.6,0,0,1,7.91,0A5.2,5.2,0,0,1,101.85,94q0,5.46-.55,12a.72.72,0,0,0,.17.48.55.55,0,0,0,.44.2h20.87A5.06,5.06,0,0,1,126.5,108.25Z"/><path class="cls-28" d="M141.72,95.26a5.86,5.86,0,0,1,2.8-2.93,5.55,5.55,0,0,1,2.39-.55,5.15,5.15,0,0,1,1.64.27,4.75,4.75,0,0,1,2.93,2.52,4.34,4.34,0,0,1,.07,3.82q-1.91,4.5-4.23,8.8a3.16,3.16,0,0,0-.27,1.3v42.83a5.15,5.15,0,0,1-10.3,0V124a.16.16,0,0,0-.1-.17.15.15,0,0,0-.17,0,2.33,2.33,0,0,1-1.77.82h-.48a2.5,2.5,0,0,1-1.91-1.5q-.55-1.09-1-2.18a8.32,8.32,0,0,1-1-3.89,7.2,7.2,0,0,1,.07-1,8.81,8.81,0,0,1,1.91-4.71A73.34,73.34,0,0,0,141.72,95.26Zm52.55,7.57a4.86,4.86,0,0,1,0,6.82,4.55,4.55,0,0,1-3.38,1.43H177.46a.6.6,0,0,0-.68.68v4.43a.6.6,0,0,0,.68.68h11.73a4.52,4.52,0,0,1,3.27,1.33,4.36,4.36,0,0,1,1.36,3.24,4.66,4.66,0,0,1-4.64,4.64H177.46a.6.6,0,0,0-.68.68v4.91a.6.6,0,0,0,.68.68H190a4.71,4.71,0,1,1,0,9.41H177.46a.6.6,0,0,0-.68.68v8.8a5.25,5.25,0,1,1-10.5,0V111.7q0-.61-.65-.61a1.1,1.1,0,0,0-1,.55,85.23,85.23,0,0,1-5.25,8.32,4.33,4.33,0,0,1-3.34,1.77h-.21a4.77,4.77,0,0,1-3.41-1.36,5.14,5.14,0,0,1-1.71-3.61v-.41a5.32,5.32,0,0,1,1.16-3.34,67.89,67.89,0,0,0,9.48-17.46,5.25,5.25,0,0,1,2.66-3,5.14,5.14,0,0,1,2.52-.68,4.72,4.72,0,0,1,1.36.21,4.67,4.67,0,0,1,3.48,4.37,4.24,4.24,0,0,1-.34,1.64L170,100.79a.34.34,0,0,0,0,.41.46.46,0,0,0,.41.21h20.53A4.55,4.55,0,0,1,194.27,102.83Z"/><path class="cls-28" d="M253.4,117.29c-.09,0-.15.06-.17.17a.19.19,0,0,0,.1.24l1.64.89a7.26,7.26,0,0,1,3.21,3.68,6.37,6.37,0,0,1,.41,2.25,6.92,6.92,0,0,1-.48,2.52,75.07,75.07,0,0,1-7.16,13,1.31,1.31,0,0,0-.14,1.16q1.09,3.14,2.32,3.14,1,0,1.43-4.23A2,2,0,0,1,256,138.3a2.11,2.11,0,0,1,2.32.34,7.6,7.6,0,0,1,2.59,3.27,6,6,0,0,1,.54,2.46,7.29,7.29,0,0,1-.14,1.43q-2.59,10.71-8.12,10.71h-.14q-5.59-.27-9.14-7.16a.53.53,0,0,0-.38-.24.51.51,0,0,0-.44.17,42.65,42.65,0,0,1-4.36,3.68,5.1,5.1,0,0,1-3.89,1A6.93,6.93,0,0,1,231.1,152q-.89-.82-1.77-1.57a1.79,1.79,0,0,1-.61-1.54,1.68,1.68,0,0,1,.89-1.4s.06,0,0-.07a.11.11,0,0,0-.1-.07H219.44a.6.6,0,0,0-.68.68v3.62a4.62,4.62,0,0,1-1.43,3.44,4.94,4.94,0,0,1-6.89,0,4.62,4.62,0,0,1-1.43-3.44V148a.6.6,0,0,0-.68-.68H199a4.43,4.43,0,1,1,0-8.87h9.28a.6.6,0,0,0,.68-.68v-1.3a.6.6,0,0,0-.68-.68h-5.12a5.94,5.94,0,0,1-5.93-5.93V115.38a5.94,5.94,0,0,1,5.93-5.93H225.1a5.94,5.94,0,0,1,5.93,5.93v14.53a5.94,5.94,0,0,1-5.93,5.93h-5.66a.6.6,0,0,0-.68.68v1.3a.6.6,0,0,0,.68.68h7.3a5.94,5.94,0,0,1,5.93,5.93V145a.33.33,0,0,0,.17.31.33.33,0,0,0,.38,0,48.76,48.76,0,0,0,6.68-5.93,1.48,1.48,0,0,0,.27-1.23,149.39,149.39,0,0,1-2.52-18.42q-.07-.54-.54-.48a3.14,3.14,0,0,1-.61.07,4.16,4.16,0,0,1-2.59-.89,4.28,4.28,0,0,1-1.64-2.93l-.07-.41v-.61a4.79,4.79,0,0,1,1-2.93,4.85,4.85,0,0,1,3.21-1.77.56.56,0,0,0,.55-.61q-.61-9.62-.61-13.85A4.46,4.46,0,0,1,237.72,92a4.54,4.54,0,0,1,3.34-1.36,4.6,4.6,0,0,1,3.38,1.4,4.86,4.86,0,0,1,1.47,3.38q.07,5.73.41,12.48,0,.68.68.61l8.87-1.09h.54a4.34,4.34,0,0,1,2.87,1,4.29,4.29,0,0,1,1.77,3.14v.55a4.61,4.61,0,0,1-1,2.93,4.28,4.28,0,0,1-3.14,1.77ZM207.09,91.85A5.94,5.94,0,0,1,213,97.78v3.68a5.94,5.94,0,0,1-5.93,5.93h-4.64a5.94,5.94,0,0,1-5.93-5.93V97.78a5.94,5.94,0,0,1,5.93-5.93ZM205,101.19a.6.6,0,0,0,.68-.68V98.67A.6.6,0,0,0,205,98h-.75a.6.6,0,0,0-.68.68v1.84a.6.6,0,0,0,.68.68Zm1.23,15.62a.6.6,0,0,0-.68.68v1a.6.6,0,0,0,.68.68H209a.6.6,0,0,0,.68-.68v-1a.6.6,0,0,0-.68-.68Zm0,9.28a.6.6,0,0,0-.68.68v1.09a.6.6,0,0,0,.68.68H209a.6.6,0,0,0,.68-.68v-1.09a.6.6,0,0,0-.68-.68Zm19.44-34.24a5.94,5.94,0,0,1,5.93,5.93v3.68a5.94,5.94,0,0,1-5.93,5.93h-4.57a5.94,5.94,0,0,1-5.93-5.93V97.78a5.94,5.94,0,0,1,5.93-5.93Zm-4,27.35a.6.6,0,0,0,.68-.68v-1a.6.6,0,0,0-.68-.68h-2.87a.6.6,0,0,0-.68.68v1a.6.6,0,0,0,.68.68Zm0,9.34a.6.6,0,0,0,.68-.68v-1.09a.6.6,0,0,0-.68-.68h-2.87a.6.6,0,0,0-.68.68v1.09a.6.6,0,0,0,.68.68Zm1.91-27.35a.6.6,0,0,0,.68-.68V98.67a.6.6,0,0,0-.68-.68h-.82a.6.6,0,0,0-.68.68v1.84a.6.6,0,0,0,.68.68ZM252.25,118a.38.38,0,0,0-.07-.37.42.42,0,0,0-.34-.17l-4.16.55a.65.65,0,0,0-.61.75q.41,4.57,1,8.39c0,.14.06.22.17.24a.19.19,0,0,0,.24-.1A60.24,60.24,0,0,0,252.25,118Zm6.89-19.37a4.82,4.82,0,0,1,.48,2,5.16,5.16,0,0,1-.27,1.64,5.06,5.06,0,0,1-2.52,2.8,3.71,3.71,0,0,1-1.77.48,4.19,4.19,0,0,1-3.89-2.59q-.89-2.11-2-4.3a3.93,3.93,0,0,1-.54-2,3.85,3.85,0,0,1,.2-1.23,3.92,3.92,0,0,1,2-2.52,5,5,0,0,1,2.11-.48,6.7,6.7,0,0,1,1.3.14,4.44,4.44,0,0,1,2.73,2Q258.25,96.76,259.13,98.6Z"/></g></g></svg>