<svg id="c" xmlns="http://www.w3.org/2000/svg" viewBox="0 0 222 72"><defs><style>.cls-1,.cls-2,.cls-3{fill:#cf2c21;}.cls-1{stroke:#30190e;stroke-width:14px;}.cls-1,.cls-2{stroke-miterlimit:10;}.cls-2{stroke:#ffce63;stroke-width:8px;}.cls-4{fill:none;}.cls-5{fill:#30190e;}.cls-6{fill:#fff;}</style></defs><title>g</title><rect class="cls-1" x="7.6" y="8.08" width="206.8" height="56.56" rx="28.28" ry="28.28"/><rect class="cls-2" x="7.6" y="8.08" width="206.8" height="56.56" rx="28.28" ry="28.28"/><rect class="cls-3" x="7.6" y="8.08" width="206.8" height="56.56" rx="28.28" ry="28.28"/><rect class="cls-4" x="7.6" y="8.08" width="206.8" height="56.56" rx="28.28" ry="28.28"/><path class="cls-5" d="M44.47,25.18a3,3,0,0,1,3-3H72a2.85,2.85,0,0,1,2.12.87A2.9,2.9,0,0,1,75,25.18V51.67a2.75,2.75,0,0,1-2.77,2.77H71.1a1.7,1.7,0,0,1-1.68-1.68.18.18,0,0,0-.21-.21H50a.18.18,0,0,0-.21.21,1.69,1.69,0,0,1-1.68,1.68h-1a2.63,2.63,0,0,1-2.64-2.64Zm5.27,22.32a.3.3,0,0,0,.34.34h19a.3.3,0,0,0,.34-.34V27.78a.3.3,0,0,0-.34-.34h-19a.3.3,0,0,0-.34.34Zm2.43-13.73a3,3,0,0,1,3-3H64a3,3,0,0,1,3,3v7.84a3,3,0,0,1-3,3H55.15a3,3,0,0,1-3-3Zm9.31,6.44a.3.3,0,0,0,.34-.34V35.55a.3.3,0,0,0-.34-.34H57.31a.3.3,0,0,0-.34.34v4.31a.3.3,0,0,0,.34.34Z"/><path class="cls-5" d="M90,47.22a.28.28,0,0,0,.1.22.26.26,0,0,0,.24.05l3.7-.38a1.14,1.14,0,0,1,.27,0,2.05,2.05,0,0,1,1.4.55,2.11,2.11,0,0,1,.75,1.68,2.65,2.65,0,0,1-2.26,2.6L81.44,53.48H81.1A2.56,2.56,0,0,1,79.52,53a2.6,2.6,0,0,1-1-1.71,2.42,2.42,0,0,1,0-.41A2.27,2.27,0,0,1,79,49.41a2.36,2.36,0,0,1,1.68-.92l1.18-.12,1.42-.14,1.27-.12a.34.34,0,0,0,.34-.38V44.86a.3.3,0,0,0-.34-.34h-2.7a2.19,2.19,0,0,1-1.61-.65,2.16,2.16,0,0,1-.65-1.59,2.22,2.22,0,0,1,.65-1.61A2.16,2.16,0,0,1,81.82,40h2.74a.27.27,0,0,0,.31-.31v-.1a2.55,2.55,0,1,1,5.1,0v.1a.27.27,0,0,0,.31.31h2.64a2.16,2.16,0,0,1,1.61.67,2.23,2.23,0,0,1,.65,1.61,2.17,2.17,0,0,1-.65,1.59,2.19,2.19,0,0,1-1.61.65h-2.6a.3.3,0,0,0-.34.34Zm12.39-4.14a2.37,2.37,0,0,1-.7,1.71,2.31,2.31,0,0,1-1.71.72,2.45,2.45,0,0,1-2.45-2.43V35.92a.16.16,0,0,0-.1-.15.26.26,0,0,0-.21,0l-2.33,1.3a1.32,1.32,0,0,1-.65.17,1.21,1.21,0,0,1-.48-.1,1.34,1.34,0,0,1-.79-.75.24.24,0,0,0-.24-.17q-4.42.24-11.64.51H81a2.45,2.45,0,0,1-2.4-2.43,2.19,2.19,0,0,1,.58-1.51,2.12,2.12,0,0,1,1.64-.72H81a.4.4,0,0,0,.41-.27q.58-1.88,1-3.63a.26.26,0,0,0-.05-.24.25.25,0,0,0-.19-.1H80.72a2.14,2.14,0,0,1-1.57-.65,2.27,2.27,0,0,1,0-3.18,2.14,2.14,0,0,1,1.57-.65H94.11a2.24,2.24,0,0,1,0,4.48h-1a.17.17,0,0,0-.15.09.17.17,0,0,0,0,.19,32.49,32.49,0,0,1,4.38,7.05.11.11,0,0,0,.08,0s.05,0,.05-.07V27.91a2.45,2.45,0,0,1,2.45-2.46,2.3,2.3,0,0,1,1.71.72,2.41,2.41,0,0,1,.7,1.75ZM86.54,31.68a.23.23,0,0,0,0,.21.2.2,0,0,0,.17.1l3.42-.07a.13.13,0,0,0,.14-.09.18.18,0,0,0,0-.15,2,2,0,0,1-.38-1.13A2.24,2.24,0,0,1,90,30a2.09,2.09,0,0,1,1.06-1.37l1.3-.65a.1.1,0,0,0,0-.1s0-.07-.05-.07H88.49a.43.43,0,0,0-.45.31Q87.23,30.14,86.54,31.68Zm18.76-7.05a2.5,2.5,0,0,1,5,0v24a8.54,8.54,0,0,1-.46,3.18,3.45,3.45,0,0,1-1.59,1.71,11.27,11.27,0,0,1-4.28.89h-.17a2.9,2.9,0,0,1-1.85-.65,4,4,0,0,1-1.3-1.92,1.94,1.94,0,0,1-.1-.62,1.88,1.88,0,0,1,.34-1.06,1.7,1.7,0,0,1,1.44-.75h0q.92,0,2.09,0a1.12,1.12,0,0,0,.67-.21.87.87,0,0,0,.19-.65Z"/><path class="cls-5" d="M145.21,25.69l.68.68v1a2.34,2.34,0,0,1-2.33,2.34H133.3a.55.55,0,0,0-.51.31q-.07.17-.21.44l-.24.48a.17.17,0,0,0,0,.21.2.2,0,0,0,.17.1h6.88a3,3,0,0,1,3,3V51a2.69,2.69,0,0,1-2.67,2.67h-1.37a1.29,1.29,0,0,1-1.3-1.3.12.12,0,0,0-.14-.14H122.24a.12.12,0,0,0-.14.14,1.29,1.29,0,0,1-1.3,1.3h-1.27A2.57,2.57,0,0,1,117,51.12V34.21a3,3,0,0,1,3-3h6a.43.43,0,0,0,.45-.31q.14-.44.24-.89a.26.26,0,0,0-.05-.24.28.28,0,0,0-.22-.1H116.18a2.34,2.34,0,0,1-2.33-2.34A2.34,2.34,0,0,1,116.18,25H121a.16.16,0,0,0,.15-.1.14.14,0,0,0,0-.17q-.24-.38-.48-.72a1.81,1.81,0,0,1-.44-1.16,1.73,1.73,0,0,1,.07-.48,1.77,1.77,0,0,1,1.06-1.3,3.4,3.4,0,0,1,1.47-.34,3,3,0,0,1,.65.07,3.14,3.14,0,0,1,1.88,1q.48.55.86,1.06a1.33,1.33,0,0,1,.27.79,1.77,1.77,0,0,1,0,.34,1.47,1.47,0,0,1-.72.92s0,0,0,.07h6.81a.57.57,0,0,0,.51-.27q.55-.89,1-1.78a4.24,4.24,0,0,1,1.75-1.78,3.68,3.68,0,0,1,2.4-.34l.1,0A1.8,1.8,0,0,1,139.7,22a1.7,1.7,0,0,1-.24,1.85q-.34.45-.68.86a.17.17,0,0,0,0,.19.17.17,0,0,0,.15.08h4.66A2.24,2.24,0,0,1,145.21,25.69ZM136.69,37a.3.3,0,0,0,.34-.34V36a.3.3,0,0,0-.34-.34H122.45a.3.3,0,0,0-.34.34v.72a.3.3,0,0,0,.34.34Zm-14.24,3.8a.3.3,0,0,0-.34.34v.89a.3.3,0,0,0,.34.34h14.24a.3.3,0,0,0,.34-.34v-.89a.3.3,0,0,0-.34-.34Zm-.34,6.67a.3.3,0,0,0,.34.34h14.24a.3.3,0,0,0,.34-.34v-1a.3.3,0,0,0-.34-.34H122.45a.3.3,0,0,0-.34.34Z"/><path class="cls-5" d="M177.11,43.45a3,3,0,0,1-3,3H172s0,0-.05.05,0,.05,0,.05q3.63,1.37,6.43,2.53a1.61,1.61,0,0,1,.21,2.84l-.17.14a4.84,4.84,0,0,1-2.53.75h-.17a5.16,5.16,0,0,1-2.4-.58q-2.19-1.1-4.55-2.05a1.7,1.7,0,0,1-1.1-1.37,1.77,1.77,0,0,1,0-.34,1.69,1.69,0,0,1,.62-1.3l.58-.48a.16.16,0,0,0,.05-.15.11.11,0,0,0-.12-.09h-8a.11.11,0,0,0-.12.09.1.1,0,0,0,.05.12l.65.55a1.78,1.78,0,0,1,.72,1.44,1.14,1.14,0,0,1,0,.27A1.72,1.72,0,0,1,161,50.37q-3.08,1.37-6.47,2.5a3.71,3.71,0,0,1-2.23,0,4.6,4.6,0,0,1-2-1.27,1.55,1.55,0,0,1-.41-1,1.39,1.39,0,0,1,.07-.44A1.48,1.48,0,0,1,151.1,49a49.74,49.74,0,0,0,6.2-2.46s.06,0,.05-.07a.08.08,0,0,0-.08-.07h-1.51a3,3,0,0,1-3-3V31a3,3,0,0,1,3-3h5.55a.38.38,0,0,0,.41-.34q0-.31.14-.82a.36.36,0,0,0-.08-.24.28.28,0,0,0-.22-.1h-9.28a2.31,2.31,0,0,1,0-4.62h24.92a2.31,2.31,0,0,1,0,4.62h-9.07a.42.42,0,0,0-.45.31q-.17.51-.31.89a.23.23,0,0,0,0,.21.23.23,0,0,0,.21.1h6.54a3,3,0,0,1,3,3ZM158.42,31.82a.3.3,0,0,0-.34.34v.55a.3.3,0,0,0,.34.34h12.77a.3.3,0,0,0,.34-.34v-.55a.3.3,0,0,0-.34-.34Zm0,4.79a.3.3,0,0,0-.34.34v.51a.3.3,0,0,0,.34.34h12.77a.3.3,0,0,0,.34-.34v-.51a.3.3,0,0,0-.34-.34Zm0,4.79a.3.3,0,0,0-.34.34v.55a.3.3,0,0,0,.34.34h12.77a.3.3,0,0,0,.34-.34v-.55a.3.3,0,0,0-.34-.34Z"/><path class="cls-6" d="M44.47,23.58a3,3,0,0,1,3-3H72a2.85,2.85,0,0,1,2.12.87A2.9,2.9,0,0,1,75,23.58V50.07a2.75,2.75,0,0,1-2.77,2.77H71.1a1.7,1.7,0,0,1-1.68-1.68.18.18,0,0,0-.21-.21H50a.18.18,0,0,0-.21.21,1.69,1.69,0,0,1-1.68,1.68h-1a2.63,2.63,0,0,1-2.64-2.64ZM49.74,45.9a.3.3,0,0,0,.34.34h19a.3.3,0,0,0,.34-.34V26.18a.3.3,0,0,0-.34-.34h-19a.3.3,0,0,0-.34.34Zm2.43-13.73a3,3,0,0,1,3-3H64a3,3,0,0,1,3,3V40a3,3,0,0,1-3,3H55.15a3,3,0,0,1-3-3Zm9.31,6.44a.3.3,0,0,0,.34-.34V34a.3.3,0,0,0-.34-.34H57.31A.3.3,0,0,0,57,34v4.31a.3.3,0,0,0,.34.34Z"/><path class="cls-6" d="M90,45.62a.28.28,0,0,0,.1.22.26.26,0,0,0,.24.05l3.7-.38a1.14,1.14,0,0,1,.27,0,2.05,2.05,0,0,1,1.4.55,2.11,2.11,0,0,1,.75,1.68,2.65,2.65,0,0,1-2.26,2.6L81.44,51.89H81.1a2.56,2.56,0,0,1-1.58-.51,2.6,2.6,0,0,1-1-1.71,2.42,2.42,0,0,1,0-.41A2.27,2.27,0,0,1,79,47.81a2.36,2.36,0,0,1,1.68-.92l1.18-.12,1.42-.14,1.27-.12a.34.34,0,0,0,.34-.38V43.26a.3.3,0,0,0-.34-.34h-2.7a2.19,2.19,0,0,1-1.61-.65,2.16,2.16,0,0,1-.65-1.59,2.22,2.22,0,0,1,.65-1.61,2.16,2.16,0,0,1,1.61-.67h2.74a.27.27,0,0,0,.31-.31V38A2.55,2.55,0,1,1,90,38v.1a.27.27,0,0,0,.31.31h2.64a2.16,2.16,0,0,1,1.61.67,2.23,2.23,0,0,1,.65,1.61,2.17,2.17,0,0,1-.65,1.59,2.19,2.19,0,0,1-1.61.65h-2.6a.3.3,0,0,0-.34.34Zm12.39-4.14a2.37,2.37,0,0,1-.7,1.71,2.31,2.31,0,0,1-1.71.72,2.45,2.45,0,0,1-2.45-2.43V34.33a.16.16,0,0,0-.1-.15.26.26,0,0,0-.21,0l-2.33,1.3a1.32,1.32,0,0,1-.65.17,1.21,1.21,0,0,1-.48-.1,1.34,1.34,0,0,1-.79-.75.24.24,0,0,0-.24-.17q-4.42.24-11.64.51H81a2.45,2.45,0,0,1-2.4-2.43,2.19,2.19,0,0,1,.58-1.51,2.12,2.12,0,0,1,1.64-.72H81a.4.4,0,0,0,.41-.27q.58-1.88,1-3.63a.26.26,0,0,0-.05-.24.25.25,0,0,0-.19-.1H80.72a2.14,2.14,0,0,1-1.57-.65,2.27,2.27,0,0,1,0-3.18,2.14,2.14,0,0,1,1.57-.65H94.11a2.24,2.24,0,0,1,0,4.48h-1a.17.17,0,0,0-.15.09.17.17,0,0,0,0,.19,32.49,32.49,0,0,1,4.38,7.05.11.11,0,0,0,.08,0s.05,0,.05-.07V26.32a2.45,2.45,0,0,1,2.45-2.46,2.3,2.3,0,0,1,1.71.72,2.41,2.41,0,0,1,.7,1.75ZM86.54,30.08a.23.23,0,0,0,0,.21.2.2,0,0,0,.17.1l3.42-.07a.13.13,0,0,0,.14-.09.18.18,0,0,0,0-.15A2,2,0,0,1,89.93,29a2.24,2.24,0,0,1,.07-.55A2.09,2.09,0,0,1,91.06,27l1.3-.65a.1.1,0,0,0,0-.1s0-.07-.05-.07H88.49a.43.43,0,0,0-.45.31Q87.23,28.54,86.54,30.08ZM105.3,23a2.5,2.5,0,0,1,5,0V47a8.54,8.54,0,0,1-.46,3.18,3.45,3.45,0,0,1-1.59,1.71,11.27,11.27,0,0,1-4.28.89h-.17a2.9,2.9,0,0,1-1.85-.65,4,4,0,0,1-1.3-1.92,1.94,1.94,0,0,1-.1-.62,1.88,1.88,0,0,1,.34-1.06,1.7,1.7,0,0,1,1.44-.75h0q.92,0,2.09,0a1.12,1.12,0,0,0,.67-.21.87.87,0,0,0,.19-.65Z"/><path class="cls-6" d="M145.21,24.09l.68.68v1a2.34,2.34,0,0,1-2.33,2.34H133.3a.55.55,0,0,0-.51.31q-.07.17-.21.44l-.24.48a.17.17,0,0,0,0,.21.2.2,0,0,0,.17.1h6.88a3,3,0,0,1,3,3V49.39a2.69,2.69,0,0,1-2.67,2.67h-1.37a1.29,1.29,0,0,1-1.3-1.3.12.12,0,0,0-.14-.14H122.24a.12.12,0,0,0-.14.14,1.29,1.29,0,0,1-1.3,1.3h-1.27A2.57,2.57,0,0,1,117,49.53V32.62a3,3,0,0,1,3-3h6a.43.43,0,0,0,.45-.31q.14-.44.24-.89a.26.26,0,0,0-.05-.24.28.28,0,0,0-.22-.1H116.18a2.34,2.34,0,0,1-2.33-2.34,2.34,2.34,0,0,1,2.33-2.34H121a.16.16,0,0,0,.15-.1.14.14,0,0,0,0-.17q-.24-.38-.48-.72a1.81,1.81,0,0,1-.44-1.16,1.73,1.73,0,0,1,.07-.48,1.77,1.77,0,0,1,1.06-1.3,3.4,3.4,0,0,1,1.47-.34,3,3,0,0,1,.65.07,3.14,3.14,0,0,1,1.88,1q.48.55.86,1.06a1.33,1.33,0,0,1,.27.79,1.77,1.77,0,0,1,0,.34,1.47,1.47,0,0,1-.72.92s0,0,0,.07h6.81a.57.57,0,0,0,.51-.27q.55-.89,1-1.78a4.24,4.24,0,0,1,1.75-1.78,3.68,3.68,0,0,1,2.4-.34l.1,0a1.8,1.8,0,0,1,1.4,1.16,1.7,1.7,0,0,1-.24,1.85q-.34.45-.68.86a.17.17,0,0,0,0,.19.17.17,0,0,0,.15.08h4.66A2.24,2.24,0,0,1,145.21,24.09Zm-8.52,11.33a.3.3,0,0,0,.34-.34v-.72a.3.3,0,0,0-.34-.34H122.45a.3.3,0,0,0-.34.34v.72a.3.3,0,0,0,.34.34Zm-14.24,3.8a.3.3,0,0,0-.34.34v.89a.3.3,0,0,0,.34.34h14.24a.3.3,0,0,0,.34-.34v-.89a.3.3,0,0,0-.34-.34Zm-.34,6.67a.3.3,0,0,0,.34.34h14.24a.3.3,0,0,0,.34-.34v-1a.3.3,0,0,0-.34-.34H122.45a.3.3,0,0,0-.34.34Z"/><path class="cls-6" d="M177.11,41.86a3,3,0,0,1-3,3H172s0,0-.05.05,0,.05,0,.05q3.63,1.37,6.43,2.53a1.61,1.61,0,0,1,.21,2.84l-.17.14a4.84,4.84,0,0,1-2.53.75h-.17a5.16,5.16,0,0,1-2.4-.58q-2.19-1.1-4.55-2.05a1.7,1.7,0,0,1-1.1-1.37,1.77,1.77,0,0,1,0-.34,1.69,1.69,0,0,1,.62-1.3l.58-.48a.16.16,0,0,0,.05-.15.11.11,0,0,0-.12-.09h-8a.11.11,0,0,0-.12.09.1.1,0,0,0,.05.12l.65.55a1.78,1.78,0,0,1,.72,1.44,1.14,1.14,0,0,1,0,.27A1.72,1.72,0,0,1,161,48.77q-3.08,1.37-6.47,2.5a3.71,3.71,0,0,1-2.23,0,4.6,4.6,0,0,1-2-1.27,1.55,1.55,0,0,1-.41-1,1.39,1.39,0,0,1,.07-.44,1.48,1.48,0,0,1,1.06-1.1,49.74,49.74,0,0,0,6.2-2.46s.06,0,.05-.07a.08.08,0,0,0-.08-.07h-1.51a3,3,0,0,1-3-3V29.4a3,3,0,0,1,3-3h5.55a.38.38,0,0,0,.41-.34q0-.31.14-.82a.36.36,0,0,0-.08-.24.28.28,0,0,0-.22-.1h-9.28a2.31,2.31,0,0,1,0-4.62h24.92a2.31,2.31,0,0,1,0,4.62h-9.07a.42.42,0,0,0-.45.31q-.17.51-.31.89a.23.23,0,0,0,0,.21.23.23,0,0,0,.21.1h6.54a3,3,0,0,1,3,3ZM158.42,30.22a.3.3,0,0,0-.34.34v.55a.3.3,0,0,0,.34.34h12.77a.3.3,0,0,0,.34-.34v-.55a.3.3,0,0,0-.34-.34Zm0,4.79a.3.3,0,0,0-.34.34v.51a.3.3,0,0,0,.34.34h12.77a.3.3,0,0,0,.34-.34v-.51a.3.3,0,0,0-.34-.34Zm0,4.79a.3.3,0,0,0-.34.34v.55a.3.3,0,0,0,.34.34h12.77a.3.3,0,0,0,.34-.34v-.55a.3.3,0,0,0-.34-.34Z"/></svg>