<svg id="c" xmlns="http://www.w3.org/2000/svg" viewBox="0 0 222 72"><defs><style>.cls-1,.cls-2,.cls-3{fill:#cf2c21;}.cls-1{stroke:#30190e;stroke-width:14px;}.cls-1,.cls-2{stroke-miterlimit:10;}.cls-2{stroke:#ffce63;stroke-width:8px;}.cls-4{fill:none;}.cls-5{fill:#30190e;}.cls-6{fill:#fff;}</style></defs><title>g</title><rect class="cls-1" x="7.6" y="8.08" width="206.8" height="56.56" rx="28.28" ry="28.28"/><rect class="cls-2" x="7.6" y="8.08" width="206.8" height="56.56" rx="28.28" ry="28.28"/><rect class="cls-3" x="7.6" y="8.08" width="206.8" height="56.56" rx="28.28" ry="28.28"/><rect class="cls-4" x="7.6" y="8.08" width="206.8" height="56.56" rx="28.28" ry="28.28"/><path class="cls-5" d="M72.68,49.31H73a.26.26,0,0,0,.22-.12,1.44,1.44,0,0,0,.15-.51,10.35,10.35,0,0,0,.1-1.18,1.08,1.08,0,0,1,.65-1,1.15,1.15,0,0,1,.65-.21,1.22,1.22,0,0,1,.55.14,3,3,0,0,1,1.37,1.09,2.29,2.29,0,0,1,.38,1.27,1.77,1.77,0,0,1,0,.34,6.17,6.17,0,0,1-1.16,3.22,3.1,3.1,0,0,1-2.4.89H71.85q-2.26,0-3-1.06a7.46,7.46,0,0,1-.72-3.9V42.84q0-.34-.33-.34a.33.33,0,0,0-.36.34,22,22,0,0,1-1.18,6,8.79,8.79,0,0,1-3.17,4.06,1.37,1.37,0,0,1-.82.27,1.31,1.31,0,0,1-.41-.07,1.82,1.82,0,0,1-1.1-.79.54.54,0,0,1-.1-.14h0a.21.21,0,0,1-.24.24H49.81a.12.12,0,0,0-.14.14,1.13,1.13,0,0,1-.36.86,1.18,1.18,0,0,1-.84.34h-.82a2,2,0,0,1-1.42-.58,1.93,1.93,0,0,1-.6-1.44V45.17s0,0,0,0h-.05a.48.48,0,0,1-.5.24.63.63,0,0,1-.5-.31q-.27-.48-.62-1a2.87,2.87,0,0,1-.44-1.54,2.93,2.93,0,0,1,.55-1.71,21.16,21.16,0,0,0,2.67-5.27.28.28,0,0,0-.05-.17.18.18,0,0,0-.15-.07,2.17,2.17,0,0,1-1.59-.67A2.22,2.22,0,0,1,44.27,33V31.24a3,3,0,0,1,3-3h1.61a3,3,0,0,1,3,3v2.43a1.58,1.58,0,0,1-.48,1.16,1.54,1.54,0,0,1-1.13.48h-.14a.59.59,0,0,1,.36.27.55.55,0,0,1,.05.44q-.21.51-.41,1.06c0,.11,0,.17.14.17h1.64a.38.38,0,0,0,.41-.34,16.4,16.4,0,0,0,.48-1.75,3.14,3.14,0,0,0,.07-.68V31.24a3,3,0,0,1,3-3h1.71a3,3,0,0,1,3,3v1.1a3,3,0,0,1-3,3H55.22v0h.14a1.14,1.14,0,0,1,.82.68,1.21,1.21,0,0,1,.1.48,1.29,1.29,0,0,1-.14.58c-.07.11,0,.17.1.17H59a1.64,1.64,0,1,1,0,3.29h-3a.3.3,0,0,0-.34.34v.24a.3.3,0,0,0,.34.34h2.67a1.41,1.41,0,0,1,1,.41,1.35,1.35,0,0,1,.43,1,1.4,1.4,0,0,1-.43,1,1.38,1.38,0,0,1-1,.43H55.94a.3.3,0,0,0-.34.34v.24a.3.3,0,0,0,.34.34h2.67a1.38,1.38,0,0,1,1,.43,1.4,1.4,0,0,1,.43,1,1.35,1.35,0,0,1-.43,1,1.41,1.41,0,0,1-1,.41H55.94a.3.3,0,0,0-.34.34v.27a.3.3,0,0,0,.34.34h4.72v0h0a5.61,5.61,0,0,0,1.87-2.6,15.58,15.58,0,0,0,.7-3.87c0-.11,0-.17-.14-.17a1.38,1.38,0,0,1-1-.39,1.3,1.3,0,0,1-.41-1V24.77a3,3,0,0,1,3-3h7.53a3,3,0,0,1,3,3V40a2.51,2.51,0,0,1-2.53,2.53.27.27,0,0,0-.31.31v5.44a4.36,4.36,0,0,0,.05.89A.24.24,0,0,0,72.68,49.31ZM48,27.68a1.46,1.46,0,0,1-1.47-1.47.15.15,0,0,0-.17-.17h-.89a1.71,1.71,0,1,1,0-3.42h.89a.15.15,0,0,0,.17-.17,1.52,1.52,0,0,1,1.54-1.54h1.16a1.5,1.5,0,0,1,1.08.45,1.46,1.46,0,0,1,.46,1.09.15.15,0,0,0,.17.17h2.84a.15.15,0,0,0,.17-.17,1.52,1.52,0,0,1,1.54-1.54h1.16a1.5,1.5,0,0,1,1.08.45,1.46,1.46,0,0,1,.46,1.09.15.15,0,0,0,.17.17h.72a1.71,1.71,0,0,1,1.23.5,1.69,1.69,0,0,1,0,2.43,1.71,1.71,0,0,1-1.23.5h-.72a.15.15,0,0,0-.17.17,1.4,1.4,0,0,1-.44,1,1.44,1.44,0,0,1-1,.43h-1.3A1.46,1.46,0,0,1,54,26.21a.15.15,0,0,0-.17-.17H50.94a.15.15,0,0,0-.17.17,1.4,1.4,0,0,1-.44,1,1.44,1.44,0,0,1-1,.43Zm-.24,3.46a.3.3,0,0,0-.34.34v.62a.3.3,0,0,0,.34.34h.41a.3.3,0,0,0,.34-.34v-.62a.3.3,0,0,0-.34-.34Zm3.39,10.34a.3.3,0,0,0,.34-.34v-.24a.3.3,0,0,0-.34-.34H50a.3.3,0,0,0-.34.34v.24a.3.3,0,0,0,.34.34Zm0,3.8a.3.3,0,0,0,.34-.34v-.24a.3.3,0,0,0-.34-.34H50a.3.3,0,0,0-.34.34v.24a.3.3,0,0,0,.34.34ZM50,48.15a.3.3,0,0,0-.34.34v.27a.3.3,0,0,0,.34.34h1.13a.3.3,0,0,0,.34-.34v-.27a.3.3,0,0,0-.34-.34Zm6.3-17a.3.3,0,0,0-.34.34v.62a.3.3,0,0,0,.34.34h.51a.3.3,0,0,0,.34-.34v-.62a.3.3,0,0,0-.34-.34Zm10.06-5a.3.3,0,0,0-.34.34v.79a.3.3,0,0,0,.34.34h4a.3.3,0,0,0,.34-.34v-.79a.3.3,0,0,0-.34-.34Zm0,5.31a.3.3,0,0,0-.34.34v.79a.3.3,0,0,0,.34.34h4a.3.3,0,0,0,.34-.34v-.79a.3.3,0,0,0-.34-.34Zm0,5.27A.3.3,0,0,0,66,37v.79a.3.3,0,0,0,.34.34h4a.3.3,0,0,0,.34-.34V37a.3.3,0,0,0-.34-.34Z"/><path class="cls-5" d="M110.16,31.82a1.91,1.91,0,0,1,.58,1.4,1.86,1.86,0,0,1-.58,1.39,1.94,1.94,0,0,1-1.4.56H92.49a.48.48,0,0,0-.48.31l-.17.31a.19.19,0,0,0,.17.31h12.53a3,3,0,0,1,3,3V51.5a2.42,2.42,0,0,1-.75,1.8A2.5,2.5,0,0,1,105,54h-1.51A1.05,1.05,0,0,1,102.39,53c0-.07,0-.1-.14-.1h-11c-.09,0-.14,0-.14.1A1.05,1.05,0,0,1,90.06,54H88.7a2.37,2.37,0,0,1-1.71-.7,2.32,2.32,0,0,1-.72-1.73v-8a.13.13,0,0,0-.09-.14.13.13,0,0,0-.15,0,29.4,29.4,0,0,1-2.6,2.12,2.39,2.39,0,0,1-1.37.44,2.23,2.23,0,0,1-.55-.07,2.87,2.87,0,0,1-1.71-1.1,2.17,2.17,0,0,1-.48-1.37,2.24,2.24,0,0,1,0-.38,2.11,2.11,0,0,1,1-1.54,22.3,22.3,0,0,0,5.85-6.09.26.26,0,0,0,0-.21.16.16,0,0,0-.15-.1H81.3a1.94,1.94,0,0,1-1.4-.56,1.86,1.86,0,0,1-.58-1.39,2,2,0,0,1,2-2h6.78a.51.51,0,0,0,.51-.31.43.43,0,0,1,0-.15.36.36,0,0,1,.07-.12.23.23,0,0,0,0-.21.2.2,0,0,0-.17-.1H83.6a1.88,1.88,0,1,1,0-3.77h6.16a.38.38,0,0,0,.41-.34l.1-.31a.24.24,0,0,0-.24-.31q-2.16.07-4.45.07-.65,0-1.3,0a2.1,2.1,0,0,1-1.44-.55A2.85,2.85,0,0,1,82,23.74a2.42,2.42,0,0,1,0-.41,1.52,1.52,0,0,1,.27-.86,1.28,1.28,0,0,1,1.1-.58,199.61,199.61,0,0,0,20.4-.92,3.43,3.43,0,0,1,.48,0,4.28,4.28,0,0,1,1.57.31,4,4,0,0,1,1.64,1.23,1.23,1.23,0,0,1,.31.79,1.29,1.29,0,0,1-.1.51,1.21,1.21,0,0,1-1,.82q-4.69.58-10.34.82a.48.48,0,0,0-.45.34l-.14.48a.26.26,0,0,0,.05.24.25.25,0,0,0,.19.1H107a1.88,1.88,0,1,1,0,3.77H94.68a.48.48,0,0,0-.48.31l-.1.24a.28.28,0,0,0,0,.24.2.2,0,0,0,.17.1h14.44A1.91,1.91,0,0,1,110.16,31.82Zm-8.11,9a.3.3,0,0,0,.34-.34v-.27a.3.3,0,0,0-.34-.34H91.47a.3.3,0,0,0-.34.34v.27a.3.3,0,0,0,.34.34ZM91.47,43.94a.3.3,0,0,0-.34.34v.31a.3.3,0,0,0,.34.34H102a.3.3,0,0,0,.34-.34v-.31a.3.3,0,0,0-.34-.34Zm-.34,4.79a.3.3,0,0,0,.34.34H102a.3.3,0,0,0,.34-.34v-.38A.3.3,0,0,0,102,48H91.47a.3.3,0,0,0-.34.34Z"/><path class="cls-5" d="M122,35.93a2.16,2.16,0,0,1,.51-.07,1.94,1.94,0,0,1,1.09.34,2,2,0,0,1,.89,1.4v0a2.53,2.53,0,0,1,0,.41,2.44,2.44,0,0,1-.45,1.4,2.3,2.3,0,0,1-1.47,1.1l-.55.17a.38.38,0,0,0-.34.41v7.6a8.58,8.58,0,0,1-.34,2.7,3.07,3.07,0,0,1-1.2,1.58,6.25,6.25,0,0,1-2.67.86,1.14,1.14,0,0,1-.27,0,2.32,2.32,0,0,1-1.54-.58,3.29,3.29,0,0,1-1.1-1.75,1.92,1.92,0,0,1,0-1.08,1.67,1.67,0,0,1,.62-.86,1.89,1.89,0,0,1,1-.36h.24a.45.45,0,0,0,.55-.55V42.36a.21.21,0,0,0-.09-.17.3.3,0,0,0-.19-.07l-.17.07a2.82,2.82,0,0,1-.62.07,2.39,2.39,0,0,1-1.23-.34,2.2,2.2,0,0,1-1.06-1.51,2.67,2.67,0,0,1-.07-.58,2.31,2.31,0,0,1,.41-1.3,2.46,2.46,0,0,1,1.58-1.1q.85-.17,1.09-.24a.38.38,0,0,0,.34-.41V32.06a.3.3,0,0,0-.34-.34h-.62a2.33,2.33,0,0,1,0-4.66h.62a.3.3,0,0,0,.34-.34V23a2.22,2.22,0,0,1,.68-1.66,2.36,2.36,0,0,1,3.29,0,2.23,2.23,0,0,1,.68,1.66v3.73a.27.27,0,0,0,.31.31h.17a2.33,2.33,0,0,1,0,4.66H122a.27.27,0,0,0-.31.31v3.7a.21.21,0,0,0,.08.17A.19.19,0,0,0,122,35.93Zm7.56-9.69a.3.3,0,0,0,.34-.34v-3a2.21,2.21,0,0,1,.67-1.63,2.23,2.23,0,0,1,3.18,0,2.21,2.21,0,0,1,.67,1.63V35.52q0,2.67-.17,4.71a38.27,38.27,0,0,1-.63,4.33,15.49,15.49,0,0,1-1.49,4.23,15.86,15.86,0,0,1-2.57,3.54A2.22,2.22,0,0,1,128,53h-.21a3.08,3.08,0,0,1-1.81-.82,2,2,0,0,1-.68-1.56A2.28,2.28,0,0,1,125.9,49,11.34,11.34,0,0,0,128,46.09a.12.12,0,0,0-.17-.17l-.65.24a2.1,2.1,0,0,1-.89.21A2.5,2.5,0,0,1,124,44.86a2,2,0,0,1,0-1.71,2.07,2.07,0,0,1,1.3-1.13q1.3-.38,3.9-1.2a.49.49,0,0,0,.38-.45q.1-.92.14-2a.24.24,0,0,0-.07-.24.33.33,0,0,0-.24-.1h-1.88a2.22,2.22,0,1,1,0-4.45h2a.3.3,0,0,0,.34-.34V31.14a.3.3,0,0,0-.34-.34h-2.22a2.28,2.28,0,0,1,0-4.55Zm14.86,14.92a2.22,2.22,0,0,1,1.63.67,2.19,2.19,0,0,1,.67,1.61,2.25,2.25,0,0,1-.67,1.63,2.19,2.19,0,0,1-1.63.68h-3.08a.3.3,0,0,0-.34.34V51.5a2.4,2.4,0,0,1-4.79,0V23a2.36,2.36,0,0,1,.7-1.71,2.36,2.36,0,0,1,3.39,0A2.37,2.37,0,0,1,141,23V25.9a.3.3,0,0,0,.34.34h2.53a2.28,2.28,0,0,1,2.29,2.28,2.19,2.19,0,0,1-.67,1.61,2.21,2.21,0,0,1-1.63.67h-2.53a.3.3,0,0,0-.34.34v2.16a.3.3,0,0,0,.34.34h2.19a2.22,2.22,0,1,1,0,4.45h-2.19a.3.3,0,0,0-.34.34v2.4a.3.3,0,0,0,.34.34Z"/><path class="cls-5" d="M156.2,29.77a3.48,3.48,0,0,1,1.68-1.3,3.26,3.26,0,0,1,1-.17,3.11,3.11,0,0,1,1.09.21,2.17,2.17,0,0,1,1.27,1.3,2.74,2.74,0,0,1,.1.72,2.06,2.06,0,0,1-.34,1.1q-1,1.51-2.05,2.88a1,1,0,0,0-.21.62V50.58a2.57,2.57,0,0,1-5.13,0V40.82a.13.13,0,0,0-.09-.14.13.13,0,0,0-.15,0,2.19,2.19,0,0,1-1.51.58,1.54,1.54,0,0,1-.31,0,2.33,2.33,0,0,1-1.68-1,.52.52,0,0,1-.1-.14,2.68,2.68,0,0,1-.58-1.68v-.31a2.63,2.63,0,0,1,1-1.85,34.67,34.67,0,0,0,3.11-3A36.16,36.16,0,0,0,156.2,29.77Zm-1.58-7.84a3.87,3.87,0,0,1,1.88-1.2,4.42,4.42,0,0,1,.92-.1,3.47,3.47,0,0,1,1.27.24,1.87,1.87,0,0,1,1.2,1.37,1.73,1.73,0,0,1,.07.48,1.82,1.82,0,0,1-.48,1.23q-1.4,1.57-3,3.15T153.15,30a2,2,0,0,1-1.27.48,2.1,2.1,0,0,1-.51-.07,2.3,2.3,0,0,1-1.51-1.06,2.43,2.43,0,0,1-.44-1.4,3.06,3.06,0,0,1,0-.44,2.51,2.51,0,0,1,1-1.61q1.16-.92,2.36-2Q153.8,22.85,154.62,21.93ZM179,31.51a2.43,2.43,0,0,1,0,4.86h-1.81a.3.3,0,0,0-.34.34V47.43a8.26,8.26,0,0,1-.46,3.13,3.25,3.25,0,0,1-1.73,1.66,12.84,12.84,0,0,1-4.31.75h-.17a2.81,2.81,0,0,1-1.85-.68,3.88,3.88,0,0,1-1.23-1.92,1.85,1.85,0,0,1-.1-.58,1.82,1.82,0,0,1,.38-1.1,1.7,1.7,0,0,1,1.44-.75h2q.82,0,.82-.65V36.71a.3.3,0,0,0-.34-.34h-6.81a2.43,2.43,0,0,1,0-4.86Zm-.86-9.72a2.41,2.41,0,1,1,0,4.83H165.88a2.41,2.41,0,0,1,0-4.83Z"/><path class="cls-6" d="M72.68,47.72H73a.26.26,0,0,0,.22-.12,1.44,1.44,0,0,0,.15-.51,10.35,10.35,0,0,0,.1-1.18,1.08,1.08,0,0,1,.65-1,1.15,1.15,0,0,1,.65-.21,1.22,1.22,0,0,1,.55.14A3,3,0,0,1,76.68,46a2.29,2.29,0,0,1,.38,1.27,1.77,1.77,0,0,1,0,.34,6.17,6.17,0,0,1-1.16,3.22,3.1,3.1,0,0,1-2.4.89H71.85q-2.26,0-3-1.06a7.46,7.46,0,0,1-.72-3.9V41.25q0-.34-.33-.34a.33.33,0,0,0-.36.34,22,22,0,0,1-1.18,6,8.79,8.79,0,0,1-3.17,4.06,1.37,1.37,0,0,1-.82.27,1.31,1.31,0,0,1-.41-.07,1.82,1.82,0,0,1-1.1-.79.54.54,0,0,1-.1-.14h0a.21.21,0,0,1-.24.24H49.81a.12.12,0,0,0-.14.14,1.13,1.13,0,0,1-.36.86,1.18,1.18,0,0,1-.84.34h-.82a2,2,0,0,1-1.42-.58,1.93,1.93,0,0,1-.6-1.44V43.57s0,0,0,0h-.05a.48.48,0,0,1-.5.24.63.63,0,0,1-.5-.31q-.27-.48-.62-1a2.87,2.87,0,0,1-.44-1.54,2.93,2.93,0,0,1,.55-1.71A21.16,21.16,0,0,0,46.73,34a.28.28,0,0,0-.05-.17.18.18,0,0,0-.15-.07A2.17,2.17,0,0,1,44.93,33a2.22,2.22,0,0,1-.67-1.63V29.64a3,3,0,0,1,3-3h1.61a3,3,0,0,1,3,3v2.43a1.58,1.58,0,0,1-.48,1.16,1.54,1.54,0,0,1-1.13.48h-.14a.59.59,0,0,1,.36.27.55.55,0,0,1,.05.44q-.21.51-.41,1.06c0,.11,0,.17.14.17h1.64a.38.38,0,0,0,.41-.34,16.4,16.4,0,0,0,.48-1.75,3.14,3.14,0,0,0,.07-.68V29.64a3,3,0,0,1,3-3h1.71a3,3,0,0,1,3,3v1.1a3,3,0,0,1-3,3H55.22v0h.14a1.14,1.14,0,0,1,.82.68,1.21,1.21,0,0,1,.1.48,1.29,1.29,0,0,1-.14.58c-.07.11,0,.17.1.17H59A1.64,1.64,0,1,1,59,39h-3a.3.3,0,0,0-.34.34v.24a.3.3,0,0,0,.34.34h2.67a1.41,1.41,0,0,1,1,.41,1.35,1.35,0,0,1,.43,1,1.4,1.4,0,0,1-.43,1,1.38,1.38,0,0,1-1,.43H55.94a.3.3,0,0,0-.34.34v.24a.3.3,0,0,0,.34.34h2.67a1.38,1.38,0,0,1,1,.43,1.4,1.4,0,0,1,.43,1,1.35,1.35,0,0,1-.43,1,1.41,1.41,0,0,1-1,.41H55.94a.3.3,0,0,0-.34.34v.27a.3.3,0,0,0,.34.34h4.72v0h0a5.61,5.61,0,0,0,1.87-2.6,15.58,15.58,0,0,0,.7-3.87c0-.11,0-.17-.14-.17a1.38,1.38,0,0,1-1-.39,1.3,1.3,0,0,1-.41-1V23.17a3,3,0,0,1,3-3h7.53a3,3,0,0,1,3,3v15.2a2.51,2.51,0,0,1-2.53,2.53.27.27,0,0,0-.31.31v5.44a4.36,4.36,0,0,0,.05.89A.24.24,0,0,0,72.68,47.72ZM48,26.08a1.46,1.46,0,0,1-1.47-1.47.15.15,0,0,0-.17-.17h-.89a1.71,1.71,0,1,1,0-3.42h.89a.15.15,0,0,0,.17-.17,1.52,1.52,0,0,1,1.54-1.54h1.16a1.5,1.5,0,0,1,1.08.45,1.46,1.46,0,0,1,.46,1.09.15.15,0,0,0,.17.17h2.84a.15.15,0,0,0,.17-.17,1.52,1.52,0,0,1,1.54-1.54h1.16a1.5,1.5,0,0,1,1.08.45,1.46,1.46,0,0,1,.46,1.09.15.15,0,0,0,.17.17h.72a1.71,1.71,0,0,1,1.23.5,1.69,1.69,0,0,1,0,2.43,1.71,1.71,0,0,1-1.23.5h-.72a.15.15,0,0,0-.17.17,1.4,1.4,0,0,1-.44,1,1.44,1.44,0,0,1-1,.43h-1.3A1.46,1.46,0,0,1,54,24.61a.15.15,0,0,0-.17-.17H50.94a.15.15,0,0,0-.17.17,1.4,1.4,0,0,1-.44,1,1.44,1.44,0,0,1-1,.43Zm-.24,3.46a.3.3,0,0,0-.34.34v.62a.3.3,0,0,0,.34.34h.41a.3.3,0,0,0,.34-.34v-.62a.3.3,0,0,0-.34-.34Zm3.39,10.34a.3.3,0,0,0,.34-.34V39.3a.3.3,0,0,0-.34-.34H50a.3.3,0,0,0-.34.34v.24a.3.3,0,0,0,.34.34Zm0,3.8a.3.3,0,0,0,.34-.34v-.24a.3.3,0,0,0-.34-.34H50a.3.3,0,0,0-.34.34v.24a.3.3,0,0,0,.34.34ZM50,46.55a.3.3,0,0,0-.34.34v.27a.3.3,0,0,0,.34.34h1.13a.3.3,0,0,0,.34-.34v-.27a.3.3,0,0,0-.34-.34Zm6.3-17a.3.3,0,0,0-.34.34v.62a.3.3,0,0,0,.34.34h.51a.3.3,0,0,0,.34-.34v-.62a.3.3,0,0,0-.34-.34Zm10.06-5a.3.3,0,0,0-.34.34v.79a.3.3,0,0,0,.34.34h4a.3.3,0,0,0,.34-.34v-.79a.3.3,0,0,0-.34-.34Zm0,5.31a.3.3,0,0,0-.34.34v.79a.3.3,0,0,0,.34.34h4a.3.3,0,0,0,.34-.34v-.79a.3.3,0,0,0-.34-.34Zm0,5.27a.3.3,0,0,0-.34.34v.79a.3.3,0,0,0,.34.34h4a.3.3,0,0,0,.34-.34v-.79a.3.3,0,0,0-.34-.34Z"/><path class="cls-6" d="M110.16,30.22a1.91,1.91,0,0,1,.58,1.4,1.86,1.86,0,0,1-.58,1.39,1.94,1.94,0,0,1-1.4.56H92.49a.48.48,0,0,0-.48.31l-.17.31a.19.19,0,0,0,.17.31h12.53a3,3,0,0,1,3,3V49.91a2.42,2.42,0,0,1-.75,1.8,2.5,2.5,0,0,1-1.81.74h-1.51a1.05,1.05,0,0,1-1.06-1.06c0-.07,0-.1-.14-.1h-11c-.09,0-.14,0-.14.1a1.05,1.05,0,0,1-1.06,1.06H88.7a2.37,2.37,0,0,1-1.71-.7A2.32,2.32,0,0,1,86.27,50V42a.13.13,0,0,0-.09-.14.13.13,0,0,0-.15,0A29.4,29.4,0,0,1,83.42,44a2.39,2.39,0,0,1-1.37.44,2.23,2.23,0,0,1-.55-.07,2.87,2.87,0,0,1-1.71-1.1,2.17,2.17,0,0,1-.48-1.37,2.24,2.24,0,0,1,0-.38,2.11,2.11,0,0,1,1-1.54,22.3,22.3,0,0,0,5.85-6.09.26.26,0,0,0,0-.21.16.16,0,0,0-.15-.1H81.3A1.94,1.94,0,0,1,79.9,33a1.86,1.86,0,0,1-.58-1.39,2,2,0,0,1,2-2h6.78a.51.51,0,0,0,.51-.31.43.43,0,0,1,0-.15.36.36,0,0,1,.07-.12.23.23,0,0,0,0-.21.2.2,0,0,0-.17-.1H83.6a1.88,1.88,0,1,1,0-3.77h6.16a.38.38,0,0,0,.41-.34l.1-.31A.24.24,0,0,0,90,24q-2.16.07-4.45.07-.65,0-1.3,0a2.1,2.1,0,0,1-1.44-.55A2.85,2.85,0,0,1,82,22.15a2.42,2.42,0,0,1,0-.41,1.52,1.52,0,0,1,.27-.86,1.28,1.28,0,0,1,1.1-.58,199.61,199.61,0,0,0,20.4-.92,3.43,3.43,0,0,1,.48,0,4.28,4.28,0,0,1,1.57.31,4,4,0,0,1,1.64,1.23,1.23,1.23,0,0,1,.31.79,1.29,1.29,0,0,1-.1.51,1.21,1.21,0,0,1-1,.82q-4.69.58-10.34.82a.48.48,0,0,0-.45.34l-.14.48a.26.26,0,0,0,.05.24.25.25,0,0,0,.19.1H107a1.88,1.88,0,1,1,0,3.77H94.68a.48.48,0,0,0-.48.31l-.1.24a.28.28,0,0,0,0,.24.2.2,0,0,0,.17.1h14.44A1.91,1.91,0,0,1,110.16,30.22Zm-8.11,9a.3.3,0,0,0,.34-.34v-.27a.3.3,0,0,0-.34-.34H91.47a.3.3,0,0,0-.34.34v.27a.3.3,0,0,0,.34.34ZM91.47,42.34a.3.3,0,0,0-.34.34V43a.3.3,0,0,0,.34.34H102a.3.3,0,0,0,.34-.34v-.31a.3.3,0,0,0-.34-.34Zm-.34,4.79a.3.3,0,0,0,.34.34H102a.3.3,0,0,0,.34-.34v-.38a.3.3,0,0,0-.34-.34H91.47a.3.3,0,0,0-.34.34Z"/><path class="cls-6" d="M122,34.33a2.16,2.16,0,0,1,.51-.07,1.94,1.94,0,0,1,1.09.34,2,2,0,0,1,.89,1.4v0a2.53,2.53,0,0,1,0,.41,2.44,2.44,0,0,1-.45,1.4,2.3,2.3,0,0,1-1.47,1.1l-.55.17a.38.38,0,0,0-.34.41v7.6a8.58,8.58,0,0,1-.34,2.7,3.07,3.07,0,0,1-1.2,1.58,6.25,6.25,0,0,1-2.67.86,1.14,1.14,0,0,1-.27,0,2.32,2.32,0,0,1-1.54-.58,3.29,3.29,0,0,1-1.1-1.75,1.92,1.92,0,0,1,0-1.08,1.67,1.67,0,0,1,.62-.86,1.89,1.89,0,0,1,1-.36h.24a.45.45,0,0,0,.55-.55V40.77a.21.21,0,0,0-.09-.17.3.3,0,0,0-.19-.07l-.17.07a2.82,2.82,0,0,1-.62.07,2.39,2.39,0,0,1-1.23-.34,2.2,2.2,0,0,1-1.06-1.51,2.67,2.67,0,0,1-.07-.58,2.31,2.31,0,0,1,.41-1.3,2.46,2.46,0,0,1,1.58-1.1q.85-.17,1.09-.24a.38.38,0,0,0,.34-.41V30.46a.3.3,0,0,0-.34-.34h-.62a2.33,2.33,0,0,1,0-4.66h.62a.3.3,0,0,0,.34-.34v-3.7a2.22,2.22,0,0,1,.68-1.66,2.36,2.36,0,0,1,3.29,0,2.23,2.23,0,0,1,.68,1.66v3.73a.27.27,0,0,0,.31.31h.17a2.33,2.33,0,0,1,0,4.66H122a.27.27,0,0,0-.31.31v3.7a.21.21,0,0,0,.08.17A.19.19,0,0,0,122,34.33Zm7.56-9.69a.3.3,0,0,0,.34-.34v-3a2.21,2.21,0,0,1,.67-1.63,2.23,2.23,0,0,1,3.18,0,2.21,2.21,0,0,1,.67,1.63V33.92q0,2.67-.17,4.71a38.27,38.27,0,0,1-.63,4.33,15.49,15.49,0,0,1-1.49,4.23,15.86,15.86,0,0,1-2.57,3.54,2.22,2.22,0,0,1-1.57.65h-.21a3.08,3.08,0,0,1-1.81-.82,2,2,0,0,1-.68-1.56,2.28,2.28,0,0,1,.65-1.62A11.34,11.34,0,0,0,128,44.5a.12.12,0,0,0-.17-.17l-.65.24a2.1,2.1,0,0,1-.89.21A2.5,2.5,0,0,1,124,43.27a2,2,0,0,1,0-1.71,2.07,2.07,0,0,1,1.3-1.13q1.3-.38,3.9-1.2a.49.49,0,0,0,.38-.45q.1-.92.14-2a.24.24,0,0,0-.07-.24.33.33,0,0,0-.24-.1h-1.88a2.22,2.22,0,1,1,0-4.45h2a.3.3,0,0,0,.34-.34V29.54a.3.3,0,0,0-.34-.34h-2.22a2.28,2.28,0,0,1,0-4.55Zm14.86,14.92a2.22,2.22,0,0,1,1.63.67,2.19,2.19,0,0,1,.67,1.61,2.25,2.25,0,0,1-.67,1.63,2.19,2.19,0,0,1-1.63.68h-3.08a.3.3,0,0,0-.34.34v5.41a2.4,2.4,0,0,1-4.79,0V21.43a2.36,2.36,0,0,1,.7-1.71,2.36,2.36,0,0,1,3.39,0,2.37,2.37,0,0,1,.7,1.71V24.3a.3.3,0,0,0,.34.34h2.53a2.28,2.28,0,0,1,2.29,2.28,2.19,2.19,0,0,1-.67,1.61,2.21,2.21,0,0,1-1.63.67h-2.53a.3.3,0,0,0-.34.34V31.7a.3.3,0,0,0,.34.34h2.19a2.22,2.22,0,1,1,0,4.45h-2.19a.3.3,0,0,0-.34.34v2.4a.3.3,0,0,0,.34.34Z"/><path class="cls-6" d="M156.2,28.17a3.48,3.48,0,0,1,1.68-1.3,3.26,3.26,0,0,1,1-.17,3.11,3.11,0,0,1,1.09.21,2.17,2.17,0,0,1,1.27,1.3,2.74,2.74,0,0,1,.1.72A2.06,2.06,0,0,1,161,30q-1,1.51-2.05,2.88a1,1,0,0,0-.21.62V49a2.57,2.57,0,0,1-5.13,0V39.23a.13.13,0,0,0-.09-.14.13.13,0,0,0-.15,0,2.19,2.19,0,0,1-1.51.58,1.54,1.54,0,0,1-.31,0,2.33,2.33,0,0,1-1.68-1,.52.52,0,0,1-.1-.14,2.68,2.68,0,0,1-.58-1.68v-.31a2.63,2.63,0,0,1,1-1.85,34.67,34.67,0,0,0,3.11-3A36.16,36.16,0,0,0,156.2,28.17Zm-1.58-7.84a3.87,3.87,0,0,1,1.88-1.2,4.42,4.42,0,0,1,.92-.1,3.47,3.47,0,0,1,1.27.24,1.87,1.87,0,0,1,1.2,1.37,1.73,1.73,0,0,1,.07.48,1.82,1.82,0,0,1-.48,1.23q-1.4,1.57-3,3.15t-3.29,2.88a2,2,0,0,1-1.27.48,2.1,2.1,0,0,1-.51-.07,2.3,2.3,0,0,1-1.51-1.06,2.43,2.43,0,0,1-.44-1.4,3.06,3.06,0,0,1,0-.44,2.51,2.51,0,0,1,1-1.61q1.16-.92,2.36-2Q153.8,21.26,154.62,20.33ZM179,29.92a2.43,2.43,0,0,1,0,4.86h-1.81a.3.3,0,0,0-.34.34V45.83a8.26,8.26,0,0,1-.46,3.13,3.25,3.25,0,0,1-1.73,1.66,12.84,12.84,0,0,1-4.31.75h-.17a2.81,2.81,0,0,1-1.85-.68,3.88,3.88,0,0,1-1.23-1.92,1.85,1.85,0,0,1-.1-.58,1.82,1.82,0,0,1,.38-1.1,1.7,1.7,0,0,1,1.44-.75h2q.82,0,.82-.65V35.12a.3.3,0,0,0-.34-.34h-6.81a2.43,2.43,0,0,1,0-4.86Zm-.86-9.72a2.41,2.41,0,1,1,0,4.83H165.88a2.41,2.41,0,0,1,0-4.83Z"/></svg>