<svg id="c" xmlns="http://www.w3.org/2000/svg" viewBox="0 0 222 72"><defs><style>.cls-1,.cls-2,.cls-3{fill:#cf2c21;}.cls-1{stroke:#30190e;stroke-width:14px;}.cls-1,.cls-2{stroke-miterlimit:10;}.cls-2{stroke:#ffce63;stroke-width:8px;}.cls-4{fill:none;}.cls-5{fill:#30190e;}.cls-6{fill:#fff;}</style></defs><title>g</title><rect class="cls-1" x="7.6" y="7.9" width="206.8" height="56.56" rx="28.28" ry="28.28"/><rect class="cls-2" x="7.6" y="7.9" width="206.8" height="56.56" rx="28.28" ry="28.28"/><rect class="cls-3" x="7.6" y="7.9" width="206.8" height="56.56" rx="28.28" ry="28.28"/><rect class="cls-4" x="7.6" y="7.9" width="206.8" height="56.56" rx="28.28" ry="28.28"/><path class="cls-5" d="M62.37,48.52a.3.3,0,0,0,.34.34H74.15a2,2,0,0,1,0,4H45.91a2,2,0,0,1,0-4h11a.3.3,0,0,0,.34-.34V48a.3.3,0,0,0-.34-.34H48.41a1.88,1.88,0,1,1,0-3.77H56.9a.3.3,0,0,0,.34-.34v-.38a.3.3,0,0,0-.34-.34H50.67a3,3,0,0,1-3-3V34.49a3,3,0,0,1,3-3H56.9a.3.3,0,0,0,.34-.34V31a.3.3,0,0,0-.34-.34H46.08a1.9,1.9,0,0,1-1.37-.57,1.94,1.94,0,0,1,0-2.77,1.9,1.9,0,0,1,1.37-.56H56.9a.3.3,0,0,0,.34-.34V26a.35.35,0,0,0-.34-.34q-4.07.21-7.08.24h0a2.22,2.22,0,0,1-1.47-.55,3,3,0,0,1-.89-1.44,1.39,1.39,0,0,1-.07-.45,1.51,1.51,0,0,1,.27-.86A1.4,1.4,0,0,1,48.78,22q11.36-.27,19.48-1.3h.45a3.4,3.4,0,0,1,1.47.34,3.25,3.25,0,0,1,1.44,1.33,1.57,1.57,0,0,1,.21.75,1.52,1.52,0,0,1-.17.68,1.4,1.4,0,0,1-1.16.82q-3.77.48-7.77.75a.34.34,0,0,0-.34.38v.62a.3.3,0,0,0,.34.34H73.91a1.91,1.91,0,0,1,1.37.56,1.94,1.94,0,0,1,0,2.77,1.9,1.9,0,0,1-1.37.57H62.72a.3.3,0,0,0-.34.34v.21a.3.3,0,0,0,.34.34h6.85a3,3,0,0,1,3,3v5.41a3,3,0,0,1-3,3H62.72a.3.3,0,0,0-.34.34v.38a.3.3,0,0,0,.34.34h9.21a1.88,1.88,0,1,1,0,3.77H62.72a.3.3,0,0,0-.34.34ZM53,34.76a.3.3,0,0,0-.34.34v.27a.3.3,0,0,0,.34.34h3.9a.3.3,0,0,0,.34-.34V35.1a.3.3,0,0,0-.34-.34Zm-.34,4.52a.3.3,0,0,0,.34.34h3.9a.3.3,0,0,0,.34-.34V39a.3.3,0,0,0-.34-.34H53a.3.3,0,0,0-.34.34ZM67.3,35.1a.3.3,0,0,0-.34-.34H62.72a.3.3,0,0,0-.34.34v.27a.3.3,0,0,0,.34.34H67a.3.3,0,0,0,.34-.34ZM67,39.62a.3.3,0,0,0,.34-.34V39a.3.3,0,0,0-.34-.34H62.72a.3.3,0,0,0-.34.34v.27a.3.3,0,0,0,.34.34Z"/><path class="cls-5" d="M92.46,44.1a2,2,0,0,1,.89,1.51,1.62,1.62,0,0,1,0,.31,2.09,2.09,0,0,1-.51,1.37A1.82,1.82,0,0,1,91.4,48h0a1.89,1.89,0,0,1-1.47-.65l0,0a.11.11,0,0,0-.14,0,.11.11,0,0,0-.07.1v3.87a2.46,2.46,0,1,1-4.93,0v-3s0-.08-.09-.1-.1,0-.12,0q-.79,1-1.64,2a2,2,0,0,1-1.47.62h-.17a2.55,2.55,0,0,1-1.68-.86A2.14,2.14,0,0,1,79,48.42a2.22,2.22,0,0,1,.75-1.71,22.49,22.49,0,0,0,3.83-4.35.19.19,0,0,0-.17-.31H81a2.05,2.05,0,0,1-1.51-.62,2,2,0,0,1-.62-1.49,2.08,2.08,0,0,1,.62-1.51A2,2,0,0,1,81,37.81h3.35a.3.3,0,0,0,.34-.34V36a.3.3,0,0,0-.34-.34H80.86a2,2,0,0,1-1.46-.6,2.07,2.07,0,0,1,1.46-3.54h.48a.25.25,0,0,0,.21-.09.19.19,0,0,0,0-.19A7.52,7.52,0,0,0,81.3,30a1.62,1.62,0,0,1-.07-.45,1.82,1.82,0,0,1,.21-.82,1.57,1.57,0,0,1,1-.75v0H81.27a2,2,0,0,1-1.46-.62,2,2,0,0,1-.6-1.46,2,2,0,0,1,2.05-2h3.15a.27.27,0,0,0,.31-.31v-.21a2.46,2.46,0,1,1,4.93,0v.21a.27.27,0,0,0,.31.31h3.15a2,2,0,0,1,2.05,2,2,2,0,0,1-.6,1.46,2,2,0,0,1-1.46.62h-.62a1,1,0,0,1,.75.56,1,1,0,0,1,0,.94l-.79,1.81a.22.22,0,0,0,0,.19.17.17,0,0,0,.15.09h.65a2.07,2.07,0,0,1,0,4.14H90a.3.3,0,0,0-.34.34v1.44a.3.3,0,0,0,.34.34h2.91a2,2,0,0,1,1.51.63A2.08,2.08,0,0,1,95,39.95a2,2,0,0,1-.62,1.49,2.05,2.05,0,0,1-1.51.62H89.69s0,0,0,0,0,0,0,.05Q90.54,42.67,92.46,44.1ZM89.11,28.26a.23.23,0,0,0,0-.21.23.23,0,0,0-.21-.1H85.2A.2.2,0,0,0,85,28a.29.29,0,0,0,0,.22,11.32,11.32,0,0,1,.51,1.47,2.36,2.36,0,0,1,0,.38,1.38,1.38,0,0,1-.21.72,1.5,1.5,0,0,1-.92.68v0H90s0,0,0,0,0,0,0,0a1.67,1.67,0,0,1-1.1-.82,1.62,1.62,0,0,1-.24-.82,1.55,1.55,0,0,1,.1-.55C88.91,29,89,28.6,89.11,28.26Zm12.36-.58a.38.38,0,0,0-.34.41v3.49a.3.3,0,0,0,.34.34h7.84a2.22,2.22,0,0,1,1.64.7,2.36,2.36,0,0,1,0,3.32,2.22,2.22,0,0,1-1.64.7H109a.27.27,0,0,0-.31.31V51.12a2.46,2.46,0,1,1-4.93,0V37a.3.3,0,0,0-.34-.34h-1.92a.3.3,0,0,0-.34.34q-.24,9.45-3.8,14.82a1.71,1.71,0,0,1-1.47.79h0a2.52,2.52,0,0,1-1.69-.74,2.81,2.81,0,0,1-.87-1.69,2.76,2.76,0,0,1,.38-1.88,16.51,16.51,0,0,0,2.14-5.85,42.84,42.84,0,0,0,.53-7V25.76A1.89,1.89,0,0,1,97,24.18a1.91,1.91,0,0,1,1.16-.41,2,2,0,0,1,.56.08,1,1,0,0,0,.56,0A48.72,48.72,0,0,0,105.09,22a4.06,4.06,0,0,1,1.71-.38,3,3,0,0,1,.65.07,4,4,0,0,1,2.16,1,1.69,1.69,0,0,1,.58,1.27,1.76,1.76,0,0,1,0,.34,1.46,1.46,0,0,1-1.06,1.27A56.3,56.3,0,0,1,101.46,27.67Z"/><path class="cls-5" d="M129.12,31.58a3,3,0,0,1-3,3h-5.72a.3.3,0,0,0-.34.34v16.4a2.48,2.48,0,0,1-5,0V24.7a3,3,0,0,1,3-3h8a3,3,0,0,1,3,3Zm-4.76-6a.3.3,0,0,0-.34-.34h-3.59a.3.3,0,0,0-.34.34v.51a.3.3,0,0,0,.34.34H124a.3.3,0,0,0,.34-.34Zm-4.28,5a.3.3,0,0,0,.34.34H124a.3.3,0,0,0,.34-.34V30a.3.3,0,0,0-.34-.34h-3.59a.3.3,0,0,0-.34.34Zm18.26,12a2.05,2.05,0,0,1-1.46,3.51h-1a.3.3,0,0,0-.34.34v4.38a2.23,2.23,0,1,1-4.45,0V46.53a.3.3,0,0,0-.34-.34H129a.38.38,0,0,0-.41.34,11.91,11.91,0,0,1-2.7,5.85,1.83,1.83,0,0,1-1.37.62h-.17a2.63,2.63,0,0,1-1.57-.72,1.66,1.66,0,0,1-.62-1.33,2,2,0,0,1,.51-1.4,8.18,8.18,0,0,0,1.54-3,.21.21,0,0,0-.05-.21.25.25,0,0,0-.19-.1h-.65a2.05,2.05,0,1,1,0-4.11h.82c.23,0,.34-.1.34-.31v-1.4a.24.24,0,0,0-.27-.27h-.51a2,2,0,0,1,0-4h12.8a2,2,0,0,1,0,4h-.62a.27.27,0,0,0-.31.31v1.33a.3.3,0,0,0,.34.34h1A2,2,0,0,1,138.35,42.68Zm-9.57-.94a.3.3,0,0,0,.34.34h1.64a.3.3,0,0,0,.34-.34v-1.3a.3.3,0,0,0-.34-.34h-1.64a.3.3,0,0,0-.34.34Zm13.45-20a3,3,0,0,1,3,3V48a9.27,9.27,0,0,1-.38,3,3.15,3.15,0,0,1-1.4,1.68,8,8,0,0,1-3.35.89h-.24a2.68,2.68,0,0,1-1.75-.65,4,4,0,0,1-1.2-1.88,2.24,2.24,0,0,1-.07-.55,2,2,0,0,1,.34-1.1,1.64,1.64,0,0,1,1.4-.72h.92a.74.74,0,0,0,.56-.17.8.8,0,0,0,.15-.55V35a.3.3,0,0,0-.34-.34h-5.92a3,3,0,0,1-3-3v-7a3,3,0,0,1,3-3Zm-2,3.9a.3.3,0,0,0-.34-.34h-3.73a.3.3,0,0,0-.34.34v.51a.3.3,0,0,0,.34.34h3.73a.3.3,0,0,0,.34-.34Zm-4.42,5.13a.3.3,0,0,0,.34.34h3.73a.3.3,0,0,0,.34-.34V30a.3.3,0,0,0-.34-.34h-3.73a.3.3,0,0,0-.34.34Z"/><path class="cls-5" d="M166,36.37a.74.74,0,0,1-.24,0,3,3,0,0,1-3-2.77l-.1-.82a0,0,0,0,0-.07,0A43.55,43.55,0,0,1,160.34,43a.5.5,0,0,0,.14.55q1,.79,1.68,1.47a2.73,2.73,0,0,1,.86,2.05,3.09,3.09,0,0,1-.65,1.92,2,2,0,0,1-1.54.79h-.07a2,2,0,0,1-1.57-.72l-1-1q-.24-.24-.41.07a19.51,19.51,0,0,1-3.87,4.24,2.13,2.13,0,0,1-1.33.48,1.76,1.76,0,0,1-.48-.07,2.71,2.71,0,0,1-1.64-1.06,2.38,2.38,0,0,1-.44-1.37,1.89,1.89,0,0,1,0-.38,2.54,2.54,0,0,1,.89-1.61,14.33,14.33,0,0,0,3-3.53.34.34,0,0,0-.07-.51,5,5,0,0,0-.44-.36,4.94,4.94,0,0,1-.51-.43s-.08,0-.1,0a.78.78,0,0,1-.45.53.7.7,0,0,1-.68-.05l-1.16-.62a2.67,2.67,0,0,1-1.3-1.44,2.88,2.88,0,0,1-.24-1.16,4.18,4.18,0,0,1,.07-.75q.86-3.29,1.88-7.94c0-.16,0-.24-.17-.24a1.93,1.93,0,0,1-2-2v-.38a2.28,2.28,0,0,1,.68-1.68,2.24,2.24,0,0,1,1.64-.68h.51a.35.35,0,0,0,.38-.31q.44-2.29.75-4.18a2.58,2.58,0,0,1,2.5-2.12h.27a2.17,2.17,0,0,1,2,2.16,3.43,3.43,0,0,1,0,.48q-.41,2-.79,3.66a.37.37,0,0,0,.07.21.23.23,0,0,0,.21.1h1.4a23.12,23.12,0,0,1,3,.14,1.72,1.72,0,0,1,1.4,1.64q0,.45-.21,2.29a.36.36,0,0,0,.09.24.28.28,0,0,0,.22.1l2.05-.1a.48.48,0,0,0,.45-.34,69.44,69.44,0,0,0,2.19-8,2.88,2.88,0,0,1,1.23-1.85,2.65,2.65,0,0,1,1.57-.51,4.5,4.5,0,0,1,.55,0,2.6,2.6,0,0,1,2.09,2.46,2.5,2.5,0,0,1-.14.79q-1.23,3.73-2.5,6.85a.23.23,0,0,0,0,.21.17.17,0,0,0,.21.07l4-.24A.2.2,0,0,0,175,31a.17.17,0,0,0,0-.21q-.24-.45-.48-.86a1.92,1.92,0,0,1-.31-1.06,2.67,2.67,0,0,1,.07-.58,2,2,0,0,1,1-1.27,2.72,2.72,0,0,1,1.16-.27,3,3,0,0,1,.65.07,2.34,2.34,0,0,1,1.47,1.06,42.59,42.59,0,0,1,3,5.41,2.73,2.73,0,0,1,.21,1,2.82,2.82,0,0,1-.17,1,2.76,2.76,0,0,1-1.37,1.51l-.21.1a1.89,1.89,0,0,1-.86.21,2,2,0,0,1-1.85-1.3.35.35,0,0,0-.34-.24Q172.18,35.92,166,36.37Zm-8.08-4a.36.36,0,0,0-.08-.24.28.28,0,0,0-.22-.1h-1.54a.43.43,0,0,0-.45.34q-.82,3.77-1.4,6.16a.45.45,0,0,0,.21.55l1.51,1a.26.26,0,0,0,.22,0,.22.22,0,0,0,.15-.17A37.84,37.84,0,0,0,157.91,32.33Zm9.21,21.43a2.4,2.4,0,0,1-2.4-2.4V41.78a3,3,0,0,1,3-3h9.89a3,3,0,0,1,3,3v9.31a2.42,2.42,0,0,1-.75,1.8,2.47,2.47,0,0,1-1.78.74h-1.54a1,1,0,0,1-1-1c0-.09,0-.14-.1-.14h-5.75a.12.12,0,0,0-.14.14,1.11,1.11,0,0,1-1.13,1.13Zm8.39-10a.3.3,0,0,0-.34-.34h-5.31a.3.3,0,0,0-.34.34v3.83a.3.3,0,0,0,.34.34h5.31a.3.3,0,0,0,.34-.34Z"/><path class="cls-6" d="M62.37,46.92a.3.3,0,0,0,.34.34H74.15a2,2,0,0,1,0,4H45.91a2,2,0,0,1,0-4h11a.3.3,0,0,0,.34-.34v-.48a.3.3,0,0,0-.34-.34H48.41a1.88,1.88,0,1,1,0-3.77H56.9a.3.3,0,0,0,.34-.34v-.38a.3.3,0,0,0-.34-.34H50.67a3,3,0,0,1-3-3V32.89a3,3,0,0,1,3-3H56.9a.3.3,0,0,0,.34-.34v-.21A.3.3,0,0,0,56.9,29H46.08a1.9,1.9,0,0,1-1.37-.57,1.94,1.94,0,0,1,0-2.77,1.9,1.9,0,0,1,1.37-.56H56.9a.3.3,0,0,0,.34-.34v-.34a.35.35,0,0,0-.34-.34q-4.07.21-7.08.24h0a2.22,2.22,0,0,1-1.47-.55,3,3,0,0,1-.89-1.44,1.39,1.39,0,0,1-.07-.45,1.51,1.51,0,0,1,.27-.86,1.4,1.4,0,0,1,1.16-.65q11.36-.27,19.48-1.3h.45a3.4,3.4,0,0,1,1.47.34,3.25,3.25,0,0,1,1.44,1.33,1.57,1.57,0,0,1,.21.75,1.52,1.52,0,0,1-.17.68,1.4,1.4,0,0,1-1.16.82q-3.77.48-7.77.75a.34.34,0,0,0-.34.38v.62a.3.3,0,0,0,.34.34H73.91a1.91,1.91,0,0,1,1.37.56,1.94,1.94,0,0,1,0,2.77,1.9,1.9,0,0,1-1.37.57H62.72a.3.3,0,0,0-.34.34v.21a.3.3,0,0,0,.34.34h6.85a3,3,0,0,1,3,3V38.3a3,3,0,0,1-3,3H62.72a.3.3,0,0,0-.34.34V42a.3.3,0,0,0,.34.34h9.21a1.88,1.88,0,1,1,0,3.77H62.72a.3.3,0,0,0-.34.34ZM53,33.16a.3.3,0,0,0-.34.34v.27a.3.3,0,0,0,.34.34h3.9a.3.3,0,0,0,.34-.34V33.5a.3.3,0,0,0-.34-.34Zm-.34,4.52A.3.3,0,0,0,53,38h3.9a.3.3,0,0,0,.34-.34v-.27a.3.3,0,0,0-.34-.34H53a.3.3,0,0,0-.34.34ZM67.3,33.5a.3.3,0,0,0-.34-.34H62.72a.3.3,0,0,0-.34.34v.27a.3.3,0,0,0,.34.34H67a.3.3,0,0,0,.34-.34ZM67,38a.3.3,0,0,0,.34-.34v-.27a.3.3,0,0,0-.34-.34H62.72a.3.3,0,0,0-.34.34v.27a.3.3,0,0,0,.34.34Z"/><path class="cls-6" d="M92.46,42.51A2,2,0,0,1,93.35,44a1.62,1.62,0,0,1,0,.31,2.09,2.09,0,0,1-.51,1.37,1.82,1.82,0,0,1-1.47.72h0a1.89,1.89,0,0,1-1.47-.65l0,0a.11.11,0,0,0-.14,0,.11.11,0,0,0-.07.1v3.87a2.46,2.46,0,1,1-4.93,0v-3s0-.08-.09-.1-.1,0-.12,0q-.79,1-1.64,2a2,2,0,0,1-1.47.62h-.17a2.55,2.55,0,0,1-1.68-.86A2.14,2.14,0,0,1,79,46.82a2.22,2.22,0,0,1,.75-1.71,22.49,22.49,0,0,0,3.83-4.35.19.19,0,0,0-.17-.31H81a2.05,2.05,0,0,1-1.51-.62,2,2,0,0,1-.62-1.49,2.08,2.08,0,0,1,.62-1.51A2,2,0,0,1,81,36.21h3.35a.3.3,0,0,0,.34-.34V34.43a.3.3,0,0,0-.34-.34H80.86a2,2,0,0,1-1.46-.6,2.07,2.07,0,0,1,1.46-3.54h.48a.25.25,0,0,0,.21-.09.19.19,0,0,0,0-.19,7.52,7.52,0,0,0-.27-1.27,1.62,1.62,0,0,1-.07-.45,1.82,1.82,0,0,1,.21-.82,1.57,1.57,0,0,1,1-.75v0H81.27a2,2,0,0,1-1.46-.62,2,2,0,0,1-.6-1.46,2,2,0,0,1,2.05-2h3.15a.27.27,0,0,0,.31-.31v-.21a2.46,2.46,0,1,1,4.93,0v.21a.27.27,0,0,0,.31.31h3.15a2,2,0,0,1,2.05,2,2,2,0,0,1-.6,1.46,2,2,0,0,1-1.46.62h-.62a1,1,0,0,1,.75.56,1,1,0,0,1,0,.94l-.79,1.81a.22.22,0,0,0,0,.19.17.17,0,0,0,.15.09h.65a2.07,2.07,0,0,1,0,4.14H90a.3.3,0,0,0-.34.34v1.44a.3.3,0,0,0,.34.34h2.91a2,2,0,0,1,1.51.63A2.08,2.08,0,0,1,95,38.35a2,2,0,0,1-.62,1.49,2.05,2.05,0,0,1-1.51.62H89.69s0,0,0,0,0,0,0,.05Q90.54,41.07,92.46,42.51ZM89.11,26.66a.23.23,0,0,0,0-.21.23.23,0,0,0-.21-.1H85.2a.2.2,0,0,0-.19.08.29.29,0,0,0,0,.22,11.32,11.32,0,0,1,.51,1.47,2.36,2.36,0,0,1,0,.38,1.38,1.38,0,0,1-.21.72,1.5,1.5,0,0,1-.92.68v0H90s0,0,0,0,0,0,0,0a1.67,1.67,0,0,1-1.1-.82,1.62,1.62,0,0,1-.24-.82,1.55,1.55,0,0,1,.1-.55C88.91,27.36,89,27,89.11,26.66Zm12.36-.58a.38.38,0,0,0-.34.41V30a.3.3,0,0,0,.34.34h7.84a2.22,2.22,0,0,1,1.64.7,2.36,2.36,0,0,1,0,3.32,2.22,2.22,0,0,1-1.64.7H109a.27.27,0,0,0-.31.31V49.52a2.46,2.46,0,1,1-4.93,0V35.39a.3.3,0,0,0-.34-.34h-1.92a.3.3,0,0,0-.34.34q-.24,9.45-3.8,14.82a1.71,1.71,0,0,1-1.47.79h0a2.52,2.52,0,0,1-1.69-.74,2.81,2.81,0,0,1-.87-1.69,2.76,2.76,0,0,1,.38-1.88,16.51,16.51,0,0,0,2.14-5.85,42.84,42.84,0,0,0,.53-7V24.16A1.89,1.89,0,0,1,97,22.59a1.91,1.91,0,0,1,1.16-.41,2,2,0,0,1,.56.08,1,1,0,0,0,.56,0,48.72,48.72,0,0,0,5.75-1.88A4.06,4.06,0,0,1,106.8,20a3,3,0,0,1,.65.07,4,4,0,0,1,2.16,1,1.69,1.69,0,0,1,.58,1.27,1.76,1.76,0,0,1,0,.34,1.46,1.46,0,0,1-1.06,1.27A56.3,56.3,0,0,1,101.46,26.08Z"/><path class="cls-6" d="M129.12,30a3,3,0,0,1-3,3h-5.72a.3.3,0,0,0-.34.34V49.7a2.48,2.48,0,0,1-5,0V23.1a3,3,0,0,1,3-3h8a3,3,0,0,1,3,3Zm-4.76-6a.3.3,0,0,0-.34-.34h-3.59a.3.3,0,0,0-.34.34v.51a.3.3,0,0,0,.34.34H124a.3.3,0,0,0,.34-.34Zm-4.28,5a.3.3,0,0,0,.34.34H124a.3.3,0,0,0,.34-.34v-.62a.3.3,0,0,0-.34-.34h-3.59a.3.3,0,0,0-.34.34Zm18.26,12a2.05,2.05,0,0,1-1.46,3.51h-1a.3.3,0,0,0-.34.34v4.38a2.23,2.23,0,1,1-4.45,0V44.94a.3.3,0,0,0-.34-.34H129a.38.38,0,0,0-.41.34,11.91,11.91,0,0,1-2.7,5.85,1.83,1.83,0,0,1-1.37.62h-.17a2.63,2.63,0,0,1-1.57-.72,1.66,1.66,0,0,1-.62-1.33,2,2,0,0,1,.51-1.4,8.18,8.18,0,0,0,1.54-3,.21.21,0,0,0-.05-.21.25.25,0,0,0-.19-.1h-.65a2.05,2.05,0,1,1,0-4.11h.82c.23,0,.34-.1.34-.31v-1.4a.24.24,0,0,0-.27-.27h-.51a2,2,0,0,1,0-4h12.8a2,2,0,0,1,0,4h-.62a.27.27,0,0,0-.31.31v1.33a.3.3,0,0,0,.34.34h1A2,2,0,0,1,138.35,41.09Zm-9.57-.94a.3.3,0,0,0,.34.34h1.64a.3.3,0,0,0,.34-.34v-1.3a.3.3,0,0,0-.34-.34h-1.64a.3.3,0,0,0-.34.34Zm13.45-20a3,3,0,0,1,3,3V46.44a9.27,9.27,0,0,1-.38,3,3.15,3.15,0,0,1-1.4,1.68,8,8,0,0,1-3.35.89h-.24a2.68,2.68,0,0,1-1.75-.65,4,4,0,0,1-1.2-1.88,2.24,2.24,0,0,1-.07-.55,2,2,0,0,1,.34-1.1,1.64,1.64,0,0,1,1.4-.72h.92a.74.74,0,0,0,.56-.17.8.8,0,0,0,.15-.55v-13a.3.3,0,0,0-.34-.34h-5.92a3,3,0,0,1-3-3v-7a3,3,0,0,1,3-3Zm-2,3.9a.3.3,0,0,0-.34-.34h-3.73a.3.3,0,0,0-.34.34v.51a.3.3,0,0,0,.34.34h3.73a.3.3,0,0,0,.34-.34Zm-4.42,5.13a.3.3,0,0,0,.34.34h3.73a.3.3,0,0,0,.34-.34v-.72a.3.3,0,0,0-.34-.34h-3.73a.3.3,0,0,0-.34.34Z"/><path class="cls-6" d="M166,34.77a.74.74,0,0,1-.24,0,3,3,0,0,1-3-2.77l-.1-.82a0,0,0,0,0-.07,0,43.55,43.55,0,0,1-2.22,10.23.5.5,0,0,0,.14.55q1,.79,1.68,1.47a2.73,2.73,0,0,1,.86,2.05,3.09,3.09,0,0,1-.65,1.92,2,2,0,0,1-1.54.79h-.07a2,2,0,0,1-1.57-.72l-1-1q-.24-.24-.41.07a19.51,19.51,0,0,1-3.87,4.24,2.13,2.13,0,0,1-1.33.48,1.76,1.76,0,0,1-.48-.07,2.71,2.71,0,0,1-1.64-1.06,2.38,2.38,0,0,1-.44-1.37,1.89,1.89,0,0,1,0-.38,2.54,2.54,0,0,1,.89-1.61,14.33,14.33,0,0,0,3-3.53.34.34,0,0,0-.07-.51,5,5,0,0,0-.44-.36A4.94,4.94,0,0,1,153,42s-.08,0-.1,0a.78.78,0,0,1-.45.53.7.7,0,0,1-.68-.05l-1.16-.62a2.67,2.67,0,0,1-1.3-1.44,2.88,2.88,0,0,1-.24-1.16,4.18,4.18,0,0,1,.07-.75q.86-3.29,1.88-7.94c0-.16,0-.24-.17-.24a1.93,1.93,0,0,1-2-2v-.38a2.28,2.28,0,0,1,.68-1.68,2.24,2.24,0,0,1,1.64-.68h.51a.35.35,0,0,0,.38-.31q.44-2.29.75-4.18a2.58,2.58,0,0,1,2.5-2.12h.27a2.17,2.17,0,0,1,2,2.16,3.43,3.43,0,0,1,0,.48q-.41,2-.79,3.66a.37.37,0,0,0,.07.21.23.23,0,0,0,.21.1h1.4a23.12,23.12,0,0,1,3,.14,1.72,1.72,0,0,1,1.4,1.64q0,.45-.21,2.29a.36.36,0,0,0,.09.24.28.28,0,0,0,.22.1l2.05-.1a.48.48,0,0,0,.45-.34,69.44,69.44,0,0,0,2.19-8,2.88,2.88,0,0,1,1.23-1.85,2.65,2.65,0,0,1,1.57-.51,4.5,4.5,0,0,1,.55,0,2.6,2.6,0,0,1,2.09,2.46,2.5,2.5,0,0,1-.14.79q-1.23,3.73-2.5,6.85a.23.23,0,0,0,0,.21.17.17,0,0,0,.21.07l4-.24a.2.2,0,0,0,.17-.1.17.17,0,0,0,0-.21q-.24-.45-.48-.86a1.92,1.92,0,0,1-.31-1.06,2.67,2.67,0,0,1,.07-.58,2,2,0,0,1,1-1.27,2.72,2.72,0,0,1,1.16-.27,3,3,0,0,1,.65.07,2.34,2.34,0,0,1,1.47,1.06,42.59,42.59,0,0,1,3,5.41,2.73,2.73,0,0,1,.21,1,2.82,2.82,0,0,1-.17,1,2.76,2.76,0,0,1-1.37,1.51l-.21.1a1.89,1.89,0,0,1-.86.21,2,2,0,0,1-1.85-1.3.35.35,0,0,0-.34-.24Q172.18,34.33,166,34.77Zm-8.08-4a.36.36,0,0,0-.08-.24.28.28,0,0,0-.22-.1h-1.54a.43.43,0,0,0-.45.34q-.82,3.77-1.4,6.16a.45.45,0,0,0,.21.55l1.51,1a.26.26,0,0,0,.22,0,.22.22,0,0,0,.15-.17A37.84,37.84,0,0,0,157.91,30.73Zm9.21,21.43a2.4,2.4,0,0,1-2.4-2.4V40.18a3,3,0,0,1,3-3h9.89a3,3,0,0,1,3,3v9.31a2.42,2.42,0,0,1-.75,1.8A2.47,2.47,0,0,1,178,52h-1.54a1,1,0,0,1-1-1c0-.09,0-.14-.1-.14h-5.75a.12.12,0,0,0-.14.14,1.11,1.11,0,0,1-1.13,1.13Zm8.39-10a.3.3,0,0,0-.34-.34h-5.31a.3.3,0,0,0-.34.34V46a.3.3,0,0,0,.34.34h5.31a.3.3,0,0,0,.34-.34Z"/></svg>