<svg id="c" xmlns="http://www.w3.org/2000/svg" xmlns:xlink="http://www.w3.org/1999/xlink" viewBox="0 0 70 95"><defs><style>.cls-1{fill:url(#未命名漸層_403);}.cls-2{opacity:0.6;}.cls-3{fill:#80481d;}.cls-4{fill:#ffe7b0;}.cls-5{fill:#e5ac2c;}</style><linearGradient id="未命名漸層_403" x1="1.04" y1="47.5" x2="69.04" y2="47.5" gradientUnits="userSpaceOnUse"><stop offset="0" stop-color="#edbb40"/><stop offset="1" stop-color="#e0aa26"/></linearGradient></defs><title>g</title><rect class="cls-1" x="1.04" y="1.5" width="68" height="92" rx="12" ry="12"/><g class="cls-2"><path class="cls-3" d="M35,52a14.64,14.64,0,0,1-10.66-4.36A15.24,15.24,0,0,1,20.23,37a.71.71,0,1,1,1.42,0c0,7.89,5.63,13.62,13.39,13.62,7.59,0,13.31-6,13.31-13.89a.71.71,0,1,1,1.42,0C49.77,45.46,43.44,52,35,52Z"/></g><g class="cls-2"><path class="cls-3" d="M35,38.1c-11,0-25.76-1.91-33.8-11a.73.73,0,0,1,.05-1,.7.7,0,0,1,1,.06C8.3,32.92,19.93,36.67,35,36.67s26.74-3.74,32.74-10.54a.7.7,0,0,1,1-.06.73.73,0,0,1,.05,1C60.8,36.19,46,38.1,35,38.1Z"/></g><path class="cls-4" d="M35,36.67c-11,0-25.72-1.66-33.76-9.55a.73.73,0,0,1,0-1,.7.7,0,0,1,1,0C8.27,32,19.91,35.23,35,35.23S61.82,32,67.82,26.09a.7.7,0,0,1,1,0,.73.73,0,0,1,0,1C60.77,35,46,36.67,35,36.67Z"/><ellipse class="cls-4" cx="35.04" cy="35.43" rx="15" ry="15.22"/><ellipse class="cls-5" cx="35.04" cy="35.43" rx="13.33" ry="13.53"/><path class="cls-4" d="M41.14,27.77l-4.24,7.34h3.25v1.8H36.3V39h3.86v1.83H36.3V44H33.9v-3.2h-4V39h4V36.92h-4v-1.8h3.35l-4.18-7.34h2.65q2.84,5.46,3.43,6.89h.06a8.17,8.17,0,0,1,.63-1.54q.35-.63,2.8-5.36Z"/></svg>