<svg id="c" xmlns="http://www.w3.org/2000/svg" xmlns:xlink="http://www.w3.org/1999/xlink" viewBox="0 0 68.93 95"><defs><style>.cls-1{fill:url(#未命名漸層_383);}.cls-2{fill:url(#未命名漸層_393);}.cls-3{opacity:0.6;}.cls-4{fill:#603616;}.cls-5{fill:#edb62e;}.cls-6{fill:#f4cf8c;}.cls-7{fill:#e8af23;}.cls-8{fill:#ffe7b0;}</style><linearGradient id="未命名漸層_383" x1="33.98" y1="33.44" x2="33.98" y2="78.9" gradientUnits="userSpaceOnUse"><stop offset="0" stop-color="#c32827"/><stop offset="1" stop-color="#c83131"/></linearGradient><linearGradient id="未命名漸層_393" x1="-7.48" y1="47.5" x2="69.02" y2="47.5" gradientUnits="userSpaceOnUse"><stop offset="0" stop-color="#d93635"/><stop offset="1" stop-color="#b82525"/></linearGradient></defs><title>g</title><rect class="cls-1" x="-0.02" y="1.5" width="68" height="92" rx="12" ry="12"/><rect class="cls-2" x="-0.02" y="1.5" width="68" height="92" rx="12" ry="12"/><g class="cls-3"><path class="cls-4" d="M34,52a14.64,14.64,0,0,1-10.66-4.36A15.24,15.24,0,0,1,19.17,37a.71.71,0,1,1,1.42,0c0,7.89,5.63,13.62,13.39,13.62,7.59,0,13.31-6,13.31-13.89a.71.71,0,1,1,1.42,0C48.7,45.46,42.37,52,34,52Z"/></g><g class="cls-3"><path class="cls-4" d="M34,38.1c-11,0-25.76-1.91-33.8-11a.73.73,0,0,1,.05-1,.7.7,0,0,1,1,.06c6,6.79,17.63,10.54,32.74,10.54s26.74-3.74,32.74-10.54a.7.7,0,0,1,1-.06.73.73,0,0,1,.05,1C59.73,36.19,45,38.1,34,38.1Z"/></g><path class="cls-5" d="M34,36.67C23,36.67,8.25,35,.22,27.13a.73.73,0,0,1,0-1,.7.7,0,0,1,1,0C7.21,32,18.85,35.23,34,35.23S60.75,32,66.76,26.09a.7.7,0,0,1,1,0,.73.73,0,0,1,0,1C59.7,35,44.94,36.67,34,36.67Z"/><ellipse class="cls-6" cx="33.98" cy="35.39" rx="15" ry="15.22"/><ellipse class="cls-7" cx="33.98" cy="35.39" rx="13.33" ry="13.53"/><path class="cls-8" d="M40.08,27.74l-4.24,7.34h3.25v1.8H35.23V39h3.86v1.83H35.23V44h-2.4v-3.2h-4V39h4V36.89h-4v-1.8h3.35L28,27.74h2.65q2.84,5.46,3.43,6.89h.06a8.17,8.17,0,0,1,.63-1.54q.35-.63,2.8-5.36Z"/></svg>