<svg xmlns="http://www.w3.org/2000/svg" xmlns:xlink="http://www.w3.org/1999/xlink" viewBox="0 0 355.6 315"><defs><style>.cls-1,.cls-5{fill:none;}.cls-2{isolation:isolate;}.cls-3{opacity:0.2;mix-blend-mode:overlay;}.cls-4{clip-path:url(#clip-path);}.cls-5,.cls-9{stroke:#fff;}.cls-5,.cls-6,.cls-7,.cls-9{stroke-miterlimit:10;}.cls-5{stroke-width:2px;}.cls-12,.cls-6,.cls-7,.cls-8,.cls-9{fill:#cf2c21;}.cls-12,.cls-6{stroke:#30190e;}.cls-6{stroke-width:16px;}.cls-7{stroke:#ffce63;}.cls-7,.cls-9{stroke-width:10px;}.cls-10{fill:#1c2d4d;}.cls-11{fill:#fff;}.cls-12{stroke-linecap:round;stroke-linejoin:round;stroke-width:6px;}.cls-13{fill:url(#未命名漸層_393);}.cls-14{fill:url(#未命名漸層_393-2);}.cls-15{fill:url(#未命名漸層_393-3);}.cls-16{fill:url(#未命名漸層_403);}.cls-17{fill:url(#未命名漸層_403-2);}.cls-18{fill:url(#未命名漸層_403-3);}.cls-19{fill:url(#未命名漸層_403-4);}.cls-20{fill:url(#未命名漸層_403-5);}.cls-21{fill:url(#未命名漸層_403-6);}.cls-22{fill:url(#未命名漸層_403-7);}.cls-23{fill:url(#未命名漸層_383);}.cls-24{fill:url(#未命名漸層_393-4);}.cls-25{opacity:0.6;}.cls-26{fill:#603616;}.cls-27{fill:#edb62e;}.cls-28{fill:#f4cf8c;}.cls-29{fill:#e8af23;}.cls-30{fill:#ffe7b0;}</style><clipPath id="clip-path"><path class="cls-1" d="M314.44-136.83a45,45,0,0,0-45-45,44.87,44.87,0,0,0-34.94,16.67,44.87,44.87,0,0,0-34.94-16.67,44.87,44.87,0,0,0-34.55,16.19,44.87,44.87,0,0,0-34.55-16.19,44.89,44.89,0,0,0-36,18,44.89,44.89,0,0,0-36-18,45,45,0,0,0-45,45,45,45,0,0,0,45,45c1.39,0,2.77-.07,4.13-.2A44.75,44.75,0,0,0,55-67a45,45,0,0,0,45,45,44.89,44.89,0,0,0,36-18,44.89,44.89,0,0,0,36,18,44.87,44.87,0,0,0,34.55-16.19,44.86,44.86,0,0,0,34.55,16.19,45,45,0,0,0,45-45,44.74,44.74,0,0,0-8-25.64A45,45,0,0,0,314.44-136.83Z"/></clipPath><linearGradient id="未命名漸層_393" x1="-74.98" y1="320.33" x2="-4.02" y2="320.33" gradientTransform="translate(91.21 -28.3)" gradientUnits="userSpaceOnUse"><stop offset="0" stop-color="#d93635"/><stop offset="1" stop-color="#b82525"/></linearGradient><linearGradient id="未命名漸層_393-2" x1="-86.1" y1="281.22" x2="-26.41" y2="281.64" gradientTransform="translate(84.58 -27.73)" xlink:href="#未命名漸層_393"/><linearGradient id="未命名漸層_393-3" x1="-47.14" y1="222.97" x2="-39.09" y2="243.92" gradientTransform="translate(77.97 -27.16)" xlink:href="#未命名漸層_393"/><linearGradient id="未命名漸層_403" x1="-47.3" y1="233.79" x2="-38.88" y2="255.68" gradientTransform="translate(35.87 -30.34) rotate(-9.84)" gradientUnits="userSpaceOnUse"><stop offset="0" stop-color="#edbb40"/><stop offset="1" stop-color="#e0aa26"/></linearGradient><linearGradient id="未命名漸層_403-2" x1="-47.3" y1="294.12" x2="-38.88" y2="316.01" xlink:href="#未命名漸層_403"/><linearGradient id="未命名漸層_403-3" x1="-48.39" y1="223.3" x2="-38.82" y2="248.18" xlink:href="#未命名漸層_403"/><linearGradient id="未命名漸層_403-4" x1="-48.39" y1="298.84" x2="-38.82" y2="323.72" xlink:href="#未命名漸層_403"/><linearGradient id="未命名漸層_403-5" x1="-37.54" y1="230.7" x2="-23.35" y2="230.7" gradientTransform="translate(26.47 -29.17) rotate(-9.24)" xlink:href="#未命名漸層_403"/><linearGradient id="未命名漸層_403-6" x1="789.16" y1="-47.17" x2="803.35" y2="-47.17" gradientTransform="matrix(0.81, 0.58, -0.58, 0.81, -640.25, -223.59)" xlink:href="#未命名漸層_403"/><linearGradient id="未命名漸層_403-7" x1="-60.36" y1="291.64" x2="-20.47" y2="291.64" xlink:href="#未命名漸層_403"/><linearGradient id="未命名漸層_383" x1="332.33" y1="78.28" x2="332.33" y2="124.42" gradientTransform="translate(402.46 -71.91) rotate(90)" gradientUnits="userSpaceOnUse"><stop offset="0" stop-color="#c32827"/><stop offset="1" stop-color="#c83131"/></linearGradient><linearGradient id="未命名漸層_393-4" x1="290.25" y1="92.55" x2="367.9" y2="92.55" gradientTransform="translate(402.46 -71.91) rotate(90)" xlink:href="#未命名漸層_393"/></defs><title>g</title><g class="cls-2"><g id="c"><g class="cls-3"><g class="cls-4"><circle cx="-13.3" cy="-10.36" r="15.23"/><circle class="cls-5" cx="-13.3" cy="-10.36" r="15.23"/><circle cx="9.2" cy="-10.36" r="15.23"/><circle class="cls-5" cx="9.2" cy="-10.36" r="15.23"/><circle class="cls-5" cx="9.2" cy="-10.36" r="10.77"/><circle cx="31.7" cy="-10.36" r="15.23"/><circle class="cls-5" cx="31.7" cy="-10.36" r="15.23"/><circle class="cls-5" cx="31.7" cy="-10.36" r="10.77"/><circle cx="54.2" cy="-10.36" r="15.23"/><circle class="cls-5" cx="54.2" cy="-10.36" r="15.23"/><circle class="cls-5" cx="54.2" cy="-10.36" r="10.77"/><circle cx="76.7" cy="-10.36" r="15.23"/><circle class="cls-5" cx="76.7" cy="-10.36" r="15.23"/><circle class="cls-5" cx="76.7" cy="-10.36" r="10.77"/><circle cx="99.2" cy="-10.36" r="15.23"/><circle class="cls-5" cx="99.2" cy="-10.36" r="15.23"/><circle class="cls-5" cx="99.2" cy="-10.36" r="10.77"/><circle cx="121.7" cy="-10.36" r="15.23"/><circle class="cls-5" cx="121.7" cy="-10.36" r="15.23"/><circle class="cls-5" cx="121.7" cy="-10.36" r="10.77"/><circle cx="144.2" cy="-10.36" r="15.23"/><circle class="cls-5" cx="144.2" cy="-10.36" r="15.23"/><circle class="cls-5" cx="144.2" cy="-10.36" r="10.77"/><circle cx="166.71" cy="-10.36" r="15.23"/><circle class="cls-5" cx="166.71" cy="-10.36" r="15.23"/><circle class="cls-5" cx="166.71" cy="-10.36" r="10.77"/><circle cx="189.21" cy="-10.36" r="15.23"/><circle class="cls-5" cx="189.21" cy="-10.36" r="15.23"/><circle class="cls-5" cx="189.21" cy="-10.36" r="10.77"/><circle cx="210.42" cy="-10.36" r="15.23"/><circle class="cls-5" cx="210.42" cy="-10.36" r="15.23"/><circle class="cls-5" cx="210.42" cy="-10.36" r="10.77"/><circle cx="232.27" cy="-10.36" r="15.23"/><circle class="cls-5" cx="232.27" cy="-10.36" r="15.23"/><circle class="cls-5" cx="232.27" cy="-10.36" r="10.77"/><circle cx="257.22" cy="-10.36" r="15.23"/><circle class="cls-5" cx="257.22" cy="-10.36" r="15.23"/><circle class="cls-5" cx="257.22" cy="-10.36" r="10.77"/><circle cx="279.72" cy="-10.36" r="15.23"/><circle class="cls-5" cx="279.72" cy="-10.36" r="15.23"/><circle class="cls-5" cx="279.72" cy="-10.36" r="10.77"/><circle cx="302.22" cy="-10.36" r="15.23"/><circle class="cls-5" cx="302.22" cy="-10.36" r="15.23"/><circle class="cls-5" cx="302.22" cy="-10.36" r="10.77"/><circle cx="324.72" cy="-10.36" r="15.23"/><circle class="cls-5" cx="324.72" cy="-10.36" r="15.23"/><circle class="cls-5" cx="324.72" cy="-10.36" r="10.77"/><circle cx="347.22" cy="-10.36" r="15.23"/><circle class="cls-5" cx="347.22" cy="-10.36" r="15.23"/><circle class="cls-5" cx="347.22" cy="-10.36" r="10.77"/><circle cx="369.72" cy="-10.36" r="15.23"/><circle class="cls-5" cx="369.72" cy="-10.36" r="15.23"/></g></g><rect class="cls-6" x="30.09" y="54.75" width="293.35" height="211.85" rx="14.64" ry="14.64"/><rect class="cls-7" x="30.09" y="54.75" width="293.35" height="211.85" rx="14.64" ry="14.64"/><rect class="cls-8" x="30.09" y="54.75" width="293.35" height="211.85" rx="14.64" ry="14.64"/><rect class="cls-6" x="56.53" y="101.71" width="240.48" height="118.06" rx="10" ry="10"/><rect class="cls-9" x="56.53" y="101.71" width="240.48" height="118.06" rx="10" ry="10"/><rect class="cls-10" x="56.53" y="101.71" width="240.48" height="118.06" rx="10" ry="10"/><circle class="cls-6" cx="199.46" cy="41.82" r="33.34"/><circle class="cls-6" cx="243.85" cy="41.82" r="33.34"/><circle class="cls-6" cx="155.65" cy="41.82" r="33.34"/><circle class="cls-6" cx="109.68" cy="41.82" r="33.34"/><circle class="cls-7" cx="199.46" cy="41.82" r="33.34"/><circle class="cls-7" cx="243.85" cy="41.82" r="33.34"/><circle class="cls-7" cx="155.65" cy="41.82" r="33.34"/><circle class="cls-7" cx="109.68" cy="41.82" r="33.34"/><circle class="cls-8" cx="199.46" cy="41.82" r="33.34"/><circle class="cls-8" cx="243.85" cy="41.82" r="33.34"/><circle class="cls-8" cx="155.65" cy="41.82" r="33.34"/><circle class="cls-8" cx="109.68" cy="41.82" r="33.34"/><path class="cls-8" d="M243.85,8.48A33.21,33.21,0,0,0,221.65,17a33.31,33.31,0,0,0-44.1-.25,33.3,33.3,0,0,0-44.89,1,33.34,33.34,0,1,0,0,48.27,33.3,33.3,0,0,0,44.89,1,33.31,33.31,0,0,0,44.1-.25,33.33,33.33,0,1,0,22.19-58.2Z"/><path class="cls-11" d="M92,36.44a3.78,3.78,0,0,1,3.78,3.78v10a1.52,1.52,0,0,0,.22.83q2.17,3.61,8.38,3.87,3.69.17,7.69.17,6.08,0,12.9-.39h.17a1.9,1.9,0,0,1,1.56.78,2.14,2.14,0,0,1,.43,1.26,1.86,1.86,0,0,1-.13.65,4.69,4.69,0,0,1-1.52,2.28,4,4,0,0,1-2.43.93q-5.39.17-10.08.17t-8.6-.17a20.18,20.18,0,0,1-6.45-1.2,10.78,10.78,0,0,1-4.45-3.32.33.33,0,0,0-.56,0q-1.13,1.22-2.52,2.61a2.36,2.36,0,0,1-1.65.7,3.22,3.22,0,0,1-.52,0,2.38,2.38,0,0,1-1.78-1.39,4,4,0,0,1-.39-1.74,4.28,4.28,0,0,1,.13-1,4,4,0,0,1,1.56-2.3q.91-.69,1.69-1.35a.83.83,0,0,0,.35-.7v-8a.38.38,0,0,0-.43-.43h-.74a3,3,0,0,1,0-6Zm2.3-11.73A2.77,2.77,0,0,1,95,26.44a2.87,2.87,0,0,1-.09.69,3.21,3.21,0,0,1-1.48,2.09,2.86,2.86,0,0,1-1.61.52,2.45,2.45,0,0,1-.78-.13,3.39,3.39,0,0,1-2-1.43q-.83-1.22-1.91-2.56A2.53,2.53,0,0,1,86.45,24v-.43a2.4,2.4,0,0,1,1.17-1.78,3.53,3.53,0,0,1,2-.61,3,3,0,0,1,.48,0,3.47,3.47,0,0,1,2.17,1.13Q93.45,23.58,94.32,24.71Zm5.47,10.12V30.44q0-.35-.3-.35h-.13a2.61,2.61,0,1,1,0-5.21h1.74a.38.38,0,0,0,.43-.43V22.19a3,3,0,1,1,6,0v2.26q0,.44.39.43h1.78a1.91,1.91,0,0,1,1.37.57,1.85,1.85,0,0,1,.59,1.39c.06,0,.09,0,.09,0a26.69,26.69,0,0,0,2.39-5.26,3,3,0,0,1,1.3-1.69,2.89,2.89,0,0,1,1.43-.39,2.85,2.85,0,0,1,2.35,1.3,2.43,2.43,0,0,1,.35,1.22,2.46,2.46,0,0,1-.13.78l-.09.26a.27.27,0,0,0,0,.24.21.21,0,0,0,.2.11h4.78A2.59,2.59,0,0,1,126.9,26a2.59,2.59,0,0,1-.76,1.87,2.48,2.48,0,0,1-1.85.78h-6.91a.72.72,0,0,0-.65.35,11.88,11.88,0,0,1-.74,1.26.33.33,0,0,0,0,.26.21.21,0,0,0,.2.13h6.43a.48.48,0,0,0,.22,0,2.22,2.22,0,0,1,.61-.09,2,2,0,0,1,1.17.39l.83.65a2.22,2.22,0,0,1,.87,1.39,2.27,2.27,0,0,1,0,.43,2.21,2.21,0,0,1-.35,1.17,45.49,45.49,0,0,1-3.08,4.21.21.21,0,0,0,.17.35h1.52a2.52,2.52,0,0,1,0,5H122.9a.38.38,0,0,0-.43.43v3.65a9.06,9.06,0,0,1-.41,3.06A3.18,3.18,0,0,1,120.51,53a8.67,8.67,0,0,1-3.21.83H117a2.87,2.87,0,0,1-1.82-.65,4.18,4.18,0,0,1-1.35-2,2,2,0,0,1-.13-.7,1.86,1.86,0,0,1,.35-1,1.72,1.72,0,0,1,1.48-.83h.83a1,1,0,0,0,.54-.11.48.48,0,0,0,.15-.41V44.6a.38.38,0,0,0-.43-.43h-1.39a2.52,2.52,0,0,1,0-5h1.61a.19.19,0,0,0,.22-.22v-.48A1.41,1.41,0,0,1,118.47,37a.29.29,0,0,0,.26-.13q.52-.82.74-1.22a.24.24,0,0,0-.22-.39H117a3.41,3.41,0,0,1-3.39-3.39.82.82,0,0,0-.3-.65q-.69-.61-1.74-1.43c0,.2-.12.3-.35.3h-5.86a.38.38,0,0,0-.43.43v1.61a.38.38,0,0,0,.43.43h2.74a3.63,3.63,0,0,1,3.69,3.69q0,6.17-.43,11.56a10.41,10.41,0,0,1-1,4.34A4.1,4.1,0,0,1,107.65,54a.81.81,0,0,1-.26,0,2.19,2.19,0,0,1-.61.09,3.12,3.12,0,0,1-2.08-.83,5.87,5.87,0,0,1-1.82-2.74q-.13-.39-.26-.74a.18.18,0,0,0-.35,0,18.84,18.84,0,0,1-1,1.83,1.9,1.9,0,0,1-1.61.83,2.41,2.41,0,0,1-1.76-.76A3.09,3.09,0,0,1,97,49.82v-.39a3.65,3.65,0,0,1,.39-1.65Q99.79,43.3,99.79,34.83Zm6.65,3.3a.45.45,0,0,0-.43-.43h-.65a.38.38,0,0,0-.43.43,33.67,33.67,0,0,1-2.17,10.64.28.28,0,0,0,0,.3.42.42,0,0,0,.26.17q.65,0,1.56,0a1.31,1.31,0,0,0,1.13-.65Q106.26,47.73,106.44,38.13Z"/><path class="cls-11" d="M167.56,39a2.36,2.36,0,0,1,1.35-1.39,2,2,0,0,1,.83-.17,2.31,2.31,0,0,1,1,.26,3.37,3.37,0,0,1,1.48,1.69,3.14,3.14,0,0,1,.22,1.13,3.3,3.3,0,0,1-.17,1,47.05,47.05,0,0,1-4.61,9.38.94.94,0,0,0-.09.78q.65,1.91,1.35,2t.87-2.52a1.19,1.19,0,0,1,.87-1.09,1.44,1.44,0,0,1,.56-.13,1.4,1.4,0,0,1,.87.35,5.6,5.6,0,0,1,1.56,2,4,4,0,0,1,.3,1.52,5.12,5.12,0,0,1-.09.91,12.48,12.48,0,0,1-2.26,5,3.87,3.87,0,0,1-2.74,1.39h0q-3.26-.13-5.39-4.13a.24.24,0,0,0-.22-.2A.25.25,0,0,0,163,57a30.46,30.46,0,0,1-2.87,2.69,2.93,2.93,0,0,1-1.65.52h-.39a3.19,3.19,0,0,1-1.91-1,.59.59,0,0,0-.52-.17q-7.86.87-14.94,1.61a.84.84,0,0,1-.26,0A2.24,2.24,0,0,1,139,60.2a2.32,2.32,0,0,1-.91-1.56,2.07,2.07,0,0,1,.15-1.15,2.09,2.09,0,0,1,.74-.89,2.54,2.54,0,0,1,1.11-.43c.2,0,.51,0,.91-.07l.78-.07q.43,0,.35-.43-.13-.65-.35-1.39a4.24,4.24,0,0,1,0-.61,2.31,2.31,0,0,1,.26-1,1.86,1.86,0,0,1,1.3-.91v0h-.13a3.34,3.34,0,0,1-3.3-3.3v-.13a3.35,3.35,0,0,1,1-2.46,3.3,3.3,0,0,1,2.41-1h9a3.45,3.45,0,1,1,0,6.91h-.17s0,0,0,0,0,0,0,0a1.59,1.59,0,0,1,1.26.83,1.68,1.68,0,0,1,.26.87,1.55,1.55,0,0,1-.17.7,6.31,6.31,0,0,1-.26.61.15.15,0,0,0,0,.17.23.23,0,0,0,.2.09l3.17-.3c.09,0,.13,0,.13.09a26,26,0,0,0,4.17-4,.87.87,0,0,0,.22-.78,100,100,0,0,1-1.61-12.55q0-.35-.35-.3h-.13a2.19,2.19,0,0,1-.43,0,2.84,2.84,0,0,1-1.69-.56,2.92,2.92,0,0,1-1.09-1.91.46.46,0,0,0-.39-.39l-2.87-.39s-.05,0-.06,0a.09.09,0,0,0,0,.07.59.59,0,0,1-.13.5.76.76,0,0,1-.48.24L147,35q-.48,0-.43.48a.82.82,0,0,0,.26.63,1.79,1.79,0,0,0,.91.15h3.17a1,1,0,0,0,.83-.3q.56-.74,1.17-.48l.87.26a2.15,2.15,0,0,1,1.19.93,1.13,1.13,0,0,1,0,1.28q-.83,1.35-3.52,1.35h-4.39a6.91,6.91,0,0,1-3.8-.74,3.48,3.48,0,0,1-1.11-2.82q0-.3-.3-.26l-.91,0a1.46,1.46,0,0,1-1.17-.35,1.66,1.66,0,0,1-.61-1.09,1.49,1.49,0,0,1,1.39-1.69l1.26-.13a.32.32,0,0,0,.3-.35v-1a.38.38,0,0,0-.43-.43h-2.52a.38.38,0,0,0-.43.43v8.82a.38.38,0,0,0,.43.43h16.16a1.75,1.75,0,0,1,1.28.54,1.84,1.84,0,0,1,0,2.61,1.75,1.75,0,0,1-1.28.54H140.67a2,2,0,0,1-2-2q-.3,10.51-2.52,16.85a1.64,1.64,0,0,1-1.3,1.13,2.25,2.25,0,0,1-.43,0,1.86,1.86,0,0,1-1.3-.52,4.06,4.06,0,0,1-1.3-1.87,4,4,0,0,1-.17-1.17,3.68,3.68,0,0,1,.17-1.09q1.74-5.73,1.74-16.81V30.14a3.78,3.78,0,0,1,3.78-3.78h3.87a.38.38,0,0,0,.43-.43V22.19a2.91,2.91,0,0,1,.87-2.11,2.86,2.86,0,0,1,2.13-.89h1.22a1.65,1.65,0,0,1,1.24.52,1.76,1.76,0,0,1,.5,1.26.19.19,0,0,0,.22.22h6.82a2,2,0,0,1,0,4H148a.38.38,0,0,0-.43.43v.3a.38.38,0,0,0,.43.43h4.3a26.61,26.61,0,0,1,3.78.17,1.79,1.79,0,0,1,1.22.74,1.74,1.74,0,0,1,.35,1,2.07,2.07,0,0,1,0,.39q-.26,1.35-.52,2.43a.28.28,0,0,0,.07.28.33.33,0,0,0,.24.11l1.39-.22a.41.41,0,0,0,.39-.48q-.26-5.91-.26-8.56a2.89,2.89,0,0,1,2.89-2.87,2.9,2.9,0,0,1,2.11.85,2.82,2.82,0,0,1,.87,2.11q0,3.69.17,7.69a.33.33,0,0,0,.15.28.38.38,0,0,0,.33.07l4.56-.61h.43a2.65,2.65,0,0,1,1.65.56,2.71,2.71,0,0,1,1.09,1.91,1.59,1.59,0,0,1,0,.39,2.71,2.71,0,0,1-.61,1.69,2.76,2.76,0,0,1-1.87,1.09l-5,.65a.43.43,0,0,0-.39.52q.17,2.74.52,5.86a.1.1,0,0,0,.09.11.11.11,0,0,0,.13-.07A33,33,0,0,0,167.56,39ZM149.18,52a.31.31,0,0,0,0-.28.32.32,0,0,0-.26-.11h-3a.22.22,0,0,0-.2.11.28.28,0,0,0,0,.24l.35.87a2.34,2.34,0,0,1,.13.74,2,2,0,0,1-.35,1.13,2.39,2.39,0,0,1-1.61,1.13v0l4.6-.48a.47.47,0,0,1-.33-.22.52.52,0,0,1-.07-.39Q148.83,53.29,149.18,52Zm-4.13-4.52a.38.38,0,0,0-.43.43v.48a.38.38,0,0,0,.43.43h5.3a.38.38,0,0,0,.43-.43V47.9a.38.38,0,0,0-.43-.43ZM147,30.4a.38.38,0,0,0-.43.43v.56a.41.41,0,0,0,.13.3.3.3,0,0,0,.3.09l4.69-.35a.48.48,0,0,0,.48-.48l0-.17a.28.28,0,0,0-.07-.28.38.38,0,0,0-.28-.11Zm25.41-6.21a2.7,2.7,0,0,1,.3,1.22,3.17,3.17,0,0,1-.17,1A3.11,3.11,0,0,1,171,28.1a2.4,2.4,0,0,1-1.09.26,2.32,2.32,0,0,1-.87-.17,2.5,2.5,0,0,1-1.43-1.43q-.52-1.13-1.17-2.43a2.44,2.44,0,0,1-.3-1.17,3.56,3.56,0,0,1,.09-.78,2.36,2.36,0,0,1,1.26-1.48,2.88,2.88,0,0,1,1.3-.3,2.34,2.34,0,0,1,.74.13,2.53,2.53,0,0,1,1.65,1.22Q171.86,23.1,172.38,24.19Z"/><path class="cls-11" d="M219.19,25.53a2.94,2.94,0,0,1,0,4.13,2.77,2.77,0,0,1-2.06.87h-6a.38.38,0,0,0-.43.43v3a.38.38,0,0,0,.43.43h5a2.83,2.83,0,0,1,2,.85,2.88,2.88,0,0,1,0,4.13,2.83,2.83,0,0,1-2,.85H196.7a.23.23,0,0,0-.2.09.23.23,0,0,0,0,.22.18.18,0,0,1,0,.13,2.45,2.45,0,0,1,.17.91,2.7,2.7,0,0,1-.3,1.22,3,3,0,0,1-1.56,1.52l-.56.26a1.48,1.48,0,0,1-.65.17,1.36,1.36,0,0,1-.74-.22,1.55,1.55,0,0,1-.91-1.09q-.09-.26-.3-.22l-1.09.09a.38.38,0,0,0-.43.43V46.3a.29.29,0,0,0,.13.26.36.36,0,0,0,.3,0,3.72,3.72,0,0,1,1.26-.22,3.82,3.82,0,0,1,1.65.39,3.71,3.71,0,0,1,2,2.17q.43,1.22.78,2.3a2.87,2.87,0,0,1,.13.83,2.5,2.5,0,0,1-.35,1.26,2.83,2.83,0,0,1-1.56,1.39,2.22,2.22,0,0,1-.83.17,2.12,2.12,0,0,1-1.09-.3,2.54,2.54,0,0,1-1.22-1.52q-.44-1.61-1-3.48s0,0-.07,0-.07,0-.07.09v9a2.82,2.82,0,0,1-2.82,2.82,2.8,2.8,0,0,1-2-.83,2.69,2.69,0,0,1-.85-2V48.12s0,0,0,0,0,0,0,0a47,47,0,0,1-1.48,7.69,2.08,2.08,0,0,1-1.3,1.39,2.34,2.34,0,0,1-.87.17,2.41,2.41,0,0,1-1.09-.26,2.84,2.84,0,0,1-1.43-1.52,3.18,3.18,0,0,1-.26-1.26,4.17,4.17,0,0,1,.09-.83,30.63,30.63,0,0,0,.78-4,3.55,3.55,0,0,1,1.43-2.43,3.41,3.41,0,0,1,2-.7,5.39,5.39,0,0,1,.65,0l1,.22a.46.46,0,0,0,.3-.11.35.35,0,0,0,.13-.28v-2a.45.45,0,0,0-.43-.43L181,44a.71.71,0,0,1-.22,0,2.66,2.66,0,0,1-1.83-.7,2.61,2.61,0,0,1-1-1.91,1,1,0,0,1,0-.3,2.49,2.49,0,0,1,.65-1.69,2.69,2.69,0,0,1,1.91-.87l.35,0a.78.78,0,0,0,.61-.3l1-1.43a.57.57,0,0,0,0-.7,33,33,0,0,0-3-3.69,3.23,3.23,0,0,1-.91-2,1.41,1.41,0,0,1,0-.35,3.09,3.09,0,0,1,.57-1.78l.91-1.39a.81.81,0,0,1,.63-.39.91.91,0,0,1,.72.22c.09.06.14,0,.17,0q1-2.26,1.87-4.52A2.93,2.93,0,0,1,185,20.41a2.74,2.74,0,0,1,1.3-.35,3.17,3.17,0,0,1,1,.17,2.48,2.48,0,0,1,1.52,1.48,2.3,2.3,0,0,1,.22,1,2.71,2.71,0,0,1-.3,1.22q-2.21,4-3.43,6.08a.5.5,0,0,0,0,.7,1.33,1.33,0,0,0,.17.24l.22.24a.28.28,0,0,0,.48,0q1.22-2.08,2.22-3.87a3.07,3.07,0,0,1,1.74-1.56,3.43,3.43,0,0,1,1.09-.17,3.24,3.24,0,0,1,1.17.22,2.22,2.22,0,0,1,1.39,1.52,2.17,2.17,0,0,1-.3,2q-2.21,3.3-4,5.78c-.06.06-.06.11,0,.15a.12.12,0,0,0,.15,0l.26-.13a4.22,4.22,0,0,1,1.65-.35,4.52,4.52,0,0,1,1.35.22,3.87,3.87,0,0,1,2.22,2q.61,1.35,1.13,2.65c0,.06.07.08.11.07s.06,0,.06-.07V38.17a3.78,3.78,0,0,1,3.78-3.78h3.56a.38.38,0,0,0,.43-.43V31a.38.38,0,0,0-.43-.43h-5.6a2.77,2.77,0,0,1-2.06-.87,2.94,2.94,0,0,1,0-4.13,2.77,2.77,0,0,1,2.06-.87h5.6a.38.38,0,0,0,.43-.43V22.49a3.21,3.21,0,0,1,1-2.32,3.25,3.25,0,0,1,4.65,0,3.21,3.21,0,0,1,1,2.32v1.74a.38.38,0,0,0,.43.43h6A2.78,2.78,0,0,1,219.19,25.53ZM187.24,38a.15.15,0,0,0,0,.2.18.18,0,0,0,.15.11l2.22-.09a.29.29,0,0,0,.26-.13.29.29,0,0,0,0-.3q-.39-.91-.74-1.61a.19.19,0,0,0-.2-.13.32.32,0,0,0-.24.09Zm13.42,23.46a3,3,0,0,1-3-3V47.17a3.62,3.62,0,0,1,1.11-2.69,3.68,3.68,0,0,1,2.67-1.09h12.86A3.68,3.68,0,0,1,217,44.47a3.62,3.62,0,0,1,1.11,2.69V58.33A3.11,3.11,0,0,1,215,61.41h-1.61a1.48,1.48,0,0,1-1.52-1.52.15.15,0,0,0-.17-.17h-7.91c-.15,0-.22.06-.22.17a1.48,1.48,0,0,1-.43,1.09,1.42,1.42,0,0,1-1,.43Zm11.25-11.86a.38.38,0,0,0-.43-.43H204a.38.38,0,0,0-.43.43v4A.38.38,0,0,0,204,54h7.43a.38.38,0,0,0,.43-.43Z"/><path class="cls-11" d="M262.17,43.13a3.78,3.78,0,0,1-3.78,3.78h-5.52a.17.17,0,0,0-.17.11.17.17,0,0,0,0,.2A42,42,0,0,0,263,53.64a2.5,2.5,0,0,1,1.48,1.82,2.22,2.22,0,0,1,.09.61,2.43,2.43,0,0,1-.65,1.65,4.53,4.53,0,0,1-2.52,1.69,4.29,4.29,0,0,1-1,.13,4,4,0,0,1-1.87-.48,44.39,44.39,0,0,1-9.6-7.38.18.18,0,0,0-.3.13v6.26a3.24,3.24,0,0,1-1,2.41,3.41,3.41,0,0,1-4.78,0,3.24,3.24,0,0,1-1-2.41V52.16a.18.18,0,0,0-.3-.13,44,44,0,0,1-9.73,7.08,3.91,3.91,0,0,1-1.83.48,3.3,3.3,0,0,1-1-.17,4.7,4.7,0,0,1-2.43-1.61,2.31,2.31,0,0,1-.61-1.56,2.19,2.19,0,0,1,.09-.61,2.36,2.36,0,0,1,1.43-1.74A39.12,39.12,0,0,0,238,47.21a.18.18,0,0,0-.13-.3h-5.17a3.78,3.78,0,0,1-3.78-3.78V35.48a3.78,3.78,0,0,1,3.78-3.78h8.73a.38.38,0,0,0,.43-.43V29.4a.38.38,0,0,0-.43-.43H229.07a3,3,0,0,1-3-3A2.8,2.8,0,0,1,227,23.9a2.88,2.88,0,0,1,2.08-.85h12.38q.39,0,.39-.43v0a3.39,3.39,0,0,1,6.78,0v0q0,.44.39.43h12.6a2.89,2.89,0,0,1,3,2.93,2.9,2.9,0,0,1-.85,2.11,2.82,2.82,0,0,1-2.11.87H249.05a.38.38,0,0,0-.43.43v1.87a.38.38,0,0,0,.43.43h9.34a3.78,3.78,0,0,1,3.78,3.78Zm-26.54-5.78a.38.38,0,0,0-.43.43v3a.38.38,0,0,0,.43.43h5.78a.38.38,0,0,0,.43-.43v-3a.38.38,0,0,0-.43-.43Zm19.9.43a.38.38,0,0,0-.43-.43h-6a.38.38,0,0,0-.43.43v3a.38.38,0,0,0,.43.43h6a.38.38,0,0,0,.43-.43Z"/><path class="cls-12" d="M75.1,219.27h0l-1.67-9.64c-.58-3.34-16.7-3.34-36,0l-.29.05A5.86,5.86,0,0,1,36,208.4l2.94,1-1-2.77,2.23-.33L37.8,204l2.43-3.28-3.28.06.47-2.82-3,1.61-2-2.8-.84,2.73L28.65,198l.71,4-3.14,1,1.85,1.29L26,206.34l4.29.61,0,3.85,1.84-1.38.56,1.12c-17,3.36-29.64,8.17-29.11,11.23l1.19,6.85h0l.53,3.08L5.65,234h0l9.86,56.81h0l.07.4.86,4.95h0L17.62,303c.58,3.34,16.7,3.34,36,0s34.49-8.78,33.91-12.12L86.67,286h0l0-.11-.78-4.5h0l-.39-2.24L75.15,219.56ZM34.29,209a6,6,0,0,0,.83,1l-1.47.28Z"/><ellipse class="cls-13" cx="51.72" cy="292.02" rx="35.48" ry="6.15" transform="translate(-49.16 13.14) rotate(-9.84)"/><rect class="cls-14" x="9.61" y="215.12" width="70.96" height="77.39" transform="translate(-42.73 11.44) rotate(-9.84)"/><ellipse class="cls-15" cx="38.47" cy="215.69" rx="35.48" ry="6.15" transform="translate(-36.31 9.75) rotate(-9.84)"/><path class="cls-16" d="M75.1,219.27c.58,3.34-14.6,8.77-33.91,12.12s-35.43,3.35-36,0L5.65,234c.58,3.34,16.7,3.34,36,0s34.49-8.78,33.91-12.12"/><path class="cls-17" d="M85.42,278.71c.58,3.34-14.6,8.77-33.91,12.12s-35.43,3.35-36,0l.46,2.63c.58,3.34,16.7,3.34,36,0s34.49-8.78,33.91-12.12"/><path class="cls-18" d="M73.43,209.63c.58,3.34-14.6,8.77-33.91,12.12s-35.43,3.35-36,0l1.19,6.85c.58,3.34,16.7,3.34,36,0s34.49-8.78,33.91-12.12"/><path class="cls-19" d="M86.34,284.05c.58,3.34-14.6,8.77-33.91,12.12s-35.43,3.35-36,0L17.62,303c.58,3.34,16.7,3.34,36,0s34.49-8.78,33.91-12.12"/><path d="M38.85,218.52a1,1,0,0,1-.86-.22c-.27-.28-.14-.69.27-.92a2.8,2.8,0,0,0,1.52-2.06,3,3,0,0,0-1.52-2.91c-3.37-2.11-6.39-4.49-3.13-8.29a1.16,1.16,0,0,1,1.24-.28.53.53,0,0,1,.24.88c-2.28,2.66-.82,4.33,2.89,6.65a4.05,4.05,0,0,1,2,3.93,4.24,4.24,0,0,1-2.33,3.09A1.2,1.2,0,0,1,38.85,218.52Z"/><polygon class="cls-20" points="32.39 196.76 35.27 200.8 40.23 200.71 37.28 204.7 38.89 209.38 34.19 207.81 30.23 210.79 30.27 205.84 26.21 202.99 30.94 201.5 32.39 196.76"/><polygon class="cls-21" points="37.42 197.95 36.6 202.84 40.17 206.28 35.27 207.01 33.09 211.47 30.88 207.03 25.97 206.34 29.51 202.87 28.65 197.98 33.04 200.27 37.42 197.95"/><path class="cls-22" d="M42.64,266.56a.07.07,0,0,0,.09,0,.07.07,0,0,0,0-.07,1.14,1.14,0,0,1,.2-.87,1.11,1.11,0,0,1,.79-.48,129.45,129.45,0,0,0,19.12-4.73,2.11,2.11,0,0,1,1.82.13,2,2,0,0,1,1,1.49l2.53,14.56a3.12,3.12,0,0,1-2,3.36l-1,.35a1.21,1.21,0,0,1-1.06-.1,1.26,1.26,0,0,1-.59-.92c0-.11-.1-.15-.23-.1-4.23,1.27-8.44,2.34-12.77,3.22a.19.19,0,0,0-.17.25,1.49,1.49,0,0,1-.24,1.11,1.42,1.42,0,0,1-1,.63l-.85.14a2.33,2.33,0,0,1-1.8-.44,2.37,2.37,0,0,1-1-1.57l-2.31-13.3a.11.11,0,0,0-.1-.09.13.13,0,0,0-.12,0l-.25.55a1.7,1.7,0,0,1-1.41,1,2,2,0,0,1-1.66-.55c-.59-.54-1.21-1.08-1.85-1.62a.14.14,0,0,0-.13,0,.09.09,0,0,0-.07.11l2.51,14.48a2.24,2.24,0,0,1-2.1,2.68H38a2.91,2.91,0,0,1-3-2.36l-2-11.52a.16.16,0,0,0-.11-.12c-.06,0-.11,0-.13,0a24.47,24.47,0,0,1-1.87,2,1.59,1.59,0,0,1-1.06.39,2.18,2.18,0,0,1-.58-.08,2.44,2.44,0,0,1-1.49-1.15,3.66,3.66,0,0,1-.29-.42,3.21,3.21,0,0,1-.52-1.27,2.64,2.64,0,0,1,0-.67,2.18,2.18,0,0,1,.76-1.59c3.47-3,5.44-6.62,7.15-10.75a.18.18,0,0,0,0-.17.19.19,0,0,0-.19-.07c-2.75.21-4.13.27-6.89.3a2.69,2.69,0,0,1-1.8-.67,2.72,2.72,0,0,1-1-1.65,1.9,1.9,0,0,1,.41-1.64,2,2,0,0,1,1.57-.68c1,0,1.55,0,2.59-.06.2,0,.28-.11.25-.31l-.89-5.15a2.11,2.11,0,0,1,.45-1.8,2.25,2.25,0,0,1,1.66-.82H31a2.8,2.8,0,0,1,1.91.59A2.63,2.63,0,0,1,34,247.78l.89,5.15a.29.29,0,0,0,.35.27l1.37-.13.21,0a1.62,1.62,0,0,1,.5-.14,2,2,0,0,1,1.09.22l.8.33a2.52,2.52,0,0,1,1,1,2.86,2.86,0,0,1,.2.66,2.26,2.26,0,0,1,0,.74A41.46,41.46,0,0,1,38,263.31a.34.34,0,0,0,.12.46C39.4,264.51,40.9,265.44,42.64,266.56ZM40.29,250a2.17,2.17,0,0,1-.9-1.43,2,2,0,0,1,.38-1.61,2.1,2.1,0,0,1,1.42-.86A129.48,129.48,0,0,0,60,241.34a1.82,1.82,0,0,1,1.57.1,1.74,1.74,0,0,1,.87,1.29,2.72,2.72,0,0,1-1.7,2.91,129.49,129.49,0,0,1-18.85,4.78A2.14,2.14,0,0,1,40.29,250Zm2.61,4.72a2.4,2.4,0,0,1,.44-1.87,2.49,2.49,0,0,1,1.63-1,106.11,106.11,0,0,0,13.85-3.53,2.14,2.14,0,0,1,1.83.17,2.05,2.05,0,0,1,1,1.5l1,5.83a3,3,0,0,1-2,3.31,106.08,106.08,0,0,1-13.85,3.53,2.52,2.52,0,0,1-2.93-2.06Zm9.43,13.35a.29.29,0,0,0-.39-.26c-1.44.33-2.17.48-3.62.75a.31.31,0,0,0-.28.4l.39,2.24c0,.2.16.27.39.23,1.45-.27,2.18-.42,3.62-.75q.34-.08.28-.37Zm-2.85,7.2a.31.31,0,0,0-.28.4l.4,2.28a.3.3,0,0,0,.4.27c1.45-.27,2.18-.42,3.62-.75a.32.32,0,0,0,.28-.41l-.4-2.28a.29.29,0,0,0-.39-.26C51.66,274.87,50.93,275,49.48,275.29Zm8-19.24a.35.35,0,0,0,.27-.44l-.42-2.45a.27.27,0,0,0-.39-.24c-2.92.89-5.93,1.66-8.93,2.27q-.3.06-.24.4l.42,2.45q.06.34.35.28C51.54,257.71,54.55,256.95,57.47,256.05Zm3.86,12.24q.33-.1.28-.4l-.39-2.24q-.06-.34-.39-.23c-1.48.47-2.22.69-3.72,1.11a.34.34,0,0,0-.27.43l.39,2.24c0,.2.16.27.38.2C59.11,269,59.85,268.76,61.33,268.29Zm-2.93,7.66a.27.27,0,0,0,.39.25c1.49-.42,2.24-.64,3.72-1.11a.35.35,0,0,0,.27-.44l-.4-2.28q-.06-.34-.39-.23c-1.48.47-2.22.69-3.72,1.11a.34.34,0,0,0-.27.43Z"/><rect class="cls-12" x="275.4" y="213.73" width="69.02" height="93.38" rx="8" ry="8" transform="translate(60.83 -58.67) rotate(11.98)"/><rect class="cls-23" x="263.22" y="225.91" width="93.38" height="69.02" rx="8" ry="8" transform="translate(-9.18 509.5) rotate(-78.02)"/><rect class="cls-24" x="263.22" y="225.91" width="93.38" height="69.02" rx="8" ry="8" transform="translate(-9.18 509.5) rotate(-78.02)"/><g class="cls-25"><path class="cls-26" d="M308.95,264.94a14.86,14.86,0,0,1-9.67-6.57,15.47,15.47,0,0,1-1.86-11.49.72.72,0,1,1,1.41.3c-1.66,7.83,2.72,14.71,10.43,16.34,7.53,1.6,14.47-3.12,16.14-11a.72.72,0,1,1,1.41.3C325,261.5,317.28,266.7,308.95,264.94Z"/></g><g class="cls-25"><path class="cls-26" d="M311.89,251.09c-10.9-2.31-25.17-7.32-31.23-18.06a.74.74,0,0,1,.27-1,.71.71,0,0,1,1,.27c4.53,8,15.28,14.18,30.29,17.36s27.34,1.92,34.73-3.56a.71.71,0,0,1,1,.16.74.74,0,0,1-.16,1C337.86,254.62,322.79,253.41,311.89,251.09Z"/></g><path class="cls-27" d="M312.19,249.67c-10.89-2.31-25.19-7.07-31.51-16.59a.74.74,0,0,1,.2-1,.71.71,0,0,1,1,.19c4.72,7.12,15.59,12.79,30.62,16s27.26,2.42,34.47-2.17a.71.71,0,0,1,1,.23.74.74,0,0,1-.23,1C338.08,253.45,323.08,252,312.19,249.67Z"/><ellipse class="cls-28" cx="312.46" cy="248.4" rx="15.45" ry="15.22" transform="translate(4.6 502.47) rotate(-78.02)"/><ellipse class="cls-29" cx="312.46" cy="248.4" rx="13.73" ry="13.53" transform="translate(4.6 502.47) rotate(-78.02)"/><path class="cls-30" d="M320.13,242.09l-5.76,6.4,3.22.68-.38,1.79-3.83-.81L313,252.2l3.83.81-.38,1.81-3.83-.81-.67,3.18-2.38-.51.67-3.18-4-.84.38-1.81,4,.84.44-2.05-4-.84.38-1.79,3.33.71-2.6-8.17,2.63.56q1.67,6,2,7.57h.06a8.29,8.29,0,0,1,1-1.39q.48-.56,3.91-4.73Z"/></g></g></svg>