<svg xmlns="http://www.w3.org/2000/svg" xmlns:xlink="http://www.w3.org/1999/xlink" viewBox="0 0 48 48"><defs><style>.cls-1{fill:none;}.cls-2{isolation:isolate;}.cls-3{fill:#36b36c;}.cls-4{clip-path:url(#clip-path);}.cls-5{opacity:0.3;mix-blend-mode:overlay;}.cls-6{fill:#fd0;}</style><clipPath id="clip-path"><circle class="cls-1" cx="24" cy="24" r="23.41"/></clipPath></defs><title>g</title><g class="cls-2"><g id="c"><circle class="cls-3" cx="24" cy="24" r="23.41"/><g class="cls-4"><polygon class="cls-5" points="24.52 7.28 48.51 21.17 46.67 36.26 33.54 47.59 15.17 38.88 24.52 7.28"/></g><path class="cls-6" d="M25.94,8.29c1.25,2,2.6,4.3,3.92,6.8a2.31,2.31,0,0,0,1.64,1.2c2.67.47,5.19,1,7.35,1.5a2.29,2.29,0,0,1,1.25,3.67c-1.5,1.85-3.23,3.86-5.17,5.91a2.32,2.32,0,0,0-.62,1.88c.32,2.56.56,5,.73,7.15a2.3,2.3,0,0,1-3.18,2.3c-2.18-.92-4.46-1.86-6.91-3a2.32,2.32,0,0,0-1.9,0c-2.45,1.1-4.74,2-6.91,3A2.3,2.3,0,0,1,13,36.39c.17-2.19.41-4.59.73-7.15a2.32,2.32,0,0,0-.62-1.88c-1.94-2-3.68-4.05-5.17-5.91a2.29,2.29,0,0,1,1.25-3.67c2.17-.52,4.69-1,7.35-1.5a2.31,2.31,0,0,0,1.64-1.2c1.32-2.49,2.67-4.83,3.92-6.8A2.3,2.3,0,0,1,25.94,8.29Z"/></g></g></svg>